<svg width="24" height="25" viewBox="0 0 24 25" fill="none" xmlns="http://www.w3.org/2000/svg">
<path d="M23.7609 7.59556C23.7609 7.59556 23.5266 5.94087 22.8047 5.21431C21.8906 4.25806 20.8688 4.25337 20.4 4.19712C17.0438 3.95337 12.0047 3.95337 12.0047 3.95337H11.9953C11.9953 3.95337 6.95625 3.95337 3.6 4.19712C3.13125 4.25337 2.10938 4.25806 1.19531 5.21431C0.473438 5.94087 0.24375 7.59556 0.24375 7.59556C0.24375 7.59556 0 9.54087 0 11.4815V13.3002C0 15.2409 0.239062 17.1862 0.239062 17.1862C0.239062 17.1862 0.473437 18.8409 1.19062 19.5674C2.10469 20.5237 3.30469 20.4909 3.83906 20.594C5.76094 20.7768 12 20.8331 12 20.8331C12 20.8331 17.0438 20.8237 20.4 20.5846C20.8688 20.5284 21.8906 20.5237 22.8047 19.5674C23.5266 18.8409 23.7609 17.1862 23.7609 17.1862C23.7609 17.1862 24 15.2456 24 13.3002V11.4815C24 9.54087 23.7609 7.59556 23.7609 7.59556ZM9.52031 15.5081V8.76274L16.0031 12.1471L9.52031 15.5081Z" fill="#828282"/>
</svg>
