<svg width="16" height="16" viewBox="0 0 16 16" fill="none" xmlns="http://www.w3.org/2000/svg">
<g id="31 location">
<path id="Vector" d="M8 4.72727C7.56848 4.72727 7.14665 4.85523 6.78785 5.09497C6.42905 5.33472 6.1494 5.67547 5.98426 6.07414C5.81913 6.47282 5.77592 6.91151 5.86011 7.33474C5.94429 7.75797 6.15209 8.14673 6.45722 8.45187C6.76236 8.757 7.15112 8.9648 7.57435 9.04898C7.99758 9.13317 8.43627 9.08996 8.83495 8.92483C9.23362 8.75969 9.57438 8.48004 9.81412 8.12124C10.0539 7.76244 10.1818 7.34061 10.1818 6.90909C10.1818 6.33043 9.95195 5.77548 9.54278 5.36631C9.13361 4.95714 8.57866 4.72727 8 4.72727ZM8 8.36363C7.71232 8.36363 7.4311 8.27833 7.1919 8.1185C6.9527 7.95867 6.76627 7.7315 6.65618 7.46572C6.54609 7.19994 6.51728 6.90748 6.5734 6.62532C6.62953 6.34317 6.76806 6.08399 6.97148 5.88057C7.1749 5.67715 7.43408 5.53862 7.71623 5.48249C7.99839 5.42637 8.29085 5.45517 8.55663 5.56526C8.82241 5.67536 9.04958 5.86179 9.20941 6.10099C9.36924 6.34019 9.45455 6.62141 9.45455 6.90909C9.45455 7.29486 9.3013 7.66483 9.02852 7.93761C8.75574 8.21039 8.38577 8.36363 8 8.36363ZM8 0C6.41775 0 4.87103 0.469192 3.55544 1.34824C2.23985 2.22729 1.21447 3.47672 0.608967 4.93853C0.0034663 6.40034 -0.15496 8.00887 0.153721 9.56072C0.462403 11.1126 1.22433 12.538 2.34315 13.6569C3.46197 14.7757 4.88743 15.5376 6.43928 15.8463C7.99113 16.155 9.59966 15.9965 11.0615 15.391C12.5233 14.7855 13.7727 13.7602 14.6518 12.4446C15.5308 11.129 16 9.58225 16 8C16 5.87827 15.1571 3.84344 13.6569 2.34315C12.1566 0.842855 10.1217 0 8 0ZM8.22546 13.0109C8.16126 13.0616 8.08182 13.0892 8 13.0892C7.91818 13.0892 7.83875 13.0616 7.77455 13.0109C7.63636 12.8873 4 9.95636 4 6.90909C4 5.84822 4.42143 4.83081 5.17157 4.08066C5.92172 3.33052 6.93914 2.90909 8 2.90909C9.06087 2.90909 10.0783 3.33052 10.8284 4.08066C11.5786 4.83081 12 5.84822 12 6.90909C12 9.95636 8.38182 12.8873 8.22546 13.0109Z" fill="#EE0033"/>
</g>
</svg>
