<svg width="40" height="40" viewBox="0 0 40 40" fill="none" xmlns="http://www.w3.org/2000/svg">
<g clip-path="url(#clip0_658_778)">
<path d="M37.3433 8.99472H28.7598V2.6566C28.7598 1.25974 27.624 0.130493 26.2337 0.130493H2.65666C1.26632 0.130493 0.130547 1.26626 0.130547 2.6566V22.9373C0.130547 24.3341 1.26632 25.4634 2.65666 25.4634H3.42689L8.16579 30.8355C8.26371 30.9464 8.40078 31.0052 8.53786 31.0052C8.5966 31.0052 8.65535 30.9921 8.7141 30.9725C8.90992 30.9007 9.03394 30.7114 9.03394 30.5091V25.4634H11.2402V31.8015C11.2402 33.1984 12.376 34.3276 13.7663 34.3276H26.8146L26.8342 39.3733C26.8342 39.5822 26.9647 39.765 27.154 39.8368C27.2128 39.8563 27.2715 39.8694 27.3303 39.8694C27.4674 39.8694 27.6044 39.8106 27.7023 39.6997L32.4412 34.3276H37.3433C38.7402 34.3276 39.8694 33.1918 39.8694 31.8015V11.5208C39.8694 10.1305 38.7337 8.99472 37.3433 8.99472ZM8.53786 24.4712C8.26371 24.4712 8.04177 24.6932 8.04177 24.9673V29.1905L4.02741 24.6344C3.93603 24.53 3.79895 24.4647 3.65535 24.4647H2.65666C1.80809 24.4647 1.12271 23.7793 1.12271 22.9308V2.6566C1.12271 1.80804 1.80809 1.12266 2.65666 1.12266H26.2337C27.0822 1.12266 27.7676 1.80804 27.7676 2.6566V8.99472H13.7663C12.3694 8.99472 11.2402 10.1305 11.2402 11.5208V24.4712H8.53786ZM32.2193 33.3355C32.0757 33.3355 31.9386 33.3942 31.8473 33.5052L27.8264 38.0678L27.8068 33.8315C27.8068 33.5574 27.5849 33.3355 27.3107 33.3355H17.3238C17.5849 29.5365 21.188 26.2924 25.2807 26.2924H25.7572C29.8499 26.2924 33.4465 29.5365 33.7141 33.3355H32.2193ZM38.8773 31.8015C38.8773 32.6501 38.1919 33.3355 37.3433 33.3355H34.7063C34.4452 29.0078 30.3786 25.3002 25.7572 25.3002H25.2807C20.6593 25.3002 16.5927 29.0078 16.3316 33.3355H13.7663C12.9178 33.3355 12.2324 32.6501 12.2324 31.8015V11.5208C12.2324 10.6723 12.9178 9.98689 13.7663 9.98689H37.3433C38.1919 9.98689 38.8773 10.6723 38.8773 11.5208V31.8015Z" fill="#EA0033" stroke="#EA0033" stroke-width="0.4" stroke-miterlimit="10"/>
<path d="M25.5157 13.2898C22.8003 13.2898 20.5875 15.5026 20.5875 18.218C20.5875 20.9334 22.8003 23.1462 25.5157 23.1462C28.2311 23.1462 30.4439 20.9334 30.4439 18.218C30.4504 15.5026 28.2376 13.2898 25.5157 13.2898ZM25.5157 22.154C23.3486 22.154 21.5796 20.3916 21.5796 18.218C21.5796 16.0444 23.342 14.282 25.5157 14.282C27.6828 14.282 29.4517 16.0444 29.4517 18.218C29.4517 20.3851 27.6893 22.154 25.5157 22.154Z" fill="#EA0033" stroke="#EA0033" stroke-width="0.4" stroke-miterlimit="10"/>
</g>
<defs>
<clipPath id="clip0_658_778">
<rect width="40" height="40" fill="white"/>
</clipPath>
</defs>
</svg>
