<svg width="37" height="41" viewBox="0 0 37 41" fill="none" xmlns="http://www.w3.org/2000/svg">
<path d="M29.8396 22.8598C34.5612 16.5194 33.2463 7.54902 26.9059 2.83167C20.5654 -1.88567 11.5951 -0.575057 6.87777 5.76537C3.10216 10.8386 3.10216 17.7866 6.87777 22.8598L0.107705 34.5859C-0.113624 34.9721 0.0165691 35.4668 0.40281 35.6925C0.576401 35.7923 0.780371 35.827 0.975661 35.7836L6.40907 34.6293L8.12762 39.9108C8.22744 40.2146 8.49651 40.4316 8.81331 40.4663C8.83935 40.4706 8.86973 40.4706 8.89577 40.4706C9.18653 40.4706 9.45126 40.3187 9.59447 40.067L16.2777 28.4885C17.6534 28.6924 19.0552 28.6924 20.4309 28.4885L27.1142 40.067C27.2574 40.3187 27.5265 40.4706 27.8129 40.4706C27.8389 40.4706 27.8693 40.4706 27.8953 40.4663C28.2121 40.4316 28.4812 40.2146 28.581 39.9108L30.2996 34.6293L35.733 35.7836C36.1713 35.8748 36.6009 35.597 36.6921 35.1631C36.7355 34.9678 36.7008 34.7638 36.6009 34.5902L29.8396 22.8598ZM9.10408 37.6801L7.72402 33.4358C7.59383 33.0409 7.19023 32.8109 6.78663 32.8934L2.41647 33.8221L7.98441 24.1704C9.78976 26.0756 12.0812 27.4469 14.6113 28.1326L9.10408 37.6801ZM5.66263 14.3234C5.66263 7.31033 11.3477 1.62955 18.3565 1.62521C25.3652 1.62087 31.0504 7.31033 31.0547 14.3191C31.0547 21.3322 25.3696 27.0129 18.3608 27.0173C11.3521 27.0086 5.67131 21.3322 5.66263 14.3234ZM29.9307 32.8934C29.5271 32.8066 29.1192 33.0409 28.9933 33.4358L27.6133 37.6801L22.1017 28.1369C24.6318 27.4469 26.9232 26.0756 28.7286 24.1747L34.2965 33.8264L29.9307 32.8934Z" fill="#EA0033"/>
<path d="M22.9263 15.8076L28.2989 11.9018C28.6591 11.6414 28.7416 11.1337 28.4769 10.7735C28.325 10.5652 28.082 10.4393 27.8216 10.4393H21.1817L19.129 4.11625C18.9901 3.69095 18.5344 3.46094 18.1091 3.59547C17.8618 3.67359 17.6708 3.86888 17.5884 4.11625L15.5356 10.4393H8.89143C8.44443 10.4393 8.08423 10.7995 8.08423 11.2465C8.08423 11.5069 8.21008 11.7499 8.41839 11.9018L13.791 15.8076L11.7383 22.1263C11.5995 22.5516 11.8338 23.0073 12.2591 23.1462C12.5065 23.2243 12.7755 23.1853 12.9838 23.0334L18.3608 19.1276L23.7378 23.0334C24.098 23.2981 24.6058 23.2156 24.8662 22.8554C25.0181 22.6471 25.0615 22.3781 24.979 22.1307L22.9263 15.8076ZM18.8339 17.4698C18.5518 17.2658 18.1655 17.2658 17.8835 17.4698L14.0471 20.2559L15.5139 15.7469C15.6224 15.4127 15.5053 15.0482 15.2188 14.8442L11.3825 12.0581H16.1258C16.4774 12.0581 16.7855 11.8324 16.894 11.4982L18.3565 6.98484L19.8233 11.4939C19.9318 11.828 20.2443 12.0537 20.5915 12.0537H25.3349L21.4985 14.8399C21.2164 15.0438 21.0949 15.4127 21.2034 15.7425L22.6702 20.2516L18.8339 17.4698Z" fill="#EA0033"/>
</svg>
