<svg width="23" height="23" viewBox="0 0 23 23" fill="none" xmlns="http://www.w3.org/2000/svg">
<g id="Group">
<g id="Group_2">
<path id="Vector" d="M22.9951 11.5087C22.9951 10.2684 22.24 9.20533 21.1769 8.77081C21.0039 8.69487 20.8267 8.63582 20.6411 8.59785C21.1262 8.04943 21.4004 7.33647 21.4004 6.5729C21.4004 4.8981 20.0674 3.53549 18.4263 3.53549C18.228 3.53549 18.034 3.55658 17.8399 3.59455C17.7007 2.05474 16.4267 0.843994 14.8784 0.843994C13.2922 0.843994 11.9043 2.35426 11.9043 4.07969V19.5874C11.9043 21.2622 13.2374 22.6248 14.8784 22.6248C16.5195 22.6248 17.8526 21.2622 17.8526 19.5874C17.8526 19.5663 17.8526 19.541 17.8526 19.5199C18.0424 19.5579 18.2322 19.5747 18.4263 19.5747C20.0674 19.5747 21.4004 18.2121 21.4004 16.5415C21.4004 15.7864 21.1305 15.0819 20.658 14.5335C21.9953 14.2382 22.9993 13.019 22.9993 11.5678C22.9993 11.5509 22.9951 11.5382 22.9951 11.5214C22.9909 11.5171 22.9951 11.5129 22.9951 11.5087ZM14.8742 19.5705C14.4988 19.5705 14.1908 19.2626 14.1908 18.8871C14.1908 18.5116 14.4988 18.2037 14.8742 18.2037C15.2497 18.2037 15.5576 18.5116 15.5576 18.8871C15.5576 19.2626 15.2497 19.5705 14.8742 19.5705ZM18.4347 17.0351C18.0593 17.0351 17.7513 16.7272 17.7513 16.3517C17.7513 15.9762 18.0593 15.6683 18.4347 15.6683C18.8102 15.6683 19.1182 15.9762 19.1182 16.3517C19.1182 16.7272 18.8144 17.0351 18.4347 17.0351ZM20.021 13.9218C19.9577 13.9218 19.8986 13.9175 19.8395 13.9133C19.6835 13.8965 19.54 13.9935 19.4894 14.1454C19.4388 14.293 19.4978 14.4575 19.6286 14.5419C20.312 14.9764 20.717 15.7231 20.717 16.5458C20.717 17.7185 19.8733 18.693 18.7765 18.8702V17.6763C19.3628 17.5245 19.8016 16.9929 19.8016 16.3601C19.8016 15.6092 19.1899 14.9975 18.439 14.9975C17.688 14.9975 17.0763 15.6092 17.0763 16.3601C17.0763 16.9929 17.5109 17.5245 18.1015 17.6763V18.8744C17.9074 18.8449 17.7176 18.7943 17.532 18.7141C17.4096 18.6635 17.2704 18.6846 17.1692 18.7732C17.0721 18.8618 17.0299 18.9968 17.0679 19.1276C17.0848 19.1908 17.1017 19.2372 17.1185 19.2836C17.1607 19.406 17.1692 19.4397 17.1692 19.5958C17.1692 20.777 16.3212 21.7515 15.2159 21.9203V20.216C15.8023 20.0641 16.2411 19.5326 16.2411 18.8998C16.2411 18.1488 15.6294 17.5371 14.8784 17.5371C14.1275 17.5371 13.5158 18.1488 13.5158 18.8998C13.5158 19.5326 13.9503 20.0641 14.5409 20.216V21.9203C13.4357 21.7515 12.5877 20.7728 12.5877 19.5958V12.5971H13.5664C13.7183 13.1835 14.2499 13.6222 14.8827 13.6222C15.6336 13.6222 16.2453 13.0105 16.2453 12.2596C16.2453 11.5087 15.6336 10.897 14.8827 10.897C14.2499 10.897 13.7183 11.3315 13.5664 11.9221H12.5877V7.29007H16.781C16.9329 7.87646 17.4645 8.31519 18.0973 8.31519C18.8482 8.31519 19.4599 7.70349 19.4599 6.95258C19.4599 6.20166 18.8482 5.58996 18.0973 5.58996C17.4645 5.58996 16.9329 6.02869 16.781 6.61508H15.6673V5.26091C16.2537 5.10904 16.6924 4.57748 16.6924 3.94469C16.6924 3.19377 16.0807 2.58207 15.3298 2.58207C14.5789 2.58207 13.9672 3.19377 13.9672 3.94469C13.9672 4.57748 14.4059 5.10904 14.9923 5.26091V6.61508H12.5919V4.10078C12.5919 2.74238 13.6635 1.54851 14.8869 1.54851C16.1525 1.54851 17.1818 2.60317 17.1818 3.9025C17.1818 3.94047 17.1776 3.97844 17.1734 4.05015C17.1649 4.16406 17.2198 4.27796 17.3126 4.34546C17.4054 4.41296 17.5277 4.42983 17.6374 4.38765C17.899 4.2864 18.169 4.23577 18.439 4.23577C19.7046 4.23577 20.7339 5.29043 20.7339 6.58977C20.7339 7.42506 20.312 8.18442 19.6075 8.61472C19.5991 8.61894 19.5949 8.62737 19.5864 8.63159C18.2449 8.88471 17.224 10.087 17.224 11.5298C17.224 11.7196 17.3759 11.8715 17.5657 11.8715C17.7555 11.8715 17.9074 11.7196 17.9074 11.5298C17.9074 10.2769 18.8988 9.26017 20.118 9.26017C20.4091 9.26017 20.6875 9.31923 20.9406 9.4247C21.7548 9.7875 22.3285 10.6186 22.3285 11.5889C22.3117 12.8629 21.2823 13.9218 20.021 13.9218ZM14.1908 12.247C14.1908 11.8715 14.4988 11.5635 14.8742 11.5635C15.2497 11.5635 15.5576 11.8715 15.5576 12.247C15.5576 12.6224 15.2497 12.9304 14.8742 12.9304C14.4988 12.9304 14.1908 12.6224 14.1908 12.247ZM15.3214 4.60702C14.9459 4.60702 14.638 4.29906 14.638 3.9236C14.638 3.54814 14.9459 3.24018 15.3214 3.24018C15.6968 3.24018 16.0048 3.54814 16.0048 3.9236C16.0048 4.29906 15.6968 4.60702 15.3214 4.60702ZM17.4096 6.93148C17.4096 6.55602 17.7176 6.24807 18.093 6.24807C18.4685 6.24807 18.7765 6.55602 18.7765 6.93148C18.7765 7.30694 18.4685 7.61491 18.093 7.61491C17.7134 7.61491 17.4096 7.31116 17.4096 6.93148Z" fill="#EA0033"/>
<path id="Vector_2" d="M0.00421793 11.5045C0.00421793 11.5214 0 11.534 0 11.5509C0 13.0021 1.00403 14.2171 2.34134 14.5166C1.86464 15.0608 1.59886 15.7696 1.59886 16.5247C1.59886 18.1995 2.93195 19.5579 4.573 19.5579C4.76706 19.5579 4.96111 19.5368 5.14673 19.503C5.14673 19.5241 5.14673 19.5452 5.14673 19.5705C5.14673 21.2453 6.47982 22.608 8.12087 22.608C9.76192 22.608 11.095 21.2453 11.095 19.5705V4.06284C11.095 2.34164 9.70708 0.827148 8.12087 0.827148C6.57263 0.827148 5.29861 2.0379 5.15939 3.5777C4.96533 3.53551 4.77128 3.51864 4.573 3.51864C2.93195 3.51864 1.59886 4.88126 1.59886 6.55605C1.59886 7.31963 1.87307 8.0368 2.35822 8.581C2.1726 8.62319 1.99541 8.68225 1.82245 8.75397C0.759354 9.18849 0.00421793 10.2516 0.00421793 11.4919C0.00421793 11.4961 0.00421793 11.5003 0.00421793 11.5045ZM7.43745 18.8745C7.43745 18.499 7.74541 18.1911 8.12087 18.1911C8.49633 18.1911 8.80429 18.499 8.80429 18.8745C8.80429 19.2499 8.49633 19.5579 8.12087 19.5579C7.74541 19.5579 7.43745 19.2499 7.43745 18.8745ZM3.87693 16.3349C3.87693 15.9594 4.18489 15.6514 4.56034 15.6514C4.9358 15.6514 5.24376 15.9594 5.24376 16.3349C5.24376 16.7103 4.9358 17.0183 4.56034 17.0183C4.18489 17.0183 3.87693 16.7145 3.87693 16.3349ZM0.683418 11.5509C0.683418 10.5849 1.25715 9.74956 2.07135 9.38676C2.32447 9.28129 2.6029 9.22223 2.89398 9.22223C4.11317 9.22223 5.10455 10.2389 5.10455 11.4919C5.10455 11.6817 5.25642 11.8336 5.44626 11.8336C5.6361 11.8336 5.78797 11.6817 5.78797 11.4919C5.78797 10.0491 4.76706 8.84677 3.42553 8.59366C3.41709 8.58944 3.41288 8.581 3.40444 8.57678C2.69993 8.14648 2.27806 7.39135 2.27806 6.55184C2.27806 5.2525 3.30741 4.19784 4.573 4.19784C4.84299 4.19784 5.11299 4.24846 5.37454 4.34971C5.48422 4.3919 5.60657 4.37502 5.69938 4.30752C5.79219 4.24002 5.84281 4.12612 5.83859 4.01222C5.83437 3.9405 5.83015 3.90254 5.83015 3.86457C5.83015 2.56523 6.8595 1.51057 8.12509 1.51057C9.3485 1.51057 10.42 2.70444 10.42 4.06284V6.57715H8.01541V5.22297C8.6018 5.0711 9.04054 4.53955 9.04054 3.90675C9.04054 3.15583 8.42883 2.54413 7.67792 2.54413C6.927 2.54413 6.3153 3.15583 6.3153 3.90675C6.3153 4.53955 6.74982 5.0711 7.34042 5.22297V6.57715H6.22671C6.07483 5.99076 5.54329 5.55202 4.91049 5.55202C4.15957 5.55202 3.54787 6.16372 3.54787 6.91464C3.54787 7.66556 4.15957 8.27726 4.91049 8.27726C5.54329 8.27726 6.07483 7.84274 6.22671 7.25213H10.42V11.8842H9.4413C9.28943 11.2978 8.75789 10.8591 8.12509 10.8591C7.37417 10.8591 6.76247 11.4708 6.76247 12.2217C6.76247 12.9726 7.37417 13.5843 8.12509 13.5843C8.75789 13.5843 9.28943 13.1456 9.4413 12.5592H10.42V19.5579C10.42 20.7391 9.57208 21.7136 8.4668 21.8824V20.178C9.05319 20.0262 9.49193 19.4946 9.49193 18.8618C9.49193 18.1109 8.88023 17.4992 8.12931 17.4992C7.37839 17.4992 6.76669 18.1109 6.76669 18.8618C6.76669 19.4946 7.20543 20.0262 7.79182 20.178V21.8824C6.68654 21.7136 5.83859 20.7349 5.83859 19.5579C5.83859 19.4018 5.85125 19.3681 5.88921 19.2457C5.90187 19.2035 5.91874 19.1529 5.93984 19.0896C5.97781 18.9631 5.93984 18.8239 5.83859 18.7353C5.74156 18.6467 5.59813 18.6256 5.47579 18.6762C5.29439 18.7564 5.10033 18.807 4.90627 18.8365V17.6384C5.49266 17.4865 5.9314 16.955 5.9314 16.3222C5.9314 15.5713 5.3197 14.9596 4.56878 14.9596C3.81786 14.9596 3.20616 15.5713 3.20616 16.3222C3.20616 16.955 3.6449 17.4865 4.23129 17.6384V18.8323C3.13445 18.6551 2.29072 17.6848 2.29072 16.5078C2.29072 15.6894 2.69993 14.9385 3.37913 14.504C3.5099 14.4196 3.56897 14.2551 3.51834 14.1074C3.46772 13.9598 3.32428 13.8627 3.16819 13.8754C3.10913 13.8796 3.04585 13.8838 2.98679 13.8838C1.71277 13.9049 0.683418 12.8503 0.683418 11.5509ZM8.12087 12.9135C7.74541 12.9135 7.43745 12.6056 7.43745 12.2301C7.43745 11.8547 7.74541 11.5467 8.12087 11.5467C8.49633 11.5467 8.80429 11.8547 8.80429 12.2301C8.80429 12.6098 8.50055 12.9135 8.12087 12.9135ZM6.99028 3.90675C6.99028 3.53129 7.29824 3.22333 7.6737 3.22333C8.04916 3.22333 8.35712 3.53129 8.35712 3.90675C8.35712 4.28221 8.04916 4.59017 7.6737 4.59017C7.29824 4.59017 6.99028 4.28643 6.99028 3.90675ZM4.90627 7.60228C4.53081 7.60228 4.22285 7.29431 4.22285 6.91886C4.22285 6.5434 4.53081 6.23544 4.90627 6.23544C5.28173 6.23544 5.58969 6.5434 5.58969 6.91886C5.58969 7.29853 5.28173 7.60228 4.90627 7.60228Z" fill="#EA0033"/>
</g>
</g>
</svg>
