<svg width="17" height="17" viewBox="0 0 17 17" fill="none" xmlns="http://www.w3.org/2000/svg">
<ellipse cx="5.33333" cy="5.33333" rx="5.33333" ry="5.33333" transform="matrix(4.37114e-08 -1 -1 -4.37114e-08 15.6369 14.0843)" fill="#AB062A"/>
<path d="M4.67022 8.75099C4.67022 5.63978 7.19235 3.11765 10.3035 3.11765C13.4148 3.11765 15.9369 5.63978 15.9369 8.75099C15.9369 11.8622 13.4148 14.3843 10.3035 14.3843C7.19234 14.3843 4.67022 11.8622 4.67022 8.75099Z" stroke="#7E869E" stroke-opacity="0.25" stroke-width="0.6"/>
<path d="M4.25617 13.465C5.18852 14.3974 6.37641 15.0323 7.66961 15.2896C8.96282 15.5468 10.3033 15.4148 11.5214 14.9102C12.7396 14.4056 13.7808 13.5511 14.5133 12.4548C15.2459 11.3585 15.6369 10.0695 15.6369 8.75099C15.6369 7.43245 15.2459 6.14351 14.5133 5.04719C13.7808 3.95086 12.7396 3.09637 11.5214 2.59179C10.3033 2.08721 8.96282 1.95518 7.66961 2.21242C6.37641 2.46965 5.18852 3.10459 4.25617 4.03694" stroke="white" stroke-width="1.2"/>
<path d="M10.9702 8.75097L11.4387 8.37615L11.7386 8.75097L11.4387 9.12578L10.9702 8.75097ZM2.97021 9.35097C2.63884 9.35097 2.37021 9.08234 2.37021 8.75097C2.37021 8.4196 2.63884 8.15097 2.97021 8.15097V9.35097ZM8.77207 5.04282L11.4387 8.37615L10.5017 9.12578L7.83503 5.79245L8.77207 5.04282ZM11.4387 9.12578L8.77207 12.4591L7.83503 11.7095L10.5017 8.37615L11.4387 9.12578ZM10.9702 9.35097H2.97021V8.15097H10.9702V9.35097Z" fill="white"/>
</svg>
