<svg width="25" height="25" viewBox="0 0 25 25" fill="none" xmlns="http://www.w3.org/2000/svg">
<ellipse cx="8" cy="8" rx="8" ry="8" transform="matrix(4.37114e-08 -1 -1 -4.37114e-08 22.2169 20.2026)" fill="#7E869E" fill-opacity="0.25"/>
<path d="M5.91689 12.2026C5.91689 7.61867 9.63293 3.90264 14.2169 3.90264C18.8009 3.90264 22.5169 7.61867 22.5169 12.2026C22.5169 16.7866 18.8009 20.5026 14.2169 20.5026C9.63293 20.5026 5.91689 16.7866 5.91689 12.2026Z" stroke="#7E869E" stroke-opacity="0.25" stroke-width="0.6"/>
<path d="M5.14582 19.2737C6.54435 20.6722 8.32618 21.6246 10.266 22.0105C12.2058 22.3963 14.2165 22.1983 16.0437 21.4414C17.871 20.6846 19.4328 19.4028 20.5316 17.7583C21.6304 16.1138 22.2169 14.1805 22.2169 12.2026C22.2169 10.2248 21.6304 8.29143 20.5316 6.64694C19.4328 5.00244 17.871 3.72072 16.0437 2.96384C14.2165 2.20697 12.2058 2.00893 10.266 2.39478C8.32618 2.78064 6.54435 3.73304 5.14582 5.13157" stroke="#EA0029" stroke-width="1.2"/>
<path d="M15.2169 12.2026L15.6854 11.8278L15.9853 12.2026L15.6854 12.5775L15.2169 12.2026ZM3.21689 12.8026C2.88552 12.8026 2.61689 12.534 2.61689 12.2026C2.61689 11.8713 2.88552 11.6026 3.21689 11.6026V12.8026ZM11.6854 6.82782L15.6854 11.8278L14.7484 12.5775L10.7484 7.57745L11.6854 6.82782ZM15.6854 12.5775L11.6854 17.5775L10.7484 16.8278L14.7484 11.8278L15.6854 12.5775ZM15.2169 12.8026H3.21689V11.6026H15.2169V12.8026Z" fill="#EA0029"/>
</svg>
