<svg width="16" height="16" viewBox="0 0 16 16" fill="none" xmlns="http://www.w3.org/2000/svg">
<g id="79 earth">
<path id="Vector" d="M8 0C6.41775 0 4.87103 0.469192 3.55544 1.34824C2.23985 2.22729 1.21447 3.47672 0.608967 4.93853C0.0034663 6.40034 -0.15496 8.00887 0.153721 9.56072C0.462403 11.1126 1.22433 12.538 2.34315 13.6569C3.46197 14.7757 4.88743 15.5376 6.43928 15.8463C7.99113 16.155 9.59966 15.9965 11.0615 15.391C12.5233 14.7855 13.7727 13.7602 14.6518 12.4446C15.5308 11.129 16 9.58225 16 8C16 5.87827 15.1571 3.84344 13.6569 2.34315C12.1566 0.842855 10.1217 0 8 0ZM12.7491 6.18182H10.4255C10.3221 5.09662 9.97795 4.04814 9.41818 3.11273C10.1717 3.3343 10.8641 3.72639 11.4417 4.25861C12.0194 4.79083 12.4667 5.4489 12.7491 6.18182ZM9.81818 8C9.81818 8.37818 9.80364 8.74182 9.77455 9.09091H6.22546C6.19637 8.74182 6.18182 8.37818 6.18182 8C6.18182 7.62182 6.19637 7.25818 6.22546 6.90909H9.77455C9.80364 7.25818 9.81818 7.62182 9.81818 8ZM8 2.90909C8.67273 2.90909 9.40364 4.18909 9.69091 6.18182H6.30909C6.59637 4.18909 7.32727 2.90909 8 2.90909ZM6.58182 3.11273C6.02205 4.04814 5.67794 5.09662 5.57455 6.18182H3.25091C3.5333 5.4489 3.98063 4.79083 4.55826 4.25861C5.13588 3.72639 5.82829 3.3343 6.58182 3.11273ZM2.90909 8C2.91006 7.63312 2.95029 7.2674 3.02909 6.90909H5.49818C5.46909 7.26303 5.45455 7.62666 5.45455 8C5.45455 8.37333 5.46909 8.73697 5.49818 9.09091H3.02909C2.95029 8.73259 2.91006 8.36687 2.90909 8ZM3.25091 9.81818H5.57455C5.67794 10.9034 6.02205 11.9519 6.58182 12.8873C5.82829 12.6657 5.13588 12.2736 4.55826 11.7414C3.98063 11.2092 3.5333 10.5511 3.25091 9.81818ZM8 13.0909C7.32727 13.0909 6.59637 11.8109 6.30909 9.81818H9.69091C9.40364 11.8109 8.67273 13.0909 8 13.0909ZM9.41818 12.8873C9.97795 11.9519 10.3221 10.9034 10.4255 9.81818H12.7491C12.4667 10.5511 12.0194 11.2092 11.4417 11.7414C10.8641 12.2736 10.1717 12.6657 9.41818 12.8873ZM12.9709 9.09091H10.5018C10.5309 8.73939 10.5455 8.37576 10.5455 8C10.5455 7.62424 10.5309 7.2606 10.5018 6.90909H12.9709C13.1309 7.62756 13.1309 8.37244 12.9709 9.09091Z" fill="#EE0033"/>
</g>
</svg>
