<svg width="18" height="15" viewBox="0 0 18 15" fill="none" xmlns="http://www.w3.org/2000/svg">
<g id="Group">
<path id="Vector" d="M16.962 0.84156H14.6619V0.335637C14.6619 0.138203 14.4941 0 14.3263 0C14.1288 0 13.9906 0.167818 13.9906 0.335637V0.839092H3.81293V0.335637C3.81293 0.138203 3.64511 0 3.4773 0C3.27986 0 3.14166 0.167818 3.14166 0.335637V0.839092H0.84156C0.365252 0.84156 0 1.20434 0 1.68312V14.1584C0 14.6347 0.365252 15 0.84156 15H16.962C17.4383 15 17.8036 14.6347 17.8036 14.1584V1.68312C17.8036 1.23396 17.4087 0.84156 16.962 0.84156ZM17.0731 13.9042C17.0731 14.1288 16.8756 14.3238 16.6535 14.3238H1.09329C0.868707 14.3238 0.673741 14.1264 0.673741 13.9042V3.75617H17.0755V13.9042H17.0731ZM17.0731 3.05528H0.700888V1.99161C0.700888 1.76703 0.898322 1.57206 1.12043 1.57206H3.13919V2.07552C3.13919 2.27295 3.30701 2.41115 3.47483 2.41115C3.67226 2.41115 3.81046 2.24334 3.81046 2.07552V1.5696H13.9314V2.07305C13.9314 2.27048 14.0992 2.40869 14.267 2.40869C14.4645 2.40869 14.6027 2.24087 14.6027 2.07305V1.5696H16.6214C16.846 1.5696 17.041 1.76703 17.041 1.98914V3.05528H17.0731Z" fill="black"/>
<g id="Group_2">
<path id="Vector_2" d="M5.18756 8.41069H2.52221C2.29763 8.41069 2.10266 8.21326 2.10266 7.99115V5.3258C2.10266 5.10122 2.30009 4.90625 2.52221 4.90625H5.18509C5.40967 4.90625 5.60464 5.10368 5.60464 5.3258V7.98868C5.6071 8.24287 5.40967 8.41069 5.18756 8.41069ZM3.00098 7.7098H4.6841C4.79516 7.7098 4.90868 7.62589 4.90868 7.48522V5.8021C4.90868 5.69105 4.82477 5.57752 4.6841 5.57752H3.00098C2.88993 5.57752 2.7764 5.66143 2.7764 5.8021V7.48522C2.80355 7.62589 2.88746 7.7098 3.00098 7.7098Z" fill="black"/>
<path id="Vector_3" d="M10.2049 8.41069H7.54198C7.3174 8.41069 7.12244 8.21326 7.12244 7.99115V5.3258C7.12244 5.10122 7.31987 4.90625 7.54198 4.90625H10.2049C10.4294 4.90625 10.6244 5.10368 10.6244 5.3258V7.98868C10.6244 8.24287 10.4566 8.41069 10.2049 8.41069ZM8.04544 7.7098H9.72856C9.83961 7.7098 9.95314 7.62589 9.95314 7.48522V5.8021C9.95314 5.69105 9.86923 5.57752 9.72856 5.57752H8.04544C7.93438 5.57752 7.82086 5.66143 7.82086 5.8021V7.48522C7.82086 7.62589 7.93438 7.7098 8.04544 7.7098Z" fill="black"/>
<path id="Vector_4" d="M15.2517 8.41069H12.5889C12.3643 8.41069 12.1693 8.21326 12.1693 7.99115V5.3258C12.1693 5.10122 12.3667 4.90625 12.5889 4.90625H15.2517C15.4763 4.90625 15.6713 5.10368 15.6713 5.3258V7.98868C15.6713 8.24287 15.5035 8.41069 15.2517 8.41069ZM13.0923 7.7098H14.7754C14.8865 7.7098 15 7.62589 15 7.48522V5.8021C15 5.69105 14.9161 5.57752 14.7754 5.57752H13.0923C12.9813 5.57752 12.8677 5.66143 12.8677 5.8021V7.48522C12.8677 7.62589 12.9813 7.7098 13.0923 7.7098Z" fill="black"/>
<path id="Vector_5" d="M5.18756 13.149H2.52221C2.29763 13.149 2.10266 12.9515 2.10266 12.7294V10.0641C2.10266 9.8395 2.30009 9.64453 2.52221 9.64453H5.18509C5.40967 9.64453 5.60464 9.84196 5.60464 10.0641V12.727C5.6071 12.9515 5.40967 13.149 5.18756 13.149ZM3.00098 12.4481H4.6841C4.79516 12.4481 4.90868 12.3642 4.90868 12.2235V10.5404C4.90868 10.4293 4.82477 10.3158 4.6841 10.3158H3.00098C2.88993 10.3158 2.7764 10.3997 2.7764 10.5404V12.2235C2.80355 12.3642 2.88746 12.4481 3.00098 12.4481Z" fill="black"/>
<path id="Vector_6" d="M10.2049 13.149H7.54198C7.3174 13.149 7.12244 12.9515 7.12244 12.7294V10.0641C7.12244 9.8395 7.31987 9.64453 7.54198 9.64453H10.2049C10.4294 9.64453 10.6244 9.84196 10.6244 10.0641V12.727C10.6244 12.9515 10.4566 13.149 10.2049 13.149ZM8.04544 12.4481H9.72856C9.83961 12.4481 9.95314 12.3642 9.95314 12.2235V10.5404C9.95314 10.4293 9.86923 10.3158 9.72856 10.3158H8.04544C7.93438 10.3158 7.82086 10.3997 7.82086 10.5404V12.2235C7.82086 12.3642 7.93438 12.4481 8.04544 12.4481Z" fill="black"/>
<path id="Vector_7" d="M15.2517 13.149H12.5889C12.3643 13.149 12.1693 12.9515 12.1693 12.7294V10.0641C12.1693 9.8395 12.3667 9.64453 12.5889 9.64453H15.2517C15.4763 9.64453 15.6713 9.84196 15.6713 10.0641V12.727C15.6713 12.9515 15.5035 13.149 15.2517 13.149ZM13.0923 12.4481H14.7754C14.8865 12.4481 15 12.3642 15 12.2235V10.5404C15 10.4293 14.9161 10.3158 14.7754 10.3158H13.0923C12.9813 10.3158 12.8677 10.3997 12.8677 10.5404V12.2235C12.8677 12.3642 12.9813 12.4481 13.0923 12.4481Z" fill="black"/>
</g>
</g>
</svg>
