<svg width="24" height="25" viewBox="0 0 24 25" fill="none" xmlns="http://www.w3.org/2000/svg">
<g id="icon/instagram">
<path id="vector" fill-rule="evenodd" clip-rule="evenodd" d="M12 3.39551C9.5556 3.39551 9.2496 3.40571 8.2896 3.44951C7.3314 3.49331 6.6768 3.64571 6.1044 3.86831C5.5044 4.09391 4.9602 4.44791 4.5102 4.90631C4.05253 5.35579 3.69831 5.8996 3.4722 6.49991C3.2508 7.07231 3.0978 7.72751 3.054 8.68571C3.0108 9.64511 3 9.95051 3 12.3955C3 14.8405 3.0102 15.1459 3.054 16.1059C3.0978 17.0641 3.2502 17.7187 3.4728 18.2911C3.6984 18.8911 4.0524 19.4353 4.5108 19.8853C4.96029 20.343 5.50411 20.6972 6.1044 20.9233C6.6768 21.1453 7.3314 21.2977 8.2896 21.3415C9.2496 21.3853 9.5556 21.3955 12 21.3955C14.4444 21.3955 14.7504 21.3853 15.7104 21.3415C16.6686 21.2977 17.3232 21.1453 17.8956 20.9227C18.4956 20.6971 19.0398 20.3431 19.4898 19.8847C19.9475 19.4352 20.3017 18.8914 20.5278 18.2911C20.7498 17.7187 20.9022 17.0641 20.946 16.1059C20.9898 15.1459 21 14.8399 21 12.3955C21 9.95111 20.9898 9.64511 20.946 8.68511C20.9022 7.72691 20.7498 7.07231 20.5272 6.49991C20.3012 5.89935 19.947 5.3553 19.4892 4.90571C19.0397 4.44804 18.4959 4.09382 17.8956 3.86771C17.3232 3.64631 16.668 3.49331 15.7098 3.44951C14.7504 3.40631 14.445 3.39551 12 3.39551ZM12 5.01731C14.403 5.01731 14.688 5.02631 15.6372 5.06951C16.5144 5.10971 16.9908 5.25551 17.3082 5.37971C17.7282 5.54231 18.0282 5.73791 18.3432 6.05231C18.6582 6.36731 18.8532 6.66731 19.0158 7.08731C19.1394 7.40471 19.2858 7.88111 19.326 8.75831C19.3692 9.70751 19.3782 9.99251 19.3782 12.3955C19.3782 14.7985 19.3692 15.0835 19.326 16.0327C19.2858 16.9099 19.14 17.3863 19.0158 17.7037C18.8718 18.0946 18.6419 18.4483 18.3432 18.7387C18.0528 19.0375 17.6992 19.2673 17.3082 19.4113C16.9908 19.5349 16.5144 19.6813 15.6372 19.7215C14.688 19.7647 14.4036 19.7737 12 19.7737C9.5964 19.7737 9.312 19.7647 8.3628 19.7215C7.4856 19.6813 7.0092 19.5355 6.6918 19.4113C6.30087 19.2673 5.9472 19.0374 5.6568 18.7387C5.35811 18.4483 5.12828 18.0946 4.9842 17.7037C4.8606 17.3863 4.7142 16.9099 4.674 16.0327C4.6308 15.0835 4.6218 14.7985 4.6218 12.3955C4.6218 9.99251 4.6308 9.70751 4.674 8.75831C4.7142 7.88111 4.86 7.40471 4.9842 7.08731C5.1468 6.66731 5.3424 6.36731 5.6568 6.05231C5.94716 5.75353 6.30085 5.52369 6.6918 5.37971C7.0092 5.25611 7.4856 5.10971 8.3628 5.06951C9.312 5.02631 9.597 5.01731 12 5.01731Z" fill="#828282"/>
<path id="vector_2" fill-rule="evenodd" clip-rule="evenodd" d="M12 15.3985C11.6056 15.3985 11.2151 15.3209 10.8508 15.17C10.4865 15.019 10.1554 14.7978 9.87655 14.519C9.5977 14.2401 9.3765 13.9091 9.22558 13.5447C9.07467 13.1804 8.99699 12.7899 8.99699 12.3955C8.99699 12.0012 9.07467 11.6107 9.22558 11.2463C9.3765 10.882 9.5977 10.551 9.87655 10.2721C10.1554 9.99325 10.4865 9.77205 10.8508 9.62113C11.2151 9.47022 11.6056 9.39254 12 9.39254C12.7964 9.39254 13.5603 9.70893 14.1234 10.2721C14.6866 10.8353 15.003 11.5991 15.003 12.3955C15.003 13.192 14.6866 13.9558 14.1234 14.519C13.5603 15.0822 12.7964 15.3985 12 15.3985ZM12 7.76954C10.7731 7.76954 9.59646 8.25692 8.72892 9.12446C7.86137 9.99201 7.37399 11.1686 7.37399 12.3955C7.37399 13.6224 7.86137 14.7991 8.72892 15.6666C9.59646 16.5342 10.7731 17.0215 12 17.0215C13.2269 17.0215 14.4035 16.5342 15.2711 15.6666C16.1386 14.7991 16.626 13.6224 16.626 12.3955C16.626 11.1686 16.1386 9.99201 15.2711 9.12446C14.4035 8.25692 13.2269 7.76954 12 7.76954ZM17.9718 7.68554C17.9718 7.97556 17.8566 8.25369 17.6515 8.45876C17.4464 8.66383 17.1683 8.77904 16.8783 8.77904C16.5883 8.77904 16.3101 8.66383 16.1051 8.45876C15.9 8.25369 15.7848 7.97556 15.7848 7.68554C15.7848 7.39553 15.9 7.11739 16.1051 6.91232C16.3101 6.70725 16.5883 6.59204 16.8783 6.59204C17.1683 6.59204 17.4464 6.70725 17.6515 6.91232C17.8566 7.11739 17.9718 7.39553 17.9718 7.68554Z" fill="#828282"/>
</g>
</svg>
