<svg width="24" height="25" viewBox="0 0 24 25" fill="none" xmlns="http://www.w3.org/2000/svg">
<g id="icon/linkedin">
<path id="vector" d="M21 4.71904V20.072C21 20.423 20.8606 20.7596 20.6123 21.0079C20.3641 21.2561 20.0275 21.3955 19.6765 21.3955H4.32353C3.97251 21.3955 3.63586 21.2561 3.38765 21.0079C3.13944 20.7596 3 20.423 3 20.072V4.71904C3 4.36802 3.13944 4.03137 3.38765 3.78316C3.63586 3.53495 3.97251 3.39551 4.32353 3.39551H19.6765C20.0275 3.39551 20.3641 3.53495 20.6123 3.78316C20.8606 4.03137 21 4.36802 21 4.71904ZM8.29412 10.2779H5.64706V18.7484H8.29412V10.2779ZM8.53235 7.3661C8.53375 7.16587 8.49569 6.96732 8.42035 6.7818C8.34502 6.59628 8.23387 6.42742 8.09328 6.28485C7.95268 6.14229 7.78537 6.02881 7.60091 5.95091C7.41646 5.873 7.21846 5.83219 7.01824 5.8308H6.97059C6.5634 5.8308 6.17289 5.99256 5.88497 6.28048C5.59705 6.5684 5.43529 6.95891 5.43529 7.3661C5.43529 7.77328 5.59705 8.16379 5.88497 8.45171C6.17289 8.73964 6.5634 8.90139 6.97059 8.90139C7.17083 8.90632 7.37008 8.87174 7.55696 8.79963C7.74383 8.72753 7.91467 8.61931 8.0597 8.48115C8.20474 8.343 8.32113 8.17763 8.40223 7.99447C8.48333 7.81132 8.52755 7.61399 8.53235 7.41374V7.3661ZM18.3529 13.6026C18.3529 11.0561 16.7329 10.0661 15.1235 10.0661C14.5966 10.0397 14.0719 10.1519 13.6019 10.3916C13.1318 10.6313 12.7328 10.99 12.4447 11.432H12.3706V10.2779H9.88235V18.7484H12.5294V14.2432C12.4911 13.7817 12.6365 13.3239 12.9339 12.969C13.2313 12.6141 13.6567 12.3909 14.1176 12.3479H14.2182C15.06 12.3479 15.6847 12.8773 15.6847 14.2114V18.7484H18.3318L18.3529 13.6026Z" fill="#828282"/>
</g>
</svg>
