<svg width="43" height="43" viewBox="0 0 43 43" fill="none" xmlns="http://www.w3.org/2000/svg">
<path d="M14.3777 11.6907C14.1087 11.4218 13.7066 11.4218 13.4377 11.6907L10.8186 14.3098L10.1476 13.6387C9.87863 13.3697 9.47657 13.3697 9.20759 13.6387C8.93861 13.9077 8.93861 14.3098 9.20759 14.5787L10.3486 15.7198C10.4817 15.8529 10.6856 15.9208 10.8186 15.9208C11.0197 15.9208 11.1556 15.8529 11.2887 15.7198L14.3805 12.6279C14.6467 12.3618 14.6467 11.8918 14.3777 11.6907Z" fill="#EA0029"/>
<path d="M13.4377 17.7385L10.8186 20.3575L10.1476 19.6865C9.87863 19.4175 9.47657 19.4175 9.20759 19.6865C8.93861 19.9555 8.93861 20.3575 9.20759 20.6265L10.3486 21.7676C10.4817 21.9006 10.6856 21.9686 10.8186 21.9686C11.0197 21.9686 11.1556 21.9006 11.2887 21.7676L14.3805 18.6757C14.6495 18.4067 14.6495 18.0047 14.3805 17.7357C14.1087 17.4695 13.6387 17.4695 13.4377 17.7385Z" fill="#EA0029"/>
<path d="M26.2042 22.8435C25.8022 22.8435 25.5332 23.1125 25.5332 23.5145C25.5332 23.9166 25.8022 24.1856 26.2042 24.1856H27.5491C27.9512 24.1856 28.2202 23.9166 28.2202 23.5145C28.2202 23.1125 27.9512 22.8435 27.5491 22.8435H26.2042Z" fill="#EA0029"/>
<path d="M30.2362 22.8435C29.8341 22.8435 29.5652 23.1125 29.5652 23.5145C29.5652 23.9166 29.8341 24.1856 30.2362 24.1856H34.2681V33.7924L28.4213 36.1453L21.7024 28.7554L17.2685 30.9724C16.5295 31.3093 15.7226 31.3744 14.9836 31.1054L14.1115 30.8365C13.9785 30.7685 13.9105 30.6354 13.9105 30.5675C13.9105 30.4995 13.9105 30.3665 14.0436 30.2985L19.7545 26.1336C19.8224 26.1336 19.9555 26.0656 20.0234 26.0005C20.0234 26.0005 20.0234 25.9325 20.0914 25.9325L22.5094 24.1856H23.5174C23.9194 24.1856 24.1884 23.9166 24.1884 23.5145C24.1884 23.1125 23.9194 22.8435 23.5174 22.8435H21.9714L19.5534 24.5905L17.7385 22.8435H9.40581H8.73477H0V34.9363H4.03187C4.43392 34.9363 4.7029 34.6673 4.7029 34.2652C4.7029 33.8632 4.43392 33.5942 4.03187 33.5942H1.3449V24.1884H8.06374V33.5942H6.71884C6.31678 33.5942 6.0478 33.8632 6.0478 34.2652C6.0478 34.6673 6.31678 34.9363 6.71884 34.9363H8.53375L17.7385 42.1931C18.2085 42.5951 18.7465 42.799 19.3524 42.799C19.6893 42.799 20.0234 42.731 20.2924 42.598C20.5614 42.4649 20.7624 42.261 20.9635 42.128L21.7024 42.8669C21.7704 42.9349 21.7704 42.9349 21.8355 42.9349L21.9035 43.0029C21.9714 43.0029 22.1045 43.0029 22.1725 43.0029C22.2404 43.0029 22.3055 43.0029 22.4414 42.9349C22.4414 42.9349 22.5094 42.9349 22.5094 42.8669C22.5773 42.8669 22.5773 42.799 22.6425 42.799L28.6223 37.4902L35.1401 34.8712H43V22.8435H30.2362ZM19.6865 41.321C19.3496 41.4541 18.8796 41.389 18.5455 41.12L9.40864 33.9311V24.1884H17.2034L18.4124 25.3974L13.2395 29.2282C12.7695 29.5652 12.5005 30.2362 12.5684 30.8421C12.6364 31.448 13.1064 31.9832 13.7095 32.187L14.5164 32.456C15.5923 32.7929 16.8013 32.725 17.8773 32.187L21.4391 30.4401L27.351 36.9579L26.479 37.6289L20.6322 31.7821C20.3632 31.5132 19.9612 31.5132 19.6922 31.7821C19.4232 32.0511 19.4232 32.4532 19.6922 32.7222L25.471 38.501L24.33 39.5089L18.6191 33.7981C18.3501 33.5291 17.948 33.5291 17.6791 33.7981C17.4101 34.0671 17.4101 34.4691 17.6791 34.7381L23.322 40.381L22.1809 41.389L16.6031 35.8112C16.3342 35.5422 15.9321 35.5422 15.6631 35.8112C15.3942 36.0802 15.3942 36.4822 15.6631 36.7512L20.0291 41.1172C19.8875 41.1879 19.8196 41.2531 19.6865 41.321ZM41.6579 33.5942H35.6101V24.1884H41.6579V33.5942Z" fill="#EA0029"/>
<path d="M14.7826 7.38985C14.7826 6.98779 14.5137 6.71881 14.1116 6.71881H13.4406C13.0385 6.71881 12.7695 6.98779 12.7695 7.38985C12.7695 7.7919 13.0385 8.06088 13.4406 8.06088H14.1116C14.5137 8.06371 14.7826 7.79473 14.7826 7.38985Z" fill="#EA0029"/>
<path d="M16.1242 8.06375H16.7952C17.1972 8.06375 17.4662 7.79477 17.4662 7.39271C17.4662 6.99066 17.1972 6.72168 16.7952 6.72168H16.1242C15.7221 6.72168 15.4531 6.99066 15.4531 7.39271C15.4531 7.79477 15.7221 8.06375 16.1242 8.06375Z" fill="#EA0029"/>
<path d="M10.7511 8.06375H11.4221C11.8242 8.06375 12.0932 7.79477 12.0932 7.39271C12.0932 6.99066 11.8242 6.72168 11.4221 6.72168H10.7511C10.3491 6.72168 10.0801 6.99066 10.0801 7.39271C10.0801 7.79477 10.3462 8.06375 10.7511 8.06375Z" fill="#EA0029"/>
<path d="M36.9552 21.5014C37.3573 21.5014 37.6262 21.1645 37.6262 20.8304V7.38987C37.6262 7.18885 37.5583 7.05294 37.4252 6.91987L30.7064 0.201027C30.5705 0.0679528 30.4374 0 30.2364 0H6.04799C5.64593 0 5.37695 0.336933 5.37695 0.671034V21.4986C5.37695 21.9006 5.64593 22.1696 6.04799 22.1696C6.45004 22.1696 6.71902 21.8327 6.71902 21.4986V1.3449H29.5625V7.38987C29.5625 7.79193 29.8315 8.06091 30.2335 8.06091H36.2813V20.8275C36.2813 21.2324 36.5503 21.5014 36.9552 21.5014ZM30.9074 2.35287L35.2734 6.71884H30.9074V2.35287Z" fill="#EA0029"/>
<path d="M20.1569 4.7029C20.1569 4.30084 19.8879 4.03186 19.4859 4.03186H10.7511C10.3491 4.03186 10.0801 4.30084 10.0801 4.7029C10.0801 5.10495 10.3491 5.37393 10.7511 5.37393H19.4859C19.8879 5.37393 20.1569 5.10778 20.1569 4.7029Z" fill="#EA0029"/>
<path d="M26.8753 16.1247C27.2773 16.1247 27.5463 15.8557 27.5463 15.4536C27.5463 15.0516 27.2773 14.7826 26.8753 14.7826H26.2042C25.8022 14.7826 25.5332 15.0516 25.5332 15.4536C25.5332 15.8557 25.8022 16.1247 26.2042 16.1247H26.8753Z" fill="#EA0029"/>
<path d="M29.5628 16.1247C29.9648 16.1247 30.2338 15.8557 30.2338 15.4536C30.2338 15.0516 29.9648 14.7826 29.5628 14.7826H28.8917C28.4897 14.7826 28.2207 15.0516 28.2207 15.4536C28.2207 15.8557 28.4897 16.1247 28.8917 16.1247H29.5628Z" fill="#EA0029"/>
<path d="M24.1878 16.1247C24.5898 16.1247 24.8588 15.8557 24.8588 15.4536C24.8588 15.0516 24.5898 14.7826 24.1878 14.7826H23.5167C23.1147 14.7826 22.8457 15.0516 22.8457 15.4536C22.8457 15.8557 23.1147 16.1247 23.5167 16.1247H24.1878Z" fill="#EA0029"/>
<path d="M32.2523 12.0928H18.1408C17.7387 12.0928 17.4697 12.3618 17.4697 12.7638C17.4697 13.1659 17.7387 13.4348 18.1408 13.4348H32.2495C32.6515 13.4348 32.9205 13.1659 32.9205 12.7638C32.9233 12.3618 32.6544 12.0928 32.2523 12.0928Z" fill="#EA0029"/>
<path d="M18.1408 16.1247H21.5016C21.9037 16.1247 22.1726 15.8557 22.1726 15.4536C22.1726 15.0516 21.9037 14.7826 21.5016 14.7826H18.1408C17.7387 14.7826 17.4697 15.0516 17.4697 15.4536C17.4697 15.8557 17.7387 16.1247 18.1408 16.1247Z" fill="#EA0029"/>
<path d="M32.9233 19.4855C32.9233 19.0834 32.6544 18.8145 32.2523 18.8145H18.1408C17.7387 18.8145 17.4697 19.0834 17.4697 19.4855C17.4697 19.8875 17.7387 20.1565 18.1408 20.1565H32.2495C32.6544 20.1565 32.9233 19.8875 32.9233 19.4855Z" fill="#EA0029"/>
</svg>
