<svg width="24" height="24" viewBox="0 0 24 24" fill="none" xmlns="http://www.w3.org/2000/svg">
<g id="Group">
<g id="Group_2">
<g id="Group_3">
<path id="Vector" d="M14.2298 10.4976C14.0778 10.4976 13.9394 10.5854 13.8752 10.7272L11.7304 15.4322C11.6088 15.6788 11.8115 15.9929 12.0851 15.9828H16.3746C16.6482 15.9895 16.8508 15.6788 16.7292 15.4322L14.5845 10.7272C14.5237 10.5888 14.3852 10.4976 14.2298 10.4976ZM12.693 15.2059L14.2298 11.8283L15.7666 15.2059H12.693Z" fill="#EA0033"/>
<path id="Vector_2" d="M18.5189 15.6247C18.6709 15.6247 18.8094 15.5369 18.8735 15.395L21.0183 10.6901C21.1399 10.4435 20.9372 10.1294 20.6637 10.1395H16.3741C16.1005 10.1328 15.8979 10.4435 16.0195 10.6901L18.1642 15.395C18.2284 15.5335 18.3669 15.6247 18.5189 15.6247ZM20.0591 10.9164L18.5223 14.294L16.9855 10.9164H20.0591Z" fill="#EA0033"/>
<path id="Vector_3" d="M23.005 0H4.28979C4.07362 0 3.90137 0.175635 3.90137 0.388423V3.89774V7.01525C3.90137 7.23141 4.077 7.40367 4.28979 7.40367C4.50596 7.40367 4.67821 7.22804 4.67821 7.01525V4.28616H22.6132V17.5432H11.6968C11.4807 17.5432 11.3084 17.7188 11.3084 17.9316C11.3084 18.1478 11.4841 18.32 11.6968 18.32H23.005C23.2212 18.32 23.3934 18.1444 23.3934 17.9316V3.89774V0.388423C23.3934 0.175635 23.2212 0 23.005 0ZM4.67821 3.50931V0.780223H22.6132V3.50931H4.67821Z" fill="#EA0033"/>
<path id="Vector_4" d="M9.37281 8.18726H1.15513C0.516771 8.18726 0 8.70403 0 9.34239V22.2414C0 22.8764 0.516771 23.3932 1.15513 23.3932H9.37281C10.0078 23.3932 10.5279 22.8764 10.5279 22.238V9.34239C10.5279 8.70403 10.0078 8.18726 9.37281 8.18726ZM9.74772 22.238C9.74772 22.4441 9.57884 22.6129 9.37281 22.6129H1.15513C0.949102 22.6129 0.780223 22.4441 0.780223 22.238V9.34239C0.780223 9.13636 0.949102 8.96748 1.15513 8.96748H9.37281C9.57884 8.96748 9.74772 9.13636 9.74772 9.34239V22.238Z" fill="#EA0033"/>
<path id="Vector_5" d="M8.18683 20.6641H2.34023C1.83359 20.6641 1.83021 21.4409 2.34023 21.4443H8.19021C8.69685 21.4409 8.70023 20.6674 8.18683 20.6641Z" fill="#EA0033"/>
<path id="Vector_6" d="M8.18717 11.3082H3.50922C3.29305 11.3082 3.12079 11.4838 3.12079 11.6966V15.5943H2.34057C2.12441 15.5943 1.95215 15.77 1.95215 15.9827V19.4921C1.95215 19.7082 2.12778 19.8805 2.34057 19.8805H6.23831C6.45447 19.8805 6.62673 19.7048 6.62673 19.4921V18.3234H8.18717C8.40334 18.3234 8.5756 18.1478 8.5756 17.935V11.6966C8.57897 11.4804 8.40334 11.3082 8.18717 11.3082ZM5.84988 19.1036H2.72899V16.3745C3.24576 16.3745 5.29258 16.3745 5.84651 16.3745C5.84988 17.0433 5.84988 18.445 5.84988 19.1036ZM7.79875 17.5466H6.63011V15.9861C6.63011 15.77 6.45447 15.5977 6.24168 15.5977H3.90102V12.085H7.79875V17.5466Z" fill="#EA0033"/>
<path id="Vector_7" d="M11.696 6.23841H14.0367C14.5467 6.23504 14.5467 5.46157 14.0367 5.45819H11.696C11.186 5.46157 11.186 6.23504 11.696 6.23841Z" fill="#EA0033"/>
<path id="Vector_8" d="M11.6967 8.18727H17.5467C18.0533 8.18727 18.0567 7.41042 17.5467 7.40704H11.6967C11.19 7.41042 11.1867 8.18389 11.6967 8.18727Z" fill="#EA0033"/>
<path id="Vector_9" d="M7.7994 1.94885H6.23896C5.72894 1.95223 5.72894 2.7257 6.23896 2.72908H7.7994C8.30942 2.7257 8.30942 1.95223 7.7994 1.94885Z" fill="#EA0033"/>
<path id="Vector_10" d="M11.6969 1.94885H10.1364C9.6264 1.95223 9.6264 2.7257 10.1364 2.72908H11.6969C12.2069 2.7257 12.2069 1.95223 11.6969 1.94885Z" fill="#EA0033"/>
</g>
</g>
</g>
</svg>
