<svg width="40" height="37" viewBox="0 0 40 37" fill="none" xmlns="http://www.w3.org/2000/svg">
<g clip-path="url(#clip0_658_771)">
<path d="M39.3941 35.8077H35.8291C36.9579 34.4647 36.8495 32.4127 35.5038 31.0948C34.7768 30.3794 32.1301 28.5282 30.0383 27.5366C31.3138 24.9072 31.0332 21.6879 29.1327 19.3221V0.596167C29.1327 0.263569 28.8584 0 28.5268 0H10.0446C10.0383 0 10.0383 0 10.0319 0C9.89796 0 9.76403 0.0439281 9.65561 0.131784L3.60332 5.15214C3.40561 5.3153 3.38648 5.50984 3.38648 5.76086V29.915C3.38648 30.2476 3.66071 30.5112 3.99235 30.5112H18.3036C20.9056 32.3373 24.3686 32.444 27.0982 30.7748C28.0867 32.7515 29.7321 34.9856 30.5102 35.8139H0.605867C0.274235 35.8077 0 36.0775 0 36.4038C0 36.7364 0.274235 37 0.605867 37H39.3941C39.7258 37 40 36.7302 40 36.4038C40 36.0775 39.7258 35.8077 39.3941 35.8077ZM9.43878 1.87636V5.01408H5.65051L9.43878 1.87636ZM4.59821 6.35702H10.0446C10.3763 6.35702 10.6505 6.08718 10.6505 5.76086V1.19233H27.9209V18.0921C24.8023 15.5819 20.1849 15.7576 17.2832 18.6192C17.0599 18.8389 16.8559 19.0773 16.6582 19.3158H9.61097C9.27934 19.3158 9.0051 19.5857 9.0051 19.912C9.0051 20.2446 9.27934 20.5081 9.61097 20.5081H15.861C15.1849 21.7632 14.8533 23.2066 14.9809 24.7817H9.61097C9.27934 24.7817 9.0051 25.0516 9.0051 25.3779C9.0051 25.7042 9.27934 25.9741 9.61097 25.9741H15.1786C15.4783 27.2103 16.0778 28.3462 16.9515 29.3126H4.59184L4.59821 6.35702ZM18.1441 28.8294C15.5421 26.269 15.4847 22.077 18.1441 19.4664C19.4579 18.1737 21.1798 17.5273 22.9018 17.5273C28.9094 17.5273 31.8559 24.7001 27.6594 28.8294C25.0638 31.3835 20.7844 31.4337 18.1441 28.8294ZM31.4668 35.0734C30.7844 34.3957 29.0306 32.0173 28.0867 30.0531C28.2334 29.9276 28.3801 29.8083 28.5204 29.6703C28.8712 29.3314 29.1773 28.9612 29.4452 28.5721C31.4987 29.5259 34.0689 31.3647 34.6492 31.9357C35.5995 32.8708 35.6569 34.3329 34.7768 35.1989C33.9286 36.0399 32.4298 36.0273 31.4668 35.0734Z" fill="#EA0033"/>
<path d="M9.61734 9.57637H22.9018C23.2334 9.57637 23.5076 9.30652 23.5076 8.9802C23.5076 8.6476 23.2334 8.38403 22.9018 8.38403H9.61734C9.28571 8.38403 9.01147 8.65388 9.01147 8.9802C9.01147 9.30652 9.28571 9.57637 9.61734 9.57637Z" fill="#EA0033"/>
<path d="M9.61734 15.0422H22.9018C23.2334 15.0422 23.5076 14.7723 23.5076 14.446C23.5076 14.1197 23.2334 13.8499 22.9018 13.8499H9.61734C9.28571 13.8499 9.01147 14.1197 9.01147 14.446C9.01147 14.7723 9.28571 15.0422 9.61734 15.0422Z" fill="#EA0033"/>
<path d="M25.2487 22.2716L22.2385 25.2336L20.7015 23.7212C20.4656 23.489 20.0829 23.489 19.8469 23.7212C19.611 23.9534 19.611 24.3299 19.8469 24.5621L21.8112 26.4949C21.9324 26.6142 22.0854 26.6706 22.2385 26.6706C22.3916 26.6706 22.551 26.6142 22.6658 26.4949L26.1033 23.1125C26.3393 22.8803 26.3393 22.5037 26.1033 22.2716C25.8737 22.0394 25.4911 22.0394 25.2487 22.2716Z" fill="#EA0033"/>
</g>
<defs>
<clipPath id="clip0_658_771">
<rect width="40" height="37" fill="white"/>
</clipPath>
</defs>
</svg>
