<svg width="40" height="39" viewBox="0 0 40 39" fill="none" xmlns="http://www.w3.org/2000/svg">
<g clip-path="url(#clip0_658_745)">
<path d="M39.5316 31.2222H37.253V3.57321C37.253 1.59979 35.6532 0 33.6798 0H8.24628C6.27285 0 4.67307 1.59979 4.67307 3.57321V6.90962C4.67307 7.16748 4.88883 7.37798 5.14142 7.37798H10.8722V21.8392C10.8722 22.0971 11.088 22.3076 11.3406 22.3076C11.5985 22.3076 11.809 22.0918 11.809 21.8392V3.57321C11.809 2.53651 11.3617 1.59453 10.6512 0.941981H33.664C35.1164 0.941981 36.2952 2.12077 36.2952 3.57321V31.2169H17.5503C17.2925 31.2169 17.082 31.4327 17.082 31.6853V34.7849C17.082 36.2373 15.9032 37.4161 14.4507 37.4161C12.9983 37.4161 11.8195 36.2373 11.8195 34.7849V34.6796C11.8195 34.4218 11.6037 34.2113 11.3511 34.2113C11.0933 34.2113 10.8828 34.4271 10.8828 34.6796V34.7849C10.8828 36.7583 12.4826 38.3581 14.456 38.3581H36.432C38.4055 38.3581 40.0053 36.7583 40.0053 34.7849V31.6853C40 31.4274 39.7842 31.2222 39.5316 31.2222ZM10.8775 3.57321V6.436H5.62031V3.57321C5.62031 2.12077 6.7991 0.941981 8.25154 0.941981C9.70398 0.941981 10.8775 2.12604 10.8775 3.57321ZM39.058 34.7954C39.058 36.2479 37.8792 37.4267 36.4268 37.4267H16.8609C17.5714 36.7741 18.0187 35.8374 18.0187 34.7954V32.1642H39.0528V34.7954H39.058Z" fill="#EA0033"/>
<path d="M15.5664 32.0168V27.7069L19.0238 26.6228C19.2185 26.5596 19.3553 26.3755 19.3553 26.1702C19.3553 25.965 19.2238 25.7808 19.0238 25.7177L9.88291 22.8496C9.78819 22.818 9.69346 22.818 9.59874 22.8496L0.452572 25.7282C0.257861 25.7913 0.121037 25.9755 0.121037 26.1808C0.121037 26.386 0.252598 26.5702 0.452572 26.6333L1.25773 26.8859V29.0962C0.531509 29.3014 0 29.9592 0 30.7433C0 31.6958 0.773582 32.4694 1.72609 32.4694C2.67859 32.4694 3.45218 31.6958 3.45218 30.7433C3.45218 29.9592 2.92067 29.3014 2.19445 29.0909V27.1754L3.91001 27.7069V32.0168C3.91001 32.2168 4.04157 32.401 4.23628 32.4641C6.03605 33.0483 7.88317 33.343 9.73556 33.343C11.5879 33.343 13.4403 33.0483 15.2348 32.4641C15.4348 32.4062 15.5664 32.2273 15.5664 32.0168ZM2.5102 30.7433C2.5102 31.1748 2.15761 31.5274 1.72609 31.5274C1.29457 31.5274 0.941981 31.1748 0.941981 30.7433C0.941981 30.3118 1.29457 29.9592 1.72609 29.9592C2.15761 29.9592 2.5102 30.3118 2.5102 30.7433ZM9.74082 23.8074L17.3135 26.1808L9.74082 28.5541L2.16814 26.1808L9.74082 23.8074ZM4.85199 31.6748V28.0068L9.59874 29.4961C9.64084 29.5066 9.69346 29.5172 9.73556 29.5172C9.77766 29.5172 9.83029 29.5119 9.87239 29.4961L14.6191 28.0068V31.6748C11.4248 32.6483 8.05684 32.6483 4.85199 31.6748Z" fill="#EA0033"/>
<path d="M24.0652 2.58911C20.3657 2.58911 17.3503 5.59924 17.3503 9.30402C17.3503 13.0088 20.3605 16.0189 24.0652 16.0189C27.7648 16.0189 30.7802 13.0035 30.7802 9.30402C30.7749 5.59924 27.7595 2.58911 24.0652 2.58911ZM24.0652 15.0664C20.8815 15.0664 18.2923 12.4773 18.2923 9.29349C18.2923 6.1097 20.8815 3.52057 24.0652 3.52057C27.249 3.52057 29.8382 6.1097 29.8382 9.29349C29.8329 12.4773 27.249 15.0664 24.0652 15.0664Z" fill="#EA0033"/>
<path d="M26.3702 7.11491L23.0022 10.4829L21.7603 9.24094C21.5761 9.05675 21.2761 9.05675 21.0972 9.24094C20.913 9.42513 20.913 9.72509 21.0972 9.90401L22.676 11.4828C22.7707 11.5775 22.8917 11.6196 23.0075 11.6196C23.1285 11.6196 23.2443 11.5775 23.339 11.4828L27.0385 7.78324C27.2227 7.59905 27.2227 7.29909 27.0385 7.12017C26.8491 6.93072 26.5491 6.93072 26.3702 7.11491Z" fill="#EA0033"/>
<path d="M34.185 23.0391H22.6075C22.3497 23.0391 22.1392 23.2548 22.1392 23.5074C22.1392 23.7653 22.355 23.9758 22.6075 23.9758H34.1955C34.4534 23.9758 34.6639 23.76 34.6639 23.5074C34.6639 23.2548 34.4481 23.0391 34.185 23.0391Z" fill="#EA0033"/>
<path d="M34.185 25.6177H22.6075C22.3497 25.6177 22.1392 25.8334 22.1392 26.086C22.1392 26.3439 22.355 26.5544 22.6075 26.5544H34.1955C34.4534 26.5544 34.6639 26.3386 34.6639 26.086C34.6639 25.8334 34.4481 25.6177 34.185 25.6177Z" fill="#EA0033"/>
<path d="M34.185 28.2068H26.3755C26.1176 28.2068 25.9071 28.4225 25.9071 28.6751C25.9071 28.933 26.1229 29.1435 26.3755 29.1435H34.185C34.4428 29.1435 34.6533 28.9277 34.6533 28.6751C34.6586 28.4225 34.4481 28.2068 34.185 28.2068Z" fill="#EA0033"/>
<path d="M16.0084 17.424C16.1189 17.5766 16.3136 17.645 16.4978 17.5977L19.1185 16.9399L19.8132 19.5448C19.8658 19.729 20.0131 19.8658 20.2026 19.8921C20.2236 19.8921 20.2447 19.8974 20.2657 19.8974C20.4289 19.8974 20.5868 19.8079 20.6762 19.6658L22.0708 17.2977C22.2023 17.0714 22.1287 16.782 21.9024 16.6504C21.6761 16.5189 21.3867 16.5925 21.2551 16.8188L20.4341 18.2186L19.9079 16.2505C19.8395 15.9979 19.5816 15.8558 19.3343 15.9189L17.3556 16.4136L18.2976 14.8138C18.4291 14.5875 18.3555 14.2981 18.1292 14.1665C17.9029 14.035 17.6135 14.1087 17.4819 14.3349L15.9663 16.9083C15.8821 17.0662 15.8926 17.2767 16.0084 17.424Z" fill="#EA0033"/>
<path d="M30.6381 14.3297C30.5065 14.1034 30.2171 14.0297 29.9908 14.1613C29.7645 14.2929 29.6908 14.5823 29.8224 14.8086L30.7644 16.4084L28.791 15.9137C28.5542 15.8505 28.291 16.0032 28.2174 16.2452L27.6911 18.2134L26.8702 16.8136C26.7386 16.5873 26.4492 16.5136 26.2229 16.6452C25.9966 16.7767 25.9229 17.0662 26.0545 17.2925L27.4438 19.6606C27.5332 19.8027 27.6806 19.8921 27.8542 19.8921C27.8753 19.8921 27.8963 19.8921 27.9174 19.8869C28.1068 19.8605 28.2647 19.7237 28.3068 19.5395L29.0015 16.9346L31.6222 17.5924C31.8064 17.6345 32.0011 17.5661 32.1116 17.4188C32.2221 17.2661 32.2379 17.0609 32.1432 16.8978L30.6381 14.3297Z" fill="#EA0033"/>
</g>
<defs>
<clipPath id="clip0_658_745">
<rect width="40" height="38.3634" fill="white"/>
</clipPath>
</defs>
</svg>
