<svg width="282" height="137" viewBox="0 0 282 137" fill="none" xmlns="http://www.w3.org/2000/svg">
<g clip-path="url(#clip0_940_561)">
<path d="M14.2065 118.674C14.5219 118.674 14.8145 118.637 15.0842 118.564C15.3538 118.49 15.6007 118.408 15.8338 118.316C15.9343 118.275 16.0029 118.266 16.0395 118.293C16.076 118.321 16.108 118.362 16.1309 118.422L16.4052 119.026C16.4554 119.127 16.4737 119.196 16.46 119.233C16.4463 119.269 16.4097 119.31 16.3549 119.343C15.9938 119.553 15.6144 119.695 15.203 119.764C14.7962 119.833 14.4031 119.869 14.0191 119.869C12.9495 119.869 12.1405 119.558 11.5965 118.939C11.0526 118.321 10.7783 117.386 10.7783 116.135C10.7783 115.549 10.8606 115.017 11.0206 114.536C11.1806 114.055 11.4091 113.648 11.6971 113.308C11.9851 112.969 12.3324 112.708 12.7393 112.52C13.1461 112.333 13.6032 112.241 14.1014 112.241C14.4168 112.241 14.7413 112.268 15.0796 112.323C15.4133 112.378 15.7515 112.502 16.0989 112.685C16.1538 112.713 16.1903 112.745 16.2086 112.786C16.2269 112.823 16.2132 112.896 16.172 112.992L15.8749 113.606C15.8475 113.675 15.8201 113.721 15.7926 113.744C15.7652 113.767 15.7104 113.757 15.6327 113.721C15.3995 113.629 15.1619 113.556 14.9196 113.506C14.6773 113.451 14.4214 113.428 14.1562 113.428C13.8043 113.428 13.498 113.501 13.2421 113.648C12.9861 113.794 12.7758 113.996 12.6113 114.243C12.4467 114.495 12.3233 114.784 12.241 115.109C12.1587 115.439 12.1176 115.778 12.1176 116.131C12.1176 116.484 12.1496 116.813 12.2182 117.12C12.2867 117.427 12.3964 117.693 12.5564 117.922C12.7164 118.151 12.9312 118.335 13.2009 118.467C13.4706 118.609 13.8043 118.674 14.2065 118.674Z" fill="white"/>
<path d="M23.3484 119.718C23.3164 119.741 23.2524 119.755 23.1519 119.755H22.352C22.2697 119.755 22.2057 119.741 22.1691 119.714C22.1326 119.686 22.1097 119.626 22.1097 119.535V116.424H18.8278V119.535C18.8278 119.636 18.8095 119.695 18.7775 119.718C18.7409 119.741 18.6769 119.755 18.5764 119.755H17.7764C17.6987 119.755 17.6393 119.741 17.5982 119.714C17.557 119.686 17.5342 119.626 17.5342 119.535V112.571C17.5342 112.479 17.557 112.42 17.5982 112.392C17.6393 112.365 17.6987 112.351 17.7764 112.351H18.5764C18.6769 112.351 18.7409 112.365 18.7775 112.387C18.814 112.41 18.8278 112.475 18.8278 112.571V115.311H22.1097V112.571C22.1097 112.479 22.128 112.42 22.1691 112.392C22.2057 112.365 22.2697 112.351 22.352 112.351H23.1519C23.2524 112.351 23.3164 112.365 23.3484 112.387C23.3804 112.41 23.3941 112.475 23.3941 112.571V119.53C23.3987 119.631 23.3804 119.691 23.3484 119.718Z" fill="white"/>
<path d="M28.8975 118.137H26.2189L25.7527 119.576C25.7298 119.64 25.7024 119.686 25.6612 119.714C25.6247 119.741 25.5607 119.755 25.4784 119.755H24.5094C24.4317 119.755 24.3814 119.732 24.3631 119.686C24.3402 119.64 24.3402 119.59 24.3631 119.53L26.644 112.837C26.6806 112.731 26.7126 112.644 26.7491 112.585C26.7857 112.525 26.8268 112.47 26.8817 112.438C26.932 112.401 26.996 112.378 27.0645 112.36C27.1331 112.342 27.2199 112.333 27.3159 112.333H27.7684C27.9878 112.333 28.1433 112.365 28.2347 112.433C28.3261 112.502 28.4084 112.635 28.4769 112.841L30.767 119.535C30.7898 119.59 30.7898 119.64 30.7716 119.691C30.7533 119.736 30.7076 119.759 30.6299 119.759H29.6608C29.5831 119.759 29.5237 119.75 29.478 119.732C29.4323 119.714 29.3957 119.668 29.3683 119.59L28.8975 118.137ZM27.4713 111.884C27.2794 111.884 27.0965 111.851 26.9228 111.787C26.7446 111.723 26.5846 111.636 26.4337 111.526C26.2829 111.416 26.1412 111.293 26.0086 111.15C25.8761 111.008 25.7572 110.862 25.6475 110.706C25.6338 110.683 25.6201 110.656 25.611 110.624C25.6018 110.587 25.6247 110.541 25.6795 110.486L25.9766 110.211C26.0406 110.156 26.0818 110.138 26.1092 110.152C26.132 110.17 26.1732 110.198 26.2326 110.243C26.452 110.468 26.6714 110.647 26.8908 110.77C27.1102 110.898 27.3251 110.963 27.5308 110.963C27.613 110.963 27.6999 110.953 27.7822 110.931C27.8644 110.908 27.9559 110.871 28.0564 110.816C28.1524 110.761 28.2667 110.683 28.3947 110.582C28.5226 110.482 28.6689 110.362 28.838 110.211C28.902 110.156 28.9477 110.129 28.9752 110.138C29.0026 110.147 29.0346 110.161 29.0712 110.193L29.3683 110.445C29.4368 110.5 29.4688 110.546 29.4597 110.582C29.4506 110.619 29.4323 110.651 29.414 110.679C29.0894 111.096 28.7649 111.398 28.4449 111.595C28.1067 111.787 27.7867 111.884 27.4713 111.884ZM26.5297 117.033H28.5546L28.0061 115.256L27.5628 113.753H27.5125L27.0782 115.224L26.5297 117.033ZM26.7537 109.799C26.7171 109.758 26.6988 109.721 26.6988 109.698C26.6988 109.675 26.7263 109.639 26.7811 109.588L28.3627 108.374C28.4129 108.337 28.4541 108.319 28.4907 108.314C28.5272 108.31 28.5638 108.337 28.6049 108.392L29.1854 109.121C29.254 109.203 29.2494 109.267 29.1626 109.313L27.2428 110.243C27.2016 110.266 27.1651 110.275 27.1377 110.275C27.1102 110.275 27.0782 110.252 27.0417 110.211L26.7537 109.799Z" fill="white"/>
<path d="M32.9977 119.53C32.9977 119.631 32.984 119.691 32.952 119.714C32.92 119.736 32.856 119.75 32.7554 119.75H31.9647C31.887 119.75 31.8275 119.736 31.7864 119.709C31.7453 119.681 31.7224 119.622 31.7224 119.53V112.933C31.7224 112.736 31.7636 112.585 31.8504 112.484C31.9327 112.383 32.0881 112.333 32.3166 112.333H34.8261C35.178 112.333 35.498 112.387 35.7906 112.497C36.0831 112.607 36.3345 112.763 36.5402 112.965C36.7459 113.166 36.9104 113.405 37.0247 113.684C37.139 113.964 37.1984 114.266 37.1984 114.6C37.1984 114.793 37.1664 115.017 37.107 115.283C37.0476 115.549 36.9287 115.805 36.7459 116.048C36.5676 116.296 36.3162 116.506 35.9917 116.676C35.6671 116.85 35.242 116.937 34.7164 116.937H32.9977V119.53ZM35.8683 114.678C35.8683 114.559 35.85 114.426 35.8088 114.289C35.7723 114.147 35.7037 114.019 35.6077 113.904C35.5117 113.789 35.3792 113.689 35.21 113.615C35.0409 113.537 34.8261 113.501 34.5655 113.501H33.0023V115.847H34.5838C35.0272 115.847 35.3517 115.737 35.5529 115.517C35.7677 115.292 35.8683 115.013 35.8683 114.678Z" fill="white"/>
<path d="M44.489 118.674C44.8044 118.674 45.0969 118.637 45.3666 118.564C45.6363 118.49 45.8831 118.408 46.1163 118.316C46.2168 118.275 46.2854 118.266 46.3219 118.293C46.3585 118.321 46.3905 118.362 46.4134 118.422L46.6876 119.026C46.7379 119.127 46.7562 119.196 46.7425 119.233C46.7288 119.269 46.6922 119.31 46.6373 119.343C46.2762 119.553 45.8969 119.695 45.4855 119.764C45.0787 119.833 44.6856 119.869 44.3016 119.869C43.232 119.869 42.4229 119.558 41.879 118.939C41.335 118.321 41.0608 117.386 41.0608 116.135C41.0608 115.549 41.1431 115.017 41.3031 114.536C41.463 114.055 41.6916 113.648 41.9795 113.308C42.2675 112.969 42.6149 112.708 43.0217 112.52C43.4285 112.333 43.8856 112.241 44.3839 112.241C44.6993 112.241 45.0238 112.268 45.3621 112.323C45.6957 112.378 46.034 112.502 46.3814 112.685C46.4362 112.713 46.4728 112.745 46.4911 112.786C46.5094 112.823 46.4956 112.896 46.4545 112.992L46.1574 113.606C46.13 113.675 46.1025 113.721 46.0751 113.744C46.0477 113.767 45.9928 113.757 45.9151 113.721C45.682 113.629 45.4443 113.556 45.2021 113.506C44.9598 113.451 44.7038 113.428 44.4387 113.428C44.0868 113.428 43.7805 113.501 43.5245 113.648C43.2686 113.794 43.0583 113.996 42.8937 114.243C42.7292 114.495 42.6058 114.784 42.5235 115.109C42.4412 115.439 42.4001 115.778 42.4001 116.131C42.4001 116.484 42.4321 116.813 42.5006 117.12C42.5692 117.427 42.6789 117.693 42.8389 117.922C42.9989 118.151 43.2137 118.335 43.4834 118.467C43.7531 118.609 44.0913 118.674 44.489 118.674Z" fill="white"/>
<path d="M51.7293 118.137H49.0507L48.5844 119.576C48.5616 119.64 48.5342 119.686 48.493 119.714C48.4565 119.741 48.3925 119.755 48.3102 119.755H47.3411C47.2634 119.755 47.2132 119.732 47.1949 119.686C47.172 119.64 47.172 119.59 47.1949 119.53L49.4758 112.837C49.5123 112.731 49.5443 112.644 49.5809 112.585C49.6175 112.52 49.6586 112.47 49.7135 112.438C49.7637 112.401 49.8277 112.378 49.8963 112.36C49.9649 112.342 50.0517 112.333 50.1477 112.333H50.6002C50.8196 112.333 50.975 112.365 51.0665 112.433C51.1579 112.502 51.2402 112.635 51.3087 112.841L53.5988 119.535C53.6216 119.59 53.6216 119.64 53.6033 119.691C53.5851 119.736 53.5393 119.759 53.4616 119.759H52.4926C52.4149 119.759 52.3555 119.75 52.3098 119.732C52.2641 119.714 52.2275 119.668 52.2001 119.59L51.7293 118.137ZM49.3661 117.033H51.391L50.8425 115.256L50.3991 113.753H50.3488L49.9146 115.224L49.3661 117.033ZM49.7683 111.494C49.7317 111.453 49.7135 111.416 49.7135 111.393C49.7135 111.37 49.7409 111.334 49.7957 111.283L51.3773 110.069C51.4276 110.033 51.4687 110.014 51.5053 110.01C51.5418 110.005 51.5784 110.033 51.6196 110.088L52.2001 110.816C52.2686 110.898 52.2641 110.963 52.1772 111.008L50.2574 111.939C50.2163 111.961 50.1797 111.971 50.1523 111.971C50.1249 111.971 50.0929 111.948 50.0563 111.906L49.7683 111.494Z" fill="white"/>
<path d="M55.825 114.275V119.53C55.825 119.631 55.8113 119.691 55.7793 119.714C55.7473 119.736 55.6833 119.75 55.5827 119.75H54.8011C54.7234 119.75 54.664 119.736 54.6228 119.709C54.5817 119.681 54.5588 119.622 54.5588 119.53V112.983C54.5588 112.759 54.6045 112.594 54.6914 112.493C54.7782 112.392 54.9382 112.342 55.1713 112.342H55.5416C55.7244 112.342 55.857 112.374 55.9438 112.442C56.0261 112.511 56.1267 112.63 56.2409 112.809L58.339 116.309L59.2349 117.83H59.2761V112.562C59.2761 112.47 59.2943 112.41 59.3309 112.383C59.3675 112.355 59.4315 112.342 59.5229 112.342H60.3045C60.3959 112.342 60.4599 112.355 60.4965 112.383C60.5331 112.41 60.5513 112.47 60.5513 112.562V119.118C60.5513 119.324 60.5102 119.48 60.4234 119.59C60.3411 119.7 60.1765 119.755 59.9388 119.755H59.5686C59.4772 119.755 59.3995 119.746 59.3355 119.732C59.2715 119.718 59.2166 119.695 59.1664 119.659C59.1161 119.622 59.0704 119.576 59.0247 119.517C58.9789 119.457 58.9287 119.384 58.8738 119.301L56.762 115.792L55.8753 114.28H55.825V114.275Z" fill="white"/>
<path d="M67.9424 119.718C67.9104 119.741 67.8464 119.755 67.7459 119.755H66.946C66.8637 119.755 66.7997 119.741 66.7631 119.714C66.7265 119.686 66.7037 119.626 66.7037 119.535V116.424H63.4218V119.535C63.4218 119.636 63.4035 119.695 63.3715 119.718C63.3349 119.741 63.2709 119.755 63.1703 119.755H62.3704C62.2927 119.755 62.2333 119.741 62.1922 119.714C62.151 119.686 62.1282 119.626 62.1282 119.535V112.571C62.1282 112.479 62.151 112.42 62.1922 112.392C62.2333 112.365 62.2927 112.351 62.3704 112.351H63.1703C63.2709 112.351 63.3349 112.365 63.3715 112.387C63.408 112.41 63.4218 112.475 63.4218 112.571V115.311H66.7037V112.571C66.7037 112.479 66.722 112.42 66.7631 112.392C66.7997 112.365 66.8637 112.351 66.946 112.351H67.7459C67.8464 112.351 67.9104 112.365 67.9424 112.387C67.9744 112.41 67.9881 112.475 67.9881 112.571V119.53C67.9881 119.631 67.9744 119.691 67.9424 119.718Z" fill="white"/>
<path d="M77.4911 113.428C77.4683 113.455 77.4134 113.469 77.3357 113.469H75.3291V119.53C75.3291 119.631 75.3154 119.691 75.2834 119.714C75.2514 119.736 75.1874 119.75 75.0868 119.75H74.264C74.1818 119.75 74.1178 119.736 74.0812 119.709C74.0446 119.681 74.0218 119.622 74.0218 119.53V113.469H72.0608C71.9831 113.469 71.9329 113.455 71.9146 113.428C71.8917 113.4 71.8826 113.35 71.8826 113.281V112.552C71.8826 112.475 71.8917 112.424 71.9146 112.392C71.9374 112.365 71.9831 112.351 72.0608 112.351H77.3357C77.4134 112.351 77.4637 112.365 77.4911 112.392C77.514 112.42 77.5277 112.475 77.5277 112.552V113.281C77.5277 113.35 77.514 113.4 77.4911 113.428Z" fill="white"/>
<path d="M81.7376 118.138H79.059L78.5927 119.576C78.5699 119.64 78.5425 119.686 78.5013 119.714C78.4648 119.741 78.4008 119.755 78.3185 119.755H77.3494C77.2717 119.755 77.2215 119.732 77.2032 119.686C77.1803 119.64 77.1803 119.59 77.2032 119.53L79.4841 112.837C79.5206 112.731 79.5526 112.644 79.5892 112.585C79.6258 112.525 79.6669 112.47 79.7218 112.438C79.7721 112.401 79.836 112.378 79.9046 112.36C79.9732 112.342 80.06 112.333 80.156 112.333H80.6085C80.8279 112.333 80.9834 112.365 81.0748 112.433C81.1662 112.502 81.2485 112.635 81.317 112.841L83.6071 119.535C83.6299 119.59 83.6299 119.64 83.6116 119.691C83.5934 119.737 83.5477 119.759 83.4699 119.759H82.5009C82.4232 119.759 82.3638 119.75 82.3181 119.732C82.2724 119.714 82.2358 119.668 82.2084 119.59L81.7376 118.138ZM81.0016 111.261C81.0565 111.302 81.0839 111.338 81.0839 111.361C81.0839 111.384 81.0656 111.421 81.0291 111.471L80.7457 111.861C80.7091 111.902 80.6771 111.929 80.6497 111.934C80.6222 111.943 80.572 111.925 80.5034 111.893L78.6019 110.981C78.5242 110.944 78.5196 110.885 78.579 110.802L79.1687 110.042C79.2098 109.987 79.251 109.964 79.2921 109.978C79.3287 109.991 79.3698 110.014 79.4018 110.051L81.0016 111.261ZM79.3744 117.033H81.3993L80.8508 115.256L80.4074 113.753H80.3571L79.9229 115.224L79.3744 117.033Z" fill="white"/>
<path d="M85.9384 119.718C85.9018 119.741 85.8378 119.755 85.7373 119.755H84.9373C84.8551 119.755 84.7911 119.741 84.7545 119.714C84.7179 119.686 84.6951 119.626 84.6951 119.535V112.571C84.6951 112.479 84.7134 112.42 84.7545 112.392C84.7911 112.365 84.8551 112.351 84.9373 112.351H85.7373C85.8378 112.351 85.9018 112.365 85.9384 112.387C85.9749 112.41 85.9932 112.475 85.9932 112.571V119.53C85.9887 119.631 85.9749 119.691 85.9384 119.718Z" fill="white"/>
<path d="M91.908 114.275V119.53C91.908 119.631 91.8943 119.691 91.8623 119.714C91.8303 119.736 91.7663 119.75 91.6657 119.75H90.8841C90.8064 119.75 90.747 119.736 90.7058 119.709C90.6647 119.681 90.6418 119.622 90.6418 119.53V112.983C90.6418 112.759 90.6876 112.594 90.7744 112.493C90.8612 112.392 91.0212 112.342 91.2544 112.342H91.6246C91.8074 112.342 91.94 112.374 92.0268 112.442C92.1091 112.511 92.2097 112.63 92.324 112.809L94.422 116.309L95.3179 117.83H95.3591V112.562C95.3591 112.47 95.3773 112.41 95.4139 112.383C95.4505 112.355 95.5145 112.342 95.6059 112.342H96.3875C96.4789 112.342 96.5429 112.355 96.5795 112.383C96.6161 112.41 96.6344 112.47 96.6344 112.562V119.118C96.6344 119.324 96.5932 119.48 96.5064 119.59C96.4241 119.7 96.2595 119.755 96.0219 119.755H95.6516C95.5602 119.755 95.4825 119.746 95.4185 119.732C95.3545 119.718 95.2996 119.695 95.2494 119.659C95.1991 119.622 95.1534 119.576 95.1077 119.517C95.062 119.457 95.0117 119.384 94.9568 119.301L92.845 115.792L91.9583 114.28H91.908V114.275Z" fill="white"/>
<path d="M102.124 118.138H99.4455L98.9792 119.576C98.9564 119.64 98.9289 119.686 98.8878 119.714C98.8512 119.741 98.7872 119.755 98.705 119.755H97.7359C97.6582 119.755 97.6079 119.732 97.5897 119.686C97.5668 119.64 97.5668 119.59 97.5897 119.53L99.8706 112.837C99.9071 112.731 99.9391 112.644 99.9757 112.585C100.012 112.52 100.053 112.47 100.108 112.438C100.159 112.401 100.223 112.378 100.291 112.36C100.36 112.342 100.446 112.333 100.542 112.333H100.995C101.214 112.333 101.37 112.365 101.461 112.433C101.553 112.502 101.635 112.635 101.704 112.841L103.994 119.535C104.016 119.59 104.016 119.64 103.998 119.691C103.98 119.736 103.934 119.759 103.856 119.759H102.887C102.81 119.759 102.75 119.75 102.705 119.732C102.659 119.714 102.622 119.668 102.595 119.59L102.124 118.138ZM100.698 111.884C100.506 111.884 100.323 111.852 100.149 111.787C99.9711 111.723 99.8111 111.636 99.6603 111.526C99.5094 111.416 99.3678 111.293 99.2352 111.151C99.1026 111.008 98.9838 110.862 98.8741 110.706C98.8604 110.683 98.8467 110.656 98.8375 110.624C98.8284 110.592 98.8512 110.541 98.9061 110.486L99.2032 110.211C99.2672 110.156 99.3083 110.138 99.3358 110.152C99.3586 110.17 99.3997 110.198 99.4592 110.243C99.6786 110.468 99.898 110.647 100.117 110.77C100.337 110.899 100.552 110.963 100.757 110.963C100.84 110.963 100.926 110.953 101.009 110.931C101.091 110.908 101.182 110.871 101.283 110.816C101.379 110.761 101.493 110.683 101.621 110.582C101.749 110.482 101.895 110.362 102.065 110.211C102.129 110.156 102.174 110.129 102.202 110.138C102.229 110.147 102.261 110.161 102.298 110.193L102.595 110.445C102.663 110.5 102.695 110.546 102.686 110.582C102.677 110.619 102.659 110.651 102.641 110.679C102.316 111.096 101.991 111.398 101.672 111.595C101.338 111.787 101.018 111.884 100.698 111.884ZM99.7609 117.033H101.786L101.237 115.256L100.794 113.753H100.744L100.309 115.224L99.7609 117.033Z" fill="white"/>
<path d="M106.22 114.275V119.53C106.22 119.631 106.206 119.691 106.174 119.714C106.142 119.736 106.078 119.75 105.977 119.75H105.196C105.118 119.75 105.059 119.736 105.017 119.709C104.976 119.681 104.953 119.622 104.953 119.53V112.983C104.953 112.759 104.999 112.594 105.086 112.493C105.173 112.392 105.333 112.342 105.566 112.342H105.936C106.119 112.342 106.252 112.374 106.338 112.442C106.421 112.511 106.521 112.63 106.635 112.809L108.734 116.309L109.629 117.83H109.671V112.562C109.671 112.47 109.689 112.41 109.725 112.383C109.762 112.355 109.826 112.342 109.917 112.342H110.699C110.79 112.342 110.854 112.355 110.891 112.383C110.928 112.41 110.946 112.47 110.946 112.562V119.118C110.946 119.324 110.905 119.48 110.818 119.59C110.736 119.7 110.571 119.755 110.333 119.755H109.963C109.872 119.755 109.794 119.746 109.73 119.732C109.666 119.718 109.611 119.695 109.561 119.659C109.511 119.622 109.465 119.576 109.419 119.517C109.373 119.457 109.323 119.384 109.268 119.301L107.157 115.792L106.27 114.28H106.22V114.275Z" fill="white"/>
<path d="M115.672 118.706C115.723 118.706 115.791 118.706 115.883 118.701C115.974 118.696 116.075 118.692 116.18 118.678C116.285 118.669 116.399 118.651 116.518 118.619C116.637 118.591 116.751 118.554 116.865 118.513V116.516C116.824 116.506 116.778 116.506 116.733 116.506C116.687 116.506 116.641 116.506 116.591 116.506C116.148 116.506 115.695 116.607 115.229 116.804C115.147 116.841 115.083 116.859 115.046 116.864C115.01 116.868 114.968 116.832 114.936 116.763L114.694 116.099C114.667 116.044 114.658 115.993 114.667 115.957C114.676 115.92 114.712 115.879 114.776 115.847C115.014 115.705 115.302 115.595 115.631 115.508C115.96 115.425 116.289 115.379 116.614 115.379C116.797 115.379 116.948 115.384 117.062 115.393C117.176 115.402 117.29 115.421 117.405 115.439C117.716 115.494 117.926 115.599 118.031 115.755C118.136 115.911 118.195 116.149 118.195 116.474V118.939C118.195 119.022 118.182 119.095 118.154 119.155C118.127 119.214 118.072 119.269 117.994 119.32C117.798 119.439 117.583 119.535 117.345 119.613C117.108 119.686 116.879 119.741 116.651 119.782C116.422 119.819 116.212 119.846 116.02 119.856C115.828 119.865 115.668 119.869 115.549 119.869C114.479 119.869 113.67 119.553 113.126 118.926C112.582 118.298 112.308 117.359 112.308 116.112C112.308 115.526 112.381 114.995 112.528 114.523C112.674 114.046 112.893 113.638 113.177 113.299C113.46 112.96 113.807 112.699 114.219 112.516C114.63 112.333 115.101 112.241 115.627 112.241C115.951 112.241 116.289 112.268 116.646 112.323C117.002 112.378 117.35 112.502 117.697 112.685C117.752 112.713 117.789 112.745 117.807 112.786C117.825 112.823 117.807 112.896 117.761 112.992L117.478 113.648C117.441 113.716 117.409 113.762 117.382 113.78C117.354 113.799 117.3 113.794 117.222 113.767C116.989 113.675 116.742 113.602 116.472 113.551C116.207 113.501 115.933 113.473 115.659 113.473C115.293 113.473 114.982 113.547 114.726 113.689C114.47 113.835 114.26 114.028 114.104 114.271C113.945 114.513 113.83 114.798 113.757 115.123C113.684 115.448 113.647 115.787 113.647 116.14C113.647 116.502 113.679 116.836 113.739 117.152C113.798 117.469 113.903 117.739 114.054 117.968C114.205 118.197 114.415 118.376 114.676 118.509C114.941 118.642 115.27 118.706 115.672 118.706Z" fill="white"/>
<path d="M5.1057 133.509C5.4211 133.509 5.71364 133.472 5.98332 133.399C6.24844 133.326 6.49984 133.243 6.73296 133.152C6.83352 133.11 6.90208 133.101 6.93865 133.129C6.97522 133.156 7.00721 133.197 7.03007 133.257L7.30433 133.862C7.35461 133.963 7.37289 134.031 7.35918 134.068C7.34546 134.105 7.3089 134.146 7.25405 134.178C6.89294 134.389 6.51355 134.531 6.10217 134.599C5.69535 134.668 5.30225 134.705 4.91829 134.705C3.84869 134.705 3.03963 134.393 2.49569 133.775C1.95175 133.156 1.67749 132.221 1.67749 130.971C1.67749 130.384 1.75977 129.853 1.91975 129.372C2.07973 128.891 2.30828 128.483 2.59625 128.144C2.88422 127.805 3.23161 127.544 3.63843 127.356C4.04524 127.168 4.50234 127.076 5.00057 127.076C5.31596 127.076 5.6405 127.104 5.97875 127.159C6.31243 127.214 6.65068 127.337 6.99807 127.521C7.05292 127.548 7.08949 127.58 7.10778 127.622C7.12606 127.658 7.11235 127.731 7.07121 127.828L6.7741 128.442C6.74667 128.51 6.71924 128.556 6.69182 128.579C6.66439 128.602 6.60954 128.593 6.53184 128.556C6.29872 128.465 6.06103 128.391 5.81877 128.341C5.57651 128.286 5.32054 128.263 5.05542 128.263C4.70346 128.263 4.3972 128.336 4.14123 128.483C3.88526 128.629 3.67499 128.831 3.51044 129.078C3.34589 129.33 3.22247 129.619 3.14019 129.944C3.05792 130.274 3.01678 130.613 3.01678 130.966C3.01678 131.319 3.04877 131.649 3.11734 131.956C3.1859 132.263 3.29561 132.528 3.45559 132.758C3.61557 132.987 3.83041 133.17 4.10009 133.303C4.36978 133.445 4.70346 133.509 5.1057 133.509Z" fill="white"/>
<path d="M14.6453 130.856C14.6453 132.084 14.3756 133.032 13.8362 133.701C13.2968 134.37 12.4832 134.705 11.3953 134.705C10.3349 134.705 9.53951 134.384 9.00928 133.738C8.48362 133.092 8.21851 132.148 8.21851 130.897C8.21851 130.293 8.29621 129.752 8.4562 129.28C8.61618 128.808 8.83558 128.409 9.11898 128.08C9.40238 127.75 9.74063 127.502 10.1337 127.328C10.5223 127.154 10.9565 127.072 11.4273 127.072C11.953 127.072 12.4192 127.159 12.826 127.328C13.2283 127.502 13.5665 127.75 13.8316 128.08C14.0967 128.409 14.3024 128.808 14.4396 129.275C14.5767 129.743 14.6453 130.27 14.6453 130.856ZM13.0637 126.742C13.0271 126.778 12.9906 126.788 12.9494 126.778C12.9083 126.769 12.8626 126.751 12.8123 126.719L11.3862 126L9.9509 126.719C9.90061 126.746 9.85948 126.765 9.81834 126.765C9.78177 126.769 9.74063 126.746 9.70863 126.696L9.49837 126.43C9.47095 126.394 9.45266 126.362 9.44809 126.334C9.43895 126.307 9.45723 126.274 9.48923 126.238L10.9336 125.074C11.0159 125.005 11.1028 124.955 11.1805 124.932C11.2628 124.909 11.3313 124.895 11.3862 124.895C11.4502 124.895 11.5233 124.905 11.601 124.927C11.6833 124.95 11.7701 124.996 11.8707 125.074L13.2831 126.215C13.3471 126.265 13.3791 126.307 13.3791 126.348C13.3791 126.389 13.3608 126.426 13.3288 126.458L13.0637 126.742ZM13.3151 130.897C13.3151 130.545 13.2877 130.21 13.2374 129.889C13.1826 129.569 13.0911 129.285 12.954 129.037C12.8169 128.79 12.6249 128.597 12.3826 128.451C12.1404 128.304 11.8296 128.235 11.4502 128.235C11.1256 128.235 10.8468 128.304 10.6045 128.442C10.3669 128.579 10.1657 128.767 10.0103 129.01C9.85033 129.248 9.73606 129.527 9.65835 129.839C9.58065 130.155 9.54408 130.49 9.54408 130.847C9.54408 131.255 9.57151 131.626 9.6355 131.956C9.69492 132.286 9.80005 132.57 9.94632 132.808C10.0926 133.046 10.2891 133.225 10.5314 133.353C10.7737 133.481 11.0753 133.546 11.4319 133.546C11.7884 133.546 12.0901 133.472 12.3324 133.326C12.5746 133.179 12.7712 132.982 12.9174 132.739C13.0637 132.496 13.1688 132.217 13.2283 131.901C13.2877 131.575 13.3151 131.246 13.3151 130.897Z" fill="white"/>
<path d="M17.2828 129.11V134.366C17.2828 134.466 17.269 134.526 17.237 134.549C17.205 134.572 17.1411 134.586 17.0405 134.586H16.2589C16.1812 134.586 16.1217 134.572 16.0806 134.544C16.0395 134.517 16.0166 134.457 16.0166 134.366V127.818C16.0166 127.594 16.0623 127.429 16.1492 127.328C16.236 127.227 16.396 127.177 16.6291 127.177H16.9994C17.1822 127.177 17.3147 127.209 17.4016 127.278C17.4839 127.347 17.5844 127.466 17.6987 127.644L19.7968 131.145L20.6927 132.666H20.7338V127.397C20.7338 127.305 20.7521 127.246 20.7887 127.218C20.8252 127.191 20.8892 127.177 20.9807 127.177H21.7623C21.8537 127.177 21.9177 127.191 21.9543 127.218C21.9908 127.246 22.0091 127.305 22.0091 127.397V133.953C22.0091 134.159 21.968 134.315 21.8811 134.425C21.7988 134.535 21.6343 134.59 21.3966 134.59H21.0264C20.9349 134.59 20.8572 134.581 20.7932 134.567C20.7292 134.553 20.6744 134.531 20.6241 134.494C20.5738 134.457 20.5281 134.411 20.4824 134.352C20.4367 134.292 20.3864 134.219 20.3316 134.137L18.2198 130.627L17.333 129.115H17.2828V129.11Z" fill="white"/>
<path d="M26.7353 133.541C26.7856 133.541 26.8542 133.541 26.9456 133.536C27.037 133.532 27.1376 133.527 27.2427 133.513C27.3478 133.504 27.4621 133.486 27.5809 133.454C27.6998 133.426 27.8141 133.39 27.9283 133.349V131.351C27.8872 131.342 27.8415 131.342 27.7958 131.342C27.7501 131.342 27.7044 131.342 27.6541 131.342C27.2107 131.342 26.7582 131.443 26.2919 131.64C26.2097 131.676 26.1457 131.695 26.1091 131.699C26.0725 131.704 26.0314 131.667 25.9994 131.598L25.7571 130.934C25.7297 130.879 25.7206 130.829 25.7297 130.792C25.7388 130.755 25.7754 130.714 25.8394 130.682C26.0771 130.54 26.3651 130.43 26.6942 130.343C27.0233 130.261 27.3524 130.215 27.6769 130.215C27.8598 130.215 28.0106 130.219 28.1249 130.228C28.2392 130.238 28.3534 130.256 28.4677 130.274C28.7785 130.329 28.9888 130.435 29.0939 130.59C29.2036 130.746 29.2585 130.984 29.2585 131.31V133.775C29.2585 133.857 29.2448 133.93 29.2173 133.99C29.1899 134.05 29.1351 134.105 29.0574 134.155C28.8608 134.274 28.646 134.37 28.4083 134.448C28.1706 134.526 27.942 134.576 27.7135 134.618C27.4849 134.654 27.2747 134.682 27.0827 134.691C26.8907 134.7 26.7307 134.705 26.6119 134.705C25.5423 134.705 24.7332 134.389 24.1893 133.761C23.6453 133.133 23.3711 132.194 23.3711 130.948C23.3711 130.361 23.4442 129.83 23.5905 129.358C23.7368 128.881 23.9562 128.474 24.2396 128.135C24.523 127.796 24.8704 127.534 25.2817 127.351C25.6931 127.168 26.1639 127.076 26.6896 127.076C27.0141 127.076 27.3524 127.104 27.7089 127.159C28.0655 127.214 28.4128 127.337 28.7602 127.521C28.8151 127.548 28.8517 127.58 28.8699 127.622C28.8882 127.658 28.8699 127.731 28.8242 127.828L28.5408 128.483C28.5043 128.552 28.4723 128.597 28.4448 128.616C28.4174 128.634 28.3626 128.629 28.2849 128.602C28.0517 128.51 27.8049 128.437 27.5352 128.387C27.2701 128.336 26.9959 128.309 26.7216 128.309C26.3559 128.309 26.0451 128.382 25.7891 128.524C25.5332 128.671 25.3229 128.863 25.1675 129.106C25.0075 129.349 24.8932 129.633 24.8201 129.958C24.7469 130.283 24.7104 130.622 24.7104 130.975C24.7104 131.337 24.7424 131.672 24.8018 131.988C24.8612 132.304 24.9664 132.574 25.1172 132.803C25.268 133.032 25.4783 133.211 25.7388 133.344C26.004 133.477 26.3376 133.541 26.7353 133.541Z" fill="white"/>
<path d="M34.8855 129.11V134.366C34.8855 134.466 34.8718 134.526 34.8398 134.549C34.8078 134.572 34.7438 134.586 34.6433 134.586H33.8616C33.7839 134.586 33.7245 134.572 33.6834 134.544C33.6422 134.517 33.6194 134.457 33.6194 134.366V127.818C33.6194 127.594 33.6651 127.429 33.7519 127.328C33.8388 127.227 33.9988 127.177 34.2319 127.177H34.6021C34.785 127.177 34.9175 127.209 35.0044 127.278C35.0867 127.347 35.1872 127.466 35.3015 127.644L37.3996 131.145L38.2955 132.666H38.3366V127.397C38.3366 127.305 38.3549 127.246 38.3915 127.218C38.428 127.191 38.492 127.177 38.5834 127.177H39.3651C39.4565 127.177 39.5205 127.191 39.557 127.218C39.5936 127.246 39.6119 127.305 39.6119 127.397V133.953C39.6119 134.159 39.5708 134.315 39.4839 134.425C39.4016 134.535 39.2371 134.59 38.9994 134.59H38.6291C38.5377 134.59 38.46 134.581 38.396 134.567C38.332 134.553 38.2772 134.531 38.2269 134.494C38.1766 134.457 38.1309 134.411 38.0852 134.352C38.0395 134.292 37.9892 134.219 37.9344 134.137L35.8226 130.627L34.9358 129.115H34.8855V129.11Z" fill="white"/>
<path d="M44.3381 133.541C44.3884 133.541 44.4569 133.541 44.5484 133.536C44.6398 133.532 44.7403 133.527 44.8455 133.513C44.9506 133.504 45.0649 133.486 45.1837 133.454C45.3026 133.426 45.4168 133.39 45.5311 133.349V131.351C45.49 131.342 45.4443 131.342 45.3986 131.342C45.3528 131.342 45.3071 131.342 45.2569 131.342C44.8135 131.342 44.3609 131.443 43.8947 131.64C43.8124 131.676 43.7484 131.695 43.7119 131.699C43.6753 131.704 43.6342 131.667 43.6022 131.598L43.3599 130.934C43.3325 130.879 43.3233 130.829 43.3325 130.792C43.3416 130.755 43.3782 130.714 43.4422 130.682C43.6799 130.54 43.9678 130.43 44.297 130.343C44.6261 130.261 44.9552 130.215 45.2797 130.215C45.4625 130.215 45.6134 130.219 45.7277 130.228C45.8419 130.238 45.9562 130.256 46.0705 130.274C46.3813 130.329 46.5916 130.435 46.6967 130.59C46.8018 130.746 46.8613 130.984 46.8613 131.31V133.775C46.8613 133.857 46.8475 133.93 46.8201 133.99C46.7927 134.05 46.7378 134.105 46.6601 134.155C46.4636 134.274 46.2488 134.37 46.0111 134.448C45.7734 134.526 45.5448 134.576 45.3163 134.618C45.0877 134.654 44.8775 134.682 44.6855 134.691C44.4935 134.7 44.3335 134.705 44.2147 134.705C43.1451 134.705 42.336 134.389 41.7921 133.761C41.2481 133.133 40.9739 132.194 40.9739 130.948C40.9739 130.361 41.047 129.83 41.1933 129.358C41.3396 128.881 41.559 128.474 41.8424 128.135C42.1258 127.796 42.4731 127.534 42.8845 127.351C43.2959 127.168 43.7667 127.076 44.2924 127.076C44.6169 127.076 44.9552 127.104 45.3117 127.159C45.6682 127.214 46.0156 127.337 46.363 127.521C46.4179 127.548 46.4544 127.58 46.4727 127.622C46.491 127.658 46.4727 127.731 46.427 127.828L46.1436 128.483C46.107 128.552 46.0751 128.597 46.0476 128.616C46.0202 128.634 45.9654 128.629 45.8876 128.602C45.6545 128.51 45.4077 128.437 45.138 128.387C44.8729 128.336 44.5986 128.309 44.3244 128.309C43.9587 128.309 43.6479 128.382 43.3919 128.524C43.1359 128.671 42.9257 128.863 42.7703 129.106C42.6103 129.349 42.496 129.633 42.4229 129.958C42.3497 130.283 42.3132 130.622 42.3132 130.975C42.3132 131.337 42.3452 131.672 42.4046 131.988C42.464 132.304 42.5691 132.574 42.72 132.803C42.8708 133.032 43.0811 133.211 43.3416 133.344C43.6022 133.477 43.9359 133.541 44.3381 133.541Z" fill="white"/>
<path d="M54.0833 134.553C54.0513 134.576 53.9873 134.59 53.8867 134.59H53.0868C53.0045 134.59 52.9406 134.576 52.904 134.549C52.8674 134.521 52.8446 134.462 52.8446 134.37V131.259H49.5626V134.37C49.5626 134.471 49.5443 134.531 49.5123 134.553C49.4758 134.576 49.4118 134.59 49.3112 134.59H48.5113C48.4336 134.59 48.3742 134.576 48.333 134.549C48.2919 134.521 48.269 134.462 48.269 134.37V127.411C48.269 127.319 48.2919 127.26 48.333 127.232C48.3742 127.205 48.4336 127.191 48.5113 127.191H49.3112C49.4118 127.191 49.4758 127.205 49.5123 127.227C49.5489 127.25 49.5626 127.315 49.5626 127.411V130.151H52.8446V127.411C52.8446 127.319 52.8628 127.26 52.904 127.232C52.9406 127.205 53.0045 127.191 53.0868 127.191H53.8867C53.9873 127.191 54.0513 127.205 54.0833 127.227C54.1153 127.25 54.129 127.315 54.129 127.411V134.37C54.129 134.466 54.1153 134.526 54.0833 134.553Z" fill="white"/>
<path d="M60.8211 134.343C60.8211 134.421 60.8074 134.48 60.7799 134.526C60.7525 134.567 60.6931 134.59 60.6017 134.59H57.594C57.2192 134.59 56.9129 134.535 56.6752 134.43C56.4375 134.324 56.2456 134.182 56.0993 134.008C55.953 133.834 55.857 133.633 55.7976 133.403C55.7428 133.179 55.7153 132.941 55.7153 132.693V129.078C55.7153 128.831 55.7473 128.593 55.8159 128.364C55.8845 128.135 55.9942 127.933 56.145 127.754C56.2958 127.576 56.4924 127.438 56.7301 127.333C56.9678 127.227 57.2557 127.172 57.594 127.172H60.5377C60.6291 127.172 60.6885 127.191 60.7114 127.232C60.7342 127.269 60.7479 127.333 60.7479 127.415V128.08C60.7479 128.171 60.7342 128.231 60.7114 128.263C60.6885 128.295 60.6291 128.309 60.5377 128.309H57.7311C57.4614 128.309 57.274 128.368 57.1643 128.487C57.0546 128.607 56.9998 128.781 56.9998 129.005V130.114H60.1857C60.2771 130.114 60.3366 130.132 60.3594 130.164C60.3823 130.201 60.396 130.265 60.396 130.366V130.948C60.396 131.03 60.3823 131.094 60.3594 131.131C60.3366 131.168 60.2771 131.191 60.1857 131.191H56.9998V132.725C56.9998 132.95 57.0592 133.119 57.1735 133.234C57.2877 133.348 57.4751 133.408 57.7265 133.408H60.5971C60.6977 133.408 60.7571 133.426 60.7799 133.463C60.8028 133.5 60.8165 133.564 60.8165 133.665V134.343H60.8211ZM60.1126 126.742C60.076 126.778 60.0394 126.788 59.9983 126.778C59.9572 126.769 59.9115 126.751 59.8612 126.719L58.435 126L56.9998 126.719C56.9495 126.746 56.9084 126.765 56.8672 126.765C56.8306 126.769 56.7895 126.746 56.7575 126.696L56.5472 126.43C56.5198 126.394 56.5015 126.362 56.497 126.334C56.4878 126.307 56.5061 126.274 56.5381 126.238L57.9825 125.074C58.0648 125.005 58.1516 124.955 58.2294 124.932C58.3116 124.909 58.3802 124.895 58.435 124.895C58.499 124.895 58.5722 124.905 58.6499 124.927C58.7322 124.95 58.819 124.996 58.9196 125.074L60.332 126.215C60.396 126.265 60.428 126.307 60.428 126.348C60.428 126.389 60.4097 126.426 60.3777 126.458L60.1126 126.742ZM58.8144 135.942C58.8144 136.148 58.7413 136.317 58.595 136.459C58.4488 136.601 58.2705 136.67 58.0694 136.67C57.8682 136.67 57.69 136.601 57.5483 136.459C57.402 136.317 57.3334 136.148 57.3334 135.942C57.3334 135.736 57.4066 135.561 57.5483 135.419C57.69 135.277 57.8682 135.204 58.0694 135.204C58.2705 135.204 58.4488 135.277 58.595 135.419C58.7413 135.566 58.8144 135.74 58.8144 135.942Z" fill="white"/>
<path d="M64.8387 129.078C64.8387 128.781 64.889 128.51 64.985 128.263C65.081 128.016 65.2318 127.805 65.4284 127.622C65.6249 127.443 65.8718 127.301 66.1735 127.205C66.4706 127.108 66.8225 127.058 67.2248 127.058C67.4168 127.058 67.6133 127.067 67.8144 127.09C68.0201 127.113 68.2212 127.14 68.4269 127.173C68.6326 127.209 68.8292 127.255 69.0166 127.31C69.2086 127.365 69.3823 127.429 69.5422 127.502C69.5971 127.539 69.6337 127.571 69.6474 127.599C69.6611 127.626 69.6565 127.677 69.6245 127.745L69.3731 128.465C69.3457 128.542 69.3183 128.584 69.2954 128.593C69.2726 128.602 69.2314 128.597 69.172 128.584C68.82 128.465 68.4772 128.373 68.139 128.313C67.8007 128.254 67.4899 128.222 67.2019 128.222C66.8362 128.222 66.5711 128.3 66.4066 128.451C66.242 128.602 66.1597 128.781 66.1597 128.987C66.1597 129.115 66.1872 129.23 66.2512 129.33C66.3106 129.431 66.4066 129.532 66.5391 129.628C66.6717 129.724 66.8408 129.821 67.0419 129.912C67.2431 130.009 67.4853 130.109 67.7733 130.224C68.075 130.352 68.3629 130.48 68.6372 130.609C68.9115 130.742 69.1537 130.893 69.364 131.067C69.5742 131.246 69.7434 131.452 69.8668 131.685C69.9902 131.919 70.0496 132.208 70.0496 132.547C70.0496 132.913 69.9811 133.234 69.8439 133.504C69.7068 133.775 69.5194 133.999 69.2863 134.178C69.0486 134.352 68.7698 134.485 68.4498 134.576C68.1253 134.663 67.7779 134.709 67.403 134.709C66.9597 134.709 66.4934 134.668 66.0089 134.581C65.5244 134.499 65.0719 134.343 64.6559 134.114C64.5553 134.072 64.5371 133.985 64.5919 133.862L64.9073 133.142C64.9576 133.037 65.0353 133.005 65.1404 133.046C65.4787 133.188 65.8261 133.307 66.1917 133.399C66.5528 133.495 66.9048 133.541 67.2431 133.541C67.7779 133.541 68.1572 133.449 68.3767 133.266C68.5961 133.083 68.7103 132.854 68.7103 132.579C68.7103 132.432 68.6829 132.299 68.6281 132.189C68.5732 132.075 68.4818 131.974 68.3629 131.878C68.2441 131.782 68.0933 131.69 67.9104 131.603C67.7276 131.516 67.5082 131.42 67.2568 131.323C66.8774 131.177 66.5346 131.026 66.2329 130.879C65.9312 130.732 65.6752 130.572 65.4741 130.398C65.2684 130.224 65.113 130.031 65.0033 129.816C64.8936 129.601 64.8387 129.353 64.8387 129.078Z" fill="white"/>
<path d="M77.3769 130.856C77.3769 132.084 77.1073 133.032 76.5679 133.701C76.0285 134.37 75.2149 134.705 74.127 134.705C73.0665 134.705 72.2712 134.384 71.741 133.738C71.2153 133.092 70.9502 132.148 70.9502 130.897C70.9502 130.293 71.0279 129.752 71.1879 129.28C71.3479 128.808 71.5673 128.409 71.8507 128.08C72.1341 127.75 72.4723 127.502 72.8654 127.328C73.254 127.154 73.6882 127.072 74.159 127.072C74.6847 127.072 75.1509 127.159 75.5577 127.328C75.96 127.502 76.2982 127.75 76.5633 128.08C76.8284 128.409 77.0341 128.808 77.1713 129.275C77.3038 129.743 77.3769 130.27 77.3769 130.856ZM75.7908 126.742C75.7543 126.778 75.7177 126.788 75.6766 126.778C75.6354 126.769 75.5897 126.751 75.5394 126.719L74.1133 126L72.678 126.719C72.6277 126.746 72.5866 126.765 72.5455 126.765C72.5089 126.769 72.4677 126.746 72.4358 126.696L72.2255 126.43C72.1981 126.394 72.1798 126.361 72.1752 126.334C72.1661 126.307 72.1844 126.274 72.2163 126.238L73.6608 125.074C73.743 125.005 73.8299 124.955 73.9076 124.932C73.9899 124.909 74.0584 124.895 74.1133 124.895C74.1773 124.895 74.2504 124.905 74.3281 124.927C74.4104 124.95 74.4972 124.996 74.5978 125.074L76.0102 126.215C76.0742 126.265 76.1062 126.307 76.1062 126.348C76.1062 126.389 76.0879 126.426 76.0559 126.458L75.7908 126.742ZM76.0468 130.897C76.0468 130.545 76.0194 130.21 75.9691 129.889C75.9188 129.569 75.8228 129.285 75.6857 129.037C75.5486 128.79 75.3566 128.597 75.1143 128.451C74.8721 128.304 74.5612 128.235 74.1819 128.235C73.8573 128.235 73.5785 128.304 73.3362 128.442C73.0985 128.579 72.8974 128.767 72.742 129.01C72.582 129.248 72.4677 129.527 72.39 129.839C72.3123 130.155 72.2758 130.49 72.2758 130.847C72.2758 131.255 72.3032 131.626 72.3672 131.956C72.4266 132.286 72.5317 132.57 72.678 132.808C72.8243 133.046 73.0208 133.225 73.2631 133.353C73.5054 133.481 73.807 133.546 74.1636 133.546C74.5201 133.546 74.8218 133.472 75.064 133.326C75.3063 133.179 75.5029 132.982 75.6491 132.739C75.7954 132.496 75.9005 132.217 75.9599 131.901C76.0194 131.585 76.0468 131.246 76.0468 130.897ZM75.2972 124.85C75.2606 124.808 75.2423 124.772 75.2423 124.749C75.2423 124.726 75.2697 124.689 75.3246 124.639L76.9061 123.425C76.9564 123.388 76.9976 123.37 77.0341 123.365C77.0707 123.361 77.1073 123.388 77.1484 123.443L77.7289 124.171C77.7975 124.254 77.7929 124.318 77.7061 124.364L75.7863 125.294C75.7451 125.317 75.7086 125.326 75.6811 125.326C75.6537 125.326 75.6217 125.303 75.5851 125.262L75.2972 124.85Z" fill="white"/>
<path d="M84.3064 133.216H84.3704L84.8549 131.557L86.2353 127.328C86.2582 127.26 86.2856 127.214 86.3268 127.2C86.3633 127.186 86.4182 127.177 86.4913 127.177H87.4924C87.5472 127.177 87.5838 127.191 87.5929 127.223C87.6021 127.255 87.6021 127.292 87.5883 127.333L85.2572 134.1C85.1932 134.292 85.12 134.416 85.0286 134.48C84.9418 134.544 84.8138 134.581 84.6446 134.586H84.0733C83.8904 134.586 83.7533 134.558 83.6573 134.494C83.5613 134.434 83.4745 134.302 83.3968 134.095L81.0747 127.328C81.061 127.287 81.061 127.25 81.0747 127.218C81.0885 127.186 81.125 127.172 81.1799 127.172H82.1946C82.2723 127.172 82.3272 127.186 82.3592 127.209C82.3912 127.232 82.414 127.273 82.4277 127.333L83.7807 131.53L84.3064 133.216Z" fill="white"/>
<path d="M89.9196 134.553C89.883 134.576 89.819 134.59 89.7184 134.59H88.9185C88.8363 134.59 88.7723 134.576 88.7357 134.549C88.6991 134.521 88.6763 134.462 88.6763 134.37V127.411C88.6763 127.319 88.6946 127.26 88.7357 127.232C88.7723 127.205 88.8363 127.191 88.9185 127.191H89.7184C89.819 127.191 89.883 127.205 89.9196 127.227C89.9561 127.25 89.9744 127.315 89.9744 127.411V134.37C89.9744 134.466 89.9561 134.526 89.9196 134.553Z" fill="white"/>
<path d="M96.7806 134.343C96.7806 134.421 96.7668 134.48 96.7394 134.526C96.712 134.567 96.6526 134.59 96.5611 134.59H93.5535C93.1786 134.59 92.8724 134.535 92.6347 134.43C92.397 134.324 92.205 134.182 92.0588 134.008C91.9125 133.834 91.8165 133.633 91.7571 133.403C91.7022 133.179 91.6748 132.941 91.6748 132.693V129.078C91.6748 128.831 91.7068 128.593 91.7754 128.364C91.8439 128.135 91.9536 127.933 92.1045 127.754C92.2553 127.576 92.4519 127.438 92.6896 127.333C92.9272 127.227 93.2152 127.172 93.5535 127.172H96.4972C96.5886 127.172 96.648 127.191 96.6709 127.232C96.6937 127.269 96.7074 127.333 96.7074 127.415V128.08C96.7074 128.171 96.6937 128.231 96.6709 128.263C96.648 128.295 96.5886 128.309 96.4972 128.309H93.6906C93.4209 128.309 93.2335 128.368 93.1238 128.487C93.0141 128.607 92.9592 128.781 92.9592 129.005V130.114H96.1452C96.2366 130.114 96.296 130.132 96.3189 130.164C96.3417 130.201 96.3555 130.265 96.3555 130.366V130.948C96.3555 131.03 96.3417 131.094 96.3189 131.131C96.296 131.168 96.2366 131.191 96.1452 131.191H92.9592V132.725C92.9592 132.95 93.0187 133.119 93.1329 133.234C93.2472 133.348 93.4346 133.408 93.686 133.408H96.5566C96.6571 133.408 96.7166 133.426 96.7394 133.463C96.7623 133.5 96.776 133.564 96.776 133.665V134.343H96.7806ZM96.0721 126.742C96.0355 126.778 95.9989 126.788 95.9578 126.778C95.9166 126.769 95.8709 126.751 95.8207 126.719L94.3945 126L92.9592 126.719C92.909 126.746 92.8678 126.765 92.8267 126.765C92.7901 126.769 92.749 126.746 92.717 126.696L92.5067 126.43C92.4793 126.394 92.461 126.362 92.4564 126.334C92.4473 126.307 92.4656 126.274 92.4976 126.238L93.942 125.074C94.0243 125.005 94.1111 124.955 94.1888 124.932C94.2711 124.909 94.3397 124.895 94.3945 124.895C94.4585 124.895 94.5316 124.905 94.6094 124.927C94.6916 124.95 94.7785 124.996 94.879 125.074L96.2915 126.215C96.3555 126.265 96.3874 126.307 96.3874 126.348C96.3874 126.389 96.3692 126.426 96.3372 126.458L96.0721 126.742ZM94.7739 135.942C94.7739 136.148 94.7008 136.317 94.5545 136.459C94.4082 136.601 94.23 136.67 94.0288 136.67C93.8277 136.67 93.6495 136.601 93.5078 136.459C93.3615 136.317 93.2929 136.148 93.2929 135.942C93.2929 135.736 93.3661 135.561 93.5078 135.419C93.654 135.273 93.8277 135.204 94.0288 135.204C94.23 135.204 94.4082 135.277 94.5545 135.419C94.7008 135.566 94.7739 135.74 94.7739 135.942Z" fill="white"/>
<path d="M102.947 128.263C102.924 128.29 102.869 128.304 102.792 128.304H100.785V134.366C100.785 134.466 100.771 134.526 100.739 134.549C100.707 134.572 100.643 134.585 100.543 134.585H99.7198C99.6376 134.585 99.5736 134.572 99.537 134.544C99.5004 134.517 99.4776 134.457 99.4776 134.366V128.304H97.5166C97.4389 128.304 97.3887 128.29 97.3704 128.263C97.3475 128.235 97.3384 128.185 97.3384 128.116V127.388C97.3384 127.31 97.3475 127.259 97.3704 127.227C97.3932 127.2 97.4389 127.186 97.5166 127.186H102.792C102.869 127.186 102.92 127.2 102.947 127.227C102.97 127.255 102.984 127.31 102.984 127.388V128.116C102.984 128.19 102.97 128.235 102.947 128.263Z" fill="white"/>
<path d="M108.135 129.11V134.366C108.135 134.466 108.121 134.526 108.089 134.549C108.057 134.572 107.993 134.586 107.893 134.586H107.111C107.033 134.586 106.974 134.572 106.933 134.544C106.892 134.517 106.869 134.457 106.869 134.366V127.818C106.869 127.594 106.914 127.429 107.001 127.328C107.088 127.227 107.248 127.177 107.481 127.177H107.851C108.034 127.177 108.167 127.209 108.254 127.278C108.336 127.347 108.436 127.466 108.551 127.644L110.649 131.145L111.545 132.666H111.586V127.397C111.586 127.305 111.604 127.246 111.641 127.218C111.677 127.191 111.741 127.177 111.833 127.177H112.614C112.706 127.177 112.77 127.191 112.806 127.218C112.843 127.246 112.861 127.305 112.861 127.397V133.953C112.861 134.159 112.82 134.315 112.733 134.425C112.651 134.535 112.486 134.59 112.249 134.59H111.878C111.787 134.59 111.709 134.581 111.645 134.567C111.581 134.553 111.526 134.531 111.476 134.494C111.426 134.457 111.38 134.411 111.334 134.352C111.289 134.292 111.238 134.219 111.184 134.137L109.072 130.627L108.185 129.115H108.135V129.11Z" fill="white"/>
<path d="M118.346 132.973H115.668L115.202 134.411C115.179 134.476 115.151 134.521 115.11 134.549C115.074 134.576 115.01 134.59 114.927 134.59H113.958C113.881 134.59 113.83 134.567 113.812 134.521C113.789 134.476 113.789 134.425 113.812 134.366L116.093 127.672C116.13 127.566 116.162 127.479 116.198 127.42C116.235 127.36 116.276 127.305 116.331 127.273C116.381 127.237 116.445 127.214 116.513 127.195C116.582 127.177 116.669 127.168 116.765 127.168H117.217C117.437 127.168 117.592 127.2 117.684 127.269C117.775 127.337 117.857 127.47 117.926 127.676L120.216 134.37C120.239 134.425 120.239 134.476 120.221 134.526C120.202 134.572 120.157 134.595 120.079 134.595H119.11C119.032 134.595 118.973 134.586 118.927 134.567C118.881 134.549 118.845 134.503 118.817 134.425L118.346 132.973ZM115.983 131.873H118.008L117.46 130.096L117.016 128.593H116.966L116.532 130.063L115.983 131.873Z" fill="white"/>
<path d="M127.209 129.482H127.145L126.588 130.92L125.651 133.257C125.573 133.44 125.5 133.564 125.422 133.628C125.349 133.692 125.226 133.724 125.047 133.724H124.572C124.394 133.724 124.27 133.692 124.197 133.628C124.124 133.564 124.051 133.44 123.982 133.257L123.054 131.026L122.483 129.61H122.419V134.37C122.419 134.471 122.401 134.531 122.364 134.553C122.328 134.576 122.264 134.59 122.172 134.59H121.413C121.336 134.59 121.276 134.576 121.235 134.553C121.194 134.531 121.171 134.466 121.171 134.37V127.823C121.171 127.603 121.212 127.443 121.299 127.337C121.381 127.232 121.546 127.177 121.784 127.177H122.218C122.401 127.177 122.538 127.209 122.629 127.273C122.721 127.337 122.808 127.466 122.881 127.653L124.138 130.751L124.791 132.391H124.832L125.486 130.742L126.729 127.653C126.807 127.461 126.894 127.337 126.995 127.273C127.095 127.209 127.232 127.177 127.415 127.177H127.817C128.041 127.177 128.201 127.227 128.293 127.324C128.384 127.424 128.43 127.58 128.43 127.8V134.37C128.43 134.471 128.412 134.531 128.375 134.553C128.338 134.576 128.274 134.59 128.183 134.59H127.433C127.356 134.59 127.296 134.576 127.26 134.553C127.223 134.531 127.2 134.466 127.2 134.37V129.482H127.209Z" fill="white"/>
<path d="M21.0584 33.643V38.5316H8.14543C7.52378 38.5316 7.08497 38.6553 6.83814 38.9073C6.58673 39.1593 6.46332 39.5946 6.46332 40.2177V43.7043H21.2092V48.3775H6.45875V52.2261C6.45875 52.8492 6.58216 53.2891 6.83357 53.5365C7.08497 53.7885 7.51921 53.9122 8.14086 53.9122H21.2001V58.8008H3.80303C1.26615 58.8008 0 57.5179 0 54.9522V37.5237C0 34.935 1.26615 33.6384 3.80303 33.6384H21.0584V33.643Z" fill="white"/>
<path d="M74.4424 58.8144H63.7189C59.7011 58.8144 56.8945 57.7698 55.3084 55.6852C53.7177 53.6005 52.9224 50.4484 52.9224 46.2287C52.9224 42.009 53.7177 38.8568 55.3084 36.7722C56.8991 34.6876 59.7011 33.6429 63.7189 33.6429H74.0858V38.6782H66.9095C64.0161 38.6782 62.0597 39.1821 61.0449 40.1901C60.0302 41.1981 59.5182 43.2094 59.5182 46.2333C59.5182 49.2572 60.0256 51.2685 61.0449 52.2764C62.0597 53.2844 64.0161 53.7884 66.9095 53.7884H74.4424V58.8144Z" fill="white"/>
<path d="M98.3027 33.643V38.5316H85.3852C84.7635 38.5316 84.3247 38.6553 84.0779 38.9073C83.8265 39.1593 83.7031 39.5946 83.7031 40.2177V43.7043H97.9827V48.3775H83.7031V52.2261C83.7031 52.8492 83.8265 53.2891 84.0779 53.5365C84.3293 53.7885 84.7635 53.9122 85.3852 53.9122H98.4444V58.8008H81.0428C78.5059 58.8008 77.2397 57.5179 77.2397 54.9522V37.5237C77.2397 34.935 78.5059 33.6384 81.0428 33.6384H98.3027V33.643Z" fill="white"/>
<path d="M122.735 58.8144H105.479C102.942 58.8144 101.676 57.5316 101.676 54.9659V33.6429H108.135V52.0886C108.135 52.7117 108.258 53.1515 108.51 53.399C108.761 53.6509 109.195 53.7746 109.817 53.7746H122.735V58.8144Z" fill="white"/>
<path d="M145.763 58.8144H128.508C125.971 58.8144 124.705 57.5316 124.705 54.9659V33.6429H131.163V52.0886C131.163 52.7117 131.287 53.1515 131.538 53.399C131.79 53.6509 132.224 53.7746 132.845 53.7746H145.763V58.8144Z" fill="white"/>
<path d="M168.796 33.643V38.5316H155.878C155.257 38.5316 154.818 38.6553 154.571 38.9073C154.32 39.1593 154.196 39.5946 154.196 40.2177V43.7043H168.476V48.3775H154.196V52.2261C154.196 52.8492 154.32 53.2891 154.571 53.5365C154.822 53.7885 155.257 53.9122 155.878 53.9122H168.938V58.8008H151.536C148.999 58.8008 147.733 57.5179 147.733 54.9522V37.5237C147.733 34.935 148.999 33.6384 151.536 33.6384H168.796V33.643Z" fill="white"/>
<path d="M197.89 33.643V55.0758C197.89 56.1525 197.538 57.0963 196.83 57.8981C196.126 58.6999 194.946 59.1031 193.296 59.1031C191.121 59.1031 189.53 58.338 188.524 56.8031L178.729 42.0228C178.464 41.615 178.24 41.4134 178.048 41.4134C177.76 41.4134 177.618 41.6517 177.618 42.1327V58.819H172.165V37.3083C172.165 35.9888 172.599 34.9991 173.477 34.3394C174.35 33.6796 175.492 33.3497 176.9 33.3497C179.03 33.3497 180.571 34.069 181.531 35.5077L191.395 50.4301C191.418 50.453 191.459 50.5217 191.518 50.6271C191.578 50.737 191.623 50.8058 191.66 50.8424C191.696 50.8791 191.751 50.9203 191.82 50.9661C191.893 51.0165 191.962 51.0394 192.035 51.0394C192.3 51.0394 192.428 50.8378 192.428 50.4301V33.643H197.89Z" fill="white"/>
<path d="M222.646 58.8144H211.918C207.9 58.8144 205.094 57.7698 203.503 55.6852C201.913 53.6005 201.117 50.4484 201.117 46.2287C201.117 42.009 201.913 38.8568 203.503 36.7722C205.094 34.6876 207.9 33.6429 211.918 33.6429H222.285V38.6782H215.109C212.215 38.6782 210.259 39.1821 209.244 40.1901C208.23 41.1981 207.718 43.2094 207.718 46.2333C207.718 49.2572 208.225 51.2685 209.244 52.2764C210.259 53.2844 212.215 53.7884 215.109 53.7884H222.642V58.8144H222.646Z" fill="white"/>
<path d="M246.502 33.643V38.5316H233.585C232.963 38.5316 232.524 38.6553 232.277 38.9073C232.026 39.1593 231.903 39.5946 231.903 40.2177V43.7043H246.182V48.3775H231.903V52.2261C231.903 52.8492 232.026 53.2891 232.277 53.5365C232.529 53.7885 232.963 53.9122 233.585 53.9122H246.644V58.8008H229.242C226.705 58.8008 225.439 57.5179 225.439 54.9522V37.5237C225.439 34.935 226.705 33.6384 229.242 33.6384H246.502V33.643Z" fill="white"/>
<path d="M24.7563 4.4259H22.9736C22.2651 4.4259 21.6892 5.00319 21.6892 5.71334V18.9497C21.6892 19.6598 22.2651 20.2371 22.9736 20.2371H24.7563C25.4648 20.2371 26.0408 19.6598 26.0408 18.9497V5.71334C26.0408 5.00319 25.4694 4.4259 24.7563 4.4259Z" fill="#EA0033"/>
<path d="M18.3478 4.4259C17.2233 4.4259 16.2817 5.0994 15.8246 6.06613L11.0891 16.1457C10.9794 16.384 10.7554 16.7734 10.568 16.7734C10.3806 16.7734 10.1566 16.384 10.0469 16.1457L5.27944 6.06613C4.82235 5.0994 3.88073 4.4259 2.75628 4.4259H0L7.51464 19.0138C8.2597 20.4479 9.7864 20.4158 10.568 20.4158C11.6468 20.4158 12.9129 20.3562 13.5803 19.0138L21.0949 4.4259H18.3478Z" fill="#EA0033"/>
<path d="M101.379 2.00216C101.379 1.29201 100.803 0.714722 100.095 0.714722H98.312C97.6035 0.714722 97.0276 1.29201 97.0276 2.00216V15.0736C97.0276 17.0712 97.7361 18.2349 98.9977 19.0687C100.227 19.8751 101.64 20.2325 104.282 20.2325H105.712C106.421 20.2325 106.997 19.6552 106.997 18.945V17.5476H105.918C105.136 17.5476 103.5 17.5156 102.531 16.8604C101.265 16.0265 101.379 14.5329 101.379 13.4608V2.00216Z" fill="#EA0033"/>
<path d="M73.5146 17.5522C72.7329 17.5522 71.0965 17.5202 70.1275 16.865C68.8613 16.0311 68.9756 14.5375 68.9756 13.4654V7.11068H73.1946C73.9031 7.11068 74.479 6.5334 74.479 5.82324V4.42585H68.9756V2.00216C68.9756 1.29201 68.3997 0.714722 67.6912 0.714722H65.9085C65.2 0.714722 64.6241 1.29201 64.6241 2.00216V4.42585H55.5462V2.00216C55.5462 1.29201 54.9702 0.714722 54.2617 0.714722H52.4791C51.7706 0.714722 51.1946 1.29201 51.1946 2.00216V4.42585H48.4795V5.82324C48.4795 6.5334 49.0554 7.11068 49.7639 7.11068H51.1946V15.0736C51.1946 17.0712 51.8986 18.2349 53.1647 19.0687C54.3943 19.8751 55.8067 20.2325 58.4487 20.2325H59.8794C60.5879 20.2325 61.1639 19.6552 61.1639 18.945V17.5476H60.0851C59.3035 17.5476 57.6671 17.5156 56.6981 16.8604C55.4319 16.0265 55.5462 14.5329 55.5462 13.4608V7.11068H64.6241V15.0736C64.6241 17.0712 65.3326 18.2349 66.5942 19.0687C67.8237 19.8751 69.2362 20.2325 71.8782 20.2325H73.3089C74.0174 20.2325 74.5933 19.6552 74.5933 18.945V17.5476H73.5146V17.5522Z" fill="#EA0033"/>
<path d="M46.875 18.9496V17.5522H37.2394C35.6396 17.5522 33.8158 17.3735 33.2581 15.6737C33.1073 15.1972 32.9976 14.1801 32.9976 13.4975H44.4569C45.2386 13.4975 45.9836 13.3783 46.5779 12.9019C47.3961 12.2467 47.5103 11.3212 47.5103 10.5148C47.5103 8.51723 47.0258 6.54713 44.7175 5.38339C42.8937 4.4579 40.5122 4.37085 38.2084 4.37085C36.3481 4.37085 33.0021 4.37085 30.8447 5.86446C28.6872 7.35807 28.4998 9.53435 28.4998 12.4849C28.4998 14.5741 28.6095 16.7504 29.9122 18.244C31.5486 20.095 33.93 20.2416 35.9367 20.2416H45.5905C46.299 20.237 46.875 19.6598 46.875 18.9496ZM43.0079 9.88255C43.0079 10.2995 42.8982 10.808 42.0389 10.808H35.8498C34.2774 10.808 33.0021 11.5274 33.0021 12.4208V10.808C33.0387 9.76343 33.0021 8.8975 33.8935 8.09572C35.0865 7.02362 36.8692 7.05111 38.0256 7.05111C39.2552 7.05111 40.6676 7.11067 41.7464 7.76584C42.3726 8.15528 43.0079 8.8975 43.0079 9.88255Z" fill="#EA0033"/>
<path d="M93.9375 18.9496V17.5522H84.3019C82.7021 17.5522 80.8783 17.3735 80.3206 15.6737C80.1698 15.1972 80.0601 14.1801 80.0601 13.4975H91.5194C92.3011 13.4975 93.0461 13.3783 93.6404 12.9019C94.4586 12.2467 94.5683 11.3212 94.5683 10.5148C94.5683 8.51723 94.0837 6.54713 91.78 5.38339C89.9562 4.4579 87.5747 4.37085 85.2709 4.37085C83.4106 4.37085 80.0646 4.37085 77.9072 5.86446C75.7497 7.35807 75.5623 9.53435 75.5623 12.4849C75.5623 14.5741 75.672 16.7504 76.9747 18.244C78.6111 20.095 80.9925 20.2416 83.0038 20.2416H92.6576C93.3615 20.237 93.9375 19.6598 93.9375 18.9496ZM90.0704 9.88255C90.0704 10.2995 89.9607 10.808 89.1014 10.808H82.9123C81.3399 10.808 80.0646 11.5274 80.0646 12.4208V10.808C80.1012 9.76343 80.0646 8.8975 80.956 8.09572C82.149 7.02362 83.9317 7.05111 85.0881 7.05111C86.3177 7.05111 87.7301 7.11067 88.8089 7.76584C89.4351 8.15528 90.0704 8.8975 90.0704 9.88255Z" fill="#EA0033"/>
<path d="M24.7563 0H22.9736C22.2651 0 21.6892 0.577286 21.6892 1.28744V1.64481V4.60912C21.6892 3.83025 22.5577 2.93225 23.865 2.93225H24.7563C25.4648 2.93225 26.0408 2.35496 26.0408 1.64481V1.28744C26.0408 0.577286 25.4694 0 24.7563 0Z" fill="#EA0033"/>
<path d="M1.40324 91.9763V86.7899H15.7423C16.2862 86.7899 16.7022 86.6708 16.9993 86.4371C17.2964 86.2034 17.4656 85.9789 17.5158 85.7682C17.5661 85.5574 17.589 85.3054 17.589 85.0076C17.589 84.018 16.9216 83.317 15.5915 82.8955L5.46225 79.8579C3.86241 79.3906 2.73339 78.5475 2.07975 77.338C1.4261 76.1284 1.10156 74.5478 1.10156 72.596C1.10156 68.2251 3.09907 66.0397 7.0895 66.0397H23.0558V71.2261H9.68123C8.4745 71.2261 7.87113 71.7942 7.87113 72.9304C7.87113 73.9659 8.56135 74.6944 9.94177 75.1159L19.0334 77.7824C20.9806 78.3505 22.361 79.1798 23.1747 80.2656C23.9883 81.3515 24.3951 82.9596 24.3951 85.0809C24.3951 89.6763 22.425 91.9717 18.4803 91.9717H1.40324V91.9763Z" stroke="white" stroke-miterlimit="10"/>
<path d="M48.6028 91.9763H37.5502C33.409 91.9763 30.5201 90.9042 28.8837 88.7554C27.2428 86.6066 26.4246 83.3582 26.4246 79.0103C26.4246 74.6623 27.2428 71.4139 28.8837 69.2697C30.5247 67.1209 33.4135 66.0488 37.5502 66.0488H48.2325V71.2352H40.8413C37.8611 71.2352 35.8453 71.753 34.7985 72.793C33.7518 73.8284 33.2261 75.9039 33.2261 79.0149C33.2261 82.1258 33.7518 84.2013 34.7985 85.2367C35.8453 86.2722 37.8611 86.7945 40.8413 86.7945H48.6028V91.9763Z" stroke="white" stroke-miterlimit="10"/>
<path d="M76.1336 66.0443V91.9764H69.4829V81.1591H58.1378V91.9764H51.4871V66.0443H58.1378V75.9727H69.4829V66.0443H76.1336Z" stroke="white" stroke-miterlimit="10"/>
<path d="M86.7429 66.3055C88.3931 65.9344 90.5505 65.7511 93.2108 65.7511C95.8711 65.7511 98.0286 65.9344 99.6787 66.3055C101.329 66.6766 102.728 67.3547 103.875 68.3443C105.022 69.3339 105.822 70.6764 106.279 72.3807C106.736 74.0851 106.965 76.2934 106.965 79.0103C106.965 81.7273 106.736 83.9402 106.279 85.64C105.822 87.3443 105.022 88.6959 103.875 89.6947C102.728 90.6935 101.329 91.3762 99.6787 91.7335C98.0286 92.0909 95.8711 92.2696 93.2108 92.2696C90.5505 92.2696 88.3931 92.0909 86.7429 91.7335C85.0928 91.3762 83.6941 90.6981 82.5468 89.6947C81.3995 88.6959 80.5996 87.3443 80.1471 85.64C79.69 83.9356 79.4614 81.7273 79.4614 79.0103C79.4614 76.2934 79.69 74.0851 80.1471 72.3807C80.6042 70.6764 81.4041 69.3294 82.5468 68.3443C83.6941 67.3547 85.0928 66.6766 86.7429 66.3055ZM87.7028 72.6785C86.7429 73.8148 86.263 75.9269 86.263 79.0149C86.263 82.103 86.7475 84.2197 87.7211 85.3697C88.6947 86.5196 90.5231 87.0923 93.2108 87.0923C95.8986 87.0923 97.7269 86.5196 98.7005 85.3697C99.6742 84.2197 100.159 82.103 100.159 79.0149C100.159 75.9269 99.6742 73.8102 98.7005 72.6602C97.7269 71.5102 95.8986 70.9375 93.2108 70.9375C90.5231 70.9375 88.6902 71.5148 87.7028 72.6785Z" stroke="white" stroke-miterlimit="10"/>
<path d="M131.982 91.9764H114.205C111.595 91.9764 110.288 90.6569 110.288 88.0132V66.0443H116.939V85.0489C116.939 85.6904 117.067 86.1394 117.327 86.4005C117.588 86.6617 118.036 86.7899 118.676 86.7899H131.982V91.9764Z" stroke="white" stroke-miterlimit="10"/>
<path d="M133.088 91.9763L142.732 68.7841C143.176 67.6982 143.761 66.9194 144.488 66.452C145.214 65.9847 146.33 65.7465 147.834 65.7465C149.113 65.7465 150.156 65.9572 150.955 66.3741C151.755 66.7957 152.404 67.5974 152.894 68.7841L162.579 91.9763H155.595L153.268 86.0477H142.367L140.04 91.9763H133.088ZM147.28 72.7884L143.989 81.0125H151.641L148.35 72.7884C148.153 72.2432 147.98 71.9729 147.834 71.9729C147.664 71.9729 147.477 72.2432 147.28 72.7884Z" stroke="white" stroke-miterlimit="10"/>
<path d="M163.873 91.9764V70.0441C163.873 67.3776 165.18 66.0443 167.79 66.0443H181.613C184.177 66.0443 185.969 66.7499 186.993 68.1564C188.017 69.563 188.524 71.7026 188.524 74.5662C188.524 80.5177 186.568 83.4958 182.65 83.4958H180.804V83.679L189.045 91.9764H180.877L175.04 85.2322C174.939 85.1085 174.743 84.8932 174.446 84.5862C174.149 84.2792 173.929 84.0364 173.778 83.8623C173.632 83.6882 173.458 83.4683 173.262 83.1934C173.065 82.9231 172.924 82.6482 172.837 82.3778C172.75 82.1075 172.709 81.8372 172.709 81.5623V80.9713C172.709 80.0824 173.015 79.4731 173.632 79.1386C174.249 78.8042 175.209 78.6392 176.516 78.6392H178.697C179.881 78.6392 180.68 78.3414 181.096 77.7504C181.517 77.1594 181.723 76.1697 181.723 74.7861C181.723 73.4528 181.489 72.5273 181.019 72.0096C180.552 71.4919 179.689 71.2307 178.432 71.2307H172.261C171.621 71.2307 171.173 71.359 170.912 71.6202C170.652 71.8813 170.524 72.3303 170.524 72.9717V91.9764H163.873Z" stroke="white" stroke-miterlimit="10"/>
<path d="M191.555 91.9763V86.7899H205.894C206.438 86.7899 206.854 86.6708 207.151 86.4371C207.448 86.2034 207.617 85.9789 207.667 85.7682C207.718 85.5574 207.74 85.3054 207.74 85.0076C207.74 84.018 207.073 83.317 205.743 82.8955L195.618 79.8579C194.018 79.3906 192.889 78.5475 192.236 77.338C191.582 76.1284 191.258 74.5478 191.258 72.596C191.258 68.2251 193.255 66.0397 197.245 66.0397H213.212V71.2261H199.833C198.626 71.2261 198.023 71.7942 198.023 72.9304C198.023 73.9659 198.713 74.6944 200.093 75.1159L209.185 77.7824C211.132 78.3505 212.512 79.1798 213.326 80.2656C214.14 81.3515 214.547 82.9596 214.547 85.0809C214.547 89.6763 212.576 91.9717 208.632 91.9717H191.555V91.9763Z" stroke="white" stroke-miterlimit="10"/>
<path d="M242.338 66.0443V91.9764H235.687V81.1591H224.342V91.9764H217.691V66.0443H224.342V75.9727H235.687V66.0443H242.338Z" stroke="white" stroke-miterlimit="10"/>
<path d="M253.057 91.9764H246.406V66.0443H253.057V91.9764Z" stroke="white" stroke-miterlimit="10"/>
<path d="M263.771 91.9764H257.12V70.0441C257.12 67.3776 258.428 66.0443 261.038 66.0443H274.787C276.19 66.0443 277.361 66.2459 278.298 66.6537C279.235 67.0614 279.948 67.68 280.441 68.5047C280.935 69.3339 281.278 70.2457 281.474 71.2445C281.671 72.2478 281.771 73.4391 281.771 74.8181C281.771 77.7092 281.273 79.9083 280.277 81.4111C279.28 82.9185 277.447 83.6699 274.787 83.6699H263.771V91.9764ZM263.771 78.4926H271.35C272.703 78.4926 273.649 78.2131 274.179 77.6588C274.709 77.1044 274.974 76.1606 274.974 74.8227C274.974 73.5124 274.709 72.5869 274.179 72.0463C273.649 71.501 272.707 71.2307 271.35 71.2307H265.513C264.873 71.2307 264.425 71.359 264.164 71.6202C263.904 71.8813 263.776 72.3303 263.776 72.9717V78.4926H263.771Z" stroke="white" stroke-miterlimit="10"/>
<path d="M52.1224 58.8145L42.5463 46.05L39.0129 50.8653L44.4478 58.8145H52.1224Z" fill="white"/>
<path d="M51.8392 33.6429H44.16L39.0269 41.2393L42.5465 46.05L51.8392 33.6429Z" fill="white"/>
<path d="M37.4042 41.2393L31.8459 33.6429H24.2078L33.5006 46.05L23.8833 58.8144H31.5625L37.3904 50.8653L40.9238 46.05L37.4042 41.2393Z" fill="#EC1B35"/>
<path d="M2.97565 116.149L5.99247 118.073C6.10675 118.147 6.17531 118.215 6.19817 118.275C6.22102 118.334 6.23473 118.44 6.23473 118.586V119.677C6.23473 119.769 6.22102 119.846 6.1936 119.906C6.16617 119.966 6.10218 119.961 6.00162 119.883L1.5358 116.978C1.42153 116.905 1.33925 116.827 1.27983 116.749C1.22498 116.671 1.19298 116.571 1.18384 116.451V115.993C1.18384 115.801 1.21583 115.663 1.27526 115.585C1.33468 115.508 1.42153 115.43 1.5358 115.356L6.00162 112.438C6.10218 112.365 6.16617 112.36 6.1936 112.424C6.22102 112.488 6.23473 112.571 6.23473 112.672V113.735C6.23473 113.863 6.22559 113.959 6.20274 114.019C6.18445 114.078 6.12046 114.147 6.01076 114.22L2.97565 116.149Z" fill="#EC1B35"/>
<path d="M141.622 131.026L138.605 129.101C138.491 129.028 138.422 128.959 138.399 128.9C138.376 128.84 138.363 128.735 138.363 128.588V127.498C138.363 127.406 138.377 127.328 138.404 127.269C138.431 127.209 138.495 127.214 138.596 127.292L143.062 130.196C143.176 130.27 143.258 130.348 143.318 130.425C143.373 130.503 143.405 130.604 143.414 130.723V131.181C143.414 131.374 143.382 131.511 143.322 131.589C143.263 131.667 143.176 131.745 143.062 131.818L138.596 134.737C138.495 134.81 138.431 134.815 138.404 134.75C138.377 134.686 138.363 134.604 138.363 134.503V133.44C138.363 133.312 138.372 133.216 138.395 133.156C138.413 133.096 138.477 133.028 138.587 132.954L141.622 131.026Z" fill="#EC1B35"/>
<path d="M136.223 125.147C136.251 125.056 136.287 124.992 136.329 124.959C136.374 124.927 136.443 124.909 136.543 124.909H137.343C137.49 124.909 137.544 124.992 137.503 125.156L134.377 136.775C134.359 136.858 134.327 136.918 134.29 136.95C134.253 136.982 134.189 137 134.093 137H133.252C133.193 137 133.147 136.986 133.111 136.95C133.079 136.918 133.074 136.849 133.102 136.748L136.223 125.147Z" fill="#EC1B35"/>
</g>
<defs>
<clipPath id="clip0_940_561">
<rect width="282" height="137" fill="white"/>
</clipPath>
</defs>
</svg>
