<svg width="148" height="72" viewBox="0 0 148 72" fill="none" xmlns="http://www.w3.org/2000/svg">
<g id="Group 1272">
<rect id="Rectangle 2" width="147.5" height="72" fill="white"/>
<g id="Logo">
<g id="Logo Viettel">
<path id="Vector" d="M35.1594 29.1555H33.0665C32.2328 29.1555 31.5588 29.8296 31.5588 30.6633V46.2197C31.5588 47.0534 32.2328 47.7274 33.0665 47.7274H35.1594C35.993 47.7274 36.667 47.0534 36.667 46.2197V30.681C36.6848 29.8296 35.993 29.1555 35.1594 29.1555Z" fill="#EA0029"/>
<path id="Vector_2" d="M27.6212 29.1555C26.291 29.1555 25.1913 29.9537 24.6414 31.089L19.0543 42.9381C18.9302 43.2219 18.6641 43.6831 18.4335 43.6831C18.2207 43.6831 17.9546 43.2219 17.8127 42.9381L12.2256 31.089C11.6758 29.9537 10.5761 29.1555 9.24584 29.1555H6L14.8507 46.3084C15.7198 47.9935 17.529 47.958 18.4513 47.958C19.7283 47.958 21.2182 47.8871 21.9986 46.3084L30.8493 29.1555H27.6212Z" fill="#EA0029"/>
<path id="Vector_3" d="M125.422 26.3174C125.422 25.4837 124.748 24.8097 123.915 24.8097H121.822C120.988 24.8097 120.314 25.4837 120.314 26.3174V41.6787C120.314 44.0202 121.148 45.4038 122.638 46.3794C124.092 47.3195 125.742 47.7452 128.863 47.7452H130.548C131.382 47.7452 132.056 47.0711 132.056 46.2375V44.5878H130.779C129.856 44.5878 127.923 44.5523 126.788 43.7896C125.298 42.814 125.422 41.0579 125.422 39.7985V26.3174Z" fill="#EA0029"/>
<path id="Vector_4" d="M92.6092 44.5878C91.6869 44.5878 89.7535 44.5523 88.6184 43.7895C87.1285 42.8139 87.2526 41.0579 87.2526 39.7984V32.3129H92.219C93.0526 32.3129 93.7266 31.6389 93.7266 30.8052V29.1555H87.2349V26.3174C87.2349 25.4837 86.5609 24.8097 85.7273 24.8097H83.6343C82.8007 24.8097 82.1267 25.4837 82.1267 26.3174V29.1733H71.4314V26.3174C71.4314 25.4837 70.7574 24.8097 69.9237 24.8097H67.8308C66.9794 24.7919 66.3054 25.4837 66.3054 26.3174V29.1733H63.1128V30.8229C63.1128 31.6566 63.7868 32.3307 64.6204 32.3307H66.3054V41.6964C66.3054 44.0556 67.1391 45.4215 68.629 46.3971C70.0834 47.3372 71.7329 47.7629 74.8546 47.7629H76.5396C77.3732 47.7629 78.0472 47.0889 78.0472 46.2552V44.6055H76.7702C75.8479 44.6055 73.9145 44.57 72.7794 43.8073C71.2895 42.8317 71.4136 41.0756 71.4136 39.8162V32.3129H82.109V41.6787C82.109 44.0379 82.9426 45.4037 84.4325 46.3793C85.8869 47.3194 87.5364 47.7452 90.6581 47.7452H92.3431C93.1768 47.7452 93.8508 47.0711 93.8508 46.2374V44.5878H92.6092Z" fill="#EA0029"/>
<path id="Vector_5" d="M61.2149 46.2374V44.5878H49.8633C47.9832 44.5878 45.837 44.3749 45.1808 42.3882C45.0034 41.8206 44.8792 40.6321 44.8792 39.8339H58.377C59.2993 39.8339 60.1684 39.692 60.8779 39.1244C61.8357 38.3616 61.9776 37.2619 61.9776 36.3217C61.9776 33.9803 61.41 31.6566 58.6962 30.2908C56.5501 29.2087 53.7477 29.1023 51.0339 29.1023C48.8346 29.1023 44.897 29.1023 42.3606 30.8584C39.8242 32.6145 39.5937 35.1688 39.5937 38.6455C39.5937 41.0933 39.7178 43.6654 41.2609 45.4214C43.1942 47.5855 45.9967 47.7629 48.3557 47.7629H59.725C60.5409 47.7452 61.2149 47.0711 61.2149 46.2374ZM56.6565 35.5767C56.6565 36.0734 56.5324 36.6588 55.5213 36.6588H48.2315C46.3869 36.6588 44.8792 37.5102 44.8792 38.5568V36.6588C44.9147 35.4348 44.8792 34.4238 45.9257 33.4659C47.3269 32.2065 49.4376 32.242 50.7856 32.242C52.24 32.242 53.8896 32.3129 55.1666 33.0757C55.9116 33.5368 56.6565 34.4238 56.6565 35.5767Z" fill="#EA0029"/>
<path id="Vector_6" d="M116.66 46.2374V44.5878H105.309C103.428 44.5878 101.282 44.3749 100.626 42.3882C100.449 41.8206 100.325 40.6321 100.325 39.8339H113.822C114.745 39.8339 115.614 39.692 116.323 39.1244C117.281 38.3616 117.423 37.2619 117.423 36.3217C117.423 33.9803 116.855 31.6566 114.142 30.2908C111.995 29.2087 109.193 29.1023 106.479 29.1023C104.28 29.1023 100.342 29.1023 97.8059 30.8584C95.2695 32.6145 95.0389 35.1688 95.0389 38.6455C95.0389 41.0933 95.1631 43.6654 96.7062 45.4214C98.6395 47.5855 101.442 47.7629 103.801 47.7629H115.17C115.986 47.7452 116.66 47.0711 116.66 46.2374ZM112.102 35.5767C112.102 36.0734 111.978 36.6588 110.967 36.6588H103.677C101.814 36.6588 100.325 37.5102 100.325 38.5568V36.6588C100.36 35.4348 100.325 34.4238 101.371 33.4659C102.772 32.2065 104.883 32.242 106.231 32.242C107.685 32.242 109.335 32.3129 110.612 33.0757C111.357 33.5368 112.102 34.4238 112.102 35.5767Z" fill="#EA0029"/>
<path id="Vector_7" d="M35.1594 23.9581H33.0665C32.2328 23.9581 31.5588 24.6322 31.5588 25.4659V25.8916V29.1554H31.5766C31.7185 28.304 32.694 27.3993 34.1129 27.3993H35.1594C35.993 27.3993 36.667 26.7253 36.667 25.8916V25.4659C36.6848 24.6322 35.993 23.9581 35.1594 23.9581Z" fill="#EA0029"/>
</g>
</g>
</g>
</svg>
