<svg width="139" height="27" viewBox="0 0 139 27" fill="none" xmlns="http://www.w3.org/2000/svg">
<g id="Group 901">
<g id="Group 907">
<path id="Vector" d="M32.3142 6.22754H30.0307C29.1211 6.22754 28.3858 6.96296 28.3858 7.87256V24.8453C28.3858 25.7549 29.1211 26.4903 30.0307 26.4903H32.3142C33.2237 26.4903 33.9591 25.7549 33.9591 24.8453V7.89191C33.9784 6.96296 33.2237 6.22754 32.3142 6.22754Z" fill="#EA0029"/>
<path id="Vector_2" d="M24.0897 6.22754C22.6383 6.22754 21.4385 7.09843 20.8386 8.33703L14.7428 21.2649C14.6074 21.5746 14.3171 22.0778 14.0655 22.0778C13.8333 22.0778 13.543 21.5746 13.3882 21.2649L7.29244 8.33703C6.69254 7.09843 5.49273 6.22754 4.04136 6.22754H0.5L10.1565 24.942C11.1047 26.7806 13.0786 26.7419 14.0849 26.7419C15.4782 26.7419 17.1037 26.6645 17.9552 24.942L27.6117 6.22754H24.0897Z" fill="#EA0029"/>
<path id="Vector_3" d="M130.795 3.13025C130.795 2.22065 130.059 1.48523 129.15 1.48523H126.866C125.957 1.48523 125.222 2.22065 125.222 3.13025V19.8901C125.222 22.4447 126.131 23.9543 127.757 25.0187C129.343 26.0444 131.143 26.5089 134.549 26.5089H136.387C137.297 26.5089 138.032 25.7734 138.032 24.8638V23.064H136.639C135.633 23.064 133.523 23.0253 132.285 22.1931C130.659 21.1287 130.795 19.2127 130.795 17.8387V3.13025Z" fill="#EA0029"/>
<path id="Vector_4" d="M94.9943 23.0639C93.988 23.0639 91.8787 23.0252 90.6402 22.193C89.0146 21.1286 89.1501 19.2126 89.1501 17.8385V9.67149H94.5685C95.4781 9.67149 96.2134 8.93607 96.2134 8.02647V6.22663H89.1307V3.13012C89.1307 2.22053 88.3954 1.48511 87.4858 1.48511H85.2023C84.2928 1.48511 83.5574 2.22053 83.5574 3.13012V6.24598H71.8884V3.13012C71.8884 2.22053 71.153 1.48511 70.2435 1.48511H67.96C67.0311 1.46575 66.2957 2.22053 66.2957 3.13012V6.24598H62.8124V8.04583C62.8124 8.95542 63.5478 9.69084 64.4573 9.69084H66.2957V19.9093C66.2957 22.4833 67.2053 23.9735 68.8308 25.0379C70.4176 26.0636 72.2174 26.5281 75.6232 26.5281H77.4617C78.3712 26.5281 79.1065 25.7927 79.1065 24.8831V23.0832H77.7132C76.7069 23.0832 74.5976 23.0445 73.3591 22.2123C71.7336 21.1479 71.869 19.232 71.869 17.8579V9.67149H83.5381V19.89C83.5381 22.4639 84.4476 23.9541 86.0732 25.0185C87.66 26.0443 89.4597 26.5087 92.8656 26.5087H94.704C95.6135 26.5087 96.3489 25.7733 96.3489 24.8637V23.0639H94.9943Z" fill="#EA0029"/>
<path id="Vector_5" d="M60.7418 24.8646V23.0647H48.3567C46.3054 23.0647 43.9639 22.8325 43.2479 20.665C43.0544 20.0457 42.9189 18.749 42.9189 17.8781H57.6455C58.6518 17.8781 59.6 17.7233 60.3741 17.104C61.4191 16.2718 61.5739 15.0719 61.5739 14.0462C61.5739 11.4916 60.9547 8.95629 57.9939 7.4661C55.6523 6.28555 52.5947 6.16943 49.6339 6.16943C47.2343 6.16943 42.9382 6.16943 40.171 8.0854C37.4037 10.0014 37.1521 12.7882 37.1521 16.5814C37.1521 19.2522 37.2876 22.0584 38.9712 23.9743C41.0805 26.3354 44.1381 26.529 46.7118 26.529H59.1163C60.0064 26.5096 60.7418 25.7742 60.7418 24.8646ZM55.7684 13.2333C55.7684 13.7752 55.6329 14.4139 54.5299 14.4139H46.5764C44.5638 14.4139 42.9189 15.3428 42.9189 16.4847V14.4139C42.9576 13.0785 42.9189 11.9754 44.0606 10.9303C45.5894 9.55624 47.8923 9.59494 49.363 9.59494C50.9498 9.59494 52.7495 9.67236 54.1429 10.5045C54.9556 11.0077 55.7684 11.9754 55.7684 13.2333Z" fill="#EA0029"/>
<path id="Vector_6" d="M121.235 24.8646V23.0647H108.85C106.799 23.0647 104.457 22.8325 103.741 20.665C103.548 20.0457 103.412 18.749 103.412 17.8781H118.139C119.145 17.8781 120.093 17.7233 120.867 17.104C121.912 16.2718 122.067 15.0719 122.067 14.0462C122.067 11.4916 121.448 8.95629 118.487 7.4661C116.146 6.28555 113.088 6.16943 110.127 6.16943C107.728 6.16943 103.432 6.16943 100.664 8.0854C97.897 10.0014 97.6454 12.7882 97.6454 16.5814C97.6454 19.2522 97.7808 22.0584 99.4644 23.9743C101.574 26.3354 104.631 26.529 107.205 26.529H119.61C120.5 26.5096 121.235 25.7742 121.235 24.8646ZM116.262 13.2333C116.262 13.7752 116.126 14.4139 115.023 14.4139H107.07C105.038 14.4139 103.412 15.3428 103.412 16.4847V14.4139C103.451 13.0785 103.412 11.9754 104.554 10.9303C106.083 9.55624 108.386 9.59494 109.856 9.59494C111.443 9.59494 113.243 9.67236 114.636 10.5045C115.449 11.0077 116.262 11.9754 116.262 13.2333Z" fill="#EA0029"/>
<path id="Vector_7" d="M32.3142 0.556641H30.0307C29.1211 0.556641 28.3858 1.29206 28.3858 2.20166V2.66614V6.22712H28.4051C28.5599 5.29816 29.6243 4.31115 31.1724 4.31115H32.3142C33.2237 4.31115 33.9591 3.57573 33.9591 2.66614V2.20166C33.9784 1.29206 33.2237 0.556641 32.3142 0.556641Z" fill="#EA0029"/>
</g>
</g>
</svg>
