<svg width="125" height="128" viewBox="0 0 125 128" fill="none" xmlns="http://www.w3.org/2000/svg">
<g clip-path="url(#clip0_543_912)">
<path d="M63.8156 9.41991L26.7246 22.4937C11.9833 27.6897 4.2053 43.8442 9.37849 58.5208L11.9818 65.9065L33.5757 127.169C27.9019 111.072 39.4303 86.1444 66.6304 76.5569L85.1759 70.02C99.9172 64.824 107.695 48.6695 102.522 33.9929L99.9187 26.6073C94.7455 11.9307 78.5569 4.22391 63.8156 9.41991Z" fill="#EA0033"/>
</g>
<path d="M23.4565 54.8067L24.0689 41.9349C24.0934 41.3332 24.2374 40.8567 24.5009 40.5053C24.7762 40.1496 25.2771 39.8402 26.0036 39.5771C26.6229 39.3528 27.1598 39.2729 27.6142 39.3373C28.0806 39.3974 28.5363 39.6702 28.9816 40.1556L37.7123 49.6436L34.3359 50.8664L32.1753 48.4157L26.9052 50.3244L26.815 53.5903L23.4565 54.8067ZM26.9649 43.0684L26.8114 47.6102L30.5093 46.2709L27.483 42.8808C27.2928 42.6533 27.162 42.5525 27.0906 42.5783C27.0072 42.6085 26.9653 42.7719 26.9649 43.0684ZM41.5498 48.2538L38.3342 49.4184L34.504 38.8426C34.0381 37.5564 34.4364 36.6846 35.6988 36.2274L42.3444 33.8206C43.0233 33.5747 43.6256 33.4711 44.1515 33.5096C44.6731 33.5363 45.1263 33.7089 45.5112 34.0276C45.8917 34.3343 46.218 34.7146 46.4901 35.1684C46.758 35.6103 47.0126 36.1647 47.2542 36.8316C47.7588 38.2251 47.8986 39.3734 47.6734 40.2768C47.4601 41.1758 46.7104 41.8582 45.4241 42.3241L40.1005 44.2521L41.5498 48.2538ZM39.1947 41.7511L42.8569 40.4248C43.512 40.1875 43.9171 39.8926 44.0723 39.54C44.2351 39.1712 44.2 38.6652 43.9671 38.0221C43.7385 37.3909 43.4458 36.9917 43.0888 36.8246C42.7439 36.6532 42.2438 36.6861 41.5888 36.9233L38.7662 37.9456C38.4566 38.0577 38.26 38.203 38.1764 38.3815C38.1004 38.5437 38.1185 38.7796 38.2307 39.0893L39.1947 41.7511ZM54.983 43.3886L51.7674 44.5532L47.9372 33.9775C47.4713 32.6912 47.8696 31.8195 49.1321 31.3623L55.7776 28.9554C56.4565 28.7096 57.0589 28.6059 57.5847 28.6445C58.1063 28.6711 58.5595 28.8438 58.9444 29.1624C59.3249 29.4692 59.6513 29.8495 59.9234 30.3032C60.1912 30.7451 60.4459 31.2995 60.6874 31.9665C61.1921 33.3599 61.3318 34.5083 61.1066 35.4116C60.8934 36.3106 60.1436 36.9931 58.8574 37.4589L53.5338 39.387L54.983 43.3886ZM52.628 36.886L56.2902 35.5596C56.9452 35.3224 57.3503 35.0275 57.5055 34.6749C57.6683 34.306 57.6333 33.8001 57.4004 33.157C57.1717 32.5257 56.879 32.1266 56.5221 31.9595C56.1771 31.788 55.6771 31.8209 55.022 32.0582L52.1995 33.0804C51.8898 33.1926 51.6932 33.3379 51.6096 33.5163C51.5337 33.6786 51.5518 33.9145 51.6639 34.2241L52.628 36.886ZM75.6871 35.8902L67.0943 39.0022C65.8319 39.4595 64.9699 39.0509 64.5084 37.7766L60.6717 27.1829L63.8873 26.0183L67.2064 35.1828C67.3185 35.4925 67.4579 35.6912 67.6244 35.7791C67.7986 35.8507 68.0405 35.8305 68.3501 35.7183L74.7813 33.3891L75.6871 35.8902ZM77.3621 27.9077L78.7139 20.6485L82.1439 19.4063L79.9937 30.2081L81.3136 33.8524L78.1158 35.0105L76.796 31.3662L68.2454 24.44L71.6753 23.1977L77.3621 27.9077Z" fill="white"/>
<path d="M37.6583 53.1541L42.7322 67.1636C42.9876 67.8688 42.9767 68.5729 42.6996 69.276C42.4324 69.9577 41.7582 70.4944 40.6769 70.886C39.2509 71.4024 38.0272 71.2784 37.0058 70.5139L27.0898 63.177C26.8209 62.9731 26.6238 62.8938 26.4984 62.9392C26.3104 63.0073 26.2731 63.1981 26.3866 63.5115L30.3367 74.4182L26.7639 75.7122L21.673 61.6557C21.3608 60.7938 21.4102 60.0492 21.8211 59.4217C22.242 58.773 22.9147 58.2812 23.8393 57.9463C25.234 57.4412 26.415 57.5452 27.3823 58.2585L37.3794 65.6723C37.4008 65.6823 37.4413 65.7208 37.501 65.7878C37.5707 65.8334 37.6191 65.8691 37.6461 65.8947C37.6831 65.8991 37.7308 65.9084 37.7892 65.9227C37.8476 65.937 37.9002 65.9356 37.9473 65.9186C38.1196 65.8562 38.1576 65.6918 38.0611 65.4254L34.0854 54.4481L37.6583 53.1541ZM56.4125 50.0843L49.6664 52.5276C48.0053 53.1292 46.9862 53.8883 46.6091 54.8048C46.232 55.7213 46.3896 57.1355 47.082 59.0473C47.7744 60.9591 48.5589 62.1463 49.4355 62.6088C50.312 63.0712 51.5808 63.0017 53.2419 62.4001L55.0283 61.7531C55.4358 61.6055 55.6895 61.425 55.7894 61.2116C55.8994 60.9767 55.8806 60.6556 55.733 60.2482L54.2943 56.2757L58.5253 54.7433L60.6451 60.5963C61.2524 62.273 60.7255 63.4122 59.0644 64.0138L52.8118 66.2783C50.1792 67.2318 48.091 67.217 46.5473 66.2339C45.0193 65.2451 43.7558 63.3718 42.757 60.6137C41.7581 57.8557 41.5289 55.6077 42.0694 53.8698C42.6255 52.1262 44.22 50.7777 46.8526 49.8242L55.2207 46.7935L56.4125 50.0843ZM62.3716 62.816L63.1773 45.8794C63.2097 45.0878 63.3992 44.4608 63.7458 43.9984C64.1081 43.5304 64.7672 43.1233 65.7231 42.7771C66.5379 42.482 67.2443 42.3768 67.8423 42.4616C68.4559 42.5407 69.0556 42.8996 69.6415 43.5383L81.1292 56.0225L76.6866 57.6315L73.8437 54.4069L66.9094 56.9183L66.7907 61.2156L62.3716 62.816ZM66.988 47.3709L66.7859 53.3469L71.6516 51.5847L67.6697 47.1241C67.4194 46.8247 67.2473 46.6921 67.1533 46.7261C67.0436 46.7658 66.9885 46.9808 66.988 47.3709ZM86.1506 44.4989L87.9293 34.9474L92.4424 33.3128L89.6132 47.5257L91.3499 52.3209L87.1423 53.8447L85.4057 49.0495L74.1549 39.9361L78.668 38.3015L86.1506 44.4989Z" fill="white"/>
<defs>
<clipPath id="clip0_543_912">
<rect width="96" height="101" fill="white" transform="translate(0 31.9136) rotate(-19.4165)"/>
</clipPath>
</defs>
</svg>
