<svg width="150" height="147" viewBox="0 0 150 147" fill="none" xmlns="http://www.w3.org/2000/svg">
<mask id="mask0_540_405" style="mask-type:alpha" maskUnits="userSpaceOnUse" x="0" y="0" width="150" height="147">
<rect x="0.885986" width="148.228" height="147" fill="#D9D9D9"/>
</mask>
<g mask="url(#mask0_540_405)">
<path d="M131.002 121.95C136.094 116.272 144.451 105.001 147.047 88.7489C150.378 67.897 142.83 48.5431 133.619 36.2428C103.054 -4.57158 26.0774 -5.91879 8.61458 19.2747C5.44654 23.8461 4.53086 28.8665 3.40293 35.0447C-0.182611 54.695 8.14447 63.2291 9.02506 85.437C9.82672 105.649 3.224 106.005 6.56921 115.846C13.8262 137.194 49.2448 148.314 76.2381 146.81C86.607 146.233 112.369 142.73 131.002 121.95Z" fill="#FFEEF1"/>
<path d="M106.198 13.0667H15.0314C13.0193 13.0667 11.3879 14.6964 11.3879 16.7067V79.1606C11.3879 81.1709 13.0193 82.8005 15.0314 82.8005H106.198C108.21 82.8005 109.841 81.1709 109.841 79.1606V16.7067C109.841 14.6964 108.21 13.0667 106.198 13.0667Z" fill="white"/>
<path d="M15.0315 81.3779C13.8071 81.3779 12.8125 80.3833 12.8125 79.1606V16.7067C12.8125 15.484 13.8071 14.4894 15.0315 14.4894H106.198C107.422 14.4894 108.417 15.484 108.417 16.7067V79.1606C108.417 80.3833 107.422 81.3779 106.198 81.3779H15.0315Z" fill="#FFAFBD"/>
<path d="M14.6262 18.375C14.4806 18.375 14.363 18.2575 14.363 18.1119C14.363 16.9682 15.2945 16.0385 16.4382 16.0385H21.692C21.8376 16.0385 21.9551 16.156 21.9551 16.3016C21.9551 16.4472 21.8376 16.5647 21.692 16.5647H16.4382C15.5839 16.5647 14.8893 17.2594 14.8893 18.1119C14.8893 18.2575 14.7718 18.375 14.6262 18.375Z" fill="#EA0029"/>
<path d="M109.841 61.1822C109.696 61.1822 109.578 61.0646 109.578 60.919V45.9664C109.578 45.8208 109.696 45.7033 109.841 45.7033C109.987 45.7033 110.104 45.8208 110.104 45.9664V60.919C110.104 61.0646 109.987 61.1822 109.841 61.1822Z" fill="black"/>
<path d="M11.3879 44.2612C11.2423 44.2612 11.1248 44.1437 11.1248 43.9981V15.9365C11.1248 14.2087 12.5316 12.8036 14.2612 12.8036H26.6212C26.7667 12.8036 26.8843 12.9211 26.8843 13.0667C26.8843 13.2123 26.7667 13.3298 26.6212 13.3298H14.2612C12.8228 13.3298 11.651 14.4999 11.651 15.9365V43.9981C11.651 44.1437 11.5335 44.2612 11.3879 44.2612Z" fill="black"/>
<path d="M27.0616 78.3695L25.1583 78.2906C24.3233 78.2555 23.655 77.4907 23.6567 76.5715L23.676 60.1752C23.676 59.2315 24.3795 58.4859 25.2355 58.5175L27.1195 58.5877C27.9562 58.6192 28.6281 59.3823 28.6281 60.3033V76.7118C28.6281 77.6591 27.9211 78.4064 27.0616 78.3695Z" fill="#FFEEF1"/>
<path d="M33.7977 78.4958L31.8944 78.4169C31.0594 78.3818 30.3911 77.617 30.3928 76.6978L30.4121 63.6818C30.4121 62.7381 31.1155 61.9925 31.9716 62.0241L33.8556 62.0943C34.6923 62.1258 35.3642 62.8889 35.3642 63.8099V76.8381C35.3642 77.7854 34.6572 78.5327 33.7977 78.4976V78.4958Z" fill="#FFEEF1"/>
<path d="M40.5355 78.6205L38.6322 78.5415C37.7972 78.5064 37.1289 77.7434 37.1306 76.8224L37.1517 51.2202C37.1517 50.2765 37.8551 49.5292 38.7111 49.5608L40.5934 49.6309C41.4301 49.6625 42.102 50.4256 42.102 51.3483C42.102 56.4389 42.102 71.7897 42.102 76.9628C42.102 77.91 41.395 78.6573 40.5355 78.6205Z" fill="#FFEEF1"/>
<path d="M47.2716 78.7449L45.3683 78.666C44.5333 78.6309 43.8649 77.8678 43.8667 76.9486L43.8878 44.7525C43.8878 43.8087 44.5912 43.0615 45.4472 43.093L47.3294 43.1632C48.1662 43.1948 48.838 43.9561 48.838 44.8788C48.838 50.8254 48.838 71.0353 48.838 77.0855C48.838 78.0327 48.1311 78.7818 47.2716 78.7449Z" fill="#FFEEF1"/>
<path d="M54.0091 78.8712L52.1058 78.7923C51.2708 78.7572 50.6025 77.9942 50.6043 77.075L50.6253 39.9776C50.6253 39.0339 51.3287 38.2866 52.1848 38.3182L54.067 38.3884C54.9037 38.4199 55.5756 39.183 55.5756 40.1039C55.5756 46.64 55.5756 70.5635 55.5756 77.2136C55.5756 78.1608 54.8687 78.9098 54.0091 78.873V78.8712Z" fill="#FFEEF1"/>
<path d="M87.8209 78.7871L85.9176 78.7082C85.0826 78.6731 84.4143 77.9083 84.416 76.9891L84.4353 63.9731C84.4353 63.0294 85.1387 62.2838 85.9948 62.3154L87.8788 62.3856C88.7155 62.4172 89.3874 63.1802 89.3874 64.1012C89.3874 67.2271 89.3874 73.9544 89.3874 77.1294C89.3874 78.0767 88.6804 78.824 87.8209 78.7889V78.7871Z" fill="#FFEEF1"/>
<path d="M94.5587 78.9116L92.6554 78.8327C91.8204 78.7976 91.1521 78.0345 91.1538 77.1136L91.1749 51.5114C91.1749 50.5676 91.8783 49.8203 92.7343 49.8519L94.6166 49.9221C95.4533 49.9537 96.1251 50.7167 96.1251 51.6394C96.1251 56.73 96.1251 72.0808 96.1251 77.2539C96.1251 78.2012 95.4182 78.9484 94.5587 78.9116Z" fill="#FFEEF1"/>
<path d="M101.295 79.0378L99.3915 78.9589C98.5565 78.9238 97.8881 78.1607 97.8899 77.2415L97.9109 45.0454C97.9109 44.1016 98.6144 43.3543 99.4704 43.3859L101.353 43.4561C102.189 43.4877 102.861 44.249 102.861 45.1717C102.861 51.1183 102.861 71.3282 102.861 77.3783C102.861 78.3256 102.154 79.0746 101.295 79.0378Z" fill="#FFEEF1"/>
<path d="M60.7452 78.9958L58.8419 78.9169C58.0069 78.8818 57.3386 78.1187 57.3403 77.1978L57.3614 50.8448C57.3614 49.9011 58.0648 49.1538 58.9209 49.1854L60.8031 49.2555C61.6398 49.2871 62.3117 50.0502 62.3117 50.9729C62.3117 56.1652 62.3117 72.0598 62.3117 77.3381C62.3117 78.2854 61.6047 79.0327 60.7452 78.9976V78.9958Z" fill="#FFEEF1"/>
<path d="M67.483 79.1221L65.5797 79.0432C64.7447 79.0081 64.0764 78.245 64.0781 77.3258L64.0992 42.3563C64.0992 41.4126 64.8026 40.6653 65.6586 40.6969L67.5409 40.767C68.3776 40.7986 69.0495 41.5617 69.0495 42.4844C69.0495 48.7713 69.0495 71.0739 69.0495 77.4661C69.0495 78.4134 68.3425 79.1607 67.483 79.1238V79.1221Z" fill="#FFEEF1"/>
<path d="M74.2191 79.2467L72.3141 79.1678C71.4791 79.1327 70.8125 78.3696 70.8125 77.4504L70.8353 31.9787C70.8353 31.0349 71.5387 30.2877 72.3948 30.3192L74.277 30.3894C75.1137 30.421 75.7856 31.184 75.7856 32.1067C75.7856 39.5725 75.7856 69.9952 75.7856 77.589C75.7856 78.5363 75.0787 79.2836 74.2191 79.2485V79.2467Z" fill="#FFEEF1"/>
<path d="M81.0463 79.373L79.1412 79.294C78.3062 79.2589 77.6396 78.4959 77.6396 77.5767L77.6625 25.0479C77.6625 24.1041 78.3659 23.3568 79.2219 23.3884L81.1041 23.4586C81.9409 23.4902 82.6127 24.2532 82.6127 25.1742C82.6127 33.3627 82.6127 69.3829 82.6127 77.7135C82.6127 78.6608 81.9058 79.4081 81.0463 79.373Z" fill="#FFEEF1"/>
<path d="M44.3737 18.4643L44.5438 17.1276L43.1598 16.6259C43.144 16.3102 43.1019 15.9979 43.0352 15.6962L44.2333 14.8437L43.7123 13.6017L42.2616 13.8578C42.0915 13.5947 41.8985 13.3474 41.688 13.1158L42.3002 11.7774L41.2267 10.9617L40.1005 11.9072C39.8233 11.7668 39.5339 11.6476 39.2304 11.5528L39.0901 10.0881L37.7534 9.91794L37.2499 11.3002C36.9324 11.316 36.622 11.3581 36.3185 11.4248L35.4642 10.2284L34.2205 10.7494L34.4766 12.1984C34.2135 12.3685 33.9661 12.5615 33.7346 12.772L32.3944 12.1615L31.5787 13.2333L32.5242 14.3578C32.3839 14.6332 32.2646 14.9244 32.1699 15.2278L30.7034 15.3682L30.5332 16.7048L31.9172 17.2065C31.933 17.5223 31.9751 17.8345 32.0418 18.1363L30.8437 18.9888L31.3647 20.2307L32.8154 19.9746C32.9855 20.2378 33.1785 20.4851 33.389 20.7167L32.7768 22.0551L33.8504 22.8708L34.9765 21.9253C35.2537 22.0656 35.5431 22.1849 35.8466 22.2796L35.9869 23.7444L37.3236 23.9145L37.8271 22.5322C38.1446 22.5164 38.4551 22.4743 38.7585 22.4077L39.6111 23.604L40.8548 23.083L40.5987 21.6341C40.8618 21.4639 41.1091 21.271 41.3407 21.0605L42.6809 21.6709L43.4966 20.5991L42.5511 19.4747C42.6914 19.1993 42.8107 18.9081 42.9054 18.6046L44.3719 18.4643H44.3737ZM37.1008 20.357C35.1993 20.115 33.8539 18.3801 34.0959 16.4786C34.338 14.5788 36.0746 13.2333 37.9762 13.4754C39.8777 13.7175 41.2232 15.4524 40.9811 17.3539C40.739 19.2537 39.0024 20.5991 37.1008 20.357Z" fill="#EA0029"/>
<path d="M67.0392 15.5014L67.2988 13.4613L65.185 12.6947C65.1605 12.2123 65.0973 11.7369 64.9938 11.2738L66.8217 9.97223L66.0253 8.07596L63.8115 8.46714C63.5519 8.06719 63.2572 7.68829 62.9344 7.3357L63.8677 5.29208L62.2293 4.04662L60.5102 5.49031C60.0874 5.27454 59.6436 5.09562 59.1823 4.95002L58.9682 2.71345L56.9264 2.45383L56.1598 4.56586C55.6757 4.59041 55.2003 4.65356 54.7389 4.75706L53.4356 2.92921L51.5376 3.72385L51.9287 5.93587C51.527 6.19549 51.1481 6.48843 50.7955 6.8112L48.7502 5.87798L47.5047 7.51463L48.9484 9.23197C48.7326 9.65297 48.5519 10.0968 48.4081 10.5599L46.1698 10.7739L45.9102 12.814L48.0239 13.5806C48.0485 14.063 48.1116 14.5384 48.2151 15.0015L46.3873 16.3031L47.1837 18.1993L49.3975 17.8081C49.6571 18.2081 49.9518 18.587 50.2745 18.9396L49.3413 20.9832L50.9797 22.2287L52.6988 20.785C53.1216 21.0007 53.5654 21.1797 54.0267 21.3253L54.2407 23.5618L56.2826 23.8215L57.0492 21.7094C57.5333 21.6849 58.0087 21.6217 58.4701 21.5182L59.7734 23.3461L61.6714 22.5514L61.2785 20.3394C61.6802 20.0798 62.0591 19.7868 62.4117 19.4641L64.4571 20.3973L65.7025 18.7607L64.2588 17.0433C64.4746 16.6223 64.6553 16.1785 64.7991 15.7154L67.0375 15.5014H67.0392ZM55.9388 18.3905C53.0356 18.0221 50.9815 15.3716 51.3516 12.4719C51.72 9.57228 54.3723 7.51989 57.2755 7.88827C60.1786 8.25664 62.2328 10.9072 61.8626 13.8069C61.4943 16.7065 58.8419 18.7589 55.9388 18.3905Z" fill="#EA0029"/>
<path d="M24.5059 29.1035C24.434 29.1035 24.3638 29.0755 24.3112 29.0176C24.213 28.9106 24.2217 28.7439 24.3287 28.6457L25.3356 27.7283C25.4426 27.63 25.6093 27.6388 25.7075 27.7458C25.8057 27.8528 25.797 28.0195 25.69 28.1177L24.6831 29.0351C24.6322 29.0807 24.569 29.1035 24.5059 29.1035Z" fill="black"/>
<path d="M22.1604 31.2418C22.0885 31.2418 22.0184 31.2138 21.9657 31.1559C21.8675 31.0489 21.8763 30.8822 21.9833 30.784L22.9902 29.8665C23.0972 29.7683 23.2638 29.7771 23.3621 29.8841C23.4603 29.9911 23.4515 30.1577 23.3445 30.256L22.3376 31.1734C22.2867 31.219 22.2236 31.2418 22.1604 31.2418Z" fill="black"/>
<path d="M23.2255 29.0455C23.1535 29.0455 23.0834 29.0175 23.0307 28.9596L22.1133 27.9544C22.0151 27.8474 22.0221 27.6808 22.1309 27.5826C22.2379 27.4843 22.4045 27.4913 22.5027 27.6001L23.4202 28.6052C23.5184 28.7122 23.5114 28.8789 23.4026 28.9771C23.3518 29.0227 23.2886 29.0455 23.2255 29.0455Z" fill="black"/>
<path d="M25.3654 31.3874C25.2934 31.3874 25.2233 31.3593 25.1706 31.3014L24.2532 30.2963C24.155 30.1893 24.162 30.0226 24.2707 29.9244C24.3778 29.8261 24.5444 29.8332 24.6426 29.9419L25.5601 30.9471C25.6583 31.0541 25.6513 31.2207 25.5425 31.3189C25.4917 31.3646 25.4285 31.3874 25.3654 31.3874Z" fill="black"/>
<path d="M139.068 36.6061C138.975 36.6061 138.883 36.5569 138.836 36.4692C136.761 32.6521 133.284 28.7052 130.732 26.067C126.181 21.3623 119.991 16.7084 113.748 13.2983C113.62 13.2281 113.574 13.0685 113.643 12.9405C113.713 12.8124 113.872 12.765 114 12.8352C120.289 16.2681 126.525 20.957 131.111 25.7003C133.686 28.3632 137.196 32.3487 139.299 36.2184C139.369 36.3464 139.322 36.5061 139.194 36.5745C139.154 36.5955 139.111 36.6061 139.069 36.6061H139.068Z" fill="black"/>
<path d="M135.535 25.1811C135.459 25.1811 135.384 25.1496 135.333 25.0864C126.631 14.6315 114.604 7.38678 101.469 4.68535C101.327 4.65553 101.235 4.51695 101.263 4.37486C101.291 4.23277 101.432 4.14155 101.574 4.16962C108.085 5.50806 114.297 7.91654 120.038 11.3267C125.98 14.8561 131.262 19.3713 135.736 24.7496C135.829 24.8619 135.814 25.0268 135.703 25.1197C135.654 25.1601 135.594 25.1811 135.535 25.1811Z" fill="black"/>
<path d="M139.246 53.8163C139.21 53.8163 139.171 53.8076 139.136 53.7918L137.901 53.2164C137.769 53.155 137.711 52.9989 137.773 52.8673C137.834 52.7358 137.99 52.6779 138.122 52.7393L139.357 53.3146C139.488 53.376 139.546 53.5322 139.485 53.6637C139.441 53.7602 139.345 53.8163 139.246 53.8163Z" fill="black"/>
<path d="M136.371 52.4761C136.334 52.4761 136.296 52.4673 136.261 52.4515L135.026 51.8762C134.894 51.8148 134.836 51.6586 134.898 51.5271C134.959 51.3955 135.115 51.3376 135.247 51.399L136.482 51.9744C136.613 52.0358 136.671 52.1919 136.61 52.3235C136.566 52.42 136.47 52.4761 136.371 52.4761Z" fill="black"/>
<path d="M137.575 52.0393C137.538 52.0393 137.499 52.0306 137.464 52.0148C137.333 51.9534 137.276 51.7973 137.338 51.6657L137.913 50.4325C137.975 50.3009 138.131 50.2448 138.262 50.3062C138.394 50.3676 138.45 50.5237 138.389 50.6553L137.813 51.8885C137.769 51.9849 137.673 52.0411 137.575 52.0411V52.0393Z" fill="black"/>
<path d="M136.233 54.9109C136.196 54.9109 136.157 54.9021 136.122 54.8863C135.991 54.8249 135.934 54.6688 135.996 54.5372L136.571 53.3041C136.633 53.1725 136.789 53.1164 136.92 53.1778C137.052 53.2392 137.108 53.3953 137.047 53.5268L136.471 54.76C136.427 54.8565 136.331 54.9126 136.233 54.9126V54.9109Z" fill="black"/>
<path d="M140.232 63.9852C139.783 63.9852 139.334 63.8133 138.996 63.4695C138.669 63.1397 138.492 62.7011 138.496 62.238C138.499 61.7749 138.683 61.3399 139.013 61.0136C139.696 60.3418 140.797 60.3488 141.471 61.0312C141.797 61.361 141.974 61.7995 141.971 62.2626C141.967 62.7257 141.783 63.1607 141.453 63.487C141.115 63.8203 140.674 63.9852 140.234 63.9852H140.232ZM139.369 63.0993C139.838 63.5747 140.606 63.58 141.083 63.1116C141.313 62.8853 141.441 62.5819 141.444 62.2591C141.446 61.9363 141.323 61.6311 141.095 61.4013C140.627 60.9259 139.859 60.9207 139.382 61.389C139.152 61.6153 139.024 61.9188 139.02 62.2416C139.018 62.5643 139.141 62.8695 139.369 63.0993Z" fill="black"/>
<path d="M142.125 71.7791C141.167 71.7791 140.388 71.0003 140.388 70.0425C140.388 69.0847 141.167 68.3058 142.125 68.3058C142.271 68.3058 142.388 68.4234 142.388 68.569C142.388 68.7146 142.271 68.8321 142.125 68.8321C141.457 68.8321 140.915 69.3741 140.915 70.0425C140.915 70.7108 141.458 71.2529 142.125 71.2529C142.792 71.2529 143.335 70.7108 143.335 70.0425C143.335 69.8969 143.453 69.7794 143.599 69.7794C143.744 69.7794 143.862 69.8969 143.862 70.0425C143.862 71.0003 143.083 71.7791 142.125 71.7791Z" fill="white"/>
<path d="M88.0645 22.2711C87.2839 22.2711 86.6506 22.9797 86.6506 23.8551V34.759C86.6506 35.6344 87.2839 36.3431 88.0645 36.3431H114.882C115.663 36.3431 116.296 35.6344 116.296 34.759V23.8551C116.296 22.9797 115.663 22.2711 114.882 22.2711H88.0645Z" fill="white"/>
<path d="M114.881 36.6059H88.063C87.1385 36.6059 86.386 35.778 86.386 34.7588V23.8548C86.386 22.8357 87.1385 22.0077 88.063 22.0077H101.833C101.979 22.0077 102.096 22.1252 102.096 22.2708C102.096 22.4164 101.979 22.5339 101.833 22.5339H88.063C87.428 22.5339 86.9122 23.1269 86.9122 23.8548V34.7588C86.9122 35.4868 87.428 36.0797 88.063 36.0797H114.881C115.516 36.0797 116.032 35.4868 116.032 34.7588V29.9331C116.032 29.7875 116.149 29.6699 116.295 29.6699C116.44 29.6699 116.558 29.7875 116.558 29.9331V34.7588C116.558 35.778 115.805 36.6059 114.881 36.6059Z" fill="#EA0029"/>
<path d="M111.878 27.7248H90.5646C90.419 27.7248 90.3015 27.6072 90.3015 27.4616C90.3015 27.316 90.419 27.1985 90.5646 27.1985H111.878C112.023 27.1985 112.141 27.316 112.141 27.4616C112.141 27.6072 112.023 27.7248 111.878 27.7248Z" fill="#EA0029"/>
<path d="M95.0202 30.9155H90.5646C90.419 30.9155 90.3015 30.7979 90.3015 30.6523C90.3015 30.5068 90.419 30.3892 90.5646 30.3892H95.0202C95.1658 30.3892 95.2834 30.5068 95.2834 30.6523C95.2834 30.7979 95.1658 30.9155 95.0202 30.9155Z" fill="#EA0029"/>
<path d="M111.878 30.9155H97.8688C97.7232 30.9155 97.6057 30.7979 97.6057 30.6523C97.6057 30.5068 97.7232 30.3892 97.8688 30.3892H111.878C112.023 30.3892 112.141 30.5068 112.141 30.6523C112.141 30.7979 112.023 30.9155 111.878 30.9155Z" fill="#EA0029"/>
<path d="M34.5665 44.3259C34.6334 40.8747 31.8898 38.0228 28.4386 37.9559C24.9874 37.889 22.1355 40.6326 22.0686 44.0838C22.0017 47.535 24.7453 50.3869 28.1965 50.4538C31.6477 50.5207 34.4996 47.7771 34.5665 44.3259Z" fill="white"/>
<path d="M28.3247 50.7184C25.6303 50.7184 23.1043 49.0327 22.1693 46.3505C21.5957 44.7086 21.6974 42.9404 22.4535 41.3739C23.2095 39.8074 24.5304 38.6286 26.1741 38.055C27.816 37.4814 29.5842 37.5831 31.1507 38.3392C32.7171 39.0952 33.8959 40.4161 34.4696 42.0598C35.0432 43.7017 34.9414 45.4699 34.1854 47.0364C33.4293 48.6029 32.1084 49.7817 30.4648 50.3553C29.7578 50.6026 29.0351 50.7184 28.3247 50.7184ZM28.3247 38.2146C27.6598 38.2146 26.9933 38.3269 26.3477 38.5514C24.8374 39.0777 23.6235 40.1618 22.9271 41.602C22.2324 43.0421 22.1395 44.6665 22.6657 46.1769C23.7533 49.294 27.1739 50.9447 30.2911 49.8589C31.8015 49.3326 33.0153 48.2485 33.7118 46.8084C34.4064 45.3682 34.4994 43.7438 33.9731 42.2335C33.4469 40.7231 32.3628 39.5092 30.9226 38.8128C30.0982 38.4146 29.214 38.2146 28.3247 38.2146Z" fill="black"/>
<path d="M28.7913 47.1927C28.7246 47.1927 28.6597 47.1682 28.6089 47.119L25.411 44.0598C25.3058 43.9598 25.3022 43.7931 25.4022 43.6879C25.5022 43.5826 25.6689 43.5791 25.7741 43.6791L28.465 46.2542C28.2861 43.93 28.458 42.0933 28.9895 40.6549C29.0404 40.5181 29.1913 40.4497 29.3281 40.4988C29.4649 40.5497 29.5333 40.7005 29.4842 40.8373C28.9369 42.3196 28.7913 44.3615 29.0527 46.9033C29.0632 47.0138 29.0053 47.1173 28.9071 47.1664C28.8702 47.184 28.8299 47.1927 28.7913 47.1927Z" fill="black"/>
<path d="M19.9817 55.7966C19.973 55.7334 19.9204 55.6843 19.8572 55.679L18.9328 55.6036C18.8784 55.5983 18.8328 55.5633 18.8152 55.5124C18.7556 55.3405 18.6854 55.1738 18.6047 55.0142C18.5802 54.9651 18.5854 54.909 18.6205 54.8669L19.2064 54.1494C19.2467 54.1003 19.2467 54.0284 19.2082 53.9775L18.7082 53.3372C18.6679 53.2863 18.5995 53.2706 18.5416 53.2986L17.7031 53.6968C17.654 53.7196 17.5978 53.7108 17.5557 53.6758C17.4189 53.5582 17.2751 53.4495 17.1242 53.3512C17.0786 53.3214 17.0558 53.2688 17.0646 53.2162L17.2137 52.2987C17.2242 52.2356 17.1891 52.1742 17.1295 52.1496L16.3769 51.8462C16.3173 51.8216 16.2489 51.8427 16.2138 51.8953L15.6875 52.6583C15.6559 52.7022 15.6033 52.7233 15.5507 52.7145C15.3753 52.6812 15.1946 52.6601 15.0139 52.6496C14.9595 52.6461 14.9122 52.6127 14.8929 52.5619L14.5649 51.6935C14.542 51.6339 14.4807 51.5971 14.4175 51.6058L13.6141 51.7199C13.5509 51.7286 13.5018 51.7813 13.4966 51.8444L13.4211 52.7689C13.4176 52.8232 13.3808 52.8688 13.3299 52.8864C13.158 52.946 12.9914 53.018 12.8317 53.0969C12.7826 53.1214 12.7265 53.1162 12.6844 53.0811L11.9669 52.4952C11.9178 52.4549 11.8459 52.4531 11.795 52.4935L11.1565 52.9934C11.1056 53.032 11.0898 53.1021 11.1179 53.16L11.5143 53.9985C11.5371 54.0477 11.5284 54.1038 11.4933 54.1459C11.3758 54.2827 11.267 54.4266 11.1688 54.5774C11.1389 54.623 11.0863 54.6458 11.0337 54.6371L10.118 54.488C10.0549 54.4774 9.99347 54.5125 9.96891 54.5722L9.66544 55.3264C9.64088 55.3861 9.66193 55.4545 9.71455 55.4896L10.4759 56.0158C10.5197 56.0474 10.5408 56.1 10.532 56.1527C10.4987 56.3281 10.4776 56.5088 10.4671 56.6912C10.4636 56.7456 10.4303 56.7929 10.3794 56.8122L9.51282 57.142C9.45318 57.1648 9.41634 57.2262 9.42511 57.2894L9.53914 58.0945C9.54791 58.1577 9.60053 58.2068 9.66368 58.2121L10.5881 58.2875C10.6425 58.291 10.6881 58.3278 10.7057 58.3787C10.7653 58.5506 10.8355 58.7173 10.9162 58.8769C10.9407 58.9243 10.9355 58.9822 10.9004 59.0243L10.3145 59.7417C10.2741 59.7908 10.2724 59.8627 10.3127 59.9136L10.8127 60.5539C10.853 60.6048 10.9214 60.6206 10.9793 60.5925L11.8178 60.1943C11.8669 60.1715 11.9231 60.1803 11.9652 60.2153C12.102 60.3329 12.2458 60.4416 12.3967 60.5399C12.4423 60.5697 12.4651 60.6223 12.4563 60.6749L12.3072 61.5924C12.2967 61.6555 12.3318 61.7169 12.3914 61.7415L13.144 62.0449C13.2036 62.0695 13.272 62.0485 13.3071 61.9958L13.8334 61.2328C13.8649 61.1889 13.9176 61.1679 13.9702 61.1766C14.1456 61.21 14.3263 61.231 14.507 61.2415C14.5613 61.245 14.6087 61.2784 14.628 61.3292L14.956 62.1976C14.9788 62.2572 15.0402 62.294 15.1034 62.2853L15.9068 62.1712C15.9699 62.1625 16.0191 62.1098 16.0243 62.0467L16.0998 61.1222C16.105 61.0679 16.1401 61.0223 16.191 61.0047C16.3629 60.9451 16.5295 60.8732 16.6892 60.7942C16.7383 60.7697 16.7944 60.7749 16.8365 60.81L17.554 61.3959C17.6031 61.4362 17.675 61.438 17.7259 61.3977L18.3644 60.8977C18.4153 60.8574 18.4311 60.789 18.403 60.7311L18.0065 59.8926C17.9837 59.8435 17.9925 59.7873 18.0276 59.7452C18.1451 59.6084 18.2539 59.4646 18.3521 59.3137C18.3819 59.2681 18.4346 59.2453 18.4872 59.2541L19.4029 59.4032C19.466 59.4137 19.5274 59.3786 19.552 59.319L19.8554 58.5647C19.88 58.505 19.859 58.4366 19.8063 58.4015L19.045 57.8753C19.0012 57.8437 18.9801 57.7911 18.9889 57.7384C19.0222 57.563 19.0433 57.3823 19.0538 57.1999C19.0573 57.1455 19.0906 57.0982 19.1415 57.0789L20.0081 56.7491C20.0677 56.7263 20.1045 56.6649 20.0958 56.6017L19.9817 55.7966ZM14.7578 59.6628C13.258 59.6628 12.0423 58.4471 12.0423 56.9473C12.0423 55.4475 13.258 54.2318 14.7578 54.2318C16.2576 54.2318 17.4733 55.4475 17.4733 56.9473C17.4733 58.4471 16.2576 59.6628 14.7578 59.6628Z" fill="white"/>
<path d="M15.0824 62.5521C14.9175 62.5521 14.7701 62.4521 14.7087 62.2942L14.4088 61.5031C14.2719 61.4926 14.1351 61.4768 14 61.454L13.5194 62.1486C13.4124 62.303 13.2159 62.3626 13.0405 62.2925L12.288 61.989C12.1125 61.9188 12.0126 61.7399 12.0424 61.554L12.1774 60.719C12.0652 60.6418 11.9547 60.5594 11.8494 60.4716L11.0846 60.8348C10.9144 60.9154 10.7145 60.8681 10.5987 60.719L10.0987 60.0787C9.98297 59.9314 9.98472 59.7261 10.104 59.5788L10.639 58.9245C10.5811 58.8017 10.5268 58.6754 10.4794 58.5456L9.6374 58.4771C9.4497 58.4614 9.30059 58.321 9.27428 58.1351L9.16026 57.3299C9.13395 57.144 9.2392 56.9668 9.41462 56.9001L10.2058 56.6002C10.2163 56.4634 10.2321 56.3265 10.2549 56.1915L9.56021 55.7108C9.40585 55.6038 9.3462 55.4073 9.41637 55.2319L9.71984 54.4794C9.79001 54.304 9.96894 54.204 10.1549 54.2338L10.9899 54.3689C11.0671 54.2566 11.1495 54.1461 11.2372 54.0408L10.8758 53.276C10.7952 53.1059 10.8425 52.9059 10.9916 52.7901L11.6301 52.2902C11.7775 52.1744 11.9845 52.1761 12.1301 52.2954L12.7844 52.8305C12.9072 52.7726 13.0335 52.7182 13.1633 52.6708L13.2317 51.8271C13.2475 51.6394 13.3878 51.4903 13.5738 51.4639L14.3772 51.3499C14.5631 51.3236 14.7403 51.4289 14.807 51.6043L15.1069 52.3954C15.2437 52.4059 15.3806 52.4217 15.5156 52.4445L15.9963 51.7499C16.1033 51.5955 16.2998 51.5359 16.4752 51.606L17.2277 51.9095C17.4031 51.9797 17.5031 52.1586 17.4733 52.3445L17.3382 53.1813C17.4505 53.2585 17.561 53.3409 17.6663 53.4286L18.4311 53.0655C18.6012 52.9848 18.8012 53.0322 18.917 53.1813L19.4169 53.8216C19.5327 53.9689 19.531 54.1742 19.4117 54.3215L18.8766 54.9758C18.9345 55.0986 18.9889 55.2249 19.0363 55.3547L19.8783 55.4231C20.066 55.4389 20.2151 55.5792 20.2414 55.7652L20.3554 56.5704C20.3817 56.7563 20.2765 56.9335 20.1011 57.0001L19.3099 57.3001C19.2994 57.4369 19.2836 57.5737 19.2608 57.7088L19.9555 58.1895C20.1098 58.2965 20.1695 58.4929 20.0993 58.6684L19.7958 59.4209C19.7257 59.5963 19.545 59.6963 19.3608 59.6665L18.5258 59.5314C18.4486 59.6437 18.3662 59.7542 18.2785 59.8594L18.6398 60.6243C18.7205 60.7944 18.6732 60.9944 18.5241 61.1102L17.8855 61.6101C17.7364 61.7259 17.5312 61.7241 17.3856 61.6048L16.7313 61.0698C16.6085 61.1277 16.4822 61.1821 16.3524 61.2294L16.284 62.0732C16.2682 62.2609 16.1279 62.41 15.9419 62.4363L15.1385 62.5503C15.1192 62.5538 15.0999 62.5539 15.0806 62.5539L15.0824 62.5521ZM13.9439 60.9155C13.9685 60.9155 13.993 60.9172 14.0176 60.9225C14.1807 60.9523 14.3509 60.9733 14.521 60.9821C14.6789 60.9909 14.8175 61.0926 14.8736 61.24L15.1666 62.0136L15.77 61.9276L15.8367 61.1031C15.8489 60.947 15.9542 60.812 16.1033 60.7593C16.2647 60.7032 16.4208 60.6365 16.5717 60.5611C16.712 60.4909 16.8821 60.5085 17.0032 60.6085L17.6417 61.1312L18.1223 60.7541L17.768 60.005C17.7013 59.8629 17.7241 59.6945 17.8259 59.5753C17.9347 59.4472 18.0381 59.3104 18.1311 59.17C18.2188 59.0385 18.3732 58.9701 18.5293 58.9946L19.345 59.1279L19.5731 58.5613L18.8942 58.0912C18.7661 58.0018 18.7012 57.8439 18.7293 57.6895C18.7591 57.5246 18.7802 57.3545 18.7907 57.1843C18.7995 57.0264 18.9012 56.8879 19.0468 56.8335L19.8204 56.5405L19.7344 55.9353L18.91 55.8687C18.7539 55.8564 18.6188 55.7512 18.5662 55.602C18.51 55.4407 18.4434 55.2828 18.3679 55.1337C18.2978 54.9933 18.3153 54.8232 18.4153 54.7022L18.938 54.0619L18.5626 53.5812L17.8154 53.9356C17.6733 54.0022 17.5049 53.9794 17.3838 53.8777C17.2558 53.7689 17.119 53.6654 16.9786 53.5725C16.8471 53.4865 16.7786 53.3304 16.8032 53.1743L16.9365 52.3568L16.3699 52.1288L15.8998 52.8076C15.8103 52.9375 15.6525 53.0024 15.4981 52.9725C15.3332 52.9427 15.1648 52.9217 14.9947 52.9129C14.8368 52.9041 14.6982 52.8024 14.6421 52.6568L14.3491 51.8832L13.7457 51.9692L13.679 52.7936C13.6667 52.9497 13.5615 53.0848 13.4124 53.1374C13.251 53.1936 13.0949 53.2602 12.944 53.3357C12.8037 53.4058 12.6335 53.3883 12.5125 53.2883L11.874 52.7655L11.3933 53.1427L11.7477 53.8917C11.8143 54.0338 11.7915 54.2022 11.6898 54.3215C11.581 54.4496 11.4775 54.5864 11.3846 54.7267C11.2986 54.8583 11.1407 54.9267 10.9864 54.9021L10.1707 54.7688L9.94262 55.3354L10.6215 55.8055C10.7495 55.895 10.8144 56.0511 10.7864 56.2072C10.7566 56.3721 10.7355 56.5423 10.725 56.7124C10.7162 56.8703 10.6145 57.0089 10.4689 57.0633L9.69528 57.3562L9.78124 57.9614L10.6057 58.0281C10.7618 58.0404 10.8969 58.1456 10.9495 58.2947C11.0057 58.4561 11.0723 58.614 11.1477 58.7631C11.2179 58.9034 11.2004 59.0736 11.1004 59.1946L10.5776 59.8349L10.953 60.3155L11.7003 59.9612C11.8424 59.8945 12.0108 59.9173 12.1318 60.0191C12.2599 60.1296 12.3967 60.2313 12.5371 60.3243C12.6686 60.4103 12.737 60.5664 12.7125 60.7225L12.5792 61.5399L13.1457 61.768L13.6159 61.0891C13.6913 60.9804 13.8141 60.9172 13.9439 60.9172V60.9155ZM14.7578 59.9243C13.1159 59.9243 11.7792 58.5877 11.7792 56.9457C11.7792 55.3038 13.1159 53.9672 14.7578 53.9672C16.3997 53.9672 17.7364 55.3038 17.7364 56.9457C17.7364 58.5877 16.3997 59.9243 14.7578 59.9243ZM14.7578 54.4934C13.4054 54.4934 12.3055 55.5933 12.3055 56.9457C12.3055 58.2982 13.4054 59.3981 14.7578 59.3981C16.1103 59.3981 17.2102 58.2982 17.2102 56.9457C17.2102 55.5933 16.1103 54.4934 14.7578 54.4934Z" fill="black"/>
<path d="M39.2725 98.8548C39.2725 98.8548 39.5812 105.659 39.9005 107.976C41.1109 116.721 48.1942 125.127 55.7214 125.28L56.3792 125.294C65.4641 125.294 72.1703 132.84 72.1703 142.167C72.1703 142.999 71.4967 143.672 70.667 143.672H27.1248C13.5054 143.672 2.4646 132.339 2.4646 118.356V98.0075C2.4646 92.4468 6.8553 87.9385 12.2722 87.9385H28.6369C34.5099 87.9385 39.2707 92.8274 39.2707 98.8565L39.2725 98.8548Z" fill="#EA0029"/>
<path d="M30.2788 128.877C30.2788 128.877 54.8109 126.022 62.1066 132.337C69.4022 138.652 50.5904 165.806 50.5904 165.806L44.642 161.395L50.2852 142.202L27.6072 135.763L30.2788 128.879V128.877Z" fill="black"/>
<path d="M16.5293 139.271C20.0921 140.402 26.4685 141.864 35.3815 141.743C37.9128 141.708 40.2511 143.107 41.4018 145.363C44.0418 150.54 49.7552 159.862 59.0611 165.903L63.5062 163.508L52.1619 137.971C51.127 135.64 49.1886 133.828 46.7941 132.949L24.3109 124.704C24.3109 124.704 17.3398 122.755 13.9209 128.979C13.3104 130.091 12.1772 128.104 11.9071 129C10.9809 132.075 13.4701 138.301 16.5311 139.273L16.5293 139.271Z" fill="black"/>
<path d="M57.2878 149.773C57.186 149.773 57.0913 149.715 57.0474 149.617L51.92 138.076C50.9183 135.822 49.0168 134.043 46.7013 133.194L35.9342 129.246C35.7974 129.195 35.7272 129.044 35.7781 128.909C35.8272 128.772 35.9798 128.702 36.1149 128.753L46.882 132.701C49.3308 133.6 51.3411 135.48 52.4006 137.864L57.5281 149.405C57.5877 149.538 57.5281 149.692 57.3948 149.752C57.3597 149.768 57.3246 149.775 57.2878 149.775V149.773Z" fill="white"/>
<path d="M35.6045 106.957C35.6045 106.957 38.1358 127.593 52.6253 128.874L35.5519 128.955C35.5519 128.955 29.4403 115.577 29.1912 110.715C28.9404 105.852 35.6063 106.957 35.6063 106.957H35.6045Z" fill="white"/>
<path d="M35.552 129.219C35.4485 129.219 35.3555 129.16 35.3134 129.065C35.0625 128.518 29.179 115.586 28.9282 110.729C28.8633 109.476 29.2317 108.483 30.021 107.778C31.9015 106.098 35.4976 106.671 35.6484 106.698C35.7642 106.717 35.8519 106.81 35.866 106.926C35.873 106.977 36.5238 112.116 38.9252 117.337C41.1267 122.122 45.2929 127.962 52.6482 128.613C52.7885 128.625 52.8938 128.746 52.8885 128.886C52.8832 129.027 52.7675 129.137 52.6271 129.139L35.5537 129.219H35.552ZM34.0679 107.115C32.9102 107.115 31.3455 107.301 30.3701 108.173C29.7071 108.766 29.3983 109.617 29.4544 110.702C29.6842 115.181 35.0433 127.188 35.7221 128.693L49.8327 128.627C45.0736 127.262 41.1706 123.482 38.4446 117.547C36.2817 112.841 35.5204 108.203 35.373 107.192C35.1222 107.162 34.6468 107.115 34.0697 107.115H34.0679Z" fill="black"/>
<path d="M36.8833 123.227C34.3187 119.545 33.3732 115.449 33.21 111.711C33.3048 111.781 33.4363 111.797 33.5521 111.723L37.5113 109.154C37.5113 109.154 35.8588 95.906 31.098 94.7745C31.098 94.7798 31.1015 94.7851 31.1033 94.7903C30.4682 94.443 29.8122 94.2307 29.1877 94.2079C18.9696 93.8378 17.7978 93.8466 14.9876 94.5079C11.674 95.2868 11.0969 99.3214 10.5987 100.883C8.92345 105.826 7.04648 113.7 8.19371 123.161C8.61647 126.65 9.37603 129.737 10.2303 132.367C11.7372 135.538 13.3422 136.484 14.5544 136.745C19.0942 137.727 21.6693 129.902 28.6965 129.691C31.3524 129.612 33.01 130.67 36.3079 129.691C38.2936 129.102 39.3163 128.272 40.2671 127.502C38.5743 126.132 37.7954 124.531 36.8885 123.229L36.8833 123.227Z" fill="black"/>
<path d="M39.0024 126.246C38.0131 124.697 36.1958 123.913 35.1976 123.969C30.6561 124.225 21.8975 119.629 15.3825 117.409C14.2545 115.767 15.0755 112.178 14.5615 107.869L6.25372 108.587C5.42399 112.693 5.7415 119.665 6.45896 120.587C6.93434 121.719 9.51824 125.002 14.7667 127.562C22.9728 131.561 33.9557 128.948 33.9557 128.948C33.9557 128.948 39.5217 131.889 41.9267 128.693C41.9267 128.693 39.9918 127.793 39.0024 126.246Z" fill="white"/>
<path d="M38.5917 130.458C36.4902 130.458 34.387 129.462 33.9221 129.226C32.8135 129.47 22.4393 131.596 14.6525 127.8C9.11278 125.099 6.67447 121.734 6.22891 120.72C5.44479 119.587 5.18167 112.572 5.9956 108.538C6.01841 108.424 6.11489 108.338 6.23066 108.327L14.5384 107.61C14.6823 107.597 14.8051 107.699 14.8226 107.841C15.0349 109.622 15.0208 111.267 15.0086 112.72C14.9928 114.702 14.9787 116.279 15.5524 117.193C17.6083 117.898 19.922 118.851 22.1621 119.773C27.0685 121.794 32.1416 123.882 35.1816 123.71C36.3446 123.643 38.2233 124.541 39.2232 126.108C40.16 127.574 42.0176 128.449 42.0369 128.458C42.1088 128.491 42.1615 128.556 42.1808 128.634C42.2001 128.711 42.1843 128.791 42.1352 128.856C41.223 130.07 39.9056 130.461 38.59 130.461L38.5917 130.458ZM33.9572 128.686C33.9993 128.686 34.0414 128.697 34.08 128.716C34.1326 128.744 39.1741 131.36 41.5159 128.779C40.9178 128.455 39.5723 127.627 38.7812 126.388C37.8322 124.904 36.099 124.181 35.2132 124.232C32.0521 124.411 26.9247 122.299 21.9639 120.257C19.701 119.326 17.3609 118.363 15.2998 117.659C15.2454 117.642 15.1998 117.607 15.1682 117.559C14.4542 116.521 14.4683 114.84 14.4858 112.714C14.4963 111.348 14.5104 109.808 14.3315 108.157L6.47625 108.836C5.70792 112.904 6.03069 119.61 6.66921 120.429C6.68324 120.447 6.69552 120.468 6.70429 120.489C7.19546 121.659 9.84251 124.871 14.8858 127.328C22.9094 131.24 33.7905 128.72 33.8993 128.695C33.9186 128.69 33.9396 128.688 33.9607 128.688L33.9572 128.686Z" fill="black"/>
<path d="M41.325 128.993C40.6689 128.993 38.9183 128.804 36.9589 127.025C36.8518 126.927 36.8431 126.76 36.9413 126.653C37.0395 126.546 37.2062 126.537 37.3132 126.636C39.5708 128.685 41.5109 128.46 41.5302 128.458C41.6741 128.439 41.8056 128.541 41.8249 128.685C41.8442 128.828 41.7425 128.96 41.5987 128.979C41.5811 128.981 41.4864 128.993 41.3268 128.993H41.325Z" fill="black"/>
<path d="M39.4953 129.851C39.0514 129.851 37.7849 129.693 36.0185 128.158C35.908 128.063 35.8974 127.897 35.9922 127.786C36.0869 127.676 36.2535 127.665 36.364 127.76C38.3235 129.461 39.5724 129.321 39.5865 129.319C39.7303 129.297 39.8654 129.395 39.8882 129.539C39.911 129.683 39.8128 129.818 39.6689 129.84C39.6584 129.842 39.5987 129.851 39.497 129.851H39.4953Z" fill="black"/>
<path d="M5.21321 111.571C5.15707 111.576 5.10971 111.532 5.11322 111.476C5.17111 110.534 5.61842 103.505 6.25168 100.67C7.68309 94.2728 16.5084 94.264 16.5084 94.264C14.8857 99.7458 14.3595 105.001 14.8735 110.045C14.905 110.355 14.6823 110.632 14.3718 110.662L5.21145 111.571H5.21321Z" fill="black"/>
<path d="M21.4411 92.3942L15.4927 94.3764C27.0106 97.8269 29.784 94.3764 29.784 94.3764L28.1368 93.4063L28.8806 91.6837C29.6384 92.0451 30.3541 92.4398 30.8908 92.2187C32.1345 91.7083 32.8134 89.6349 32.8134 89.6349L33.3765 89.705C33.459 89.7155 33.5432 89.6892 33.6063 89.6349C33.6695 89.5805 33.708 89.5015 33.7098 89.4173C33.7431 88.2894 33.701 87.4491 34.022 86.4914C34.3378 85.5476 34.5799 85.5581 34.8711 83.2619L29.7489 79.8044L27.1457 83.6461C27.1457 83.6461 26.7001 82.6059 25.7406 82.9602C25.0442 83.2181 24.7284 85.4354 25.3792 85.8739L21.4428 92.3924L21.4411 92.3942Z" fill="white"/>
<path d="M24.3322 96.1779C22.1833 96.1779 19.2854 95.7885 15.4174 94.629C15.3069 94.5957 15.2315 94.4957 15.2297 94.3817C15.2297 94.2676 15.3017 94.1642 15.4104 94.1273L21.2676 92.1749L25.0461 85.9178C24.6918 85.4599 24.7549 84.6355 24.7882 84.3653C24.8689 83.6917 25.1373 82.9058 25.6495 82.7164C26.3477 82.4585 26.8599 82.7936 27.1564 83.1637L29.5315 79.6589C29.6122 79.5396 29.7754 79.5062 29.8964 79.5887L35.0186 83.0462C35.101 83.1023 35.1449 83.1988 35.1326 83.297C34.9134 85.0249 34.7134 85.4933 34.4994 85.9897C34.4257 86.1616 34.3503 86.337 34.2713 86.5756C34.017 87.3387 34.0029 88.0228 33.9854 88.8911C33.9819 89.063 33.9784 89.2402 33.9731 89.4261C33.9678 89.584 33.8977 89.7331 33.7784 89.8348C33.6591 89.9383 33.4995 89.9857 33.3434 89.9664L32.989 89.9226C32.775 90.4821 32.1032 92.0083 30.991 92.4626C30.4051 92.7029 29.7298 92.3854 29.0141 92.0398L28.472 93.2976L29.9192 94.1501C29.9859 94.1887 30.0315 94.2536 30.0438 94.329C30.0578 94.4045 30.0385 94.4817 29.9894 94.5413C29.9104 94.6395 28.6018 96.1762 24.3322 96.1762V96.1779ZM16.377 94.3606C25.2356 96.8551 28.5106 95.0763 29.3456 94.4255L28.0036 93.6361C27.8896 93.5695 27.8423 93.4274 27.8949 93.3046L28.6387 91.582C28.6667 91.5171 28.7211 91.4645 28.7878 91.4399C28.8544 91.4154 28.9299 91.4171 28.993 91.4487L29.2035 91.5504C29.8245 91.8504 30.4121 92.1346 30.791 91.9784C31.9067 91.5206 32.5557 89.5752 32.5628 89.5559C32.6013 89.4366 32.7206 89.3612 32.8452 89.377L33.4083 89.4472C33.4188 89.4472 33.4276 89.4454 33.4346 89.4402C33.4416 89.4331 33.4469 89.4244 33.4469 89.4138C33.4521 89.2297 33.4556 89.0542 33.4591 88.8841C33.4767 88.0087 33.4907 87.2509 33.7714 86.4124C33.8573 86.1546 33.938 85.9669 34.0152 85.7862C34.2152 85.3213 34.3871 84.9161 34.5888 83.3935L29.8192 80.1728L27.3634 83.797C27.309 83.8759 27.216 83.9215 27.1213 83.911C27.0248 83.9022 26.9424 83.8408 26.9038 83.7531C26.8687 83.6707 26.5301 82.9532 25.832 83.2111C25.639 83.283 25.3899 83.7584 25.3092 84.4302C25.2303 85.0898 25.3584 85.5476 25.525 85.6599C25.6408 85.7388 25.6759 85.8932 25.6039 86.0142L21.6676 92.5328C21.636 92.5871 21.5851 92.6257 21.5255 92.6468L16.377 94.3624V94.3606Z" fill="black"/>
<path d="M25.416 83.0374C25.416 83.0374 27.0439 82.897 26.9281 83.6355C26.7667 84.6652 26.565 84.8705 26.7527 85.2792C26.8544 85.4967 27.1263 85.6493 27.3544 85.6528C27.8333 85.6599 27.9894 84.8582 28.8384 83.9688C29.1963 83.5934 29.5734 83.3128 29.7874 83.1847C31.4328 82.2059 33.2958 84.4179 35.2938 83.7829C36.6235 83.3601 37.676 81.7814 37.4146 80.7183C37.3058 80.2728 36.9322 79.7764 33.6571 78.6993C30.3417 77.6099 28.6858 77.0644 27.6929 77.5661C25.3651 78.7396 25.4108 82.7409 25.4178 83.0356L25.416 83.0374Z" fill="black"/>
<path d="M28.8808 91.9486C28.8282 91.9486 28.7756 91.9328 28.73 91.9012L27.4179 90.9768C26.7828 90.5294 26.4566 89.7734 26.5653 89.0015L26.6162 88.6402C26.6372 88.4963 26.7688 88.3964 26.9144 88.4174C27.0582 88.4385 27.1582 88.5718 27.1372 88.7156L27.0863 89.077C27.0056 89.6506 27.2477 90.2137 27.7196 90.547L29.0317 91.4714C29.151 91.5556 29.179 91.7188 29.0948 91.8381C29.044 91.91 28.9615 91.9503 28.8791 91.9503L28.8808 91.9486Z" fill="black"/>
<path d="M14.1349 110.948C14.0016 110.948 13.8876 110.846 13.8736 110.711C13.8595 110.567 13.9648 110.438 14.1086 110.424L14.3472 110.399C14.4261 110.392 14.4963 110.353 14.5454 110.292C14.5963 110.229 14.6208 110.15 14.6121 110.069C14.47 108.687 14.4068 107.271 14.4226 105.863C14.4226 105.717 14.5349 105.601 14.6893 105.603C14.8349 105.603 14.9506 105.724 14.9489 105.87C14.9331 107.259 14.9962 108.654 15.1348 110.017C15.1576 110.238 15.0927 110.455 14.9524 110.625C14.8138 110.795 14.6156 110.901 14.3981 110.923L14.1595 110.948C14.1507 110.948 14.142 110.948 14.1332 110.948H14.1349Z" fill="black"/>
<path d="M71.7212 145.753L100.374 145.469C105.556 145.469 109.987 142.088 110.896 136.943L115.8 109.136C116.384 105.822 113.858 102.782 110.522 102.782H91.8259L71.7195 145.753H71.7212Z" fill="white"/>
<path d="M71.7211 146.016C71.6316 146.016 71.5474 145.97 71.5001 145.895C71.4509 145.819 71.4439 145.723 71.4825 145.641L91.5889 102.67C91.6328 102.577 91.7257 102.519 91.8275 102.519H110.523C112.181 102.519 113.746 103.251 114.818 104.528C115.902 105.821 116.354 107.517 116.061 109.182L111.157 136.989C110.248 142.136 105.815 145.732 100.377 145.732L71.7264 146.016H71.7229H71.7211ZM91.9941 103.046L72.1368 145.486L100.372 145.205C105.554 145.205 109.773 141.79 110.636 136.898L115.54 109.09C115.807 107.578 115.397 106.038 114.412 104.865C113.442 103.709 112.023 103.046 110.522 103.046H91.9924H91.9941Z" fill="black"/>
<path d="M108.048 124.517C108.033 124.517 108.019 124.517 108.003 124.513C107.859 124.489 107.764 124.352 107.789 124.208L110.166 110.71C110.19 110.566 110.327 110.471 110.471 110.496C110.615 110.52 110.709 110.657 110.685 110.801L108.308 124.299C108.285 124.427 108.175 124.517 108.048 124.517Z" fill="#FFEEF1"/>
<path d="M83.0253 80.3676C81.2098 80.8921 79.8257 81.9166 78.7732 84.5145C77.9137 86.6353 78.2505 88.4 79.4135 89.563C83.1709 93.324 87.2494 104.177 92.8224 107.478C97.2692 110.111 106.58 109.624 110.88 104.165C114.969 98.9724 115.59 91.4523 110.964 88.0685C106.805 85.0267 102.932 90.2401 98.5165 87.4106C94.1643 84.6215 94.2328 82.3095 91.6594 80.95C88.8966 79.4905 86.9038 79.2467 83.0253 80.3676Z" fill="black"/>
<path d="M95.7867 129.257C95.7867 129.257 68.9391 128.092 66.0043 130.816C62.0223 134.51 55.1846 165.263 55.1846 165.263L61.789 167.114C61.789 167.114 71.7387 141.876 74.2051 141.876C76.6715 141.876 99.9143 141.048 99.9143 141.048L95.7885 129.26L95.7867 129.257Z" fill="black"/>
<path d="M101.067 128.409C101.067 128.409 104.607 138.796 101.79 140.69C98.9723 142.585 78.6624 142.423 79.3659 142.187C80.0711 141.95 81.1814 159.193 81.1814 165.822L74.7875 166.07C74.7875 166.07 64.5975 139.403 65.6956 136.426C67.6603 131.098 82.4778 129.3 87.3176 128.588C88.3139 128.441 101.065 128.409 101.065 128.409H101.067Z" fill="black"/>
<path d="M69.0742 151.157C68.9637 151.157 68.8602 151.085 68.8233 150.975C68.5935 150.258 68.3655 149.552 68.141 148.861C66.2517 143.027 64.7589 138.419 65.4465 136.343C66.7446 132.428 74.7595 130.76 80.6763 129.846C80.8201 129.823 80.9535 129.921 80.9763 130.065C80.9991 130.209 80.9008 130.344 80.757 130.365C77.4276 130.879 67.2937 132.446 65.9465 136.508C65.3132 138.419 66.8551 143.183 68.6409 148.698C68.8654 149.389 69.0935 150.094 69.3233 150.812C69.3671 150.95 69.2917 151.098 69.1531 151.143C69.1268 151.152 69.0987 151.156 69.0724 151.156L69.0742 151.157Z" fill="#FFEEF1"/>
<path d="M81.3973 107.403C80.8044 112.416 72.9615 119.849 68.7427 121.486L71.5704 123.617C75.2156 123.748 79.9571 119.551 81.5938 118.063L81.3956 107.403H81.3973Z" fill="#EA0029"/>
<path d="M97.8845 96.9183C97.8845 96.9183 97.7898 95.2062 98.8476 113.057C98.8476 113.057 98.1196 126.869 98.0284 128.427C97.9372 129.985 84.4195 129.307 84.4195 129.307C82.8197 122.303 82.9951 114.264 84.1107 105.677L81.7935 105.47L81.6321 100.072C82.0513 98.483 83.8213 97.3411 85.0106 96.9166C88.1769 95.4939 93.792 95.9518 97.8845 96.9166V96.9183Z" fill="white"/>
<path d="M90.4891 129.716C87.3754 129.716 84.4389 129.57 84.4073 129.569C84.2898 129.563 84.1898 129.479 84.1635 129.365C82.7216 123.047 82.6075 115.374 83.8162 105.915L81.7726 105.733C81.6392 105.721 81.5375 105.612 81.5322 105.479L81.3708 100.081C81.3708 100.056 81.3726 100.03 81.3796 100.006C81.855 98.2057 83.8197 97.0655 84.9143 96.6726C88.2051 95.2008 93.8676 95.7201 97.7934 96.627C97.8268 96.6147 97.8548 96.613 97.8689 96.6112C98.0232 96.6024 98.1162 96.6884 98.1443 96.8673H98.1478V96.8989C98.1513 96.9112 98.1513 96.9252 98.1531 96.9375L98.1741 97.2795C98.1952 97.6269 98.232 98.2461 98.2987 99.3319C98.4285 101.505 98.6705 105.55 99.1143 113.041C99.1143 113.051 99.1143 113.06 99.1143 113.071C99.1073 113.209 98.3846 126.902 98.2951 128.442C98.2636 128.972 97.5479 129.283 95.8989 129.483C94.757 129.621 93.1747 129.7 91.196 129.714C90.9609 129.716 90.7259 129.716 90.4926 129.716H90.4891ZM84.6336 129.053C85.4072 129.088 88.3139 129.209 91.1907 129.186C97.6496 129.137 97.7671 128.416 97.7671 128.409C97.8548 126.894 98.5583 113.578 98.5863 113.055C97.8706 100.976 97.6829 97.8847 97.6373 97.1287C93.7904 96.2463 88.2806 95.7359 85.1213 97.155C85.1143 97.1585 85.109 97.1603 85.102 97.162C83.8232 97.6199 82.283 98.732 81.8989 100.102L82.0515 105.226L84.1354 105.412C84.2073 105.419 84.2723 105.454 84.3179 105.51C84.3635 105.566 84.3828 105.638 84.374 105.708C83.1496 115.132 83.2338 122.771 84.6336 129.051V129.053Z" fill="black"/>
<path d="M89.8066 111.906C89.7645 111.906 89.7242 111.895 89.6839 111.876C86.2316 110.057 86.0106 105.18 86.0036 104.973C85.9983 104.828 86.1106 104.707 86.2562 104.702C86.4053 104.696 86.5228 104.809 86.5298 104.954C86.5316 105.001 86.7491 109.736 89.9294 111.411C90.0575 111.48 90.1066 111.638 90.04 111.767C89.9926 111.857 89.9014 111.908 89.8066 111.908V111.906Z" fill="black"/>
<path d="M80.5535 129.121L81.1394 100.653C81.3393 99.3215 81.6937 98.583 82.8058 97.8392C83.2426 97.548 83.7583 97.0358 84.3688 96.9147C84.3688 96.9147 85.0336 97.1217 85.1038 98.8478C85.1371 99.6881 84.0671 109.034 83.8759 117.044C83.7408 122.65 84.5793 127.548 84.5232 128.625C84.5197 128.706 80.8254 129.442 80.578 129.195L80.5535 129.121Z" fill="#EA0029"/>
<path d="M95.6006 96.6797C95.6006 96.6797 98.8564 96.3043 100.953 99.1653C103.035 102.007 103.287 105.245 102.895 107.85C102.228 112.271 99.4475 117.304 99.5756 118.675C99.637 119.342 100.346 124.082 103.023 128.325C105.228 131.819 105.133 139.525 104.701 139.776C101.8 141.466 97.0408 144.895 91.3713 145.305C90.3241 145.381 89.468 144.839 89.3172 143.993C88.712 140.61 87.0894 130.797 86.8455 121.585C86.635 113.607 92.3203 101.493 92.5712 100.455C93.1781 97.9339 95.5989 96.6832 95.5989 96.6832L95.6006 96.6797Z" fill="#EA0029"/>
<path d="M98.3971 133.067C94.5379 133.067 92.5294 129.469 92.5066 129.423C92.4364 129.295 92.4838 129.136 92.6119 129.067C92.7399 128.997 92.8995 129.044 92.9679 129.172C93.0785 129.376 95.7343 134.11 100.941 132.009C101.076 131.955 101.228 132.019 101.283 132.155C101.337 132.29 101.272 132.442 101.137 132.497C100.139 132.9 99.2251 133.065 98.3954 133.065L98.3971 133.067Z" fill="#FFEEF1"/>
<path d="M80.7621 118.493C80.7621 118.493 80.7551 118.493 80.7533 118.493C80.6077 118.488 80.4937 118.367 80.499 118.221L80.7779 110.45C80.7831 110.304 80.9007 110.19 81.0498 110.196C81.1954 110.201 81.3094 110.322 81.3041 110.467L81.0252 118.238C81.0199 118.381 80.9042 118.493 80.7621 118.493Z" fill="#FFEEF1"/>
<path d="M73.5491 122.116C73.4421 121.907 73.2632 121.742 73.0422 121.663C72.8843 121.607 72.7282 121.531 72.5808 121.452L70.5267 120.363C70.1425 120.175 69.5917 120.614 69.1917 120.746C67.9866 121.142 65.4904 122.073 65.6974 122.949C65.9185 123.892 68.0638 123.447 68.8251 123.256C68.9988 123.212 70.574 123.782 71.0722 123.821C71.7599 123.873 71.9195 123.698 72.2563 123.521C72.4089 123.44 72.5808 123.403 72.7668 123.403C73.0509 123.401 73.3211 123.282 73.4982 123.061L73.5018 123.056C73.6982 122.812 73.7316 122.475 73.5895 122.196L73.5491 122.117V122.116Z" fill="white"/>
<path d="M71.302 124.09C71.2265 124.09 71.1441 124.087 71.0529 124.08C70.767 124.059 70.2249 123.897 69.7004 123.741C69.3952 123.65 68.983 123.527 68.8637 123.515C68.0322 123.72 66.5639 123.992 65.8517 123.557C65.6377 123.427 65.4957 123.236 65.4413 123.006C65.2518 122.199 66.4868 121.356 69.111 120.494C69.2127 120.461 69.3355 120.4 69.4654 120.335C69.8179 120.158 70.2565 119.938 70.6424 120.128L72.7036 121.221C72.8702 121.308 73.0053 121.371 73.1316 121.415C73.4122 121.515 73.6438 121.722 73.7841 121.996L73.8245 122.075C74.0139 122.445 73.9683 122.894 73.7087 123.219C73.4824 123.501 73.1421 123.662 72.7702 123.664C72.6194 123.664 72.4913 123.694 72.3808 123.752C72.3299 123.778 72.2843 123.804 72.2405 123.831C72.0072 123.964 71.7844 124.09 71.3037 124.09H71.302ZM68.8496 122.989C68.9935 122.989 69.2356 123.055 69.8513 123.238C70.3021 123.371 70.8634 123.538 71.095 123.555C71.5932 123.594 71.7475 123.506 71.9791 123.373C72.0282 123.345 72.0808 123.315 72.137 123.285C72.3211 123.189 72.5334 123.138 72.7667 123.136C72.979 123.136 73.1719 123.047 73.2947 122.892C73.4298 122.724 73.4526 122.498 73.3579 122.312L73.3175 122.233C73.2386 122.078 73.1105 121.963 72.9562 121.908C72.8071 121.854 72.6492 121.784 72.4597 121.682L70.4056 120.593C70.2617 120.522 69.9513 120.677 69.7022 120.801C69.5531 120.875 69.4145 120.947 69.2759 120.991C66.8744 121.778 65.871 122.524 65.9552 122.884C65.9763 122.976 66.0324 123.047 66.1272 123.105C66.5218 123.345 67.5323 123.303 68.7637 122.994C68.79 122.987 68.8181 122.984 68.8514 122.984L68.8496 122.989Z" fill="black"/>
<path d="M92.6291 118.014C89.9768 124.075 85.2352 125.515 77.459 126.55L78.2887 128.843C89.9101 130.291 92.0976 127.995 96.7953 121.847L92.6309 118.014H92.6291Z" fill="#EA0029"/>
<path d="M84.7056 129.535C83.7952 129.535 82.7427 129.474 81.4884 129.339C81.1218 129.299 79.5255 129.311 79.0817 129.328C78.9343 129.334 78.8133 129.221 78.808 129.076C78.8028 128.93 78.915 128.807 79.0606 128.802C79.4816 128.785 81.1218 128.769 81.5446 128.814C86.6966 129.371 88.2859 128.676 90.6908 127.623C91.1574 127.42 91.6381 127.209 92.1854 126.99C93.6449 126.404 94.7026 125.496 95.6183 124.045C96.0551 123.352 96.434 122.603 96.8006 121.878C97.1304 121.224 97.4725 120.547 97.8619 119.905C97.9373 119.78 98.0987 119.74 98.2233 119.816C98.3478 119.891 98.3882 120.052 98.3127 120.177C97.9356 120.803 97.597 121.47 97.2708 122.115C96.8989 122.85 96.5147 123.61 96.0639 124.324C95.085 125.874 93.9501 126.846 92.3819 127.476C91.8416 127.694 91.3644 127.902 90.9013 128.104C89.0752 128.902 87.6351 129.532 84.7038 129.532L84.7056 129.535Z" fill="#FFEEF1"/>
<path d="M87.0475 124.153C86.951 124.153 86.8598 124.101 86.8124 124.01C86.7458 123.88 86.7984 123.722 86.9264 123.655L88.6754 122.761C89.7717 121.492 90.6172 119.286 91.3698 117.086C91.4171 116.949 91.5662 116.875 91.7031 116.923C91.8399 116.97 91.9136 117.119 91.8662 117.256C91.0891 119.529 90.2085 121.815 89.035 123.147L89.0016 123.183L87.1633 124.124C87.1247 124.143 87.0843 124.152 87.044 124.152L87.0475 124.153Z" fill="#FFEEF1"/>
<path d="M79.3045 127.62C79.1975 127.411 79.0186 127.246 78.7975 127.167C78.6397 127.111 78.4835 127.036 78.3362 126.957L76.282 125.867C75.8979 125.68 75.3471 126.118 74.9471 126.25C73.742 126.646 71.2458 127.578 71.4528 128.453C71.6738 129.397 73.8192 128.951 74.5805 128.76C74.7542 128.716 76.3312 129.286 76.8276 129.325C77.5152 129.378 77.6749 129.202 78.0117 129.025C78.1643 128.944 78.3362 128.907 78.5221 128.907C78.8063 128.906 79.0764 128.786 79.2536 128.565L79.2571 128.56C79.4536 128.316 79.4869 127.98 79.3448 127.701L79.3045 127.622V127.62Z" fill="white"/>
<path d="M77.0572 129.595C76.9817 129.595 76.8993 129.592 76.8081 129.585C76.5221 129.564 75.9801 129.402 75.4556 129.246C75.1504 129.155 74.7381 129.032 74.6171 129.02C73.7874 129.225 72.3174 129.497 71.6052 129.062C71.3912 128.932 71.2491 128.741 71.1947 128.511C71.0052 127.704 72.2402 126.86 74.8644 125.999C74.9644 125.966 75.089 125.904 75.2188 125.839C75.5714 125.662 76.0099 125.443 76.3958 125.632L78.457 126.725C78.6236 126.813 78.7587 126.876 78.885 126.92C79.1657 127.02 79.3972 127.227 79.5376 127.501L79.5779 127.58C79.7674 127.95 79.7217 128.399 79.4621 128.723C79.2358 129.006 78.8955 129.167 78.5236 129.169C78.3728 129.169 78.2447 129.199 78.1342 129.257C78.0833 129.283 78.0377 129.309 77.9939 129.335C77.7606 129.469 77.5378 129.595 77.0572 129.595ZM74.6048 128.493C74.7487 128.493 74.9907 128.56 75.6064 128.743C76.0573 128.876 76.6186 129.043 76.8502 129.06C77.3483 129.097 77.5027 129.011 77.7343 128.878C77.7834 128.85 77.836 128.82 77.8921 128.79C78.0763 128.693 78.2886 128.643 78.5219 128.641C78.7341 128.641 78.9271 128.551 79.0499 128.397C79.185 128.229 79.2078 128.002 79.113 127.816L79.0727 127.737C78.9938 127.583 78.8657 127.467 78.7113 127.413C78.5622 127.359 78.4044 127.288 78.2149 127.187L76.1608 126.097C76.0152 126.027 75.7064 126.181 75.4573 126.306C75.31 126.38 75.1697 126.45 75.0311 126.495C72.6296 127.283 71.6262 128.029 71.7104 128.388C71.7315 128.481 71.7858 128.551 71.8823 128.609C72.277 128.85 73.2874 128.807 74.5189 128.499C74.5452 128.492 74.5732 128.488 74.6066 128.488L74.6048 128.493Z" fill="black"/>
<path d="M80.6621 93.2045C80.3762 93.1641 80.1814 92.8905 80.2446 92.6098C80.634 90.8626 80.4849 87.8683 80.5428 87.9525C81.1673 88.8664 82.4654 87.7192 84.316 87.6472C85.4177 87.6034 85.8422 88.2559 86.0053 88.7892C86.0579 88.9611 86.2912 88.9944 86.3895 88.8418C86.6596 88.4243 87.1175 88.07 87.8033 88.7541C88.5646 89.5137 87.9279 91.2766 87.2385 91.8555C87.4051 92.045 90.0346 94.878 92.052 97.0058C92.4519 97.4268 92.3958 98.1021 91.9327 98.453L90.1399 99.8125C89.019 100.661 87.4876 100.721 86.3053 99.9616L86.0281 99.7844C85.7404 99.6002 85.6931 99.2002 85.9264 98.9529L86.4702 98.3775C86.9105 97.8565 86.8298 97.1935 86.5473 96.6427L85.4387 94.7657C85.1844 95.0727 84.8633 95.4253 84.5669 95.6322C83.9775 96.0445 83.2425 95.9796 82.7215 95.4831C82.0075 94.8025 81.5076 94.0377 81.2813 93.2939L80.6638 93.2062L80.6621 93.2045Z" fill="white"/>
<path d="M88.1123 100.755C87.4335 100.755 86.7546 100.565 86.1599 100.185L85.8828 100.007C85.6793 99.8776 85.5477 99.6653 85.5179 99.425C85.4881 99.1864 85.567 98.9479 85.7319 98.7725L86.2757 98.1971C86.6897 97.7059 86.4757 97.0867 86.3108 96.7622L85.3969 95.215C85.1442 95.4957 84.9162 95.7079 84.7145 95.8465C84.0251 96.3271 83.1498 96.257 82.5375 95.6728C81.8429 95.0098 81.3412 94.273 81.0798 93.531L80.6237 93.4661C80.4132 93.4363 80.2238 93.3187 80.1027 93.1451C79.9835 92.9732 79.9414 92.7574 79.987 92.5539C80.2624 91.319 80.2624 89.4157 80.2624 88.5018C80.2624 87.8176 80.2624 87.7615 80.4606 87.7001C80.5711 87.6668 80.6939 87.7089 80.7588 87.8053C80.9991 88.1579 81.3675 88.0843 82.2797 87.8018C82.834 87.6299 83.5251 87.4159 84.304 87.3843C85.5547 87.3352 86.0389 88.0948 86.2231 88.6175C86.4423 88.3123 86.6967 88.1439 86.9826 88.1123C87.3107 88.0772 87.6475 88.2316 87.986 88.5702C88.2842 88.8684 88.4281 89.3069 88.4053 89.8384C88.3737 90.5524 88.0421 91.3716 87.6001 91.868C88.2351 92.5574 90.4717 94.9641 92.2381 96.8271C92.4802 97.0814 92.6013 97.4288 92.5732 97.7779C92.5451 98.1287 92.368 98.4515 92.0873 98.6637L90.2945 100.023C89.6542 100.509 88.8824 100.755 88.1106 100.755H88.1123ZM85.4372 94.5028C85.4372 94.5028 85.4512 94.5028 85.4582 94.5028C85.5442 94.5098 85.6196 94.5572 85.6635 94.6309L86.7721 96.5078C87.1616 97.2726 87.1212 98.0094 86.6686 98.5462L86.1161 99.1321C86.0582 99.1935 86.0319 99.2759 86.0406 99.3584C86.0512 99.4408 86.0968 99.5162 86.1687 99.5601L86.4459 99.7373C87.5317 100.435 88.9526 100.379 89.9805 99.6004L91.7733 98.2409C91.9364 98.1164 92.0364 97.9357 92.0522 97.7322C92.068 97.5288 92.0013 97.334 91.8592 97.1867C89.7893 95.0027 87.2019 92.2154 87.0388 92.0294C86.9914 91.9768 86.9686 91.9066 86.9739 91.8364C86.9791 91.7663 87.0125 91.6996 87.0668 91.654C87.4335 91.347 87.8492 90.5559 87.8808 89.8139C87.893 89.549 87.8562 89.1806 87.6141 88.9403C87.4633 88.7894 87.2387 88.6123 87.0388 88.6333C86.8581 88.6526 86.7037 88.8351 86.6072 88.9842C86.5055 89.142 86.3266 89.2227 86.1406 89.1964C85.9547 89.1701 85.8056 89.0438 85.7512 88.8649C85.5495 88.2018 85.0688 87.879 84.3233 87.9089C83.6146 87.9369 82.9884 88.1316 82.434 88.3018C81.8271 88.4895 81.2447 88.6702 80.7869 88.4877V88.5C80.7869 89.4332 80.7869 91.3751 80.4992 92.6679C80.4852 92.7293 80.4992 92.7925 80.5343 92.8451C80.5729 92.8995 80.6308 92.9363 80.6957 92.9451L81.3131 93.0328C81.4149 93.0468 81.4991 93.1188 81.5289 93.217C81.7447 93.9257 82.2183 94.6431 82.8989 95.2922C83.3322 95.7062 83.9269 95.7535 84.411 95.415C84.6355 95.2588 84.9109 94.9834 85.232 94.5975C85.2828 94.5361 85.3565 94.5028 85.4354 94.5028H85.4372Z" fill="black"/>
<path d="M85.7914 94.2711L85.437 94.764L85.7914 94.2711Z" fill="white"/>
<path d="M85.437 95.0272C85.3843 95.0272 85.33 95.0114 85.2844 94.9781C85.1668 94.8939 85.1388 94.729 85.223 94.6114L85.5773 94.1185C85.6615 94.001 85.8264 93.9729 85.9439 94.0571C86.0615 94.1413 86.0895 94.3062 86.0053 94.4238L85.651 94.9167C85.6001 94.9886 85.5194 95.0272 85.437 95.0272Z" fill="black"/>
<path d="M68.1391 128.514L61.9171 110.19C61.5434 109.617 60.8944 109.268 60.1962 109.268H43.6087C42.8562 109.268 42.372 109.997 42.6176 110.643C42.7158 110.899 42.8211 111.153 42.907 111.413L48.5309 128.546H48.5327C48.5502 129.548 49.3659 130.354 50.3728 130.354H80.9815C81.9989 130.354 82.8233 129.53 82.8233 128.513H68.1426L68.1391 128.514Z" fill="#EA0029"/>
<path d="M80.9796 130.62H50.371C49.2483 130.62 48.3151 129.718 48.2695 128.601L42.6544 111.496C42.5947 111.315 42.5263 111.141 42.4544 110.955C42.4263 110.882 42.3965 110.81 42.3702 110.736C42.2229 110.352 42.279 109.915 42.5158 109.571C42.7631 109.212 43.1613 109.005 43.6069 109.005H60.1944C60.9873 109.005 61.7118 109.394 62.1363 110.047C62.1485 110.064 62.1573 110.085 62.1643 110.105L68.3268 128.25H82.8198C82.9654 128.25 83.0829 128.367 83.0829 128.513C83.0829 129.674 82.1391 130.618 80.9779 130.618L80.9796 130.62ZM48.7694 128.437C48.7852 128.469 48.794 128.506 48.794 128.543C48.8098 129.397 49.5167 130.093 50.371 130.093H80.9796C81.7602 130.093 82.411 129.523 82.5356 128.778H68.1391C68.0268 128.778 67.9268 128.706 67.89 128.599L61.6784 110.306C61.3486 109.82 60.7978 109.529 60.1944 109.529H43.6069C43.3368 109.529 43.0964 109.652 42.9491 109.868C42.8087 110.071 42.7772 110.324 42.8614 110.547C42.8894 110.618 42.9175 110.69 42.9456 110.762C43.0175 110.947 43.0912 111.136 43.1543 111.329L48.7694 128.434V128.437Z" fill="black"/>
<path d="M55.811 118.659C56.0443 119.435 55.6882 120.229 55.0128 120.433C54.3375 120.636 53.6025 120.171 53.3674 119.396C53.1341 118.621 53.4902 117.826 54.1656 117.623C54.8409 117.419 55.5759 117.884 55.811 118.659Z" fill="#FFEEF1"/>
<path d="M11.5985 147.644L142.902 147.644V130.277L11.5985 130.277V147.644Z" fill="white"/>
<path d="M143.15 147.804H11.8459V144.788L143.15 144.942V147.804Z" fill="#FFAFBD"/>
<path d="M142.902 147.909H11.5986C11.453 147.909 11.3354 147.791 11.3354 147.645V144.797C11.3354 144.651 11.453 144.534 11.5986 144.534H142.902C143.048 144.534 143.165 144.651 143.165 144.797V147.645C143.165 147.791 143.048 147.909 142.902 147.909ZM11.8617 147.382H142.639V145.06H11.8617V147.382Z" fill="black"/>
<path d="M142.902 147.909H11.5986C11.453 147.909 11.3354 147.791 11.3354 147.645V130.279C11.3354 130.134 11.453 130.016 11.5986 130.016H142.902C143.048 130.016 143.165 130.134 143.165 130.279V147.645C143.165 147.791 143.048 147.909 142.902 147.909ZM11.8617 147.382H142.639V130.542H11.8617V147.382Z" fill="black"/>
<path d="M108.482 166.675C106.861 174.097 113.29 194.396 114.637 199.344C114.814 199.994 115.407 200.443 116.084 200.443H122.075C122.908 200.443 123.582 199.771 123.573 198.943C123.517 193.073 122.45 171.672 126.113 165.512C128.234 161.945 132.118 160.337 134.714 158.639C140.946 154.564 138.601 145.544 138.601 145.544L115.058 159.507C111.797 159.995 109.182 163.479 108.482 166.676V166.675Z" fill="white"/>
<path d="M122.077 200.706H116.086C115.292 200.706 114.593 200.174 114.386 199.413C114.213 198.776 113.96 197.901 113.639 196.792C111.42 189.118 106.8 173.146 108.228 166.617C108.92 163.447 111.515 159.802 114.971 159.253L138.771 145.137L138.859 145.475C138.884 145.567 141.18 154.727 134.861 158.858C134.286 159.233 133.654 159.602 132.988 159.991C130.632 161.363 127.964 162.919 126.343 165.645C123.191 170.948 123.589 187.844 123.78 195.962C123.808 197.153 123.833 198.181 123.84 198.939C123.843 199.408 123.664 199.848 123.334 200.181C123.001 200.518 122.554 200.704 122.079 200.704L122.077 200.706ZM108.74 166.731C107.342 173.128 112.108 189.609 114.144 196.646C114.465 197.757 114.72 198.634 114.893 199.274C115.039 199.806 115.528 200.178 116.086 200.178H122.077C122.412 200.178 122.726 200.048 122.959 199.811C123.189 199.578 123.315 199.271 123.312 198.944C123.305 198.19 123.28 197.164 123.252 195.975C123.059 187.805 122.659 170.809 125.889 165.377C127.578 162.533 130.311 160.942 132.721 159.537C133.382 159.151 134.009 158.786 134.572 158.418C139.897 154.937 138.764 147.626 138.424 145.954L115.148 159.76L115.097 159.767C111.967 160.235 109.406 163.675 108.74 166.731Z" fill="black"/>
<path d="M96.6918 137.433L94.1009 136.466C93.0028 136.056 91.7994 136.07 90.7136 136.514C89.3576 137.068 87.5192 137.968 86.2597 139.159C85.944 139.457 86.137 140.006 86.5632 140.006H96.5725L96.6936 137.433H96.6918Z" fill="white"/>
<path d="M96.8233 140.271H86.5631C86.2632 140.271 86.007 140.096 85.8948 139.811C85.7772 139.517 85.8492 139.187 86.079 138.971C87.3753 137.745 89.261 136.828 90.6153 136.273C91.759 135.805 93.029 135.787 94.1955 136.222L96.9671 137.256L96.8268 140.271H96.8233ZM92.4642 136.435C91.9028 136.435 91.3415 136.543 90.8117 136.759C89.4996 137.296 87.6753 138.182 86.4386 139.352C86.3526 139.434 86.3526 139.541 86.3824 139.617C86.3982 139.655 86.4456 139.745 86.5614 139.745H96.3198L96.4198 137.613L94.0078 136.714C93.5061 136.526 92.9852 136.433 92.4624 136.433L92.4642 136.435Z" fill="black"/>
<path d="M86.1335 139.587L90.7751 138.534L86.1335 139.587Z" fill="white"/>
<path d="M86.1334 139.85C86.0123 139.85 85.9053 139.768 85.8773 139.645C85.8457 139.503 85.9334 139.362 86.0755 139.331L90.717 138.278C90.8574 138.247 90.9995 138.334 91.031 138.476C91.0626 138.619 90.9749 138.759 90.8328 138.79L86.1913 139.843C86.172 139.848 86.1527 139.85 86.1334 139.85Z" fill="black"/>
<path d="M116.326 117.102C112.481 120.408 111.637 128.886 109.18 131.044C107.048 132.914 100.525 135.342 98.1215 135.956C97.7794 136.043 95.6218 136.854 95.6235 137.205L95.8902 140.176C95.9007 140.303 96.013 140.394 96.1375 140.383L111.734 139.027C113.763 139.027 115.705 138.208 117.114 136.759C121.801 131.939 130.149 121.08 132.414 114.483L125.215 114.076C125.215 114.076 120.589 113.437 116.326 117.102Z" fill="#EA0029"/>
<path d="M117.933 132.863C117.933 132.863 118.093 134.605 118.474 136.968C118.935 139.824 118.689 142.487 116.993 145.079C116.307 146.127 115.085 147.358 114.064 147.851C114.064 147.851 114.802 150.382 119.542 150.593C121.468 150.679 126.557 150.861 130.342 150.647C135.51 150.354 139.326 149.403 139.326 149.403L138.926 125.547C138.926 125.547 139.21 115.509 132.212 114.478L117.935 132.865L117.933 132.863Z" fill="#EA0029"/>
<path d="M118.226 135.568C118.177 135.568 118.128 135.554 118.084 135.526C117.963 135.447 117.928 135.284 118.007 135.163C118.042 135.107 121.594 129.605 121.652 127.69C121.658 127.544 121.78 127.43 121.924 127.436C122.07 127.441 122.184 127.562 122.179 127.707C122.115 129.77 118.598 135.219 118.449 135.45C118.398 135.528 118.314 135.57 118.228 135.57L118.226 135.568Z" fill="#FFEEF1"/>
<path d="M120.922 101.618C120.922 101.618 120.652 104.023 119.445 105.36C119.352 105.461 119.331 105.609 119.403 105.728L119.901 106.558C119.945 106.63 119.98 106.707 120.007 106.786L120.833 109.212C120.908 109.433 121.108 109.593 121.343 109.612C121.859 109.654 123.169 109.454 123.276 109.798C123.396 110.182 123.304 113.297 123.257 114.653C123.245 115.013 123.497 115.329 123.853 115.394L126.648 115.909C127.907 116.141 129.202 115.987 130.363 115.476C130.74 115.309 130.909 114.869 130.733 114.495C130.095 113.131 128.695 109.875 128.881 107.882L130.123 104.411C130.091 102.746 128.255 100.257 126.578 100.299L120.924 101.62L120.922 101.618Z" fill="white"/>
<path d="M127.806 116.276C127.404 116.276 127.001 116.239 126.599 116.165L123.804 115.65C123.317 115.56 122.976 115.136 122.994 114.643C123.099 111.569 123.082 110.191 123.033 109.908C122.869 109.831 122.271 109.855 121.977 109.868C121.728 109.878 121.492 109.887 121.322 109.873C120.984 109.845 120.694 109.619 120.584 109.296L119.758 106.87C119.737 106.808 119.708 106.749 119.675 106.693L119.177 105.863C119.047 105.647 119.077 105.375 119.251 105.184C120.387 103.925 120.657 101.613 120.661 101.59C120.673 101.479 120.754 101.388 120.863 101.364L126.516 100.043C126.534 100.039 126.551 100.036 126.569 100.036C127.25 100.018 128.006 100.374 128.697 101.035C129.67 101.967 130.365 103.354 130.384 104.405C130.384 104.437 130.379 104.468 130.369 104.498L129.137 107.938C128.976 109.878 130.363 113.088 130.969 114.383C131.083 114.627 131.093 114.9 130.998 115.153C130.904 115.407 130.714 115.607 130.465 115.716C129.618 116.09 128.714 116.278 127.802 116.278L127.806 116.276ZM122.506 109.326C123.026 109.326 123.427 109.392 123.527 109.719C123.624 110.031 123.622 111.692 123.52 114.66C123.513 114.892 123.673 115.09 123.901 115.132L126.695 115.648C127.902 115.871 129.134 115.727 130.258 115.232C130.376 115.179 130.465 115.085 130.511 114.965C130.555 114.846 130.549 114.718 130.497 114.604C129.869 113.262 128.428 109.92 128.62 107.856C128.621 107.835 128.627 107.812 128.634 107.791L129.86 104.367C129.823 103.461 129.188 102.228 128.335 101.413C127.758 100.86 127.151 100.558 126.62 100.558H126.611L121.161 101.832C121.07 102.437 120.708 104.356 119.644 105.535C119.63 105.551 119.621 105.574 119.631 105.591L120.129 106.421C120.182 106.508 120.226 106.601 120.259 106.7L121.085 109.126C121.128 109.25 121.238 109.336 121.368 109.347C121.506 109.359 121.726 109.35 121.957 109.34C122.15 109.333 122.336 109.324 122.508 109.324L122.506 109.326Z" fill="black"/>
<path d="M120.359 100.765C120.252 101.206 120.359 101.635 120.791 101.781C121.145 101.9 122.601 101.442 122.968 101.43C125.455 101.348 125.716 104.318 125.716 104.318C125.837 104.377 125.985 104.37 126.094 104.289C126.292 104.146 126.65 103.968 127.006 104.197C127.504 104.514 127.606 106.21 126.325 106.659C126.157 106.719 126.064 106.898 126.132 107.061C126.206 107.238 126.316 107.475 126.465 107.733C127.595 109.673 130.388 109.789 131.733 107.989C132.724 106.663 133.633 104.482 132.516 101.5C131.54 98.8971 129.779 96.8939 127.079 96.5781C125.494 96.3922 123.48 96.9483 121.806 98.2656C121.034 98.8726 120.645 99.5971 120.359 100.764V100.765Z" fill="black"/>
<path d="M139.312 119.139H136.764C129.972 119.139 124.098 123.908 122.647 130.599L119.682 144.265C118.989 147.463 116.181 149.744 112.936 149.744H107.582C104.784 149.744 102.514 152.033 102.514 154.855C102.514 157.678 104.782 159.967 107.582 159.967H116.277L116.272 159.99H131.572C136.926 159.99 141.559 156.229 142.702 150.954L147.404 129.279C148.533 124.07 144.599 119.139 139.312 119.139Z" fill="#FFAFBD"/>
<path d="M131.572 160.253H119.31C119.165 160.253 119.047 160.135 119.047 159.99C119.047 159.844 119.165 159.727 119.31 159.727H131.572C136.763 159.727 141.336 156.013 142.446 150.898L147.148 129.223C147.179 129.081 147.319 128.992 147.46 129.022C147.602 129.053 147.691 129.192 147.661 129.334L142.96 151.008C142.394 153.619 140.947 155.978 138.882 157.653C136.817 159.328 134.221 160.251 131.572 160.251V160.253Z" fill="black"/>
<path d="M131.928 99.6811C131.928 99.6811 133.837 97.2007 136.631 98.1637C139.426 99.125 139.568 104.3 139.89 107.526C141.031 118.888 143.565 123.022 144.385 124.048C145.293 125.187 138.152 124.415 135.747 123.517C128.813 120.929 132.463 113.623 132.79 112.308C133.116 110.992 135.7 103.628 132.486 102.768L130.856 101.251L131.928 99.6828V99.6811Z" fill="black"/>
<path d="M132.993 103.228L132.956 103.242C132.623 103.363 132.252 103.195 132.13 102.863L131.196 100.344C131.074 100.013 131.246 99.6459 131.579 99.5248L131.616 99.5108C131.949 99.3898 132.319 99.5582 132.442 99.8897L133.375 102.409C133.498 102.74 133.326 103.107 132.993 103.228Z" fill="#EA0029"/>
<path d="M114.788 65.7571C122.694 65.8413 129.06 69.9548 129.007 74.9454C128.983 77.1785 127.678 79.2081 125.534 80.7605L127.986 87.1054L121.112 82.9111C119.152 83.5198 116.937 83.8514 114.593 83.8268C106.687 83.7426 100.321 79.6291 100.374 74.6384C100.428 69.6496 106.88 65.6728 114.786 65.7571H114.788Z" fill="white"/>
<path d="M109.124 65.8183C109.013 65.8183 108.912 65.7482 108.875 65.6394C108.829 65.5026 108.903 65.3517 109.04 65.3061C109.445 65.1693 110.238 64.9062 110.638 64.7764C110.776 64.7308 110.924 64.8062 110.969 64.9448C111.015 65.0834 110.94 65.2307 110.801 65.2763C110.404 65.4061 109.612 65.6692 109.208 65.8043C109.18 65.8131 109.152 65.8183 109.124 65.8183Z" fill="black"/>
<path d="M116.309 82.7692C116.226 82.7692 116.144 82.7692 116.062 82.7692C112.188 82.7271 108.554 81.7342 105.828 79.973C103.063 78.1873 101.556 75.8226 101.583 73.3159C101.614 70.3777 103.744 67.699 107.424 65.9659C107.556 65.9045 107.712 65.9606 107.775 66.0922C107.836 66.2238 107.78 66.3799 107.649 66.443C104.158 68.0867 102.139 70.5934 102.109 73.3229C102.084 75.6419 103.505 77.8487 106.114 79.5327C108.757 81.2413 112.294 82.2043 116.069 82.2447C116.649 82.2517 117.235 82.2341 117.811 82.1973C117.956 82.1868 118.081 82.2973 118.091 82.4429C118.102 82.5885 117.991 82.713 117.846 82.7235C117.34 82.7569 116.825 82.7744 116.312 82.7744L116.309 82.7692Z" fill="black"/>
<path d="M128.513 86.4931C128.455 86.4931 128.399 86.4738 128.351 86.437L122.527 81.8814C121.963 82.0515 121.377 82.2006 120.784 82.3234C120.642 82.3533 120.503 82.2603 120.473 82.1182C120.444 81.9761 120.535 81.8375 120.679 81.8077C121.301 81.6797 121.917 81.5218 122.505 81.3393C122.587 81.313 122.677 81.3306 122.745 81.3832L128.099 85.5704L126.748 79.4975C126.725 79.3957 126.766 79.2887 126.85 79.2273C128.997 77.6696 130.191 75.6804 130.214 73.621C130.239 71.3019 128.818 69.0952 126.21 67.4112C123.566 65.7026 120.03 64.7396 116.255 64.6992C115.365 64.6887 114.472 64.7326 113.604 64.8273C113.46 64.8431 113.33 64.7378 113.315 64.594C113.299 64.4501 113.404 64.3203 113.548 64.3045C114.437 64.2081 115.349 64.1642 116.262 64.173C120.135 64.2151 123.769 65.2079 126.495 66.9691C129.26 68.7549 130.767 71.1195 130.741 73.6262C130.718 75.8084 129.497 77.9064 127.299 79.5501L128.771 86.1721C128.795 86.2809 128.748 86.3931 128.655 86.451C128.611 86.4773 128.564 86.4914 128.515 86.4914L128.513 86.4931Z" fill="black"/>
<path d="M118.794 72.5704C118.651 72.5704 118.533 72.4546 118.531 72.309C118.531 72.1634 118.647 72.0441 118.793 72.0441L124.927 71.9897H124.929C125.073 71.9897 125.19 72.1055 125.192 72.2511C125.192 72.3967 125.076 72.516 124.93 72.516L118.796 72.5704H118.794Z" fill="#EA0029"/>
<path d="M105.122 72.6915C104.978 72.6915 104.861 72.5757 104.859 72.4301C104.859 72.2845 104.975 72.1653 105.121 72.1653L115.988 72.0688C116.128 72.0723 116.253 72.1846 116.253 72.3302C116.253 72.4758 116.137 72.595 115.991 72.595L105.124 72.6915H105.122Z" fill="#EA0029"/>
<path d="M112.483 75.605C112.339 75.605 112.221 75.4892 112.22 75.3436C112.22 75.198 112.336 75.0788 112.481 75.0788L125.104 74.9665H125.106C125.25 74.9665 125.367 75.0823 125.369 75.2279C125.369 75.3735 125.253 75.4927 125.108 75.4927L112.485 75.605H112.483Z" fill="#EA0029"/>
<path d="M105.298 75.6683C105.154 75.6683 105.036 75.5525 105.035 75.4069C105.035 75.2613 105.15 75.142 105.296 75.142L110.025 75.0999H110.027C110.171 75.0999 110.288 75.2157 110.29 75.3613C110.29 75.5069 110.174 75.6262 110.029 75.6262L105.3 75.6683H105.298Z" fill="#EA0029"/>
</g>
</svg>
