<svg width="26" height="26" viewBox="0 0 26 26" fill="none" xmlns="http://www.w3.org/2000/svg">
<path d="M23.3635 13.3084C23.5931 13.9569 24.3058 14.298 24.9543 14.0683C25.6028 13.8387 25.9439 13.126 25.7143 12.4775C25.4846 11.829 24.7719 11.4879 24.1234 11.7175C23.7688 11.8425 23.4884 12.1229 23.3635 12.4775H21.624V9.15057H24.5355C24.7652 9.15057 24.9509 8.96481 24.9509 8.73513V2.83786C25.5994 2.60819 25.9406 1.89552 25.7109 1.24702C25.4812 0.598524 24.7685 0.257388 24.12 0.487064C23.4715 0.71674 23.1304 1.42941 23.3601 2.07791C23.4851 2.43255 23.7654 2.71289 24.12 2.83786V8.31969H21.624C21.624 7.63066 21.0667 7.07336 20.3777 7.07336H17.4662V4.57732H19.6211C19.8508 5.22582 20.5634 5.56696 21.2119 5.33728C21.8604 5.1076 22.2016 4.39493 21.9719 3.74644C21.7422 3.09794 21.0296 2.7568 20.3811 2.98648C20.0264 3.11145 19.7461 3.39179 19.6211 3.74644H17.0508C16.8211 3.74644 16.6353 3.9322 16.6353 4.16188V7.07336H13.3084V2.42242C13.9569 2.19275 14.298 1.48007 14.0683 0.831578C13.8387 0.183081 13.126 -0.158055 12.4775 0.0716207C11.829 0.301297 11.4879 1.01397 11.7175 1.66246C11.8425 2.01711 12.1229 2.29745 12.4775 2.42242V7.07336H9.15058V4.99277C9.15058 4.76309 8.96481 4.57732 8.73514 4.57732H6.16479C5.93512 3.92883 5.22244 3.58769 4.57395 3.81737C3.92545 4.04704 3.58431 4.75971 3.81399 5.40821C4.04366 6.0567 4.75634 6.39784 5.40483 6.16817C5.75948 6.04319 6.03982 5.76286 6.16479 5.40821H8.31969V7.06998H5.40821C4.71918 7.06998 4.16188 7.62728 4.16188 8.31631H1.66584V2.83786C2.31434 2.60819 2.65548 1.89552 2.4258 1.24702C2.19612 0.598524 1.48345 0.257388 0.834956 0.487064C0.186459 0.71674 -0.154677 1.42941 0.074999 2.07791C0.19997 2.43255 0.480309 2.71289 0.834956 2.83786V8.73513C0.834956 8.96481 1.02072 9.15057 1.2504 9.15057H4.16188V12.4775H2.42242C2.19275 11.829 1.48007 11.4879 0.831578 11.7175C0.183081 11.9472 -0.158055 12.6599 0.0716207 13.3084C0.301297 13.9569 1.01397 14.298 1.66246 14.0683C2.01711 13.9434 2.29745 13.663 2.42242 13.3084H4.16188V16.6353H1.2504C1.02072 16.6353 0.834956 16.8211 0.834956 17.0508V22.948C0.186459 23.1777 -0.154677 23.8904 0.074999 24.5389C0.304675 25.1874 1.01735 25.5285 1.66584 25.2988C2.31434 25.0691 2.65548 24.3565 2.4258 23.708C2.30083 23.3533 2.02049 23.073 1.66584 22.948V17.4662H4.16188C4.16188 18.1552 4.71918 18.7125 5.40821 18.7125H8.31969V20.3743H6.16479C5.93512 19.7258 5.22244 19.3847 4.57395 19.6143C3.92545 19.844 3.58431 20.5567 3.81399 21.2052C4.04366 21.8537 4.75634 22.1948 5.40483 21.9651C5.75948 21.8402 6.03982 21.5598 6.16479 21.2052H8.73514C8.96481 21.2052 9.15058 21.0194 9.15058 20.7897V18.7091H12.4775V23.3601C11.829 23.5898 11.4879 24.3024 11.7175 24.9509C11.9472 25.5994 12.6599 25.9406 13.3084 25.7109C13.9569 25.4812 14.298 24.7685 14.0683 24.12C13.9434 23.7654 13.663 23.4851 13.3084 23.3601V18.7159H16.6353V21.6274C16.6353 21.8571 16.8211 22.0428 17.0508 22.0428H19.6211C19.8508 22.6913 20.5634 23.0325 21.2119 22.8028C21.8604 22.5731 22.2016 21.8604 21.9719 21.2119C21.7422 20.5634 21.0296 20.2223 20.3811 20.452C20.0264 20.577 19.7461 20.8573 19.6211 21.2119H17.4662V18.7159H20.3777C21.0667 18.7159 21.624 18.1586 21.624 17.4696H24.12V22.9514C23.4715 23.1811 23.1304 23.8937 23.3601 24.5422C23.5898 25.1907 24.3024 25.5319 24.9509 25.3022C25.5994 25.0725 25.9406 24.3599 25.7109 23.7114C25.5859 23.3567 25.3056 23.0764 24.9509 22.9514V17.0508C24.9509 16.8211 24.7652 16.6353 24.5355 16.6353H21.624V13.3084H23.3635ZM24.5355 12.4775C24.7652 12.4775 24.9509 12.6633 24.9509 12.8929C24.9509 13.1226 24.7652 13.3084 24.5355 13.3084C24.3058 13.3084 24.12 13.1226 24.12 12.8929C24.12 12.6633 24.3058 12.4775 24.5355 12.4775ZM24.5355 1.2504C24.7652 1.2504 24.9509 1.43617 24.9509 1.66584C24.9509 1.89552 24.7652 2.08128 24.5355 2.08128C24.3058 2.08128 24.12 1.89552 24.12 1.66584C24.12 1.43617 24.3058 1.2504 24.5355 1.2504ZM20.7931 3.74306C21.0228 3.74306 21.2086 3.92883 21.2086 4.1585C21.2086 4.38818 21.0228 4.57394 20.7931 4.57394C20.5634 4.57394 20.3777 4.38818 20.3777 4.1585C20.3777 3.92883 20.5634 3.74306 20.7931 3.74306ZM12.8929 0.831578C13.1226 0.831578 13.3084 1.01735 13.3084 1.24702C13.3084 1.4767 13.1226 1.66246 12.8929 1.66246C12.6633 1.66246 12.4775 1.4767 12.4775 1.24702C12.4775 1.01735 12.6633 0.831578 12.8929 0.831578ZM4.98939 5.40821C4.75971 5.40821 4.57395 5.22244 4.57395 4.99277C4.57395 4.76309 4.75971 4.57732 4.98939 4.57732C5.21907 4.57732 5.40483 4.76309 5.40483 4.99277C5.40821 5.22244 5.21907 5.40821 4.98939 5.40821ZM1.24702 1.2504C1.4767 1.2504 1.66246 1.43617 1.66246 1.66584C1.66246 1.89552 1.4767 2.08128 1.24702 2.08128C1.01735 2.08128 0.831578 1.89552 0.831578 1.66584C0.831578 1.43617 1.01735 1.2504 1.24702 1.2504ZM1.24702 13.3084C1.01735 13.3084 0.831578 13.1226 0.831578 12.8929C0.831578 12.6633 1.01735 12.4775 1.24702 12.4775C1.4767 12.4775 1.66246 12.6633 1.66246 12.8929C1.66246 13.1226 1.4767 13.3084 1.24702 13.3084ZM1.24702 24.5355C1.01735 24.5355 0.831578 24.3497 0.831578 24.12C0.831578 23.8904 1.01735 23.7046 1.24702 23.7046C1.4767 23.7046 1.66246 23.8904 1.66246 24.12C1.66246 24.3497 1.4767 24.5355 1.24702 24.5355ZM4.98939 21.2086C4.75971 21.2086 4.57395 21.0228 4.57395 20.7931C4.57395 20.5634 4.75971 20.3777 4.98939 20.3777C5.21907 20.3777 5.40483 20.5634 5.40483 20.7931C5.40821 21.0228 5.21907 21.2086 4.98939 21.2086ZM12.8929 24.9543C12.6633 24.9543 12.4775 24.7685 12.4775 24.5389C12.4775 24.3092 12.6633 24.1234 12.8929 24.1234C13.1226 24.1234 13.3084 24.3092 13.3084 24.5389C13.3084 24.7652 13.1226 24.9543 12.8929 24.9543ZM20.7931 21.2086C21.0228 21.2086 21.2086 21.3943 21.2086 21.624C21.2086 21.8537 21.0228 22.0394 20.7931 22.0394C20.5634 22.0394 20.3777 21.8537 20.3777 21.624C20.3777 21.3977 20.5634 21.2086 20.7931 21.2086ZM24.5355 24.5355C24.3058 24.5355 24.12 24.3497 24.12 24.12C24.12 23.8904 24.3058 23.7046 24.5355 23.7046C24.7652 23.7046 24.9509 23.8904 24.9509 24.12C24.9509 24.3497 24.7652 24.5355 24.5355 24.5355ZM20.7931 17.4662C20.7931 17.6959 20.6073 17.8816 20.3777 17.8816H5.40821C5.17853 17.8816 4.99276 17.6959 4.99276 17.4662V8.31969C4.99276 8.09001 5.17853 7.90425 5.40821 7.90425H20.3777C20.6073 7.90425 20.7931 8.09001 20.7931 8.31969V17.4662Z" fill="#EA0033"/>
</svg>
