<svg width="54" height="37" viewBox="0 0 54 37" fill="none" xmlns="http://www.w3.org/2000/svg">
<g id="granduate">
<path id="Vector" d="M27.3393 1.02592L27.3396 1.02602L52.6028 13.0748C52.8744 13.2042 53.05 13.4799 53.05 13.7788C53.05 14.0777 52.8744 14.3533 52.6028 14.4827L43.2417 18.947L43.2415 18.9471C43.1347 18.9974 43.0161 19.0257 42.9021 19.0257C42.7558 19.0257 42.6087 18.9866 42.4836 18.9075C42.4834 18.9074 42.4833 18.9073 42.4832 18.9072L42.5099 18.865C42.2926 18.7332 42.1653 18.5013 42.1653 18.2483L27.3393 1.02592ZM27.3393 1.02592C27.1244 0.924693 26.8756 0.924693 26.6607 1.02592L26.6604 1.02602L1.39725 13.0748C1.12564 13.2042 0.95 13.4799 0.95 13.7788C0.95 14.0777 1.12564 14.3533 1.39725 14.4828L4.69114 16.0526C4.68486 16.0904 4.6817 16.1284 4.6817 16.1664V20.5083C3.48147 20.8478 2.59322 21.9488 2.59322 23.2555C2.59322 23.3313 2.59866 23.412 2.60395 23.4857L2.60399 23.4863C2.66331 24.1994 2.98152 24.8647 3.51569 25.353M27.3393 1.02592L42.1153 17.3344C39.3168 16.7134 33.4101 16.306 26.9947 16.306C20.5793 16.306 14.6726 16.7134 11.8741 17.3344V18.2483C11.8741 18.5133 11.7326 18.7664 11.5063 18.9072C11.2795 19.0536 10.9909 19.0703 10.7475 18.9522C10.7474 18.9522 10.7474 18.9522 10.7474 18.9521L6.25 16.8044V20.5135C7.45546 20.853 8.33848 21.9541 8.33848 23.2607C8.33848 24.3551 7.72025 25.3034 6.81467 25.7825C6.81803 25.7912 6.82119 25.7997 6.82411 25.8074C6.82815 25.8182 6.83172 25.8277 6.83477 25.8353L6.8348 25.8353C7.05414 26.3833 7.24037 27.157 7.39958 28.1174L7.3996 28.1175C7.7129 30.0342 7.88792 32.5723 7.88792 35.2674C7.88792 35.7011 7.53662 36.05 7.10112 36.05H3.83058C3.39508 36.05 3.04378 35.7011 3.04378 35.2674C3.04378 32.5723 3.2188 30.0342 3.5321 28.1175L3.53212 28.1174C3.69141 27.1565 3.88292 26.3885 4.09669 25.8359L4.09693 25.8353C4.09998 25.8277 4.10356 25.8182 4.10759 25.8074C4.11051 25.7997 4.11367 25.7912 4.11704 25.7825C3.90051 25.6678 3.69854 25.5247 3.51569 25.353M3.51569 25.353C3.5156 25.3529 3.51551 25.3528 3.51542 25.3528L3.54964 25.3163L3.51591 25.3532C3.51584 25.3532 3.51576 25.3531 3.51569 25.353ZM3.58145 28.1256C3.74047 27.1663 3.93129 26.4021 4.14332 25.8539C4.14727 25.8441 4.15122 25.8336 4.15544 25.8223C4.16255 25.8033 4.17045 25.7822 4.18043 25.7591L3.58145 28.1256ZM3.58145 28.1256C3.26871 30.0388 3.09378 32.574 3.09378 35.2674C3.09378 35.6732 3.42243 36 3.83058 36H7.10112C7.50928 36 7.83792 35.6732 7.83792 35.2674C7.83792 32.574 7.663 30.0388 7.35026 28.1256H3.58145ZM40.8028 18.5961L40.8029 18.5962C41.1254 18.7031 41.3407 19.0015 41.3407 19.3394V23.4399V27.5405C41.3407 27.5878 41.3358 27.6399 41.3259 27.6882C41.3517 27.8149 41.3451 27.9468 41.301 28.0782L41.3009 28.0787C41.1878 28.4049 40.8823 28.6131 40.5539 28.6131C40.4704 28.6131 40.3852 28.602 40.3046 28.5735C39.2556 28.2277 37.395 27.9368 35.0613 27.7327C32.7287 27.5286 29.9274 27.4113 27 27.4113C24.0726 27.4113 21.2713 27.5273 18.9386 27.7307C16.6046 27.9342 14.7439 28.2251 13.6951 28.5736L13.695 28.5736C13.6099 28.6019 13.525 28.6131 13.4461 28.6131C13.1183 28.6131 12.8068 28.4053 12.6989 28.0781C12.6989 28.078 12.6989 28.078 12.6989 28.078L12.7464 28.0623C12.704 27.9358 12.6987 27.8093 12.7252 27.6881L40.8028 18.5961ZM40.8028 18.5961C39.6547 18.2174 37.727 17.9074 35.3273 17.6919C32.9263 17.4763 30.0491 17.355 27 17.355C23.9535 17.355 21.0764 17.4763 18.6747 17.6919C16.2743 17.9074 14.3453 18.2174 13.1972 18.5961L13.1971 18.5962C12.8746 18.7031 12.6593 19.0015 12.6593 19.3394V23.4399V27.5405C12.6593 27.5878 12.6642 27.6399 12.6741 27.6882L40.8028 18.5961ZM6.31366 34.4847H4.62335C4.65133 32.4334 4.7834 30.4836 5.00384 28.9179L4.95444 28.9109L5.00385 28.9179C5.16033 27.8051 5.32933 27.104 5.4685 26.6699C5.60767 27.104 5.77667 27.8051 5.93316 28.9179L5.93316 28.9179C6.1536 30.4784 6.28568 32.4333 6.31366 34.4847ZM4.17197 23.3676L4.17208 23.3676L4.17161 23.3643C4.1669 23.3315 4.16682 23.2982 4.16682 23.2607C4.16682 22.5455 4.74845 21.9667 5.4685 21.9667C6.18843 21.9667 6.77018 22.5506 6.77018 23.2607C6.77018 23.976 6.18856 24.5548 5.4685 24.5548C4.79441 24.5548 4.22294 24.0315 4.17197 23.3676ZM10.3111 16.7251V17.0042L3.55443 13.7788L27 2.59707L50.4456 13.7788L43.6889 17.0042V16.7251C43.6889 16.376 43.4568 16.0664 43.1171 15.9707C41.7842 15.595 39.5351 15.2878 36.7313 15.0743C33.9264 14.8607 30.5631 14.7408 27 14.7408C23.4369 14.7408 20.0736 14.8607 17.2687 15.0743C14.4649 15.2878 12.2158 15.595 10.8829 15.9707C10.5434 16.0663 10.3111 16.3705 10.3111 16.7251ZM14.2329 23.4399V19.9263C16.6211 19.3168 21.5956 18.9203 27 18.9203C32.4044 18.9203 37.3789 19.3168 39.7671 19.9263V23.4399V26.8086C37.1089 26.2146 32.3085 25.8461 27 25.8461C21.6863 25.8461 16.891 26.2146 14.2329 26.8086V23.4399Z" fill="#EA0033" stroke="#EA0033" stroke-width="0.1"/>
</g>
</svg>
