<svg width="30" height="34" viewBox="0 0 30 34" fill="none" xmlns="http://www.w3.org/2000/svg">
<g id="Group">
<path id="Vector" d="M10.4628 10.92C10.0034 10.92 10.0034 10.2208 10.4628 10.2208H13.3743C13.8336 10.2208 13.8336 10.92 13.3743 10.92H12.2698V12.8249H14.4348V11.3996C14.4348 11.2037 14.5868 11.0517 14.7827 11.0517H20.6192C20.8151 11.0517 20.9671 11.2037 20.9671 11.3996V19.7591H21.3015C21.4906 19.7591 21.6493 19.9111 21.6493 20.107V23.542C21.6493 23.7379 21.4974 23.8899 21.3015 23.8899H9.1185C8.9226 23.8899 8.77061 23.7379 8.77061 23.542V20.1104C8.77061 19.9145 8.9226 19.7625 9.1185 19.7625H9.55759V13.1762C9.55759 12.9871 9.70958 12.8283 9.90548 12.8283H11.5605V10.9234H10.4628V10.92ZM12.263 13.5241V19.7591H14.4281V13.5241H12.263ZM11.5672 19.7591V13.5241H10.2601V19.7591H11.5672ZM18.0049 15.5371C17.9205 15.7128 17.7111 15.7803 17.5354 15.6891C17.3598 15.6047 17.2923 15.3885 17.3835 15.2196L17.8023 14.3955H17.0119C16.762 14.3955 16.5728 14.1219 16.7113 13.8652L17.3733 12.5581C17.4578 12.3825 17.6739 12.3149 17.8428 12.4061C18.0184 12.4906 18.086 12.7 17.9948 12.8756L17.576 13.6997H18.3663C18.623 13.6997 18.7987 13.9733 18.6804 14.2097L18.0049 15.5371ZM10.044 22.1775C9.5846 22.1775 9.5846 21.4783 10.044 21.4783H10.9593C11.4186 21.4783 11.4186 22.1775 10.9593 22.1775H10.044ZM19.4641 22.1775C19.0047 22.1775 19.0047 21.4783 19.4641 21.4783H20.3794C20.8387 21.4783 20.8387 22.1775 20.3794 22.1775H19.4641ZM17.1031 22.1775C16.6438 22.1775 16.6438 21.4783 17.1031 21.4783H18.0184C18.4778 21.4783 18.4778 22.1775 18.0184 22.1775H17.1031ZM14.7489 22.1775C14.2896 22.1775 14.2896 21.4783 14.7489 21.4783H15.6643C16.1236 21.4783 16.1236 22.1775 15.6643 22.1775H14.7489ZM12.3981 22.1775C11.9388 22.1775 11.9388 21.4783 12.3981 21.4783H13.3135C13.7728 21.4783 13.7728 22.1775 13.3135 22.1775H12.3981ZM9.46977 23.1975H20.9502V20.4617C17.1234 20.4617 13.2966 20.4617 9.46977 20.4617V23.1975ZM18.3123 17.1077H17.0761V19.7557H18.3123V17.1077ZM16.7248 16.4086H18.6602C18.8561 16.4086 19.0081 16.5605 19.0081 16.7564V19.7524H20.2578V11.7509H15.1171V19.7591H16.3668V16.7632C16.3769 16.5707 16.5391 16.4086 16.7248 16.4086ZM24.6081 22.0795C24.777 22.1775 24.831 22.3869 24.7331 22.5558C24.6351 22.7246 24.4257 22.7787 24.2568 22.6807L22.4904 21.6675C22.0918 21.4378 22.4431 20.8366 22.8383 21.0662L24.6081 22.0795ZM8.52742 12.7979C8.6963 12.8959 8.75034 13.1053 8.65239 13.2742C8.55444 13.443 8.34503 13.4971 8.17615 13.3991L5.80847 12.0312C5.40991 11.8015 5.76118 11.2003 6.15636 11.43L8.52742 12.7979ZM24.2602 11.43C24.6588 11.2003 25.0067 11.8083 24.6081 12.0312L22.2404 13.3991C21.8419 13.6288 21.494 13.0208 21.8925 12.7979L24.2602 11.43ZM7.62899 21.0325C8.02754 20.8028 8.37543 21.4108 7.97688 21.6337L6.15973 22.6807C5.76118 22.9104 5.41329 22.3024 5.81184 22.0795L7.62899 21.0325ZM14.8604 6.41089C14.8604 5.95154 15.5596 5.95154 15.5596 6.41089V9.14674C15.5596 9.60609 14.8604 9.60609 14.8604 9.14674V6.41089ZM14.8604 24.9707C14.8604 24.5114 15.5596 24.5114 15.5596 24.9707V27.7066C15.5596 28.1659 14.8604 28.1659 14.8604 27.7066V24.9707ZM1.30276 9.02853C1.92424 7.9477 3.30567 7.57616 4.38312 8.20439C5.46395 8.83263 5.83548 10.2073 5.20725 11.2915C4.57902 12.3757 3.20434 12.7439 2.12689 12.1156C1.04944 11.4874 0.681286 10.1094 1.30276 9.02853ZM2.85308 8.65024C1.50542 9.01501 1.2825 10.822 2.47479 11.5144C3.67045 12.2068 5.12281 11.1024 4.76479 9.76146C4.54187 8.91706 3.69072 8.42731 2.85308 8.65024ZM1.30276 25.089C0.681286 24.0081 1.04607 22.6301 2.12689 22.0018C3.20772 21.3804 4.58578 21.7519 5.20725 22.826C5.82873 23.9068 5.4572 25.2849 4.38312 25.9063C3.30567 26.5413 1.93099 26.1698 1.30276 25.089ZM1.74861 23.5589C1.38383 24.9066 2.83957 26.0043 4.03861 25.3119C5.23428 24.6195 5.00798 22.8125 3.66032 22.4477C2.82943 22.2315 1.97153 22.7213 1.74861 23.5589ZM15.2117 33.1175C13.962 33.1175 12.9554 32.1042 12.9554 30.8612C12.9554 29.6115 13.9687 28.605 15.2117 28.605C16.4546 28.605 17.4679 29.6183 17.4679 30.8612C17.4679 32.1042 16.4614 33.1175 15.2117 33.1175ZM14.1072 31.9657C15.0833 32.9418 16.7687 32.2461 16.7687 30.8612C16.7687 29.4798 15.0867 28.7807 14.1072 29.7568C13.4992 30.3681 13.4992 31.351 14.1072 31.9657ZM29.1206 25.089C28.4991 26.1698 27.1177 26.5413 26.0402 25.9131C24.9594 25.2916 24.5878 23.9102 25.2161 22.8327C25.8443 21.7519 27.219 21.3804 28.3032 22.0086C29.3705 22.6301 29.742 24.0047 29.1206 25.089ZM27.5703 25.4639C28.9179 25.0991 29.1408 23.2921 27.9485 22.6064C26.7529 21.914 25.2938 23.0185 25.6585 24.3594C25.8815 25.2004 26.7326 25.6902 27.5703 25.4639ZM29.1206 9.02853C29.7488 10.1094 29.3773 11.4874 28.2964 12.1089C27.2156 12.7371 25.8376 12.3656 25.2093 11.2848C24.5879 10.2039 24.9594 8.82587 26.0335 8.19764C27.1177 7.57616 28.4923 7.9477 29.1206 9.02853ZM28.668 10.5653C29.0328 9.21767 27.577 8.11995 26.378 8.81236C25.1823 9.50476 25.4086 11.3118 26.7563 11.6698C27.5905 11.8927 28.4417 11.3962 28.668 10.5653ZM15.2117 1C16.4614 1 17.4679 2.01328 17.4679 3.25623C17.4679 4.50594 16.4546 5.51246 15.2117 5.51246C13.9687 5.51246 12.9554 4.49918 12.9554 3.25623C12.9487 2.0099 13.962 1 15.2117 1ZM16.3128 2.15851C15.3366 1.18239 13.6512 1.87142 13.6512 3.26298C13.6512 4.65455 15.3333 5.34358 16.3128 4.36745C16.9207 3.74936 16.9207 2.76648 16.3128 2.15851Z" fill="#EA0033" stroke="#EA0033" stroke-width="0.1"/>
</g>
</svg>
