<svg width="25" height="25" viewBox="0 0 25 25" fill="none" xmlns="http://www.w3.org/2000/svg">
<g id="Sign_in_circle_duotone_line">
<g id="Ellipse 48">
<ellipse cx="7.86029" cy="7.92161" rx="7.86029" ry="7.92161" transform="matrix(4.40524e-08 -1 -1 -4.3373e-08 22.2557 20.4414)" fill="#F2F2F2" fill-opacity="0.3"/>
<path d="M6.11246 12.5811C6.11246 8.07213 9.7956 4.42083 14.3341 4.42084C18.8725 4.42084 22.5557 8.07213 22.5557 12.5811C22.5557 17.0901 18.8725 20.7414 14.3341 20.7414C9.7956 20.7414 6.11246 17.0901 6.11246 12.5811Z" stroke="#F2F2F2" stroke-opacity="0.3" stroke-width="0.6"/>
</g>
<path id="Ellipse 47" d="M5.35189 19.5283C6.73671 20.9024 8.50108 21.8382 10.4219 22.2173C12.3427 22.5964 14.3336 22.4018 16.143 21.6582C17.9524 20.9145 19.4988 19.6552 20.5869 18.0394C21.6749 16.4236 22.2557 14.524 22.2557 12.5807C22.2557 10.6375 21.6749 8.73783 20.5869 7.12205C19.4988 5.50628 17.9524 4.24694 16.143 3.50328C14.3336 2.75962 12.3427 2.56505 10.4219 2.94416C8.50108 3.32328 6.73671 4.25905 5.35189 5.63315" stroke="white" stroke-width="1.2"/>
<path id="Vector 9" d="M15.3243 12.5811L15.7914 12.2045L16.095 12.5811L15.7914 12.9577L15.3243 12.5811ZM3.44185 13.1811C3.11048 13.1811 2.84185 12.9125 2.84185 12.5811C2.84185 12.2498 3.11048 11.9811 3.44185 11.9811V13.1811ZM11.8306 7.29187L15.7914 12.2045L14.8572 12.9577L10.8964 8.04505L11.8306 7.29187ZM15.7914 12.9577L11.8306 17.8704L10.8964 17.1172L14.8572 12.2045L15.7914 12.9577ZM15.3243 13.1811H3.44185V11.9811H15.3243V13.1811Z" fill="white"/>
</g>
</svg>
