<svg width="26" height="26" viewBox="0 0 26 26" fill="none" xmlns="http://www.w3.org/2000/svg">
<circle cx="13" cy="13" r="12" stroke="#333333" stroke-width="2"/>
<path d="M18.3553 16.8708C18.2638 16.9815 18.1724 17.0859 18.0746 17.1872C15.4603 19.9962 11.0704 20.1512 8.27005 17.5288C8.15021 17.4181 8.03984 17.3042 7.92946 17.1872C7.8317 17.0828 7.74024 16.9752 7.64879 16.8708C7.39335 16.5671 7.33028 16.1432 7.48165 15.7763C8.06507 14.4066 10.3104 13.3911 12.9941 13.3911C15.6779 13.3911 17.9232 14.4066 18.5161 15.7731C18.6706 16.1401 18.6107 16.564 18.3553 16.8708Z" fill="#333333"/>
<path d="M12.9936 11.4936C14.5612 11.4936 15.8319 10.219 15.8319 8.64659C15.8319 7.07422 14.5612 5.79956 12.9936 5.79956C11.4261 5.79956 10.1554 7.07422 10.1554 8.64659C10.1554 10.219 11.4261 11.4936 12.9936 11.4936Z" fill="#333333"/>
</svg>
