<svg width="10" height="16" viewBox="0 0 10 16" fill="none" xmlns="http://www.w3.org/2000/svg">
<path d="M9.216 10.634C9.216 11.558 8.916 12.326 8.316 12.938C7.716 13.55 6.9 13.94 5.868 14.108V15.44H4.068V14.126C3.336 14.03 2.664 13.802 2.052 13.442C1.452 13.082 0.954 12.614 0.558 12.038L1.908 10.742C2.292 11.21 2.76 11.594 3.312 11.894C3.876 12.194 4.416 12.344 4.932 12.344C5.544 12.344 6.03 12.2 6.39 11.912C6.762 11.624 6.948 11.246 6.948 10.778C6.948 10.442 6.888 10.166 6.768 9.95C6.648 9.722 6.426 9.5 6.102 9.284C5.778 9.056 5.28 8.774 4.608 8.438C3.72 8.006 3.018 7.598 2.502 7.214C1.986 6.83 1.608 6.422 1.368 5.99C1.128 5.558 1.008 5.06 1.008 4.496C1.008 3.656 1.278 2.954 1.818 2.39C2.37 1.826 3.12 1.46 4.068 1.292V0.157999H5.868V1.274C6.564 1.37 7.182 1.586 7.722 1.922C8.274 2.246 8.682 2.66 8.946 3.164L7.488 4.244C7.2 3.872 6.852 3.584 6.444 3.38C6.048 3.164 5.622 3.056 5.166 3.056C4.578 3.056 4.116 3.182 3.78 3.434C3.456 3.674 3.294 4.016 3.294 4.46C3.294 4.736 3.366 4.976 3.51 5.18C3.666 5.372 3.936 5.588 4.32 5.828C4.716 6.068 5.316 6.38 6.12 6.764C7.26 7.304 8.058 7.868 8.514 8.456C8.982 9.032 9.216 9.758 9.216 10.634Z" fill="#A9A9A9"/>
</svg>
