<svg width="38" height="38" viewBox="0 0 38 38" fill="none" xmlns="http://www.w3.org/2000/svg">
<g id="world">
<path id="Vector" d="M19 0C8.52024 0 0 8.52458 0 19C0 29.4754 8.52458 38 19 38C29.4754 38 38 29.4754 38 19C38 8.52458 29.4754 0 19 0ZM29.8838 18.244C29.8143 14.9984 29.3016 11.9918 28.4413 9.38921C29.6058 8.7201 30.705 7.92934 31.7174 7.01258C34.5111 9.97576 36.2838 13.9078 36.4663 18.244C36.4706 18.244 29.8838 18.244 29.8838 18.244ZM5.82209 30.4834C3.29339 27.5854 1.70318 23.8532 1.52504 19.7517H8.10748C8.16831 22.667 8.5941 25.4 9.30231 27.8113C8.06403 28.5587 6.89092 29.4537 5.82209 30.4834ZM9.55866 9.38921C8.69838 11.9918 8.18568 14.9984 8.11616 18.244H1.53373C1.71621 13.9035 3.49325 9.97142 6.28699 7.01258C7.29499 7.92934 8.39424 8.7201 9.55866 9.38921ZM19.756 1.57283C22.5454 1.98994 24.9959 4.69243 26.5687 8.67231C24.4571 9.68466 22.15 10.2669 19.756 10.3668V1.57283ZM18.244 1.57283V10.3668C15.85 10.2669 13.5429 9.689 11.4313 8.67231C12.9998 4.68809 15.4503 1.98559 18.244 1.57283ZM18.244 11.8788V18.244H9.62383C9.689 15.2808 10.1582 12.5088 10.9186 10.1061C13.1953 11.1749 15.6762 11.7789 18.244 11.8788ZM9.62383 19.756H18.244V25.1871C15.585 25.2913 13.0215 25.9387 10.684 27.0814C10.0627 24.8699 9.68465 22.3846 9.62383 19.756ZM18.244 26.6947V36.4272C15.2721 35.984 12.6869 32.9469 11.1402 28.5369C13.33 27.4333 15.737 26.799 18.244 26.6947ZM19.756 36.4272V26.6947C22.263 26.799 24.67 27.4333 26.8598 28.5369C25.3087 32.9469 22.7279 35.984 19.756 36.4272ZM19.756 25.1827V19.7517H28.3762C28.3153 22.389 27.9417 24.8655 27.3247 27.0771C24.9785 25.9344 22.415 25.2913 19.756 25.1827ZM19.756 18.244V11.8788C22.3238 11.7789 24.8047 11.1749 27.0727 10.1018C27.8374 12.5045 28.3023 15.2808 28.3675 18.2397L19.756 18.244ZM30.6311 5.95244C29.7839 6.71278 28.8715 7.37754 27.9113 7.95106C26.9771 5.63092 25.7475 3.7105 24.3051 2.33753C26.673 3.08918 28.8237 4.33615 30.6311 5.95244ZM10.08 7.95106C9.11982 7.38189 8.20741 6.71278 7.36017 5.95244C9.16762 4.33615 11.3183 3.08918 13.6819 2.33318C12.2525 3.70615 11.0229 5.63092 10.08 7.95106ZM6.86485 31.574C7.76858 30.7007 8.75051 29.936 9.79327 29.2929C10.7578 31.952 12.096 34.1418 13.6863 35.6625C11.1011 34.837 8.77658 33.4162 6.86485 31.574ZM28.2024 29.2929C29.2451 29.9447 30.2271 30.705 31.1308 31.574C29.2234 33.4162 26.8946 34.8283 24.3094 35.6581C25.904 34.1418 27.2378 31.952 28.2024 29.2929ZM32.1736 30.4791C31.1047 29.445 29.936 28.5543 28.6847 27.8113C29.3929 25.4 29.8187 22.667 29.8795 19.7517H36.4619C36.2925 23.8488 34.7023 27.5854 32.1736 30.4791Z" fill="#EA0033"/>
</g>
</svg>
