<svg width="146" height="146" viewBox="0 0 146 146" fill="none" xmlns="http://www.w3.org/2000/svg">
<g clip-path="url(#clip0_540_270)">
<path d="M2.32054 119.424C6.60109 129.835 16.6043 134.758 22.9978 137.905C48.2004 150.31 86.4859 148.855 114.05 126.226C120.5 120.93 152.291 93.1889 144.892 55.6238C138.351 22.4161 105.439 3.15093 77.7241 0.591753C54.7612 -1.52886 24.8977 1.30156 14.2994 21.5619C7.63469 34.3014 11.8695 44.7301 6.41796 73.5962C1.69897 98.5803 -2.91437 106.691 2.32054 119.425V119.424Z" fill="#FFEEF1"/>
<path d="M68.8093 118.421C99.52 118.421 124.416 93.3498 124.416 62.4225C124.416 31.4951 99.52 6.42346 68.8093 6.42346C38.0986 6.42346 13.2026 31.4951 13.2026 62.4225C13.2026 93.3498 38.0986 118.421 68.8093 118.421Z" fill="white"/>
<path d="M54.1029 10.9306C53.874 11.2688 54.5537 12.4049 55.9043 12.4049C57.2548 12.4049 57.931 12.1777 58.4927 13.6519C59.0561 15.1261 58.2673 20.1123 59.0561 21.9265C59.8432 23.7406 61.1955 24.8731 62.208 23.8534C63.2205 22.8336 63.1078 20.1123 64.3474 19.4325C65.5852 18.7526 70.0877 16.0314 70.313 13.7646C70.5384 11.4978 68.9625 9.79636 65.0235 9.34371C61.0846 8.89105 55.7933 8.43664 54.1047 10.9306H54.1029Z" fill="#FFEEF1"/>
<path d="M39.5568 61.7197C39.0304 62.0156 38.7152 62.5827 38.7416 63.1886C38.8208 65.0891 38.1059 69.827 36.6039 71.34C34.6899 73.2668 35.396 76.7401 35.3661 78.1404C35.3062 80.9866 35.5792 82.253 38.6183 83.6145C41.6575 84.9742 42.8478 85.0517 43.0732 87.773C43.2986 90.4942 43.649 101.002 44.5488 103.723C45.4485 106.445 47.3625 110.865 48.375 111.885C49.3875 112.905 51.7523 113.472 50.289 109.618C48.8258 105.765 47.926 103.951 49.6129 101.796C51.3015 99.6424 54.1153 94.6544 54.3407 92.7275C54.566 90.8006 55.5785 89.6664 56.4801 89.4409C57.3798 89.2137 59.2938 88.5338 59.8573 87.854C60.4208 87.1741 59.2938 85.2472 58.9575 83.5458C58.6195 81.8462 58.6195 80.8246 61.4332 79.4649C64.247 78.1051 62.8965 74.2514 59.0702 73.2298C55.244 72.21 52.8792 70.056 53.33 67.9019C53.7807 65.7478 50.7416 65.975 48.9402 64.9552C47.1389 63.9354 47.1935 62.3326 45.1897 61.5682C42.4798 60.5361 40.5781 61.1455 39.5621 61.7179L39.5568 61.7197Z" fill="#FFAFBD"/>
<path d="M109.294 59.3419C108.345 57.9082 108.465 55.6396 110.835 52.5362C112.698 50.0986 110.025 47.6592 108.792 46.7257C108.567 46.5548 108.667 46.1973 108.949 46.1656C110.475 45.9912 114.018 46.509 115.577 54.4472C117.593 64.7157 118.422 61.1332 119.489 59.939C120.556 58.7448 118.559 56.515 120.556 54.2077C121.815 52.7529 122.453 50.6322 122.778 48.9026C118.769 32.6158 107.683 19.1418 92.9941 11.9857C93.0152 13.7734 92.5873 20.0014 85.3433 17.4334C85.3433 17.4334 80.8374 15.2846 81.9044 23.9995C82.9715 32.7162 86.6463 23.4024 87.3577 23.0449C88.0691 22.6874 89.9655 22.2083 89.1361 28.0593C89.1361 28.0593 89.0181 30.0884 85.3415 29.7308C81.6667 29.3733 80.9553 31.1628 80.9553 32.1192C80.9553 33.0755 81.311 35.5819 79.2949 37.3731C77.2788 39.1644 77.8722 43.8213 80.5997 42.2678C83.3272 40.7161 85.2236 35.8197 87.7134 35.3423C90.2032 34.865 92.4552 38.0882 94.8271 37.2534C97.1989 36.4167 96.1318 32.3587 97.3169 32.3587C98.5019 32.3587 100.992 34.747 100.636 36.5383C100.28 38.3295 96.6055 39.1644 97.5528 41.3149C98.5019 43.4637 100.516 42.7469 101.11 44.1806C101.703 45.6125 98.1462 47.2858 95.3007 45.4945C92.4552 43.7033 91.9816 46.3311 90.5588 45.137C89.1361 43.9428 89.0181 41.4365 87.002 42.2713C84.9859 43.1079 83.8008 44.7794 81.1931 45.9718C78.5853 47.166 76.4512 48.7177 76.4512 50.3892C76.4512 52.0607 77.4003 53.8519 76.9248 56.478C76.4512 59.1041 75.6201 66.2691 84.1565 64.8354C92.693 63.4017 91.6259 67.8208 91.6259 68.2981C91.6259 68.7755 91.5079 74.9841 92.3373 76.0585C93.1666 77.1329 95.0648 80.2381 92.3373 84.2961C89.6098 88.3559 90.6768 97.4302 93.1666 96.236C95.6564 95.0418 98.1462 90.3849 101.229 87.9984C104.313 85.61 108.581 75.2218 106.802 71.9987C105.024 68.7755 109.292 66.1476 109.886 63.9988C110.479 61.85 110.241 60.7756 109.292 59.3419H109.294Z" fill="#FFAFBD"/>
<path d="M28.6626 23.679C28.7084 25.6675 28.358 27.8321 27.2011 29.8612C23.7112 35.9817 23.8239 39.0429 23.4858 45.1634C23.1477 51.2839 30.8284 62.0755 32.7424 63.208C34.6564 64.3405 34.9505 61.6457 34.9505 59.4916C34.9505 57.3375 34.1335 54.7555 33.0083 52.2615C31.8831 49.7674 31.8831 48.1805 32.2212 47.1607C32.5593 46.1409 33.9098 45.801 34.8096 46.8208C35.7094 47.8406 37.8752 48.7459 38.9141 48.1083C40.1924 47.3245 39.6941 44.2563 40.1449 43.2365C40.5957 42.2167 43.0714 41.5369 44.0839 39.3828C45.0963 37.2287 46.7849 36.3216 48.8116 35.3018C50.8383 34.282 52.6379 33.8276 52.976 33.1478C53.3141 32.4679 52.8633 30.881 53.4268 29.0668C53.9902 27.2527 55.3408 25.0986 54.7773 24.1933C54.2138 23.2862 52.527 21.8137 49.3751 24.0805C46.2232 26.3474 45.4362 26.3474 44.5346 24.6477C43.6348 22.948 45.5471 18.5271 49.4878 18.5271C53.4285 18.5271 54.2156 17.1674 54.3283 16.1476C54.441 15.1278 53.2031 13.9935 51.8526 13.7663C50.502 13.5391 50.2766 14.3335 44.6491 16.6003C40.8932 18.1132 39.5691 16.0948 37.7872 15.6914C35.2305 17.5937 30.8601 21.3752 28.6644 23.6807L28.6626 23.679Z" fill="#FFAFBD"/>
<path d="M121.794 72.5112C120.954 72.3227 121.141 74.3905 120.021 74.7674C118.901 75.1426 118.434 75.708 118.714 77.7757C118.994 79.8435 118.528 82.57 117.408 83.6039C116.288 84.6378 114.701 85.3899 114.608 87.9279C114.515 90.466 112.182 92.9106 110.78 93.7561C109.38 94.6015 107.234 95.919 107.234 98.0801C107.234 99.4715 107.197 101.252 107.519 102.621C114.929 95.3835 120.343 86.0873 122.852 75.6481C122.634 74.2602 122.275 72.6186 121.796 72.5112H121.794Z" fill="#FFAFBD"/>
<path d="M68.8092 118.684C53.8863 118.684 39.8543 112.831 29.3018 102.205C18.7492 91.5791 12.9385 77.4499 12.9385 62.4225C12.9385 47.395 18.7492 33.2658 29.3018 22.6398C39.8543 12.0121 53.8845 6.16104 68.8092 6.16104C83.7339 6.16104 97.7641 12.0139 108.317 22.6398C118.869 33.2658 124.68 47.395 124.68 62.4225C124.68 77.4499 118.869 91.5791 108.317 102.205C97.7641 112.833 83.7339 118.684 68.8092 118.684ZM68.8092 6.68767C38.2943 6.68767 13.4667 31.6894 13.4667 62.4207C13.4667 93.152 38.2925 118.156 68.8092 118.156C99.326 118.156 124.152 93.1537 124.152 62.4207C124.152 31.6877 99.3242 6.68767 68.8092 6.68767Z" fill="#EA0029"/>
<path d="M113.029 16.6496C109.926 16.6496 107.41 19.1824 107.41 22.3069C107.41 23.0872 107.76 24.181 108.289 25.3804C109.616 28.4028 112.058 32.1051 112.807 33.2112C112.914 33.3697 113.145 33.3697 113.252 33.2112C114.295 31.6665 118.647 25.0581 118.647 22.3069C118.647 19.1824 116.131 16.6496 113.029 16.6496ZM113.029 24.8943C111.609 24.8943 110.46 23.7354 110.46 22.3069C110.46 20.8785 111.609 19.7196 113.029 19.7196C114.448 19.7196 115.598 20.8785 115.598 22.3069C115.598 23.7354 114.448 24.8943 113.029 24.8943Z" fill="#EA0029"/>
<path d="M113.527 24.8591C112.902 24.8591 112.296 24.6512 111.794 24.2585C111.197 23.7917 110.815 23.1189 110.722 22.3633C110.704 22.2189 110.807 22.0868 110.951 22.0692C111.095 22.0516 111.227 22.1537 111.245 22.2981C111.323 22.9146 111.632 23.4624 112.118 23.8428C112.604 24.2233 113.208 24.3888 113.818 24.3131C114.429 24.2356 114.974 23.9238 115.351 23.4324C116.131 22.4197 115.948 20.9578 114.945 20.1722C114.559 19.8711 114.098 19.702 113.61 19.6861C113.464 19.6808 113.349 19.5593 113.354 19.4131C113.36 19.2669 113.483 19.1542 113.627 19.1577C114.226 19.1771 114.795 19.3849 115.27 19.7566C116.503 20.72 116.728 22.5148 115.77 23.7565C115.305 24.3589 114.636 24.7428 113.885 24.8379C113.765 24.8538 113.645 24.8608 113.527 24.8608V24.8591Z" fill="black"/>
<path d="M40.3121 3.77271C36.9912 3.77271 34.3007 6.48336 34.3007 9.82808C34.3007 10.6647 34.6757 11.8324 35.2409 13.1164C36.6619 16.352 39.2767 20.3131 40.0744 21.4967C40.1888 21.6658 40.4371 21.6676 40.5516 21.4967C41.6679 19.8446 46.3253 12.7712 46.3253 9.82808C46.3253 6.48336 43.633 3.77271 40.3139 3.77271H40.3121ZM40.3121 12.5951C38.7943 12.5951 37.5635 11.3551 37.5635 9.82632C37.5635 8.2975 38.7943 7.05754 40.3121 7.05754C41.8299 7.05754 43.0607 8.2975 43.0607 9.82632C43.0607 11.3551 41.8299 12.5951 40.3121 12.5951Z" fill="#EA0029"/>
<path d="M40.8456 12.5405C40.1801 12.5405 39.5374 12.3203 39.0038 11.9029C38.3682 11.4062 37.9632 10.6911 37.8628 9.88619C37.8452 9.74176 37.9473 9.60966 38.0917 9.59205C38.2361 9.57444 38.3682 9.67659 38.3858 9.82102C38.4685 10.485 38.8031 11.0768 39.3278 11.4872C39.8508 11.8958 40.5023 12.0755 41.1591 11.9927C41.8176 11.9099 42.4057 11.5735 42.8125 11.0434C43.6541 9.95136 43.4569 8.37499 42.3723 7.5278C41.9567 7.20196 41.4584 7.02054 40.9337 7.00293C40.7875 6.99765 40.6731 6.87612 40.6784 6.72993C40.6836 6.58374 40.8104 6.47101 40.9513 6.47454C41.5887 6.49567 42.1927 6.71584 42.698 7.11037C44.0098 8.13545 44.2475 10.0447 43.2298 11.3639C42.735 12.005 42.0236 12.4137 41.2225 12.5141C41.0957 12.5299 40.9689 12.5387 40.8421 12.5387L40.8456 12.5405Z" fill="black"/>
<path d="M102.76 48.7124C102.731 48.7124 102.701 48.7072 102.673 48.6983C102.536 48.6508 102.462 48.4993 102.51 48.3619C102.585 48.1418 102.668 47.9163 102.756 47.6874C102.809 47.5517 102.96 47.4831 103.098 47.5341C103.233 47.587 103.302 47.7384 103.251 47.8758C103.165 48.0995 103.085 48.3197 103.01 48.5345C102.973 48.6438 102.869 48.7124 102.76 48.7124ZM103.832 46.1004C103.795 46.1004 103.756 46.0916 103.721 46.0758C103.589 46.0141 103.531 45.8574 103.592 45.7253C103.879 45.1088 104.198 44.4677 104.542 43.8195C104.61 43.691 104.77 43.6416 104.899 43.7103C105.028 43.779 105.077 43.9393 105.008 44.0679C104.67 44.7072 104.355 45.3395 104.071 45.949C104.027 46.0458 103.931 46.1022 103.832 46.1022V46.1004ZM105.806 42.3612C105.76 42.3612 105.714 42.3488 105.672 42.3242C105.547 42.2502 105.505 42.0882 105.579 41.9631C105.936 41.3537 106.311 40.7443 106.693 40.1525C106.772 40.0292 106.936 39.994 107.058 40.0732C107.181 40.1525 107.216 40.3163 107.137 40.4378C106.758 41.0243 106.387 41.6267 106.033 42.2291C105.984 42.3136 105.896 42.3594 105.806 42.3594V42.3612ZM108.1 38.8086C108.047 38.8086 107.994 38.7928 107.947 38.7593C107.827 38.6748 107.801 38.5092 107.885 38.3912C108.308 37.7959 108.736 37.2234 109.16 36.6862C109.25 36.5718 109.417 36.5524 109.532 36.6422C109.646 36.732 109.666 36.8994 109.576 37.0138C109.158 37.5422 108.734 38.1094 108.317 38.6959C108.266 38.7681 108.185 38.8069 108.102 38.8069L108.1 38.8086ZM110.729 35.4991C110.666 35.4991 110.602 35.4762 110.551 35.4304C110.444 35.3318 110.435 35.1662 110.532 35.057C111.048 34.4864 111.555 33.9756 112.039 33.537C112.146 33.4402 112.314 33.4472 112.412 33.5564C112.511 33.6638 112.502 33.8312 112.393 33.9298C111.923 34.356 111.428 34.8545 110.923 35.4128C110.87 35.4709 110.799 35.4991 110.727 35.4991H110.729Z" fill="black"/>
<path d="M94.2707 66.0948C94.2161 66.0948 94.1633 66.079 94.1157 66.0437C93.5593 65.6404 92.9782 65.237 92.3883 64.8443C92.2669 64.7633 92.2334 64.5995 92.3144 64.4779C92.3954 64.3564 92.5591 64.3247 92.6806 64.4039C93.2758 64.8002 93.8622 65.2089 94.4256 65.6157C94.5436 65.702 94.57 65.8658 94.4855 65.9838C94.4344 66.0543 94.3534 66.093 94.2707 66.093V66.0948ZM90.7561 63.747C90.7085 63.747 90.661 63.7346 90.617 63.7082C90.0306 63.3454 89.4214 62.9843 88.8086 62.6321C88.6818 62.5599 88.6378 62.3978 88.71 62.271C88.7822 62.1442 88.9442 62.1002 89.071 62.1724C89.689 62.5264 90.3035 62.891 90.8952 63.2573C91.0184 63.3348 91.0572 63.4969 90.9815 63.6202C90.9322 63.7012 90.8459 63.7452 90.7561 63.7452V63.747ZM87.0883 61.644C87.046 61.644 87.0038 61.6334 86.965 61.6123C86.354 61.2864 85.7236 60.9624 85.0915 60.6488C84.9612 60.5837 84.9084 60.4252 84.9718 60.2948C85.0369 60.1645 85.1954 60.1116 85.3257 60.175C85.9614 60.4903 86.597 60.8179 87.2115 61.1455C87.3401 61.2142 87.3894 61.3745 87.3207 61.5031C87.2732 61.5929 87.1816 61.644 87.0865 61.644H87.0883ZM83.3025 59.7647C83.2655 59.7647 83.2286 59.7576 83.1916 59.74C82.563 59.4494 81.915 59.1605 81.2705 58.8823C81.1367 58.8241 81.0751 58.6691 81.1332 58.5353C81.1913 58.4014 81.3463 58.3398 81.4801 58.3979C82.1298 58.6779 82.7796 58.9686 83.4135 59.2609C83.5455 59.3226 83.6036 59.4793 83.542 59.6114C83.498 59.7083 83.4011 59.7647 83.3025 59.7647ZM79.4252 58.0914C79.3918 58.0914 79.3583 58.0861 79.3266 58.072C78.6804 57.8131 78.0201 57.556 77.3633 57.3112C77.2259 57.2601 77.1573 57.1086 77.2083 56.9712C77.2594 56.8338 77.4126 56.7652 77.5482 56.8162C78.2085 57.0628 78.8741 57.32 79.5238 57.5806C79.6594 57.6352 79.7245 57.7885 79.67 57.9241C79.6295 58.028 79.5291 58.0897 79.4252 58.0897V58.0914ZM75.4651 56.6137C75.4369 56.6137 75.407 56.6084 75.3788 56.5996C74.7203 56.3724 74.0477 56.1487 73.3786 55.9338C73.2395 55.8898 73.1637 55.7401 73.2078 55.6009C73.2518 55.4618 73.4014 55.3861 73.5388 55.4301C74.2132 55.645 74.8893 55.8704 75.5514 56.0994C75.6887 56.1469 75.7627 56.2967 75.7152 56.4358C75.6782 56.545 75.5743 56.6137 75.4651 56.6137ZM71.4364 55.3262C71.4117 55.3262 71.3871 55.3226 71.3624 55.3156C70.6898 55.1183 70.0066 54.9264 69.3304 54.7449C69.1896 54.708 69.105 54.5618 69.1438 54.4209C69.1808 54.28 69.3269 54.1954 69.4678 54.2342C70.1475 54.4156 70.8359 54.6093 71.5121 54.8066C71.653 54.8471 71.7322 54.995 71.6917 55.1342C71.6582 55.2487 71.5526 55.3244 71.4381 55.3244L71.4364 55.3262ZM67.3513 54.2324C67.3301 54.2324 67.309 54.2306 67.2896 54.2254C66.6082 54.0598 65.918 53.903 65.2348 53.7551C65.0921 53.7251 65.0023 53.5842 65.0323 53.4416C65.0622 53.2989 65.2031 53.2091 65.3457 53.239C66.0324 53.387 66.7262 53.5473 67.4129 53.7128C67.5555 53.7463 67.6418 53.8907 67.6084 54.0316C67.5784 54.1531 67.471 54.2342 67.3513 54.2342V54.2324ZM40.409 53.4363C40.2963 53.4363 40.1924 53.3641 40.1572 53.2496C40.1132 53.1104 40.1924 52.9625 40.3315 52.9185C40.9161 52.7371 41.5342 52.5715 42.1698 52.4253C42.3124 52.3918 42.4533 52.4817 42.4868 52.6243C42.5202 52.767 42.4304 52.9079 42.2878 52.9414C41.6645 53.084 41.0605 53.2461 40.4882 53.424C40.4618 53.4328 40.4354 53.4363 40.4108 53.4363H40.409ZM63.2204 53.3412C63.2045 53.3412 63.1869 53.3412 63.1711 53.3359C62.4791 53.2056 61.78 53.0823 61.0968 52.9713C60.9525 52.9484 60.8556 52.8128 60.8785 52.6684C60.9014 52.5239 61.0352 52.4253 61.1814 52.45C61.8698 52.5609 62.5724 52.6842 63.2697 52.8163C63.4123 52.8427 63.5074 52.9819 63.4792 53.1245C63.4546 53.2514 63.3437 53.3394 63.2204 53.3394V53.3412ZM59.0473 52.6666C59.0349 52.6666 59.0244 52.6666 59.012 52.6648C58.3112 52.5715 57.6069 52.4887 56.9202 52.4165C56.7758 52.4006 56.6702 52.2721 56.6842 52.1259C56.7001 51.9815 56.8286 51.8758 56.9748 51.8899C57.6668 51.9621 58.3764 52.0449 59.0807 52.14C59.2251 52.1593 59.3272 52.2914 59.3079 52.4376C59.2902 52.5697 59.1758 52.6666 59.0455 52.6666H59.0473ZM44.3022 52.5521C44.1736 52.5521 44.0627 52.4588 44.0416 52.3284C44.0187 52.184 44.1173 52.0484 44.2617 52.0272C44.9396 51.9216 45.6509 51.8317 46.3729 51.7613C46.519 51.749 46.6476 51.8529 46.6617 51.9991C46.6757 52.1435 46.5701 52.2738 46.4239 52.2879C45.7108 52.3566 45.0118 52.4447 44.3427 52.5504C44.3286 52.5521 44.3145 52.5539 44.3022 52.5539V52.5521ZM54.8424 52.2333C54.8424 52.2333 54.8301 52.2333 54.8231 52.2333C54.117 52.184 53.4109 52.1453 52.7224 52.1206C52.5763 52.1153 52.4636 51.992 52.4671 51.8476C52.4724 51.7014 52.5921 51.5887 52.74 51.5922C53.4355 51.6169 54.1487 51.6556 54.86 51.7067C55.0062 51.7173 55.1154 51.8441 55.1048 51.9885C55.0942 52.1276 54.9798 52.2333 54.8424 52.2333ZM48.5052 52.1364C48.3644 52.1364 48.2482 52.0255 48.2411 51.8846C48.2341 51.7384 48.3468 51.6151 48.4929 51.6081C49.1814 51.5764 49.8963 51.5587 50.6165 51.557C50.7626 51.557 50.8806 51.675 50.8806 51.8212C50.8806 51.9674 50.7626 52.0854 50.6165 52.0854C49.9033 52.0871 49.1972 52.1047 48.5158 52.1364C48.5123 52.1364 48.507 52.1364 48.5035 52.1364H48.5052Z" fill="black"/>
<path d="M30.7808 40.8288C30.7702 40.8288 30.7597 40.8289 30.7474 40.8271C30.603 40.8095 30.5008 40.6774 30.5185 40.533C30.5959 39.913 30.7245 39.2049 30.8988 38.4264C30.9305 38.2838 31.0713 38.1939 31.214 38.2274C31.3566 38.2591 31.4464 38.4 31.4147 38.5427C31.2439 39.3036 31.1189 39.9958 31.0432 40.5999C31.0273 40.7337 30.9129 40.8306 30.7808 40.8306V40.8288ZM31.6824 36.6986C31.6577 36.6986 31.6331 36.6951 31.6102 36.688C31.4693 36.6475 31.3883 36.5013 31.4288 36.3622C31.6225 35.6894 31.8355 35.006 32.0662 34.3314C32.1138 34.194 32.2634 34.12 32.4008 34.1676C32.5381 34.2151 32.6121 34.3649 32.5663 34.5022C32.3391 35.168 32.1261 35.8426 31.9359 36.5084C31.9025 36.6246 31.7968 36.7003 31.6824 36.7003V36.6986ZM33.047 32.6969C33.0153 32.6969 32.9818 32.6916 32.9501 32.6775C32.8146 32.6229 32.7476 32.4697 32.8022 32.3341C33.0699 31.6595 33.3534 31.0008 33.6439 30.3755C33.7055 30.2434 33.8622 30.1853 33.9943 30.2469C34.1264 30.3086 34.1845 30.4653 34.1228 30.5974C33.8376 31.2121 33.5576 31.862 33.2935 32.5278C33.253 32.6317 33.1526 32.6951 33.0487 32.6951L33.047 32.6969ZM34.836 28.8661C34.792 28.8661 34.7479 28.8555 34.7092 28.8326C34.5807 28.7621 34.5349 28.6019 34.6053 28.4733C34.9716 27.811 35.3484 27.1981 35.7252 26.6503C35.808 26.5306 35.9735 26.5006 36.0932 26.5834C36.2129 26.6662 36.2429 26.83 36.1601 26.9515C35.7921 27.4852 35.4241 28.084 35.0666 28.7304C35.0191 28.8167 34.9275 28.8661 34.836 28.8661ZM37.2624 25.4157C37.1972 25.4157 37.1321 25.391 37.081 25.3434C36.9754 25.243 36.9718 25.0757 37.0722 24.97C37.1303 24.9084 37.1902 24.8485 37.2483 24.7886C37.3522 24.6847 37.5177 24.6847 37.6216 24.7886C37.7255 24.8908 37.7255 25.0581 37.6216 25.162C37.5652 25.2184 37.5089 25.2765 37.4526 25.3346C37.4015 25.3892 37.3311 25.4174 37.2606 25.4174L37.2624 25.4157Z" fill="black"/>
<path d="M100.905 51.2382C100.844 51.2382 100.784 51.217 100.736 51.1765C100.661 51.1131 100.627 51.0145 100.647 50.9194C100.89 49.7657 100.881 48.7459 100.622 47.8847C100.58 47.7455 100.659 47.5976 100.798 47.5553C100.937 47.513 101.085 47.5923 101.127 47.7314C101.376 48.554 101.416 49.498 101.252 50.546C102.129 50.192 103.062 49.8538 104.304 49.7587C104.446 49.7481 104.577 49.8556 104.587 50.0017C104.598 50.1479 104.489 50.2747 104.344 50.2853C103.047 50.3839 102.129 50.7591 101.159 51.1536L101.004 51.217C100.972 51.2294 100.939 51.2364 100.905 51.2364V51.2382Z" fill="black"/>
<path d="M42.3952 54.9739C42.367 54.9739 42.3388 54.9686 42.3106 54.9598C41.0781 54.5389 40.0885 54.5212 39.0408 54.5019L38.8735 54.4983C38.7767 54.4966 38.6869 54.4402 38.6429 54.3539C38.5988 54.2676 38.6059 54.1619 38.6622 54.0827C39.3401 53.1192 39.7346 52.1769 39.8349 51.284C39.8508 51.1395 39.9811 51.0356 40.1272 51.0515C40.2716 51.0673 40.3773 51.1994 40.3597 51.3438C40.2646 52.1963 39.93 53.0823 39.3648 53.9805C40.3104 54.0017 41.3017 54.058 42.4797 54.4596C42.617 54.5071 42.691 54.6569 42.6452 54.7942C42.6082 54.9034 42.5043 54.9739 42.3952 54.9739Z" fill="black"/>
<path d="M38.877 25.9141C38.7643 25.9141 38.6587 25.8401 38.6252 25.7256C38.428 25.0757 38.3893 24.3342 38.5073 23.5134C37.817 23.79 37.0792 24.0489 36.1055 24.1229C35.9593 24.1334 35.8326 24.026 35.822 23.8798C35.8114 23.7336 35.9189 23.6068 36.065 23.5962C37.1074 23.5152 37.8452 23.214 38.6252 22.8952L38.7502 22.8441C38.84 22.8072 38.9439 22.823 39.0197 22.8864C39.0954 22.9498 39.1288 23.0485 39.1095 23.1436C38.9158 24.0683 38.9228 24.8855 39.1306 25.5742C39.1728 25.7133 39.0936 25.8613 38.9545 25.9035C38.9298 25.9106 38.9034 25.9141 38.877 25.9141Z" fill="black"/>
<path d="M33.3499 37.9244C29.3757 37.9244 26.1552 41.1688 26.1552 45.1704C26.1552 46.1709 26.6042 47.5693 27.2786 49.1052C28.9777 52.9766 32.1067 57.7162 33.0628 59.1323C33.2002 59.3349 33.496 59.3366 33.6333 59.1323C34.968 57.1544 40.5428 48.6913 40.5428 45.1687C40.5428 41.167 37.3223 37.9227 33.3481 37.9227L33.3499 37.9244ZM33.3499 48.4817C31.5327 48.4817 30.0606 46.9987 30.0606 45.1687C30.0606 43.3387 31.5327 41.8557 33.3499 41.8557C35.167 41.8557 36.6391 43.3387 36.6391 45.1687C36.6391 46.9987 35.167 48.4817 33.3499 48.4817Z" fill="#EA0029"/>
<path d="M33.9891 48.3637C33.2038 48.3637 32.4466 48.103 31.8162 47.6116C31.0661 47.0251 30.5889 46.1814 30.471 45.2339C30.4534 45.0894 30.5555 44.9573 30.6999 44.9397C30.8425 44.9221 30.9763 45.0243 30.9939 45.1687C31.0943 45.9771 31.5028 46.6975 32.1402 47.1959C32.7776 47.6944 33.57 47.9128 34.3694 47.8124C35.1724 47.712 35.8872 47.3016 36.3838 46.657C37.4068 45.329 37.1674 43.4091 35.8485 42.3788C35.3414 41.9825 34.7357 41.7623 34.0965 41.7412C33.9503 41.7359 33.8359 41.6144 33.8412 41.4682C33.8465 41.322 33.9697 41.2075 34.1141 41.2128C34.866 41.2375 35.5773 41.4981 36.1743 41.9631C37.722 43.1731 38.002 45.4241 36.8029 46.9811C36.22 47.7367 35.3801 48.2193 34.4363 48.3373C34.2867 48.3567 34.137 48.3655 33.9873 48.3655L33.9891 48.3637Z" fill="black"/>
<path d="M94.7601 49.0647C91.4392 49.0647 88.7487 51.7753 88.7487 55.1201C88.7487 55.9567 89.1237 57.1244 89.6889 58.4084C91.1099 61.6439 93.7247 65.6051 94.5224 66.7887C94.6368 66.9578 94.8851 66.9596 94.9996 66.7887C96.1159 65.1366 100.773 58.0632 100.773 55.1201C100.773 51.7753 98.081 49.0647 94.7619 49.0647H94.7601ZM94.7601 57.8871C93.2423 57.8871 92.0115 56.6471 92.0115 55.1183C92.0115 53.5895 93.2423 52.3495 94.7601 52.3495C96.2779 52.3495 97.5087 53.5895 97.5087 55.1183C97.5087 56.6471 96.2779 57.8871 94.7601 57.8871Z" fill="#EA0029"/>
<path d="M95.2936 57.8342C94.628 57.8342 93.9853 57.6141 93.4518 57.1966C92.8162 56.7 92.4112 55.9831 92.3108 55.18C92.2932 55.0355 92.3953 54.9034 92.5397 54.8858C92.6841 54.8682 92.8162 54.9704 92.8338 55.1148C92.9165 55.7788 93.2511 56.3706 93.7758 56.781C94.2988 57.1896 94.9485 57.3693 95.6071 57.2865C96.2656 57.2037 96.8537 56.8673 97.2605 56.3371C98.1021 55.2451 97.9049 53.6687 96.8203 52.8216C96.403 52.4957 95.9064 52.3143 95.3817 52.2967C95.2355 52.2914 95.1211 52.1699 95.1264 52.0237C95.1316 51.8775 95.2549 51.763 95.3993 51.7683C96.0367 51.7894 96.6407 52.0096 97.146 52.4041C98.4578 53.4292 98.6955 55.3385 97.6778 56.6577C97.183 57.2988 96.4716 57.7074 95.6722 57.8078C95.5454 57.8237 95.4187 57.8325 95.2919 57.8325L95.2936 57.8342Z" fill="black"/>
<path d="M138.962 62.4841C138.608 62.4841 138.265 62.3732 137.974 62.1618C137.61 61.8976 137.372 61.5066 137.302 61.061C137.231 60.6171 137.339 60.1715 137.603 59.8069C137.867 59.4423 138.258 59.2046 138.703 59.1341C139.621 58.9897 140.485 59.6185 140.63 60.5361C140.774 61.4538 140.145 62.3186 139.228 62.463C139.138 62.4771 139.05 62.4841 138.962 62.4841ZM138.966 59.6414C138.906 59.6414 138.846 59.6467 138.784 59.6555C138.48 59.703 138.21 59.8686 138.029 60.1169C137.847 60.367 137.774 60.6717 137.821 60.9782C137.92 61.6087 138.515 62.0403 139.143 61.9416C139.774 61.843 140.205 61.2477 140.105 60.6189C140.015 60.05 139.522 59.6414 138.962 59.6414H138.966Z" fill="black"/>
<path d="M136.051 84.3913C136.02 84.3913 135.986 84.386 135.954 84.3719C135.819 84.3191 135.752 84.1658 135.805 84.0284C138.228 77.8744 139.228 71.4069 138.779 64.802C138.768 64.6558 138.879 64.5308 139.024 64.5202C139.168 64.5114 139.295 64.6206 139.305 64.765C139.76 71.4492 138.747 77.9942 136.296 84.2204C136.256 84.3243 136.155 84.3877 136.05 84.3877L136.051 84.3913Z" fill="black"/>
<path d="M133.28 81.4411C133.25 81.4411 133.218 81.4358 133.188 81.4252C133.051 81.3741 132.98 81.2227 133.032 81.0853C138.353 66.5915 133.755 47.779 133.708 47.5905C133.672 47.4496 133.759 47.3052 133.9 47.27C134.042 47.2347 134.185 47.321 134.22 47.4619C134.268 47.6522 138.904 66.6179 133.526 81.2667C133.488 81.3741 133.385 81.4393 133.278 81.4393L133.28 81.4411Z" fill="black"/>
<path d="M7.70358 98.3813C7.55743 98.3813 7.43945 98.2633 7.43945 98.1171V96.8842C7.43945 96.738 7.55743 96.62 7.70358 96.62C7.84972 96.62 7.9677 96.738 7.9677 96.8842V98.1171C7.9677 98.2633 7.84972 98.3813 7.70358 98.3813Z" fill="black"/>
<path d="M7.70358 101.552C7.55743 101.552 7.43945 101.434 7.43945 101.287V99.8784C7.43945 99.7322 7.55743 99.6142 7.70358 99.6142C7.84972 99.6142 7.9677 99.7322 7.9677 99.8784V101.287C7.9677 101.434 7.84972 101.552 7.70358 101.552Z" fill="black"/>
<path d="M6.7351 99.1739H5.50253C5.35638 99.1739 5.2384 99.0559 5.2384 98.9097C5.2384 98.7635 5.35638 98.6455 5.50253 98.6455H6.7351C6.88125 98.6455 6.99922 98.7635 6.99922 98.9097C6.99922 99.0559 6.88125 99.1739 6.7351 99.1739Z" fill="black"/>
<path d="M10.0806 99.1739H8.67196C8.52581 99.1739 8.40784 99.0559 8.40784 98.9097C8.40784 98.7635 8.52581 98.6455 8.67196 98.6455H10.0806C10.2268 98.6455 10.3447 98.7635 10.3447 98.9097C10.3447 99.0559 10.2268 99.1739 10.0806 99.1739Z" fill="black"/>
<path d="M128.32 18.9464C128.174 18.9464 128.056 18.8284 128.056 18.6822V17.2731C128.056 17.1269 128.174 17.0089 128.32 17.0089C128.466 17.0089 128.584 17.1269 128.584 17.2731V18.6822C128.584 18.8284 128.466 18.9464 128.32 18.9464Z" fill="black"/>
<path d="M128.32 22.1167C128.174 22.1167 128.056 21.9987 128.056 21.8525V20.4435C128.056 20.2973 128.174 20.1793 128.32 20.1793C128.466 20.1793 128.584 20.2973 128.584 20.4435V21.8525C128.584 21.9987 128.466 22.1167 128.32 22.1167Z" fill="black"/>
<path d="M127.351 19.739H126.119C125.972 19.739 125.854 19.621 125.854 19.4748C125.854 19.3286 125.972 19.2106 126.119 19.2106H127.351C127.497 19.2106 127.615 19.3286 127.615 19.4748C127.615 19.621 127.497 19.739 127.351 19.739Z" fill="black"/>
<path d="M130.521 19.739H129.288C129.142 19.739 129.024 19.621 129.024 19.4748C129.024 19.3286 129.142 19.2106 129.288 19.2106H130.521C130.667 19.2106 130.785 19.3286 130.785 19.4748C130.785 19.621 130.667 19.739 130.521 19.739Z" fill="black"/>
<path d="M12.8751 111.492C12.699 111.492 12.5229 111.459 12.3521 111.394C11.9841 111.251 11.6936 110.969 11.5351 110.601C11.2129 109.853 11.5474 108.974 12.2835 108.644C12.6391 108.484 13.0336 108.475 13.3963 108.616C13.7643 108.759 14.0548 109.041 14.2133 109.407C14.5355 110.156 14.201 111.035 13.465 111.364C13.2766 111.448 13.0758 111.491 12.8751 111.491V111.492ZM12.5 109.127C12.0264 109.34 11.8116 109.907 12.0211 110.393C12.1232 110.629 12.3099 110.811 12.5441 110.902C12.7747 110.992 13.0248 110.985 13.2484 110.885C13.722 110.672 13.9369 110.105 13.7273 109.618C13.6252 109.382 13.4403 109.201 13.2044 109.109C12.9755 109.02 12.7237 109.027 12.4983 109.127H12.5Z" fill="black"/>
<path d="M18.6646 22.1484C18.4886 22.1484 18.3125 22.115 18.1417 22.0498C17.7737 21.9071 17.4831 21.6253 17.3247 21.2572C17.0024 20.5087 17.337 19.6298 18.073 19.3004C18.4287 19.1401 18.8231 19.1313 19.1858 19.2722C19.5539 19.4149 19.8444 19.6967 20.0029 20.0648C20.3269 20.8134 19.9905 21.6923 19.2545 22.0216C19.0661 22.1062 18.8654 22.1484 18.6646 22.1484ZM18.6646 19.702C18.5379 19.702 18.4093 19.7284 18.2896 19.783C17.8159 19.9961 17.6011 20.5633 17.8106 21.0494C17.9128 21.2854 18.0977 21.4668 18.3336 21.5584C18.5643 21.6482 18.8143 21.6412 19.0397 21.5408C19.5134 21.3277 19.7282 20.7605 19.5186 20.2744C19.4165 20.0384 19.2299 19.857 18.9957 19.7654C18.8883 19.7231 18.7756 19.702 18.6646 19.702Z" fill="black"/>
<path d="M100.974 68.2225V88.7663H103.401V68.9411C103.401 67.3964 104.652 66.1424 106.198 66.1424H118.25C119.794 66.1424 121.047 67.3946 121.047 68.9411V88.7663H123.474V68.2225C123.474 65.8236 121.53 63.8773 119.13 63.8773H105.32C102.922 63.8773 100.976 65.8218 100.976 68.2225H100.974Z" fill="white"/>
<path d="M123.47 89.0323H121.044C120.898 89.0323 120.78 88.9143 120.78 88.7681V68.9428C120.78 67.5461 119.644 66.4083 118.248 66.4083H106.197C104.8 66.4083 103.663 67.5443 103.663 68.9428V88.7681C103.663 88.9143 103.545 89.0323 103.399 89.0323H100.972C100.826 89.0323 100.708 88.9143 100.708 88.7681V68.2242C100.708 65.6826 102.775 63.6149 105.316 63.6149H119.126C121.667 63.6149 123.734 65.6826 123.734 68.2242V88.7681C123.734 88.9143 123.616 89.0323 123.47 89.0323ZM121.308 88.5039H123.206V68.2242C123.206 65.975 121.377 64.1433 119.126 64.1433H105.316C103.068 64.1433 101.236 65.9733 101.236 68.2242V88.5039H103.135V68.9428C103.135 67.2537 104.508 65.8799 106.197 65.8799H118.248C119.936 65.8799 121.308 67.2537 121.308 68.9428V88.5039Z" fill="black"/>
<path d="M117.667 63.252H106.85C106.599 63.252 106.396 63.4555 106.396 63.7064V66.2427C106.396 66.4937 106.599 66.6971 106.85 66.6971H117.667C117.918 66.6971 118.121 66.4937 118.121 66.2427V63.7064C118.121 63.4555 117.918 63.252 117.667 63.252Z" fill="#FFAFBD"/>
<path d="M117.668 66.9614H106.85C106.454 66.9614 106.132 66.639 106.132 66.2427V63.7047C106.132 63.3084 106.454 62.9861 106.85 62.9861H117.668C118.065 62.9861 118.387 63.3084 118.387 63.7047V66.2427C118.387 66.639 118.065 66.9614 117.668 66.9614ZM106.85 63.5162C106.746 63.5162 106.66 63.6008 106.66 63.7065V66.2445C106.66 66.3484 106.744 66.4347 106.85 66.4347H117.668C117.772 66.4347 117.859 66.3502 117.859 66.2445V63.7065C117.859 63.6025 117.774 63.5162 117.668 63.5162H106.85Z" fill="black"/>
<path d="M122.399 139.369C122.745 137.901 121.836 136.43 120.368 136.083C118.9 135.737 117.429 136.646 117.083 138.114C116.736 139.583 117.645 141.054 119.113 141.401C120.581 141.747 122.052 140.838 122.399 139.369Z" fill="#EA0029"/>
<path d="M104.786 140.68C105.853 139.613 105.853 137.884 104.786 136.817C103.72 135.75 101.991 135.75 100.924 136.817C99.8575 137.884 99.8575 139.613 100.924 140.68C101.991 141.747 103.72 141.747 104.786 140.68Z" fill="#EA0029"/>
<path d="M126.082 86.9329H99.1287C97.2655 86.9329 95.755 88.4437 95.755 90.3075V134.791C95.755 136.655 97.2655 138.166 99.1287 138.166H126.082C127.945 138.166 129.455 136.655 129.455 134.791V90.3075C129.455 88.4437 127.945 86.9329 126.082 86.9329Z" fill="#FFAFBD"/>
<path d="M126.082 138.43H99.1305C97.1249 138.43 95.4927 136.797 95.4927 134.791V90.3093C95.4927 88.3031 97.1249 86.6686 99.1305 86.6686H126.082C128.087 86.6686 129.721 88.3014 129.721 90.3093V134.791C129.721 136.797 128.089 138.43 126.082 138.43ZM99.1305 87.197C97.4155 87.197 96.0209 88.592 96.0209 90.3093V134.791C96.0209 136.507 97.4155 137.902 99.1305 137.902H126.082C127.797 137.902 129.193 136.507 129.193 134.791V90.3093C129.193 88.5937 127.798 87.197 126.082 87.197H99.1305Z" fill="black"/>
<path d="M118.316 87.0033H91.3636C89.5003 87.0033 87.9899 88.5142 87.9899 90.378V134.862C87.9899 136.725 89.5003 138.236 91.3636 138.236H118.316C120.18 138.236 121.69 136.725 121.69 134.862V90.378C121.69 88.5142 120.18 87.0033 118.316 87.0033Z" fill="white"/>
<path d="M118.315 138.5H91.3636C89.358 138.5 87.724 136.868 87.724 134.862V90.3797C87.724 88.3736 89.3563 86.7408 91.3636 86.7408H118.315C120.32 86.7408 121.953 88.3736 121.953 90.3797V134.862C121.953 136.868 120.32 138.5 118.315 138.5ZM91.3636 87.2675C89.6486 87.2675 88.2522 88.6624 88.2522 90.3779V134.86C88.2522 136.575 89.6468 137.97 91.3636 137.97H118.315C120.03 137.97 121.424 136.575 121.424 134.86V90.3779C121.424 88.6624 120.03 87.2675 118.315 87.2675H91.3636Z" fill="black"/>
<path d="M95.373 92.3911H94.2337C93.7971 92.3911 93.4431 92.7452 93.4431 93.1819V132.059C93.4431 132.496 93.7971 132.85 94.2337 132.85H95.373C95.8096 132.85 96.1636 132.496 96.1636 132.059V93.1819C96.1636 92.7452 95.8096 92.3911 95.373 92.3911Z" fill="#FFAFBD"/>
<path d="M102.062 92.3911H100.923C100.486 92.3911 100.132 92.7452 100.132 93.1819V132.059C100.132 132.496 100.486 132.85 100.923 132.85H102.062C102.499 132.85 102.853 132.496 102.853 132.059V93.1819C102.853 92.7452 102.499 92.3911 102.062 92.3911Z" fill="#FFAFBD"/>
<path d="M108.753 92.3911H107.614C107.178 92.3911 106.824 92.7452 106.824 93.1819V132.059C106.824 132.496 107.178 132.85 107.614 132.85H108.753C109.19 132.85 109.544 132.496 109.544 132.059V93.1819C109.544 92.7452 109.19 92.3911 108.753 92.3911Z" fill="#FFAFBD"/>
<path d="M115.445 92.3911H114.305C113.869 92.3911 113.515 92.7452 113.515 93.1819V132.059C113.515 132.496 113.869 132.85 114.305 132.85H115.445C115.881 132.85 116.235 132.496 116.235 132.059V93.1819C116.235 92.7452 115.881 92.3911 115.445 92.3911Z" fill="#FFAFBD"/>
<path d="M18.4481 130.795C8.95728 122.043 13.87 116.399 13.87 116.399C13.87 116.399 18.11 109.529 32.9889 118.511C47.8678 127.494 62.2696 124.155 65.5271 122.807C68.7846 121.461 80.1648 112.997 86.5777 112.521C90.1468 112.257 94.4168 114.941 90.6698 122.194C82.9204 137.195 61.8787 138.907 61.8787 138.907C61.8787 138.907 51.6782 140.824 41.1996 138.967C41.1996 138.967 27.9424 139.545 18.4498 130.793L18.4481 130.795Z" fill="#EA0029"/>
<path d="M43.0785 132.586L46.4399 134.467L44.7618 137.954L41.9797 136.174L43.0785 132.586Z" fill="white"/>
<path d="M44.7618 138.219C44.7125 138.219 44.6632 138.204 44.6192 138.176L41.8371 136.394C41.7367 136.33 41.6927 136.207 41.7261 136.094L42.8249 132.507C42.8478 132.431 42.9059 132.369 42.9798 132.339C43.0538 132.309 43.1383 132.315 43.207 132.353L46.5684 134.234C46.6899 134.303 46.7374 134.455 46.6776 134.58L44.9995 138.067C44.9661 138.136 44.9062 138.187 44.834 138.206C44.8111 138.213 44.7864 138.217 44.7618 138.217V138.219ZM42.2914 136.057L44.6544 137.57L46.0947 134.574L43.2369 132.975L42.2914 136.057Z" fill="black"/>
<path d="M45.1193 134.023C45.5084 133.521 46.2674 133.528 46.6442 134.039L48.2747 136.253L46.0701 139.092L43.1525 137.75C43.3532 136.491 44.3745 134.983 45.1175 134.023H45.1193Z" fill="black"/>
<path d="M44.7811 136.38L45.6721 135.478C45.9926 135.154 46.4944 135.09 46.8835 135.328L47.5174 135.712L47.653 135.418C47.8009 135.099 48.1637 134.941 48.4964 135.052C50.5284 135.732 57.2812 138.058 59.5385 139.731C62.2097 141.711 60.3133 146.114 55.6542 145.665C51.9617 145.31 46.9152 141.192 44.9801 139.497C44.5998 139.164 44.6966 138.55 45.1579 138.347H45.1632L44.6702 137.636C44.399 137.246 44.4448 136.718 44.7776 136.38H44.7811Z" fill="white"/>
<path d="M56.3269 145.963C56.1032 145.963 55.8708 145.952 55.6313 145.93C51.8773 145.567 46.8114 141.451 44.8093 139.696C44.5628 139.48 44.4449 139.159 44.4959 138.835C44.5294 138.615 44.6368 138.419 44.797 138.273L44.4589 137.785C44.1156 137.29 44.1737 136.621 44.5963 136.193L45.4873 135.291C45.8958 134.877 46.5279 134.8 47.0245 135.101L47.4048 135.332L47.4171 135.305C47.6214 134.863 48.1232 134.647 48.5845 134.8C50.613 135.478 57.4115 137.822 59.7006 139.518C60.9208 140.422 61.3434 141.859 60.8011 143.266C60.3045 144.557 58.8484 145.963 56.3286 145.963H56.3269ZM46.373 135.448C46.1845 135.448 45.9997 135.522 45.8606 135.663L44.9696 136.565C44.7248 136.811 44.6914 137.199 44.8903 137.484L45.3834 138.194C45.4292 138.259 45.4415 138.34 45.4204 138.416C45.3992 138.492 45.3446 138.555 45.2742 138.587C45.1316 138.65 45.04 138.768 45.0171 138.916C44.9942 139.062 45.0453 139.203 45.1562 139.3C47.1213 141.019 52.0798 145.058 55.6806 145.405C58.3377 145.662 59.8327 144.313 60.3046 143.08C60.7571 141.903 60.4032 140.702 59.3819 139.946C57.1544 138.296 50.4228 135.976 48.412 135.305C48.2077 135.237 47.9823 135.334 47.8925 135.531L47.757 135.825C47.7253 135.894 47.6672 135.945 47.595 135.968C47.5228 135.99 47.4453 135.98 47.3801 135.941L46.7462 135.557C46.63 135.487 46.4997 135.452 46.3712 135.452L46.373 135.448Z" fill="black"/>
<path d="M50.576 141.456C50.5373 141.456 50.4985 141.447 50.4633 141.429C50.3313 141.366 50.2749 141.209 50.3383 141.077L51.8473 137.903C51.9107 137.771 52.0674 137.715 52.1995 137.778C52.3316 137.842 52.3879 137.998 52.3245 138.13L50.8155 141.304C50.7697 141.399 50.6764 141.456 50.576 141.456Z" fill="black"/>
<path d="M57.5682 132.572C57.4942 132.572 57.422 132.542 57.3692 132.482L56.8762 131.922C56.8286 131.867 56.804 131.795 56.811 131.721C56.818 131.649 56.855 131.582 56.9131 131.538L72.6038 119.427C72.72 119.337 72.8855 119.36 72.9735 119.475C73.0633 119.591 73.0405 119.757 72.926 119.845L57.459 131.783L57.7654 132.131C57.8622 132.241 57.8516 132.408 57.7425 132.505C57.6914 132.549 57.6298 132.572 57.5682 132.572Z" fill="black"/>
<path d="M58.1105 133.285L51.2803 135.739L52.3597 139.455L60.6056 137.206L58.1105 133.285Z" fill="white"/>
<path d="M52.3597 139.719C52.2452 139.719 52.1396 139.643 52.1061 139.529L51.025 135.813C50.9862 135.679 51.0584 135.538 51.1887 135.49L58.0189 133.037C58.1352 132.995 58.2655 133.039 58.3306 133.144L60.8274 137.065C60.8732 137.135 60.882 137.223 60.8503 137.303C60.8204 137.38 60.7535 137.44 60.6743 137.463L52.4283 139.712C52.4055 139.719 52.3826 139.721 52.3579 139.721L52.3597 139.719ZM51.6025 135.902L52.541 139.131L60.19 137.044L57.9996 133.604L51.6008 135.901L51.6025 135.902Z" fill="black"/>
<path d="M52.6537 135.517C52.3526 134.957 51.6025 134.839 51.1465 135.281L49.1726 137.195L50.8788 140.359L53.9779 139.515C53.9867 138.24 53.2278 136.584 52.6537 135.515V135.517Z" fill="black"/>
<path d="M52.5991 137.898L51.8684 136.862C51.606 136.489 51.1218 136.346 50.6975 136.515L50.009 136.79L49.9227 136.477C49.8294 136.137 49.4983 135.922 49.1515 135.976C47.0349 136.311 39.9917 137.495 37.4896 138.773C34.5296 140.286 35.6759 144.943 40.3438 145.267C44.0433 145.524 49.6991 142.292 51.8878 140.942C52.3174 140.676 52.3244 140.054 51.9018 139.777L51.8983 139.774L52.5005 139.156C52.8316 138.816 52.8738 138.287 52.6009 137.9L52.5991 137.898Z" fill="white"/>
<path d="M40.77 145.544C40.6186 145.544 40.4706 145.539 40.3263 145.528C37.3681 145.322 35.9682 143.527 35.6671 142.051C35.366 140.573 36.0175 139.226 37.3698 138.536C39.9072 137.239 46.998 136.047 49.111 135.712C49.5917 135.635 50.0513 135.932 50.178 136.403L50.1851 136.431L50.5989 136.265C51.1377 136.05 51.7487 136.232 52.0832 136.706L52.814 137.741C53.1609 138.233 53.108 138.904 52.6872 139.335L52.2734 139.76C52.4072 139.931 52.4812 140.14 52.4777 140.362C52.4741 140.69 52.3051 140.987 52.0251 141.16C49.8488 142.506 44.5205 145.54 40.7682 145.54L40.77 145.544ZM49.2606 136.23C49.2395 136.23 49.2166 136.23 49.1937 136.235C47.1001 136.566 40.078 137.746 37.6093 139.008C36.4771 139.585 35.9313 140.711 36.1831 141.947C36.4472 143.242 37.7009 144.818 40.3615 145.003C40.4971 145.012 40.6379 145.017 40.7788 145.017C44.3867 145.017 49.6111 142.037 51.7469 140.716C51.8719 140.639 51.9459 140.508 51.9477 140.36C51.9494 140.211 51.879 140.078 51.754 139.997C51.6871 139.953 51.643 139.883 51.6342 139.804C51.6254 139.724 51.6501 139.645 51.7047 139.589L52.3069 138.971C52.5499 138.722 52.5798 138.335 52.3808 138.051L51.6501 137.016C51.4564 136.741 51.1042 136.637 50.7926 136.76L50.1041 137.035C50.0336 137.063 49.9562 137.06 49.8893 137.026C49.8223 136.993 49.7713 136.933 49.7519 136.859L49.6656 136.545C49.6146 136.357 49.4455 136.232 49.2571 136.232L49.2606 136.23Z" fill="black"/>
<path d="M46.0912 141.954C45.9767 141.954 45.871 141.879 45.8376 141.762L44.8709 138.382C44.8304 138.241 44.9114 138.095 45.0523 138.057C45.1914 138.016 45.3393 138.097 45.378 138.238L46.3447 141.618C46.3852 141.759 46.3042 141.905 46.1633 141.944C46.1387 141.951 46.114 141.954 46.0912 141.954Z" fill="black"/>
<path d="M40.6115 144.558C40.5639 144.558 40.5146 144.545 40.4724 144.517C36.6866 142.146 38.1939 139.068 38.2097 139.036C38.2766 138.905 38.4351 138.854 38.5654 138.92C38.6957 138.985 38.7468 139.143 38.6816 139.274C38.627 139.383 37.3874 141.96 40.7541 144.068C40.8773 144.145 40.9143 144.309 40.8386 144.432C40.7875 144.512 40.703 144.556 40.615 144.556L40.6115 144.558Z" fill="black"/>
<path d="M43.2897 132.012C43.2721 132.012 43.2545 132.01 43.2369 132.006C43.0943 131.978 43.001 131.837 43.0309 131.695L43.2352 130.685C42.5256 130.12 38.8542 127.214 33.04 122.936C26.5796 118.182 25.1621 117.21 25.1498 117.199C25.0301 117.116 24.9984 116.953 25.0811 116.833C25.1639 116.713 25.3276 116.681 25.4474 116.764C25.4615 116.773 26.8772 117.747 33.3534 122.509C39.8297 127.274 43.6542 130.342 43.693 130.372C43.7705 130.434 43.8057 130.534 43.7863 130.631L43.5486 131.799C43.5239 131.924 43.413 132.01 43.2897 132.01V132.012Z" fill="black"/>
<path d="M76.8756 109.173C76.3878 106.989 73.2729 98.9344 70.924 93.0005C69.0487 88.2644 64.5182 84.851 59.123 84.1641C55.1083 83.6533 50.7538 83.5494 46.5684 83.8805C39.5885 84.43 33.5947 88.7047 31.2845 94.8305C29.2049 100.349 26.9388 107.123 26.8877 110.554C26.8331 114.21 29.0412 117.703 31.4518 120.415C34.4909 123.837 38.8278 125.97 43.5116 126.405C50.2027 127.025 60.6426 127.647 65.3845 126.097C72.6567 123.721 78.0571 114.462 76.8756 109.175V109.173Z" fill="black"/>
<path d="M35.8467 98.4888H67.4587C68.892 98.4888 70.0559 99.653 70.0559 101.087V121.995C70.0559 123.429 68.892 124.593 67.4587 124.593H35.8467C34.4134 124.593 33.2495 123.429 33.2495 121.995V101.087C33.2495 99.653 34.4134 98.4888 35.8467 98.4888Z" fill="white"/>
<path d="M67.4604 124.857H35.8467C34.269 124.857 32.9854 123.573 32.9854 121.995V101.087C32.9854 99.5085 34.269 98.2245 35.8467 98.2245H67.4586C69.0363 98.2245 70.32 99.5085 70.32 101.087V121.995C70.32 123.573 69.0363 124.857 67.4586 124.857H67.4604ZM35.8484 98.7529C34.5613 98.7529 33.5154 99.7992 33.5154 101.087V121.995C33.5154 123.283 34.5613 124.329 35.8484 124.329H67.4604C68.7476 124.329 69.7935 123.283 69.7935 121.995V101.087C69.7935 99.7992 68.7476 98.7529 67.4604 98.7529H35.8467H35.8484Z" fill="black"/>
<path d="M69.5541 124.718H33.2143C32.311 124.718 31.5785 125.451 31.5785 126.354C31.5785 127.258 32.311 127.991 33.2143 127.991H69.5541C70.4574 127.991 71.1899 127.258 71.1899 126.354C71.1899 125.451 70.4574 124.718 69.5541 124.718Z" fill="#FFEEF1"/>
<path d="M69.554 128.255H33.2143C32.1666 128.255 31.3143 127.402 31.3143 126.354C31.3143 125.306 32.1666 124.454 33.2143 124.454H69.554C70.6017 124.454 71.4539 125.306 71.4539 126.354C71.4539 127.402 70.6017 128.255 69.554 128.255ZM33.2143 124.984C32.4589 124.984 31.8426 125.599 31.8426 126.356C31.8426 127.114 32.4571 127.728 33.2143 127.728H69.554C70.3094 127.728 70.9257 127.114 70.9257 126.356C70.9257 125.599 70.3112 124.984 69.554 124.984H33.2143Z" fill="black"/>
<path d="M54.4498 84.039L54.7897 79.213C55.0203 79.1972 55.1788 79.1866 55.2264 79.1866C56.5734 79.1708 57.0101 78.734 57.1263 77.6296C57.1985 76.9374 57.2249 75.9106 56.8868 74.6248C56.8516 74.4875 56.8586 74.3413 56.915 74.2109L57.1457 73.672C57.1932 73.4958 57.1316 73.3039 56.9907 73.1876L56.8674 73.0872C56.429 72.7279 56.0628 72.2841 55.7705 71.7926C55.5011 71.34 55.0432 70.4928 54.7298 70.3431C53.8459 69.9204 50.2556 68.0428 48.25 71.3241C46.6864 73.8833 49.2413 77.4042 50.1711 78.5578C50.3947 78.8361 48.655 84.3067 48.655 84.3067L46.4047 84.851C46.4047 84.851 48.1408 87.9368 53.4162 86.6598C57.1738 85.751 56.5769 84.3525 56.5769 84.3525L54.4516 84.039H54.4498Z" fill="white"/>
<path d="M50.9827 87.2358C47.491 87.2358 46.2356 85.0888 46.1739 84.9796C46.1334 84.9073 46.1282 84.821 46.1616 84.7453C46.1951 84.6696 46.262 84.6132 46.3412 84.5938L48.4472 84.0848C49.1955 81.7229 49.9298 79.1373 49.928 78.6776C48.794 77.2562 46.4345 73.7882 48.0246 71.1868C49.3945 68.9446 51.6571 68.5659 54.7491 70.0595L54.8442 70.1053C55.1629 70.2568 55.4869 70.7834 55.8778 71.4527C55.9201 71.5267 55.9606 71.5954 55.9975 71.657C56.2863 72.1432 56.6367 72.5553 57.0347 72.8829L57.1579 72.9833C57.3798 73.1647 57.4749 73.4624 57.4009 73.7407C57.3974 73.753 57.3939 73.7636 57.3886 73.7759L57.1579 74.3148C57.1262 74.3888 57.1209 74.4751 57.1421 74.5579C57.4168 75.6059 57.4978 76.6186 57.3886 77.6578C57.253 78.9488 56.6684 79.435 55.2298 79.4526C55.2175 79.4526 55.1752 79.4526 55.0379 79.4631L54.7315 83.8153L56.6156 84.0936C56.7072 84.1077 56.7846 84.1676 56.8198 84.2504C56.8357 84.2891 56.9766 84.6484 56.7371 85.124C56.3567 85.8831 55.2598 86.4855 53.4778 86.917C52.5428 87.1442 51.7135 87.2376 50.9827 87.2376V87.2358ZM46.843 85.0148C47.4241 85.7264 49.2765 87.3873 53.3528 86.4027C55.4499 85.8954 56.068 85.249 56.2511 84.9109C56.3215 84.7788 56.3427 84.666 56.3462 84.5868L54.411 84.3015C54.2737 84.2821 54.1769 84.1588 54.1857 84.0214L54.5255 79.1954C54.5343 79.0633 54.6399 78.9594 54.7702 78.9506C55.1453 78.9242 55.2034 78.9242 55.221 78.9242C56.5082 78.9101 56.767 78.505 56.8621 77.6032C56.9642 76.6292 56.8885 75.6781 56.6297 74.6935C56.5786 74.498 56.5927 74.2902 56.6702 74.1088L56.892 73.5892C56.9061 73.517 56.878 73.4395 56.8216 73.3937L56.6983 73.2933C56.2529 72.9269 55.8637 72.469 55.5415 71.93C55.5045 71.8666 55.4623 71.7962 55.4182 71.7204C55.221 71.3823 54.8108 70.6777 54.6135 70.5826L54.5167 70.5368C53.4708 70.0313 50.289 68.4937 48.4718 71.4633C47.0385 73.8076 49.324 77.0907 50.3735 78.394C50.4756 78.5208 50.6869 78.7833 48.9032 84.3878C48.875 84.4758 48.8028 84.5428 48.713 84.5639L46.8413 85.0165L46.843 85.0148Z" fill="black"/>
<path d="M49.3557 67.1498C50.3277 66.9402 51.4458 67.09 51.9177 66.9156C52.6784 66.6355 52.6995 65.7232 53.7542 65.4678C55.0291 65.1578 55.5608 65.702 56.0591 66.4612C56.1419 66.588 56.2159 66.7289 56.2757 66.8892C57.0769 69.0397 56.0662 70.0877 55.6154 70.4294C55.6154 70.4294 52.747 71.9124 52.2558 72.3351C51.7962 72.7314 51.2662 73.6702 51.599 75.0176C51.6413 75.192 51.5655 75.3716 51.4194 75.4614C51.2468 75.5654 51.0232 75.516 50.9052 75.3452C50.5319 74.8045 49.7167 73.7583 49.1374 74.0066C48.4084 74.3184 48.6355 76.5024 50.2432 76.7542C50.7362 76.8317 51.1377 77.3372 51.0884 77.8533C51.0567 78.1897 50.738 78.6001 50.2661 78.7075C49.9773 78.7745 49.6938 78.6565 49.4385 78.4944C48.389 77.8251 45.4326 74.9841 45.0646 72.439C44.6226 69.3726 48.0598 67.4299 49.354 67.1516L49.3557 67.1498Z" fill="black"/>
<path d="M55.1523 79.4085H55.1435C55.0942 79.4068 53.9303 79.3557 53.0921 78.6424C52.9882 78.5543 52.9759 78.3993 53.0639 78.2972C53.152 78.1932 53.3069 78.1809 53.4091 78.269C54.1204 78.8731 55.1505 78.9171 55.1611 78.9171C55.2967 78.9224 55.4023 79.0351 55.397 79.1708C55.3917 79.3029 55.2826 79.4068 55.1523 79.4068V79.4085Z" fill="black"/>
<path d="M101.295 108.171C101.916 114.267 102.258 120.66 102.392 127.529H99.4932C99.4862 120.132 99.2379 113.308 98.6322 107.114L101.296 108.171H101.295Z" fill="#EA0029"/>
<path d="M95.4135 115.473C95.4135 115.473 96.2956 108.625 99.1006 107.535C99.7609 107.278 100.21 106.925 101.075 108.137C101.085 108.151 101.108 108.144 101.103 108.127C100.888 107.515 99.5972 104.236 96.9753 105.742C94.0911 107.399 93.2688 114.795 93.2688 114.795L95.4152 115.471L95.4135 115.473Z" fill="#FFAFBD"/>
<path d="M95.6335 115.82L92.98 114.983L93.0046 114.767C93.0381 114.459 93.8762 107.218 96.8432 105.513C97.6233 105.064 98.3716 104.969 99.0671 105.228C100.453 105.744 101.166 107.51 101.351 108.039L101.427 108.255L101.217 108.377C101.094 108.44 100.939 108.403 100.858 108.29C100.199 107.366 99.9088 107.486 99.3858 107.704C99.3242 107.73 99.2608 107.755 99.1957 107.781C96.5668 108.803 95.6828 115.44 95.674 115.507L95.6335 115.82ZM93.5558 114.61L95.1951 115.126C95.4082 113.74 96.4065 108.297 99.0037 107.286C99.0654 107.262 99.1235 107.237 99.1816 107.214C99.5813 107.049 99.937 106.938 100.323 107.093C99.9933 106.543 99.5126 105.957 98.8805 105.722C98.3382 105.522 97.7412 105.604 97.1038 105.971C94.6369 107.389 93.7178 113.393 93.554 114.61H93.5558Z" fill="black"/>
<path d="M102.194 126.222C102.048 126.222 101.93 126.104 101.93 125.958V125.236C101.921 120.206 101.907 110.843 100.888 108.32C100.833 108.185 100.898 108.032 101.034 107.977C101.17 107.922 101.323 107.988 101.377 108.123C102.436 110.74 102.45 120.17 102.457 125.236V125.958C102.457 126.104 102.34 126.222 102.194 126.222Z" fill="black"/>
<path d="M92.3637 106.968C92.9852 113.064 93.3268 119.605 93.4606 126.298H90.5623C90.5553 118.724 90.307 112.091 89.7013 105.897L92.3654 106.968H92.3637Z" fill="#EA0029"/>
<path d="M86.4807 114.296C86.4807 114.296 87.3629 107.449 90.1679 106.358C90.844 106.096 91.2983 105.733 92.2016 107.047C92.2016 107.047 90.9268 102.91 88.0426 104.567C85.1584 106.224 84.3361 113.62 84.3361 113.62L86.4825 114.296H86.4807Z" fill="#FFAFBD"/>
<path d="M86.7026 114.643L84.0491 113.807L84.0737 113.59C84.1072 113.282 84.9453 106.041 87.9123 104.336C88.7082 103.878 89.4706 103.787 90.1785 104.067C91.735 104.68 92.4271 106.874 92.457 106.968L92.9659 108.618L91.9868 107.195C91.2896 106.18 90.9937 106.302 90.4567 106.526C90.3951 106.552 90.3317 106.577 90.2665 106.603C87.6376 107.625 86.7537 114.261 86.7449 114.328L86.7044 114.642L86.7026 114.643ZM84.6249 113.433L86.2642 113.95C86.4772 112.563 87.4756 107.121 90.0728 106.11C90.1345 106.085 90.1943 106.061 90.2524 106.038C90.6521 105.872 91.0096 105.763 91.3952 105.918C91.0695 105.374 90.6011 104.8 89.9813 104.556C89.4319 104.34 88.8227 104.421 88.1729 104.794C85.706 106.212 84.7869 112.216 84.6249 113.433Z" fill="black"/>
<path d="M93.1472 109.451C93.0468 109.451 92.9517 109.395 92.9077 109.298L91.8495 107.026C91.7878 106.894 91.8459 106.737 91.978 106.675C92.1101 106.614 92.2668 106.672 92.3284 106.804L93.3867 109.076C93.4483 109.208 93.3902 109.365 93.2581 109.427C93.2211 109.444 93.1842 109.451 93.1472 109.451Z" fill="black"/>
<path d="M89.9497 108.542C93.1544 108.421 96.2605 109.261 97.9667 111.825C98.8964 113.224 99.8121 115.126 100.495 117.701C102.642 125.791 102.908 136.267 102.099 138.93C101.416 141.183 100.559 142.747 97.8065 142.842C96.7658 142.877 95.6794 145.339 94.4909 145.549C92.7494 145.854 86.3612 142.805 81.5013 142.039C78.9076 141.63 77.0412 139.455 77.1785 137.001C77.4919 131.443 77.3528 121.93 78.1963 118.564C79.7141 112.505 81.0611 108.879 89.948 108.542H89.9497Z" fill="#FFAFBD"/>
<path d="M94.2179 145.834C93.1825 145.834 91.3319 145.207 89.0499 144.434C86.6164 143.61 83.859 142.676 81.4625 142.298C78.7244 141.866 76.7717 139.582 76.9178 136.986C77.02 135.175 77.0728 132.97 77.1291 130.634C77.2454 125.796 77.3669 120.794 77.9426 118.499C79.4746 112.385 80.8744 108.622 89.9409 108.276L89.9514 108.541L89.9409 108.276C92.6032 108.176 96.1953 108.683 98.1885 111.677C99.275 113.31 100.138 115.313 100.754 117.632C102.837 125.481 103.212 136.181 102.356 139.006C101.719 141.105 100.893 142.999 97.8205 143.104C97.4173 143.118 96.9049 143.719 96.4119 144.3C95.8308 144.982 95.2304 145.688 94.5419 145.808C94.4468 145.826 94.3394 145.833 94.2214 145.833L94.2179 145.834ZM90.5483 108.794C90.3476 108.794 90.1522 108.798 89.9602 108.805C81.253 109.136 79.9711 112.576 78.455 118.628C77.8951 120.864 77.7736 125.838 77.6574 130.647C77.601 132.986 77.5482 135.194 77.4443 137.016C77.3123 139.34 79.0749 141.387 81.5435 141.776C83.984 142.162 86.7643 143.103 89.2189 143.934C91.5907 144.737 93.6386 145.431 94.4468 145.288C94.9486 145.2 95.4857 144.57 96.0051 143.959C96.6003 143.259 97.162 142.601 97.7976 142.578C100.277 142.493 101.134 141.204 101.848 138.854C102.594 136.392 102.436 126.041 100.242 117.77C99.6412 115.506 98.8013 113.555 97.7483 111.972C96.0315 109.393 92.9941 108.794 90.5501 108.794H90.5483Z" fill="black"/>
<path d="M93.966 131.379C93.966 131.379 95.3852 143.231 95.2549 144.57C95.1246 145.908 93.5346 145.755 91.4516 145.702C89.3685 145.649 78.1768 145.165 75.4141 142.194C72.6513 139.222 73.3873 129.983 74.6305 128.752C75.8736 127.52 78.057 126.531 78.057 126.531C78.057 126.531 85.1866 128.935 91.9693 128.781C91.9693 128.781 93.4272 128.579 93.966 131.378V131.379Z" fill="#FFAFBD"/>
<path d="M92.8955 146C92.5768 146 92.244 145.989 91.9006 145.981C91.7509 145.977 91.5995 145.972 91.4446 145.968C90.094 145.935 78.1697 145.547 75.2204 142.375C73.4578 140.478 73.2588 136.461 73.2553 134.823C73.25 132.304 73.6568 129.345 74.4439 128.567C75.7064 127.316 77.8563 126.335 77.9479 126.293L78.043 126.25L78.1416 126.284C78.212 126.309 85.2993 128.667 91.9517 128.523C92.1542 128.505 93.672 128.463 94.2231 131.334L94.2266 131.351C94.2848 131.836 95.6476 143.247 95.5173 144.6C95.3994 145.812 94.3059 146.004 92.8955 146.004V146ZM78.0747 126.816C77.6521 127.017 75.8701 127.899 74.8171 128.94C74.3153 129.437 73.7783 131.825 73.7853 134.821C73.7924 138.155 74.4562 140.776 75.6078 142.016C77.8845 144.464 86.6428 145.32 91.4586 145.44C91.6136 145.443 91.7668 145.449 91.9165 145.452C93.8745 145.509 94.901 145.495 94.9926 144.545C95.093 143.51 94.1949 135.513 93.7054 131.42C93.2265 128.944 92.0538 129.039 92.0027 129.044H91.9763C85.6638 129.187 78.9762 127.105 78.0764 126.814L78.0747 126.816Z" fill="black"/>
<path d="M99.6377 137.967C99.495 137.967 99.3771 137.852 99.3736 137.71C99.2503 132.804 98.6164 127.674 97.6356 123.631C97.0968 121.409 96.3361 119.494 95.3747 117.942C93.8587 115.496 90.0852 114.201 87.2204 114.034C85.169 113.914 83.1916 114.451 82.6317 115.027C82.5296 115.131 82.3623 115.135 82.2584 115.033C82.1545 114.931 82.151 114.763 82.2531 114.659C82.9979 113.893 85.1919 113.386 87.2503 113.507C90.2472 113.682 94.2073 115.057 95.822 117.666C96.8133 119.265 97.5951 121.231 98.148 123.508C99.1376 127.584 99.775 132.755 99.9 137.697C99.9036 137.843 99.7891 137.965 99.643 137.968H99.6359L99.6377 137.967Z" fill="black"/>
<path d="M91.3142 134.245H91.309C90.0641 134.22 79.0695 133.912 76.3631 130.8C76.268 130.689 76.2786 130.523 76.3895 130.427C76.5005 130.33 76.666 130.342 76.7628 130.453C78.8388 132.841 86.8893 133.627 91.3195 133.717C91.4657 133.72 91.5819 133.84 91.5784 133.986C91.5748 134.131 91.4586 134.245 91.3142 134.245Z" fill="black"/>
</g>
<defs>
<clipPath id="clip0_540_270">
<rect width="146" height="146" fill="white"/>
</clipPath>
</defs>
</svg>
