<svg width="32" height="32" viewBox="0 0 32 32" fill="none" xmlns="http://www.w3.org/2000/svg">
<g id="Group">
<g id="Group_2">
<g id="Group_3">
<path id="Vector" d="M23.0256 13.8542C23.6593 12.4671 23.3613 10.8094 22.2824 9.73048C21.2035 8.65159 19.5458 8.35361 18.1586 8.98725C17.7613 9.16877 17.4017 9.4188 17.09 9.73048L10.555 16.2655C10.3598 16.4607 10.2878 16.7279 10.3392 16.9779C9.58229 17.132 8.87672 17.5088 8.32529 18.0602C8.22254 18.163 8.22254 18.3308 8.32529 18.437L10.3564 20.468L8.01019 23.0231C7.63344 22.9615 7.24983 23.0813 6.9724 23.3553C6.5066 23.8211 6.5066 24.5747 6.9724 25.0405C7.43821 25.5063 8.19514 25.5063 8.65752 25.0405C8.93153 24.7665 9.0514 24.3794 8.98975 24.0027L11.5448 21.6565L13.5725 23.6841C13.6752 23.7869 13.8431 23.7869 13.9458 23.6841C14.4972 23.1327 14.874 22.4306 15.0281 21.6702C15.2781 21.7182 15.5487 21.6462 15.744 21.4544L22.279 14.9194C22.5941 14.6078 22.8441 14.2481 23.0256 13.8542ZM8.5171 23.7184C8.44175 23.7869 8.41092 23.8965 8.44517 23.9958C8.52052 24.2322 8.45887 24.489 8.28419 24.6671C8.02731 24.924 7.60604 24.924 7.34916 24.6671C7.09228 24.4103 7.09228 23.989 7.34916 23.7321C7.52384 23.5574 7.78071 23.4958 8.02047 23.5711C8.11979 23.6019 8.22597 23.5745 8.2979 23.4992L10.7365 20.8448L11.1749 21.2832L8.5171 23.7184ZM13.754 23.1156L11.7435 21.1051L11.7401 21.1017L10.9078 20.2694C10.9078 20.2694 10.9044 20.2694 10.9044 20.2659L8.89043 18.252C9.38707 17.8239 9.98302 17.5567 10.6304 17.4608L14.5383 21.3688C14.4493 22.0161 14.1753 22.6224 13.754 23.1156ZM15.3706 21.0811C15.2679 21.1839 15.1 21.1839 14.9973 21.0811L10.9283 17.0121C10.8256 16.9094 10.8256 16.7416 10.9283 16.6388L17.4633 10.1038C17.7305 9.83666 18.0353 9.62431 18.3778 9.46675C19.5629 8.92217 20.9809 9.17905 21.9056 10.1038C22.8304 11.0286 23.0838 12.4431 22.5427 13.6316C22.3886 13.9707 22.1728 14.279 21.909 14.5461L15.3706 21.0811Z" fill="#EA0033" stroke="#EA0033" stroke-width="0.2"/>
<path id="Vector_2" d="M14.3643 24.5575C14.2171 24.5575 14.1006 24.6774 14.1006 24.8212C14.1006 26.3317 13.5115 27.7496 12.4463 28.8183C11.3777 29.8869 9.95972 30.4726 8.44927 30.4726C8.30199 30.4726 8.18555 30.5924 8.18555 30.7363C8.18555 30.8836 8.30542 31 8.44927 31C10.1001 31 11.6517 30.3561 12.8196 29.1882C13.9876 28.0202 14.6315 26.4687 14.6315 24.8144C14.6315 24.7424 14.6007 24.6739 14.5527 24.626C14.5048 24.5883 14.4397 24.5575 14.3643 24.5575Z" fill="#EA0033" stroke="#EA0033" stroke-width="0.2"/>
<path id="Vector_3" d="M8.44977 28.9381C9.54921 28.9381 10.5836 28.51 11.3576 27.7325C12.1351 26.955 12.5633 25.9207 12.5633 24.8212C12.5633 24.7493 12.5324 24.6808 12.4845 24.6329C12.4365 24.5849 12.3715 24.5541 12.2961 24.5541C12.1488 24.5541 12.0324 24.674 12.0324 24.8178C12.0324 25.7768 11.659 26.6742 10.9809 27.3523C10.3027 28.0305 9.40536 28.4004 8.44634 28.4004C8.29907 28.4004 8.18262 28.5203 8.18262 28.6641C8.18262 28.8183 8.30249 28.9381 8.44977 28.9381Z" fill="#EA0033" stroke="#EA0033" stroke-width="0.2"/>
<path id="Vector_4" d="M8.44934 26.8694C9.57619 26.8694 10.4975 25.9515 10.4975 24.8212C10.4975 24.7493 10.4667 24.6808 10.4187 24.6329C10.3708 24.5849 10.3057 24.5541 10.2304 24.5541C10.0831 24.5541 9.96664 24.674 9.96664 24.8178C9.96664 25.6535 9.28506 26.3351 8.44934 26.3351C8.30207 26.3351 8.18562 26.455 8.18562 26.5988C8.18219 26.753 8.30207 26.8694 8.44934 26.8694Z" fill="#EA0033" stroke="#EA0033" stroke-width="0.2"/>
<path id="Vector_5" d="M7.18907 17.9094C7.33635 17.9094 7.4528 17.7895 7.4528 17.6457C7.4528 17.5738 7.42197 17.5053 7.37402 17.4573C7.32607 17.4094 7.26099 17.3785 7.18564 17.3785C5.53134 17.3785 3.9798 18.0225 2.81186 19.1904C1.64391 20.3583 1 21.9099 1 23.5608C1 23.708 1.11987 23.8245 1.26373 23.8245C1.411 23.8245 1.52746 23.7046 1.52746 23.5608C1.52746 22.0503 2.11657 20.6323 3.18176 19.5637C4.26065 18.4985 5.67862 17.9128 7.18907 17.9094Z" fill="#EA0033" stroke="#EA0033" stroke-width="0.2"/>
<path id="Vector_6" d="M7.45242 19.7145C7.45242 19.6426 7.42159 19.5741 7.37364 19.5262C7.32569 19.4782 7.26062 19.4474 7.18527 19.4474C6.08583 19.4474 5.05146 19.8755 4.27397 20.653C3.49649 21.4305 3.06836 22.4649 3.06836 23.5609C3.06836 23.7082 3.18823 23.8246 3.33208 23.8246C3.47936 23.8246 3.59581 23.7047 3.59581 23.5609C3.59581 22.6053 3.96914 21.7045 4.64387 21.0263C5.32203 20.3482 6.22283 19.9783 7.17842 19.9748C7.33597 19.9783 7.45242 19.8618 7.45242 19.7145Z" fill="#EA0033" stroke="#EA0033" stroke-width="0.2"/>
<path id="Vector_7" d="M7.45303 21.7832C7.45303 21.7113 7.4222 21.6428 7.37425 21.5948C7.3263 21.5469 7.26123 21.5161 7.18588 21.5161C6.05561 21.5161 5.1377 22.434 5.1377 23.5642C5.1377 23.7115 5.25758 23.828 5.40143 23.828C5.54871 23.828 5.66516 23.7081 5.66516 23.5642C5.66516 22.7285 6.34674 22.0469 7.18245 22.0469C7.33658 22.0469 7.45303 21.9271 7.45303 21.7832Z" fill="#EA0033" stroke="#EA0033" stroke-width="0.2"/>
<path id="Vector_8" d="M30.8047 23.3381L23.3073 15.8407C23.0298 15.5633 22.5846 15.5633 22.3071 15.8407L16.601 21.5468C16.327 21.8208 16.327 22.2695 16.601 22.547L24.0985 30.0444C24.3725 30.3218 24.8211 30.3218 25.0986 30.0444L30.8047 24.3383C31.0787 24.0608 31.0787 23.6121 30.8047 23.3381ZM27.8455 21.129L24.9102 24.0642L22.5777 21.7318L25.513 18.7965L27.8455 21.129ZM22.6805 16.214C22.749 16.1455 22.862 16.1455 22.9305 16.214L25.1397 18.4232L22.2044 21.3585L19.8719 19.026L22.6805 16.214ZM16.9743 22.1702C16.9058 22.1017 16.9058 21.9887 16.9743 21.9202L19.4952 19.3993L21.8276 21.7318L19.1801 24.3794L16.9743 22.1702ZM19.5568 24.7561L22.2044 22.1085L24.5369 24.441L21.8893 27.0886L19.5568 24.7561ZM24.7218 29.6711C24.6533 29.7396 24.5403 29.7396 24.4718 29.6711L22.2626 27.4619L24.9102 24.8143L27.2427 27.1468L24.7218 29.6711ZM30.428 23.9615L27.6194 26.77L25.2869 24.4376L28.2222 21.5023L30.4314 23.708C30.4999 23.7834 30.4999 23.893 30.428 23.9615Z" fill="#EA0033" stroke="#EA0033" stroke-width="0.2"/>
<path id="Vector_9" d="M9.46234 15.4092C9.73977 15.6832 10.1885 15.6832 10.4625 15.4092L16.1686 9.70306C16.4426 9.42563 16.4426 8.98037 16.1686 8.70294L8.67115 1.2055C8.39715 0.931499 7.94847 0.931499 7.67104 1.2055L1.96491 6.91164C1.68748 7.18907 1.68748 7.63433 1.96491 7.91175L9.46234 15.4092ZM4.92415 10.1209L7.57172 7.47335L9.90417 9.80581L7.25661 12.4534L4.92415 10.1209ZM10.0891 15.0359C10.0206 15.1044 9.9076 15.1044 9.8391 15.0359L7.62994 12.8267L10.2775 10.1791L12.61 12.5116L10.0891 15.0359ZM15.7953 9.0797C15.8638 9.1482 15.8638 9.26122 15.7953 9.32973L12.9867 12.1383L10.6543 9.80581L13.5895 6.87054L15.7953 9.0797ZM13.2128 6.49721L10.2775 9.43248L7.94504 7.10002L10.8803 4.16475L13.2128 6.49721ZM8.04779 1.58226C8.11629 1.51376 8.22932 1.51376 8.29782 1.58226L10.507 3.79142L7.57172 6.72669L5.23926 4.3908L8.04779 1.58226ZM2.34167 7.28839L4.8625 4.76756L7.19496 7.10002L4.54739 9.74758L2.34167 7.53842C2.27316 7.46992 2.27316 7.3569 2.34167 7.28839Z" fill="#EA0033" stroke="#EA0033" stroke-width="0.2"/>
</g>
</g>
</g>
</svg>
