<svg width="24" height="24" viewBox="0 0 24 24" fill="none" xmlns="http://www.w3.org/2000/svg">
<g id="Group 1653">
<path id="Vector" d="M11.21 18.54L5 12.33L7.83 9.5L11.21 12.89L21.09 3L23.92 5.83L11.21 18.54Z" fill="#EA0033"/>
<path id="Ellipse 145" d="M23 12C23 14.5449 22.1176 17.0111 20.5031 18.9783C18.8886 20.9456 16.642 22.2922 14.146 22.7886C11.65 23.2851 9.05904 22.9008 6.81464 21.7011C4.57023 20.5015 2.81122 18.5607 1.83733 16.2095C0.863431 13.8583 0.734908 11.2422 1.47366 8.80687C2.2124 6.37154 3.77271 4.26771 5.88873 2.85383C8.00474 1.43996 10.5455 0.803524 13.0782 1.05297C15.6108 1.30241 17.9787 2.4223 19.7782 4.22182" stroke="black" stroke-width="1.5"/>
</g>
</svg>
