<svg width="45" height="32" viewBox="0 0 45 32" fill="none" xmlns="http://www.w3.org/2000/svg">
<g id="Group">
<path id="Vector" d="M43.9274 0H12.0972C11.6096 0 11.2147 0.394952 11.2147 0.882547V5.58296C7.53334 5.61709 4.55413 8.57192 4.55413 12.2094C4.55413 15.8468 7.53822 18.8017 11.2147 18.8358V19.6744C5.02223 19.7037 0 24.3895 0 30.1529C0 30.6405 0.394951 31.0354 0.882545 31.0354H21.6736C22.1612 31.0354 22.5561 30.6405 22.5561 30.1529C22.5561 29.2362 22.4147 28.3488 22.1758 27.4955H43.9323C44.4199 27.4955 44.8148 27.1005 44.8148 26.6129V0.887423C44.81 0.394952 44.415 0 43.9274 0ZM6.31924 12.2094C6.31924 9.5276 8.54266 7.34805 11.2732 7.34805C14.0037 7.34805 16.2272 9.5276 16.2272 12.2094C16.2272 14.8911 14.0037 17.0707 11.2732 17.0707C8.54266 17.0707 6.31924 14.8911 6.31924 12.2094ZM1.80899 29.2654C2.29171 24.8771 6.35336 21.4395 11.2732 21.4395C16.193 21.4395 20.2498 24.8771 20.7374 29.2654H1.80899ZM43.0449 25.7255H21.4834C21.0007 24.7698 20.3668 23.8921 19.6111 23.1169L25.8133 17.768C26.1838 17.4461 26.2228 16.8903 25.9059 16.5197C25.589 16.1491 25.0282 16.1101 24.6577 16.4271L18.2653 21.9369C16.7635 20.8301 14.9545 20.0792 12.9798 19.7963V18.5871C15.8566 17.8362 17.9971 15.2715 17.9971 12.1996C17.9971 9.12778 15.8615 6.56303 12.9798 5.81213V1.76997H43.0449V25.7255Z" fill="#EA0033"/>
<path id="Vector_2" d="M24.7453 8.20134H39.3732C39.8608 8.20134 40.2557 7.80639 40.2557 7.3188C40.2557 6.8312 39.8608 6.43625 39.3732 6.43625H24.7453C24.2577 6.43625 23.8628 6.8312 23.8628 7.3188C23.8628 7.80639 24.2577 8.20134 24.7453 8.20134Z" fill="#EA0033"/>
<path id="Vector_3" d="M24.7453 12.8627H39.3732C39.8608 12.8627 40.2557 12.4678 40.2557 11.9802C40.2557 11.4926 39.8608 11.0977 39.3732 11.0977H24.7453C24.2577 11.0977 23.8628 11.4926 23.8628 11.9802C23.8628 12.4678 24.2577 12.8627 24.7453 12.8627Z" fill="#EA0033"/>
</g>
</svg>
