<svg width="372" height="217" viewBox="0 0 372 217" fill="none" xmlns="http://www.w3.org/2000/svg">
<circle cx="183" cy="110" r="70" fill="#F5F5F5"/>
<circle cx="183" cy="110" r="81.6" stroke="#F5F5F5" stroke-width="0.8"/>
<circle cx="183" cy="110" r="106.75" stroke="#F5F5F5" stroke-width="0.5"/>
<path fill-rule="evenodd" clip-rule="evenodd" d="M252.128 23.3627C252.236 23.2881 252.378 23.2822 252.492 23.3488C252.606 23.4154 252.671 23.542 252.658 23.6737C252.658 23.6737 252.483 25.4822 252.418 26.1516C252.396 26.3811 252.494 26.6046 252.677 26.7442C253.212 27.1518 254.66 28.2511 254.66 28.2511C254.764 28.3311 254.813 28.4644 254.785 28.5924C254.757 28.7205 254.657 28.821 254.528 28.8502C254.528 28.8502 252.754 29.2428 252.097 29.3879C251.872 29.4381 251.69 29.6004 251.613 29.817C251.392 30.4521 250.793 32.1676 250.793 32.1676C250.75 32.292 250.638 32.3794 250.508 32.3924C250.377 32.4054 250.25 32.3415 250.184 32.2278C250.184 32.2278 249.262 30.6613 248.922 30.0814C248.805 29.883 248.594 29.7591 248.363 29.7541C247.69 29.7397 245.874 29.7006 245.874 29.7006C245.742 29.698 245.625 29.6187 245.572 29.4982C245.52 29.3776 245.542 29.2377 245.629 29.1389C245.629 29.1389 246.834 27.7788 247.28 27.2758C247.432 27.1027 247.485 26.8643 247.419 26.6445C247.224 26.0002 246.701 24.26 246.701 24.26C246.663 24.1331 246.701 23.9974 246.8 23.9098C246.899 23.8217 247.039 23.7994 247.159 23.8525C247.159 23.8525 248.825 24.5775 249.442 24.8471C249.654 24.9389 249.897 24.9153 250.086 24.784C250.635 24.3986 252.128 23.3627 252.128 23.3627Z" fill="#EA0033"/>
<path fill-rule="evenodd" clip-rule="evenodd" d="M150.52 1.71195C150.568 1.51866 150.725 1.36885 150.922 1.33112C151.118 1.29339 151.319 1.37265 151.436 1.53588C151.436 1.53588 153.047 3.77488 153.644 4.60319C153.848 4.88713 154.184 5.04411 154.533 5.01992C155.551 4.94919 158.303 4.75432 158.303 4.75432C158.503 4.74104 158.692 4.84394 158.788 5.01837C158.884 5.1928 158.87 5.40801 158.753 5.56982C158.753 5.56982 157.121 7.7943 156.517 8.61765C156.31 8.90021 156.265 9.26791 156.395 9.59118C156.779 10.5372 157.813 13.0942 157.813 13.0942C157.888 13.2798 157.848 13.491 157.712 13.6369C157.575 13.7827 157.366 13.8372 157.177 13.7735C157.177 13.7735 154.557 12.9089 153.588 12.5879C153.257 12.4784 152.891 12.5486 152.624 12.7733C151.841 13.4308 149.73 15.2045 149.73 15.2045C149.576 15.3341 149.363 15.3607 149.183 15.2757C149.002 15.1908 148.887 15.0093 148.888 14.8092C148.888 14.8092 148.901 12.051 148.906 11.0301C148.907 10.68 148.728 10.3553 148.432 10.1711C147.566 9.6304 145.226 8.16909 145.226 8.16909C145.055 8.06255 144.963 7.86958 144.989 7.66993C145.013 7.47061 145.151 7.30483 145.341 7.24504C145.341 7.24504 147.968 6.40464 148.942 6.09418C149.275 5.98731 149.528 5.71715 149.613 5.37761C149.854 4.38846 150.52 1.71195 150.52 1.71195Z" fill="#EA0033"/>
<path fill-rule="evenodd" clip-rule="evenodd" d="M6.51979 24.7119C6.56838 24.5187 6.72533 24.3688 6.92167 24.3311C7.11802 24.2934 7.31898 24.3726 7.43607 24.5359C7.43607 24.5359 9.04679 26.7749 9.6435 27.6032C9.84808 27.8871 10.1836 28.0441 10.5326 28.0199C11.5513 27.9492 14.3034 27.7543 14.3034 27.7543C14.5027 27.741 14.6921 27.8439 14.7881 28.0184C14.8842 28.1928 14.8702 28.408 14.753 28.5698C14.753 28.5698 13.1213 30.7943 12.5169 31.6177C12.3105 31.9002 12.265 32.2679 12.395 32.5912C12.7786 33.5372 13.8129 36.0942 13.8129 36.0942C13.8878 36.2798 13.848 36.491 13.7118 36.6369C13.5755 36.7827 13.3663 36.8372 13.1772 36.7735C13.1772 36.7735 10.5572 35.9089 9.58832 35.5879C9.25653 35.4784 8.8914 35.5486 8.62382 35.7733C7.84114 36.4308 5.72989 38.2045 5.72989 38.2045C5.57619 38.3341 5.36342 38.3607 5.1828 38.2757C5.00217 38.1908 4.88694 38.0093 4.88776 37.8092C4.88776 37.8092 4.90069 35.051 4.90634 34.0301C4.90693 33.68 4.72846 33.3553 4.43232 33.1711C3.56583 32.6304 1.22587 31.1691 1.22587 31.1691C1.05538 31.0626 0.962937 30.8696 0.988867 30.6699C1.01307 30.4706 1.15088 30.3048 1.3412 30.245C1.3412 30.245 3.96754 29.4046 4.94193 29.0942C5.275 28.9873 5.52848 28.7172 5.61326 28.3776C5.8536 27.3885 6.51979 24.7119 6.51979 24.7119Z" fill="#EA0033"/>
<path fill-rule="evenodd" clip-rule="evenodd" d="M111.635 65.9545C111.662 65.8468 111.75 65.7632 111.859 65.7422C111.969 65.7212 112.081 65.7653 112.146 65.8564C112.146 65.8564 113.044 67.1048 113.377 67.5666C113.491 67.7249 113.678 67.8124 113.873 67.7989C114.441 67.7595 115.975 67.6509 115.975 67.6509C116.086 67.6435 116.192 67.7008 116.245 67.7981C116.299 67.8953 116.291 68.0153 116.226 68.1056C116.226 68.1056 115.316 69.3458 114.979 69.8049C114.864 69.9625 114.839 70.1675 114.911 70.3477C115.125 70.8752 115.702 72.3009 115.702 72.3009C115.743 72.4044 115.721 72.5222 115.645 72.6035C115.569 72.6848 115.453 72.7152 115.347 72.6797C115.347 72.6797 113.886 72.1976 113.346 72.0186C113.161 71.9576 112.958 71.9967 112.808 72.1219C112.372 72.4886 111.195 73.4775 111.195 73.4775C111.109 73.5498 110.99 73.5646 110.89 73.5172C110.789 73.4699 110.725 73.3687 110.725 73.2571C110.725 73.2571 110.732 71.7192 110.736 71.15C110.736 70.9548 110.636 70.7738 110.471 70.6711C109.988 70.3696 108.684 69.5548 108.684 69.5548C108.588 69.4954 108.537 69.3878 108.551 69.2765C108.565 69.1654 108.642 69.0729 108.748 69.0396C108.748 69.0396 110.212 68.571 110.755 68.3979C110.941 68.3383 111.082 68.1877 111.13 67.9984C111.264 67.4469 111.635 65.9545 111.635 65.9545Z" fill="#EA0033"/>
<path fill-rule="evenodd" clip-rule="evenodd" d="M365.635 33.9545C365.662 33.8468 365.75 33.7632 365.859 33.7422C365.969 33.7212 366.081 33.7653 366.146 33.8564C366.146 33.8564 367.044 35.1048 367.377 35.5666C367.491 35.7249 367.678 35.8124 367.873 35.7989C368.441 35.7595 369.975 35.6509 369.975 35.6509C370.086 35.6435 370.192 35.7008 370.245 35.7981C370.299 35.8953 370.291 36.0153 370.226 36.1056C370.226 36.1056 369.316 37.3458 368.979 37.8049C368.864 37.9625 368.839 38.1675 368.911 38.3477C369.125 38.8752 369.702 40.3009 369.702 40.3009C369.743 40.4044 369.721 40.5222 369.645 40.6035C369.569 40.6848 369.453 40.7152 369.347 40.6797C369.347 40.6797 367.886 40.1976 367.346 40.0186C367.161 39.9576 366.958 39.9967 366.808 40.1219C366.372 40.4886 365.195 41.4775 365.195 41.4775C365.109 41.5498 364.99 41.5646 364.89 41.5172C364.789 41.4699 364.725 41.3687 364.725 41.2571C364.725 41.2571 364.732 39.7192 364.736 39.15C364.736 38.9548 364.636 38.7738 364.471 38.6711C363.988 38.3696 362.684 37.5548 362.684 37.5548C362.588 37.4954 362.537 37.3878 362.551 37.2765C362.565 37.1654 362.642 37.0729 362.748 37.0396C362.748 37.0396 364.212 36.571 364.755 36.3979C364.941 36.3383 365.082 36.1877 365.13 35.9984C365.264 35.4469 365.635 33.9545 365.635 33.9545Z" fill="#EA0033"/>
</svg>
