<svg width="487" height="237" viewBox="0 0 487 237" fill="none" xmlns="http://www.w3.org/2000/svg">
<g clip-path="url(#clip0_543_783)">
<path d="M24.5339 205.296C25.0786 205.296 25.5838 205.233 26.0495 205.106C26.5153 204.979 26.9415 204.837 27.3441 204.678C27.5178 204.607 27.6362 204.591 27.6993 204.639C27.7625 204.686 27.8177 204.757 27.8572 204.86L28.3308 205.907C28.4177 206.081 28.4492 206.2 28.4256 206.263C28.4019 206.327 28.3387 206.398 28.244 206.454C27.6204 206.818 26.9652 207.064 26.2548 207.183C25.5522 207.302 24.8734 207.365 24.2103 207.365C22.3631 207.365 20.9659 206.826 20.0266 205.756C19.0872 204.686 18.6136 203.069 18.6136 200.905C18.6136 199.891 18.7557 198.972 19.0319 198.139C19.3082 197.307 19.7029 196.602 20.2002 196.015C20.6975 195.429 21.2975 194.977 22 194.652C22.7026 194.327 23.4919 194.168 24.3524 194.168C24.897 194.168 25.4575 194.216 26.0416 194.311C26.6179 194.406 27.202 194.62 27.802 194.937C27.8967 194.985 27.9598 195.04 27.9914 195.112C28.023 195.175 27.9993 195.302 27.9283 195.468L27.4152 196.53C27.3678 196.649 27.3204 196.729 27.2731 196.768C27.2257 196.808 27.131 196.792 26.9968 196.729C26.5942 196.57 26.1837 196.443 25.7654 196.356C25.347 196.261 24.9049 196.221 24.4471 196.221C23.8393 196.221 23.3104 196.348 22.8683 196.602C22.4263 196.855 22.0632 197.204 21.779 197.632C21.4948 198.068 21.2817 198.567 21.1396 199.13C20.9975 199.701 20.9265 200.287 20.9265 200.898C20.9265 201.508 20.9817 202.079 21.1001 202.61C21.2185 203.141 21.408 203.6 21.6843 203.997C21.9605 204.393 22.3315 204.71 22.7973 204.94C23.263 205.185 23.8393 205.296 24.5339 205.296Z" fill="black"/>
<path d="M40.3215 207.103C40.2663 207.143 40.1558 207.167 39.9821 207.167H38.6007C38.4586 207.167 38.3481 207.143 38.2849 207.096C38.2218 207.048 38.1823 206.945 38.1823 206.786V201.405H32.5146V206.786C32.5146 206.961 32.483 207.064 32.4277 207.103C32.3646 207.143 32.2541 207.167 32.0804 207.167H30.699C30.5648 207.167 30.4622 207.143 30.3911 207.096C30.3201 207.048 30.2806 206.945 30.2806 206.786V194.739C30.2806 194.581 30.3201 194.478 30.3911 194.43C30.4622 194.382 30.5648 194.359 30.699 194.359H32.0804C32.2541 194.359 32.3646 194.382 32.4277 194.422C32.4909 194.462 32.5146 194.573 32.5146 194.739V199.479H38.1823V194.739C38.1823 194.581 38.2139 194.478 38.2849 194.43C38.3481 194.382 38.4586 194.359 38.6007 194.359H39.9821C40.1558 194.359 40.2663 194.382 40.3215 194.422C40.3768 194.462 40.4005 194.573 40.4005 194.739V206.779C40.4084 206.953 40.3768 207.056 40.3215 207.103Z" fill="black"/>
<path d="M49.9046 204.369H45.2788L44.4737 206.858C44.4342 206.969 44.3868 207.048 44.3158 207.096C44.2526 207.143 44.1421 207.167 44 207.167H42.3265C42.1924 207.167 42.1055 207.127 42.0739 207.048C42.0345 206.969 42.0345 206.882 42.0739 206.779L46.013 195.199C46.0761 195.017 46.1314 194.866 46.1945 194.763C46.2577 194.66 46.3287 194.565 46.4234 194.509C46.5103 194.446 46.6208 194.406 46.7392 194.375C46.8576 194.343 47.0076 194.327 47.1733 194.327H47.9548C48.3337 194.327 48.6021 194.382 48.76 194.501C48.9179 194.62 49.06 194.85 49.1784 195.207L53.1332 206.786C53.1726 206.882 53.1726 206.969 53.141 207.056C53.1095 207.135 53.0305 207.175 52.8963 207.175H51.2229C51.0887 207.175 50.986 207.159 50.9071 207.127C50.8282 207.096 50.765 207.016 50.7177 206.882L49.9046 204.369ZM47.4417 193.55C47.1102 193.55 46.7944 193.495 46.4945 193.384C46.1866 193.273 45.9103 193.122 45.6498 192.932C45.3893 192.742 45.1446 192.528 44.9157 192.282C44.6868 192.036 44.4816 191.783 44.2921 191.513C44.2684 191.474 44.2447 191.426 44.229 191.371C44.2132 191.307 44.2526 191.228 44.3474 191.133L44.8605 190.657C44.971 190.562 45.042 190.53 45.0894 190.554C45.1288 190.586 45.1999 190.634 45.3025 190.713C45.6814 191.101 46.0603 191.41 46.4392 191.624C46.8181 191.846 47.1891 191.957 47.5443 191.957C47.6864 191.957 47.8364 191.941 47.9785 191.902C48.1206 191.862 48.2785 191.799 48.4521 191.704C48.6179 191.608 48.8152 191.474 49.0363 191.299C49.2573 191.125 49.5099 190.919 49.802 190.657C49.9125 190.562 49.9914 190.515 50.0388 190.53C50.0861 190.546 50.1414 190.57 50.2046 190.626L50.7177 191.062C50.8361 191.157 50.8913 191.236 50.8755 191.299C50.8597 191.363 50.8282 191.418 50.7966 191.466C50.2361 192.187 49.6757 192.71 49.1231 193.051C48.539 193.384 47.9864 193.55 47.4417 193.55ZM45.8156 202.459H49.3126L48.3653 199.384L47.5996 196.784H47.5128L46.7629 199.328L45.8156 202.459ZM46.2024 189.944C46.1392 189.873 46.1077 189.809 46.1077 189.77C46.1077 189.73 46.155 189.667 46.2498 189.579L48.981 187.479C49.0678 187.416 49.1389 187.384 49.202 187.376C49.2652 187.368 49.3283 187.416 49.3994 187.511L50.4019 188.771C50.5203 188.914 50.5124 189.025 50.3624 189.104L47.047 190.713C46.976 190.752 46.9128 190.768 46.8655 190.768C46.8181 190.768 46.7629 190.729 46.6997 190.657L46.2024 189.944Z" fill="black"/>
<path d="M56.9853 206.779C56.9853 206.953 56.9616 207.056 56.9064 207.096C56.8511 207.135 56.7406 207.159 56.567 207.159H55.2013C55.0671 207.159 54.9645 207.135 54.8935 207.088C54.8224 207.04 54.783 206.937 54.783 206.779V195.365C54.783 195.025 54.854 194.763 55.004 194.589C55.1461 194.414 55.4145 194.327 55.8091 194.327H60.1428C60.7507 194.327 61.3032 194.422 61.8084 194.612C62.3136 194.803 62.7478 195.072 63.103 195.421C63.4582 195.77 63.7424 196.182 63.9398 196.665C64.1371 197.149 64.2397 197.672 64.2397 198.25C64.2397 198.583 64.1845 198.972 64.0819 199.431C63.9792 199.891 63.774 200.335 63.4582 200.755C63.1504 201.183 62.7162 201.548 62.1558 201.841C61.5953 202.142 60.8612 202.293 59.9534 202.293H56.9853V206.779ZM61.9426 198.385C61.9426 198.179 61.9111 197.949 61.84 197.711C61.7769 197.466 61.6585 197.244 61.4927 197.046C61.3269 196.847 61.098 196.673 60.8059 196.546C60.5139 196.412 60.1428 196.348 59.6929 196.348H56.9932V200.406H59.7245C60.4902 200.406 61.0506 200.216 61.398 199.836C61.769 199.447 61.9426 198.964 61.9426 198.385Z" fill="black"/>
<path d="M76.8303 205.296C77.375 205.296 77.8802 205.233 78.3459 205.106C78.8117 204.979 79.2379 204.837 79.6405 204.678C79.8142 204.607 79.9326 204.591 79.9957 204.639C80.0589 204.686 80.1142 204.757 80.1536 204.86L80.6273 205.907C80.7141 206.081 80.7457 206.2 80.722 206.263C80.6983 206.327 80.6351 206.398 80.5404 206.454C79.9168 206.818 79.2616 207.064 78.5512 207.183C77.8486 207.302 77.1698 207.365 76.5067 207.365C74.6595 207.365 73.2623 206.826 72.323 205.756C71.3836 204.686 70.91 203.069 70.91 200.905C70.91 199.891 71.0521 198.972 71.3284 198.139C71.6046 197.307 71.9993 196.602 72.4966 196.015C72.9939 195.429 73.5939 194.977 74.2964 194.652C74.999 194.327 75.7884 194.168 76.6488 194.168C77.1934 194.168 77.7539 194.216 78.338 194.311C78.9143 194.406 79.4984 194.62 80.0984 194.937C80.1931 194.985 80.2562 195.04 80.2878 195.112C80.3194 195.175 80.2957 195.302 80.2247 195.468L79.7116 196.53C79.6642 196.649 79.6168 196.729 79.5695 196.768C79.5221 196.808 79.4274 196.792 79.2932 196.729C78.8906 196.57 78.4801 196.443 78.0618 196.356C77.6434 196.261 77.2013 196.221 76.7435 196.221C76.1357 196.221 75.6068 196.348 75.1647 196.602C74.7227 196.855 74.3596 197.204 74.0754 197.632C73.7912 198.068 73.5781 198.567 73.436 199.13C73.2939 199.701 73.2229 200.287 73.2229 200.898C73.2229 201.508 73.2781 202.079 73.3965 202.61C73.5149 203.141 73.7044 203.6 73.9807 203.997C74.257 204.393 74.628 204.71 75.0937 204.94C75.5594 205.185 76.1436 205.296 76.8303 205.296Z" fill="black"/>
<path d="M89.3341 204.369H84.7083L83.9032 206.858C83.8637 206.969 83.8163 207.048 83.7453 207.096C83.6821 207.143 83.5716 207.167 83.4296 207.167H81.7561C81.6219 207.167 81.535 207.127 81.5035 207.048C81.464 206.969 81.464 206.882 81.5035 206.779L85.4425 195.199C85.5056 195.017 85.5609 194.866 85.624 194.763C85.6872 194.652 85.7582 194.565 85.8529 194.509C85.9398 194.446 86.0503 194.406 86.1687 194.375C86.2871 194.343 86.4371 194.327 86.6029 194.327H87.3843C87.7632 194.327 88.0316 194.382 88.1895 194.501C88.3474 194.62 88.4895 194.85 88.6079 195.207L92.5627 206.787C92.6021 206.882 92.6021 206.969 92.5706 207.056C92.539 207.135 92.4601 207.175 92.3259 207.175H90.6524C90.5182 207.175 90.4156 207.159 90.3366 207.127C90.2577 207.096 90.1945 207.016 90.1472 206.882L89.3341 204.369ZM85.253 202.459H88.75L87.8027 199.384L87.037 196.784H86.9502L86.2003 199.328L85.253 202.459ZM85.9477 192.877C85.8845 192.805 85.8529 192.742 85.8529 192.702C85.8529 192.663 85.9003 192.599 85.995 192.512L88.7263 190.412C88.8131 190.348 88.8842 190.317 88.9473 190.309C89.0105 190.301 89.0736 190.348 89.1447 190.443L90.1472 191.704C90.2656 191.846 90.2577 191.957 90.1077 192.036L86.7923 193.645C86.7213 193.685 86.6581 193.701 86.6108 193.701C86.5634 193.701 86.5081 193.661 86.445 193.59L85.9477 192.877Z" fill="black"/>
<path d="M96.4069 197.688V206.779C96.4069 206.953 96.3833 207.056 96.328 207.096C96.2728 207.135 96.1622 207.159 95.9886 207.159H94.6387C94.5045 207.159 94.4019 207.135 94.3309 207.088C94.2598 207.04 94.2204 206.937 94.2204 206.779V195.452C94.2204 195.064 94.2993 194.779 94.4493 194.604C94.5993 194.43 94.8755 194.343 95.2781 194.343H95.9175C96.2333 194.343 96.4622 194.398 96.6122 194.517C96.7543 194.636 96.9279 194.842 97.1253 195.151L100.749 201.207L102.296 203.838H102.367V194.723C102.367 194.565 102.398 194.462 102.461 194.414C102.525 194.367 102.635 194.343 102.793 194.343H104.143C104.301 194.343 104.411 194.367 104.474 194.414C104.538 194.462 104.569 194.565 104.569 194.723V206.065C104.569 206.422 104.498 206.691 104.348 206.882C104.206 207.072 103.922 207.167 103.511 207.167H102.872C102.714 207.167 102.58 207.151 102.469 207.127C102.359 207.103 102.264 207.064 102.177 207C102.09 206.937 102.012 206.858 101.933 206.755C101.854 206.652 101.767 206.525 101.672 206.382L98.0252 200.311L96.4938 197.695H96.4069V197.688Z" fill="black"/>
<path d="M117.333 207.103C117.278 207.143 117.168 207.167 116.994 207.167H115.613C115.47 207.167 115.36 207.143 115.297 207.096C115.234 207.048 115.194 206.945 115.194 206.786V201.405H109.526V206.786C109.526 206.961 109.495 207.064 109.44 207.103C109.376 207.143 109.266 207.167 109.092 207.167H107.711C107.577 207.167 107.474 207.143 107.403 207.096C107.332 207.048 107.293 206.945 107.293 206.786V194.739C107.293 194.581 107.332 194.478 107.403 194.43C107.474 194.382 107.577 194.359 107.711 194.359H109.092C109.266 194.359 109.376 194.382 109.44 194.422C109.503 194.462 109.526 194.573 109.526 194.739V199.479H115.194V194.739C115.194 194.581 115.226 194.478 115.297 194.43C115.36 194.382 115.47 194.359 115.613 194.359H116.994C117.168 194.359 117.278 194.382 117.333 194.422C117.389 194.462 117.412 194.573 117.412 194.739V206.779C117.412 206.953 117.389 207.056 117.333 207.103Z" fill="black"/>
<path d="M133.824 196.221C133.784 196.269 133.689 196.293 133.555 196.293H130.09V206.779C130.09 206.953 130.066 207.056 130.011 207.096C129.956 207.135 129.845 207.159 129.671 207.159H128.251C128.108 207.159 127.998 207.135 127.935 207.088C127.872 207.04 127.832 206.937 127.832 206.779V196.293H124.446C124.312 196.293 124.225 196.269 124.193 196.221C124.154 196.174 124.138 196.086 124.138 195.968V194.707C124.138 194.573 124.154 194.485 124.193 194.43C124.233 194.382 124.312 194.359 124.446 194.359H133.555C133.689 194.359 133.776 194.382 133.824 194.43C133.863 194.478 133.887 194.573 133.887 194.707V195.968C133.887 196.086 133.863 196.174 133.824 196.221Z" fill="black"/>
<path d="M141.157 204.369H136.531L135.726 206.858C135.686 206.969 135.639 207.048 135.568 207.096C135.505 207.143 135.394 207.167 135.252 207.167H133.579C133.445 207.167 133.358 207.127 133.326 207.048C133.287 206.969 133.287 206.882 133.326 206.779L137.265 195.199C137.328 195.017 137.384 194.866 137.447 194.763C137.51 194.66 137.581 194.565 137.676 194.509C137.763 194.446 137.873 194.406 137.991 194.375C138.11 194.343 138.26 194.327 138.426 194.327H139.207C139.586 194.327 139.854 194.382 140.012 194.501C140.17 194.62 140.312 194.85 140.431 195.207L144.385 206.786C144.425 206.882 144.425 206.969 144.393 207.056C144.362 207.135 144.283 207.175 144.149 207.175H142.475C142.341 207.175 142.238 207.159 142.159 207.127C142.08 207.096 142.017 207.016 141.97 206.882L141.157 204.369ZM139.886 192.472C139.981 192.544 140.028 192.607 140.028 192.647C140.028 192.686 139.997 192.75 139.933 192.837L139.444 193.511C139.381 193.582 139.326 193.63 139.278 193.637C139.231 193.653 139.144 193.622 139.026 193.566L135.742 191.989C135.608 191.925 135.6 191.822 135.702 191.68L136.721 190.364C136.792 190.269 136.863 190.229 136.934 190.253C136.997 190.277 137.068 190.316 137.123 190.38L139.886 192.472ZM137.076 202.459H140.573L139.625 199.384L138.86 196.784H138.773L138.023 199.328L137.076 202.459Z" fill="black"/>
<path d="M148.411 207.103C148.348 207.143 148.238 207.167 148.064 207.167H146.683C146.54 207.167 146.43 207.143 146.367 207.096C146.304 207.048 146.264 206.945 146.264 206.786V194.739C146.264 194.581 146.296 194.478 146.367 194.43C146.43 194.382 146.54 194.359 146.683 194.359H148.064C148.238 194.359 148.348 194.382 148.411 194.422C148.474 194.462 148.506 194.573 148.506 194.739V206.779C148.498 206.953 148.474 207.056 148.411 207.103Z" fill="black"/>
<path d="M158.721 197.688V206.779C158.721 206.953 158.697 207.056 158.642 207.096C158.586 207.135 158.476 207.159 158.302 207.159H156.952C156.818 207.159 156.716 207.135 156.645 207.088C156.573 207.04 156.534 206.937 156.534 206.779V195.452C156.534 195.064 156.613 194.779 156.763 194.604C156.913 194.43 157.189 194.343 157.592 194.343H158.231C158.547 194.343 158.776 194.398 158.926 194.517C159.068 194.636 159.242 194.842 159.439 195.151L163.062 201.207L164.609 203.838H164.68V194.723C164.68 194.565 164.712 194.462 164.775 194.414C164.838 194.367 164.949 194.343 165.107 194.343H166.457C166.614 194.343 166.725 194.367 166.788 194.414C166.851 194.462 166.883 194.565 166.883 194.723V206.065C166.883 206.422 166.812 206.691 166.662 206.882C166.52 207.072 166.236 207.167 165.825 207.167H165.186C165.028 207.167 164.894 207.151 164.783 207.127C164.673 207.103 164.578 207.064 164.491 207C164.404 206.937 164.325 206.858 164.246 206.755C164.167 206.652 164.081 206.525 163.986 206.382L160.339 200.311L158.807 197.695H158.721V197.688Z" fill="black"/>
<path d="M176.363 204.369H171.737L170.932 206.858C170.893 206.969 170.845 207.048 170.774 207.096C170.711 207.143 170.601 207.167 170.459 207.167H168.785C168.651 207.167 168.564 207.127 168.533 207.048C168.493 206.969 168.493 206.882 168.533 206.779L172.472 195.199C172.535 195.017 172.59 194.866 172.653 194.763C172.716 194.652 172.787 194.565 172.882 194.509C172.969 194.446 173.079 194.406 173.198 194.375C173.316 194.343 173.466 194.327 173.632 194.327H174.413C174.792 194.327 175.061 194.382 175.219 194.501C175.377 194.62 175.519 194.85 175.637 195.207L179.592 206.786C179.631 206.882 179.631 206.969 179.6 207.056C179.568 207.135 179.489 207.175 179.355 207.175H177.682C177.547 207.175 177.445 207.159 177.366 207.127C177.287 207.096 177.224 207.016 177.176 206.882L176.363 204.369ZM173.9 193.55C173.569 193.55 173.253 193.495 172.953 193.384C172.645 193.273 172.369 193.122 172.108 192.932C171.848 192.742 171.603 192.528 171.374 192.282C171.145 192.036 170.94 191.783 170.751 191.513C170.727 191.474 170.703 191.426 170.688 191.371C170.672 191.315 170.711 191.228 170.806 191.133L171.319 190.657C171.43 190.562 171.501 190.53 171.548 190.554C171.587 190.586 171.659 190.634 171.761 190.713C172.14 191.101 172.519 191.41 172.898 191.624C173.277 191.846 173.648 191.957 174.003 191.957C174.145 191.957 174.295 191.941 174.437 191.902C174.579 191.862 174.737 191.799 174.911 191.703C175.077 191.608 175.274 191.474 175.495 191.299C175.716 191.125 175.969 190.919 176.261 190.657C176.371 190.562 176.45 190.515 176.497 190.53C176.545 190.546 176.6 190.57 176.663 190.626L177.176 191.062C177.295 191.157 177.35 191.236 177.334 191.299C177.318 191.363 177.287 191.418 177.255 191.466C176.695 192.187 176.134 192.71 175.582 193.051C175.006 193.384 174.453 193.55 173.9 193.55ZM172.282 202.459H175.779L174.832 199.384L174.066 196.784H173.979L173.229 199.328L172.282 202.459Z" fill="black"/>
<path d="M183.436 197.688V206.779C183.436 206.953 183.412 207.056 183.357 207.096C183.302 207.135 183.191 207.159 183.018 207.159H181.668C181.534 207.159 181.431 207.135 181.36 207.088C181.289 207.04 181.25 206.937 181.25 206.779V195.452C181.25 195.064 181.328 194.779 181.478 194.604C181.628 194.43 181.905 194.343 182.307 194.343H182.947C183.262 194.343 183.491 194.398 183.641 194.517C183.783 194.636 183.957 194.842 184.154 195.151L187.778 201.207L189.325 203.838H189.396V194.723C189.396 194.565 189.427 194.462 189.491 194.414C189.554 194.367 189.664 194.343 189.822 194.343H191.172C191.33 194.343 191.44 194.367 191.504 194.414C191.567 194.462 191.598 194.565 191.598 194.723V206.065C191.598 206.422 191.527 206.691 191.377 206.882C191.235 207.072 190.951 207.167 190.541 207.167H189.901C189.743 207.167 189.609 207.151 189.499 207.127C189.388 207.103 189.293 207.064 189.206 207C189.12 206.937 189.041 206.858 188.962 206.755C188.883 206.652 188.796 206.525 188.701 206.382L185.054 200.311L183.523 197.695H183.436V197.688Z" fill="black"/>
<path d="M199.76 205.352C199.847 205.352 199.966 205.352 200.124 205.344C200.281 205.336 200.455 205.328 200.637 205.304C200.818 205.288 201.016 205.257 201.221 205.201C201.426 205.154 201.623 205.09 201.821 205.019V201.563C201.75 201.547 201.671 201.547 201.592 201.547C201.513 201.547 201.434 201.547 201.347 201.547C200.581 201.547 199.8 201.722 198.995 202.063C198.853 202.126 198.742 202.158 198.679 202.166C198.616 202.174 198.545 202.11 198.49 201.991L198.071 200.842C198.024 200.747 198.008 200.66 198.024 200.596C198.04 200.533 198.103 200.462 198.213 200.406C198.624 200.16 199.121 199.97 199.689 199.82C200.258 199.677 200.826 199.598 201.387 199.598C201.702 199.598 201.963 199.606 202.16 199.621C202.358 199.637 202.555 199.669 202.752 199.701C203.289 199.796 203.652 199.978 203.834 200.248C204.015 200.517 204.118 200.929 204.118 201.492V205.756C204.118 205.899 204.094 206.026 204.047 206.129C203.999 206.232 203.905 206.327 203.771 206.414C203.431 206.62 203.06 206.786 202.65 206.921C202.239 207.048 201.844 207.143 201.45 207.214C201.055 207.278 200.692 207.325 200.36 207.341C200.029 207.357 199.753 207.365 199.547 207.365C197.7 207.365 196.303 206.818 195.364 205.732C194.424 204.646 193.951 203.022 193.951 200.866C193.951 199.851 194.077 198.932 194.33 198.116C194.582 197.291 194.961 196.586 195.45 195.999C195.94 195.413 196.54 194.961 197.25 194.644C197.961 194.327 198.774 194.168 199.682 194.168C200.242 194.168 200.826 194.216 201.442 194.311C202.058 194.406 202.657 194.62 203.257 194.937C203.352 194.985 203.415 195.04 203.447 195.112C203.478 195.175 203.447 195.302 203.368 195.468L202.879 196.602C202.815 196.721 202.76 196.8 202.713 196.832C202.665 196.863 202.571 196.855 202.436 196.808C202.034 196.649 201.608 196.522 201.142 196.435C200.684 196.348 200.21 196.301 199.737 196.301C199.105 196.301 198.569 196.427 198.126 196.673C197.684 196.927 197.321 197.26 197.053 197.68C196.777 198.1 196.579 198.591 196.453 199.154C196.327 199.717 196.264 200.303 196.264 200.913C196.264 201.54 196.319 202.118 196.421 202.665C196.524 203.212 196.706 203.68 196.966 204.076C197.227 204.472 197.59 204.781 198.04 205.011C198.497 205.241 199.066 205.352 199.76 205.352Z" fill="black"/>
<path d="M8.81737 230.96C9.36204 230.96 9.86724 230.897 10.333 230.77C10.7908 230.643 11.225 230.501 11.6276 230.342C11.8012 230.271 11.9196 230.255 11.9828 230.303C12.0459 230.35 12.1012 230.422 12.1407 230.525L12.6143 231.571C12.7011 231.745 12.7327 231.864 12.709 231.927C12.6853 231.991 12.6222 232.062 12.5275 232.118C11.9038 232.482 11.2487 232.728 10.5382 232.847C9.83567 232.966 9.1568 233.029 8.49372 233.029C6.64657 233.029 5.24937 232.49 4.31001 231.42C3.37065 230.35 2.89702 228.733 2.89702 226.57C2.89702 225.555 3.03911 224.636 3.31539 223.803C3.59167 222.971 3.98636 222.266 4.48367 221.679C4.98098 221.093 5.58091 220.641 6.28346 220.316C6.98601 219.991 7.77539 219.833 8.63581 219.833C9.18048 219.833 9.74094 219.88 10.3251 219.975C10.9013 220.07 11.4855 220.284 12.0854 220.601C12.1801 220.649 12.2433 220.704 12.2749 220.776C12.3064 220.839 12.2827 220.966 12.2117 221.132L11.6986 222.194C11.6512 222.313 11.6039 222.393 11.5565 222.432C11.5092 222.472 11.4144 222.456 11.2802 222.393C10.8776 222.234 10.4672 222.107 10.0488 222.02C9.63043 221.925 9.18838 221.885 8.73054 221.885C8.12271 221.885 7.59383 222.012 7.15178 222.266C6.70972 222.519 6.34661 222.868 6.06243 223.296C5.77825 223.732 5.56512 224.231 5.42303 224.794C5.28095 225.365 5.2099 225.951 5.2099 226.562C5.2099 227.172 5.26516 227.743 5.38356 228.274C5.50197 228.805 5.69142 229.264 5.96771 229.661C6.24399 230.057 6.615 230.374 7.08073 230.604C7.54647 230.85 8.12271 230.96 8.81737 230.96Z" fill="black"/>
<path d="M25.2917 226.371C25.2917 228.496 24.826 230.136 23.8945 231.293C22.963 232.451 21.558 233.029 19.6792 233.029C17.8479 233.029 16.4743 232.474 15.5587 231.357C14.6509 230.239 14.193 228.607 14.193 226.443C14.193 225.397 14.3272 224.461 14.6035 223.645C14.8798 222.829 15.2587 222.139 15.7481 221.568C16.2375 220.998 16.8217 220.57 17.5005 220.268C18.1715 219.967 18.9214 219.825 19.7345 219.825C20.6423 219.825 21.4474 219.975 22.15 220.268C22.8446 220.57 23.4288 220.998 23.8866 221.568C24.3445 222.139 24.6997 222.829 24.9365 223.637C25.1733 224.445 25.2917 225.357 25.2917 226.371ZM22.5605 219.254C22.4973 219.317 22.4342 219.333 22.3631 219.317C22.2921 219.301 22.2131 219.27 22.1263 219.214L19.6634 217.97L17.1848 219.214C17.098 219.262 17.0269 219.294 16.9559 219.294C16.8927 219.301 16.8217 219.262 16.7664 219.175L16.4033 218.715C16.3559 218.652 16.3244 218.596 16.3165 218.549C16.3007 218.501 16.3323 218.446 16.3875 218.382L18.882 216.369C19.024 216.25 19.174 216.163 19.3082 216.123C19.4503 216.084 19.5687 216.06 19.6634 216.06C19.774 216.06 19.9003 216.076 20.0344 216.115C20.1765 216.155 20.3265 216.234 20.5002 216.369L22.9394 218.342C23.0499 218.43 23.1051 218.501 23.1051 218.572C23.1051 218.644 23.0736 218.707 23.0183 218.763L22.5605 219.254ZM22.9946 226.443C22.9946 225.832 22.9473 225.254 22.8604 224.699C22.7657 224.144 22.6078 223.653 22.371 223.225C22.1342 222.797 21.8027 222.464 21.3843 222.21C20.9659 221.957 20.4291 221.838 19.774 221.838C19.2135 221.838 18.732 221.957 18.3136 222.194C17.9031 222.432 17.5558 222.757 17.2874 223.177C17.0111 223.589 16.8138 224.073 16.6796 224.612C16.5454 225.159 16.4822 225.737 16.4822 226.356C16.4822 227.061 16.5296 227.703 16.6401 228.274C16.7427 228.844 16.9243 229.336 17.1769 229.748C17.4295 230.16 17.7689 230.469 18.1873 230.691C18.6057 230.913 19.1267 231.024 19.7424 231.024C20.3581 231.024 20.8791 230.897 21.2975 230.643C21.7158 230.39 22.0553 230.049 22.3079 229.629C22.5605 229.209 22.742 228.725 22.8446 228.179C22.9473 227.616 22.9946 227.045 22.9946 226.443Z" fill="black"/>
<path d="M29.8464 223.352V232.443C29.8464 232.617 29.8228 232.72 29.7675 232.76C29.7123 232.799 29.6017 232.823 29.4281 232.823H28.0782C27.944 232.823 27.8414 232.799 27.7704 232.752C27.6993 232.704 27.6599 232.601 27.6599 232.443V221.116C27.6599 220.728 27.7388 220.443 27.8888 220.268C28.0388 220.094 28.3151 220.007 28.7176 220.007H29.357C29.6728 220.007 29.9017 220.062 30.0517 220.181C30.1938 220.3 30.3674 220.506 30.5648 220.815L34.188 226.871L35.7352 229.502H35.8063V220.387C35.8063 220.229 35.8378 220.126 35.901 220.078C35.9641 220.031 36.0747 220.007 36.2325 220.007H37.5824C37.7402 220.007 37.8508 220.031 37.9139 220.078C37.9771 220.126 38.0086 220.229 38.0086 220.387V231.729C38.0086 232.086 37.9376 232.355 37.7876 232.546C37.6455 232.736 37.3613 232.831 36.9509 232.831H36.3115C36.1536 232.831 36.0194 232.815 35.9089 232.791C35.7984 232.768 35.7036 232.728 35.6168 232.664C35.53 232.601 35.451 232.522 35.3721 232.419C35.2932 232.316 35.2063 232.189 35.1116 232.046L31.4647 225.975L29.9333 223.359H29.8464V223.352Z" fill="black"/>
<path d="M46.1708 231.016C46.2577 231.016 46.3761 231.016 46.5339 231.008C46.6918 231 46.8655 230.992 47.047 230.968C47.2286 230.953 47.4259 230.921 47.6312 230.865C47.8364 230.818 48.0338 230.754 48.2311 230.683V227.227C48.1601 227.212 48.0811 227.212 48.0022 227.212C47.9233 227.212 47.8443 227.212 47.7575 227.212C46.9918 227.212 46.2103 227.386 45.4051 227.727C45.263 227.79 45.1525 227.822 45.0894 227.83C45.0262 227.838 44.9552 227.774 44.8999 227.655L44.4816 226.506C44.4342 226.411 44.4184 226.324 44.4342 226.26C44.45 226.197 44.5131 226.126 44.6236 226.07C45.0341 225.825 45.5314 225.634 46.0998 225.484C46.6681 225.341 47.2365 225.262 47.7969 225.262C48.1127 225.262 48.3732 225.27 48.5705 225.286C48.7679 225.301 48.9652 225.333 49.1626 225.365C49.6994 225.46 50.0625 225.642 50.244 225.912C50.4335 226.181 50.5282 226.593 50.5282 227.156V231.42C50.5282 231.563 50.5045 231.69 50.4572 231.793C50.4098 231.896 50.3151 231.991 50.1809 232.078C49.8414 232.284 49.4704 232.451 49.06 232.585C48.6495 232.72 48.2548 232.807 47.8601 232.879C47.4654 232.942 47.1023 232.99 46.7708 233.005C46.4392 233.021 46.1629 233.029 45.9577 233.029C44.1105 233.029 42.7133 232.482 41.774 231.396C40.8346 230.311 40.361 228.686 40.361 226.53C40.361 225.515 40.4873 224.596 40.7399 223.78C40.9925 222.955 41.3714 222.25 41.8608 221.663C42.3502 221.077 42.9502 220.625 43.6606 220.308C44.371 219.991 45.1841 219.833 46.0919 219.833C46.6523 219.833 47.2365 219.88 47.8522 219.975C48.4679 220.07 49.0679 220.284 49.6678 220.601C49.7625 220.649 49.8257 220.704 49.8572 220.776C49.8888 220.839 49.8572 220.966 49.7783 221.132L49.2889 222.266C49.2257 222.385 49.1705 222.464 49.1231 222.496C49.0757 222.527 48.981 222.519 48.8468 222.472C48.4442 222.313 48.018 222.187 47.5522 222.099C47.0944 222.012 46.6208 221.965 46.1471 221.965C45.5156 221.965 44.9789 222.091 44.5368 222.337C44.0948 222.591 43.7316 222.924 43.4633 223.344C43.187 223.764 42.9896 224.255 42.8633 224.818C42.737 225.381 42.6739 225.967 42.6739 226.577C42.6739 227.204 42.7291 227.782 42.8317 228.329C42.9344 228.876 43.1159 229.344 43.3764 229.74C43.6369 230.136 44 230.445 44.45 230.675C44.9078 230.905 45.4841 231.016 46.1708 231.016Z" fill="black"/>
<path d="M60.2455 223.352V232.443C60.2455 232.617 60.2218 232.72 60.1665 232.76C60.1113 232.799 60.0008 232.823 59.8271 232.823H58.4773C58.3431 232.823 58.2404 232.799 58.1694 232.752C58.0984 232.704 58.0589 232.601 58.0589 232.443V221.116C58.0589 220.728 58.1378 220.443 58.2878 220.268C58.4378 220.094 58.7141 220.007 59.1166 220.007H59.756C60.0718 220.007 60.3007 220.062 60.4507 220.181C60.5928 220.3 60.7665 220.506 60.9638 220.815L64.5871 226.871L66.1342 229.502H66.2053V220.387C66.2053 220.229 66.2369 220.126 66.3 220.078C66.3632 220.031 66.4737 220.007 66.6315 220.007H67.9814C68.1393 220.007 68.2498 220.031 68.3129 220.078C68.3761 220.126 68.4077 220.229 68.4077 220.387V231.729C68.4077 232.086 68.3366 232.355 68.1866 232.546C68.0445 232.736 67.7604 232.831 67.3499 232.831H66.7105C66.5526 232.831 66.4184 232.815 66.3079 232.791C66.1974 232.768 66.1027 232.728 66.0158 232.664C65.929 232.601 65.8501 232.522 65.7711 232.419C65.6922 232.316 65.6054 232.189 65.5106 232.046L61.8637 225.975L60.3323 223.359H60.2455V223.352Z" fill="black"/>
<path d="M76.5698 231.016C76.6567 231.016 76.7751 231.016 76.933 231.008C77.0908 231 77.2645 230.992 77.4461 230.968C77.6276 230.953 77.825 230.921 78.0302 230.865C78.2354 230.818 78.4328 230.754 78.6301 230.683V227.227C78.5591 227.212 78.4801 227.212 78.4012 227.212C78.3223 227.212 78.2433 227.212 78.1565 227.212C77.3908 227.212 76.6093 227.386 75.8041 227.727C75.6621 227.79 75.5515 227.822 75.4884 227.83C75.4252 227.838 75.3542 227.774 75.2989 227.655L74.8806 226.506C74.8332 226.411 74.8174 226.324 74.8332 226.26C74.849 226.197 74.9121 226.126 75.0227 226.07C75.4331 225.825 75.9305 225.634 76.4988 225.484C77.0672 225.341 77.6355 225.262 78.196 225.262C78.5117 225.262 78.7722 225.27 78.9696 225.286C79.1669 225.301 79.3643 225.333 79.5616 225.365C80.0984 225.46 80.4615 225.642 80.643 225.912C80.8246 226.181 80.9272 226.593 80.9272 227.156V231.42C80.9272 231.563 80.9035 231.69 80.8562 231.793C80.8088 231.896 80.7141 231.991 80.5799 232.078C80.2405 232.284 79.8695 232.451 79.459 232.585C79.0485 232.72 78.6538 232.807 78.2591 232.879C77.8644 232.942 77.5013 232.99 77.1698 233.005C76.8382 233.021 76.562 233.029 76.3567 233.029C74.5096 233.029 73.1124 232.482 72.173 231.396C71.2336 230.311 70.76 228.686 70.76 226.53C70.76 225.515 70.8863 224.596 71.1389 223.78C71.3915 222.955 71.7704 222.25 72.2598 221.663C72.7492 221.077 73.3492 220.625 74.0596 220.308C74.7701 219.991 75.5831 219.833 76.4909 219.833C77.0514 219.833 77.6355 219.88 78.2512 219.975C78.8669 220.07 79.4669 220.284 80.0668 220.601C80.1615 220.649 80.2247 220.704 80.2562 220.776C80.2878 220.839 80.2563 220.966 80.1773 221.132L79.6879 222.266C79.6247 222.385 79.5695 222.464 79.5221 222.496C79.4748 222.527 79.38 222.519 79.2458 222.472C78.8433 222.313 78.417 222.187 77.9513 222.099C77.4934 222.012 77.0198 221.965 76.5462 221.965C75.9147 221.965 75.3779 222.091 74.9358 222.337C74.4938 222.591 74.1307 222.924 73.8623 223.344C73.586 223.764 73.3886 224.255 73.2623 224.818C73.136 225.381 73.0729 225.967 73.0729 226.577C73.0729 227.204 73.1281 227.782 73.2308 228.329C73.3334 228.876 73.5149 229.344 73.7754 229.74C74.0359 230.136 74.3991 230.445 74.849 230.675C75.2989 230.905 75.8752 231.016 76.5698 231.016Z" fill="black"/>
<path d="M93.3994 232.768C93.3442 232.807 93.2336 232.831 93.06 232.831H91.6786C91.5365 232.831 91.426 232.807 91.3628 232.76C91.2997 232.712 91.2602 232.609 91.2602 232.451V227.069H85.5925V232.451C85.5925 232.625 85.5609 232.728 85.5056 232.768C85.4425 232.807 85.332 232.831 85.1583 232.831H83.7769C83.6427 232.831 83.5401 232.807 83.469 232.76C83.398 232.712 83.3585 232.609 83.3585 232.451V220.411C83.3585 220.253 83.398 220.15 83.469 220.102C83.5401 220.054 83.6427 220.031 83.7769 220.031H85.1583C85.332 220.031 85.4425 220.054 85.5056 220.094C85.5688 220.134 85.5925 220.245 85.5925 220.411V225.151H91.2602V220.411C91.2602 220.253 91.2918 220.15 91.3628 220.102C91.426 220.054 91.5365 220.031 91.6786 220.031H93.06C93.2336 220.031 93.3442 220.054 93.3994 220.094C93.4547 220.134 93.4784 220.245 93.4784 220.411V232.451C93.4784 232.617 93.4547 232.72 93.3994 232.768Z" fill="black"/>
<path d="M105.035 232.403C105.035 232.538 105.011 232.641 104.964 232.72C104.916 232.791 104.814 232.831 104.656 232.831H99.4619C98.8146 232.831 98.2857 232.736 97.8752 232.554C97.4647 232.371 97.1332 232.126 96.8806 231.824C96.628 231.523 96.4622 231.174 96.3596 230.778C96.2649 230.39 96.2175 229.978 96.2175 229.55V223.296C96.2175 222.868 96.2728 222.456 96.3912 222.06C96.5096 221.663 96.699 221.315 96.9595 221.006C97.22 220.696 97.5594 220.459 97.9699 220.276C98.3804 220.094 98.8777 219.999 99.4619 219.999H104.545C104.703 219.999 104.806 220.031 104.845 220.102C104.885 220.165 104.909 220.276 104.909 220.419V221.568C104.909 221.727 104.885 221.83 104.845 221.885C104.806 221.941 104.703 221.965 104.545 221.965H99.6987C99.2329 221.965 98.9093 222.068 98.7198 222.274C98.5304 222.48 98.4357 222.781 98.4357 223.169V225.087H103.938C104.096 225.087 104.198 225.119 104.238 225.175C104.277 225.238 104.301 225.349 104.301 225.523V226.53C104.301 226.673 104.277 226.784 104.238 226.847C104.198 226.91 104.096 226.95 103.938 226.95H98.4357V229.605C98.4357 229.994 98.5383 230.287 98.7356 230.485C98.933 230.683 99.2566 230.786 99.6908 230.786H104.648C104.822 230.786 104.924 230.818 104.964 230.881C105.003 230.945 105.027 231.056 105.027 231.23V232.403H105.035ZM103.811 219.254C103.748 219.317 103.685 219.333 103.614 219.317C103.543 219.301 103.464 219.27 103.377 219.214L100.914 217.97L98.4357 219.214C98.3488 219.262 98.2778 219.294 98.2067 219.294C98.1436 219.301 98.0725 219.262 98.0173 219.175L97.6542 218.715C97.6068 218.652 97.5752 218.596 97.5673 218.549C97.5516 218.501 97.5831 218.446 97.6384 218.382L100.133 216.369C100.275 216.25 100.425 216.163 100.559 216.123C100.701 216.084 100.82 216.06 100.914 216.06C101.025 216.06 101.151 216.076 101.285 216.115C101.427 216.155 101.577 216.234 101.751 216.369L104.19 218.342C104.301 218.43 104.356 218.501 104.356 218.572C104.356 218.644 104.324 218.707 104.269 218.763L103.811 219.254ZM101.569 235.169C101.569 235.526 101.443 235.819 101.191 236.065C100.938 236.31 100.63 236.429 100.283 236.429C99.9355 236.429 99.6276 236.31 99.3829 236.065C99.1303 235.819 99.0119 235.526 99.0119 235.169C99.0119 234.812 99.1382 234.511 99.3829 234.266C99.6276 234.02 99.9355 233.893 100.283 233.893C100.63 233.893 100.938 234.02 101.191 234.266C101.443 234.519 101.569 234.82 101.569 235.169Z" fill="black"/>
<path d="M111.974 223.296C111.974 222.781 112.06 222.313 112.226 221.885C112.392 221.457 112.652 221.093 112.992 220.776C113.331 220.467 113.758 220.221 114.279 220.054C114.792 219.888 115.399 219.801 116.094 219.801C116.426 219.801 116.765 219.817 117.112 219.856C117.468 219.896 117.815 219.943 118.17 219.999C118.525 220.062 118.865 220.142 119.188 220.237C119.52 220.332 119.82 220.443 120.096 220.57C120.191 220.633 120.254 220.688 120.278 220.736C120.301 220.784 120.294 220.871 120.238 220.99L119.804 222.234C119.757 222.369 119.709 222.44 119.67 222.456C119.631 222.472 119.559 222.464 119.457 222.44C118.849 222.234 118.257 222.076 117.673 221.972C117.089 221.869 116.552 221.814 116.055 221.814C115.423 221.814 114.965 221.949 114.681 222.21C114.397 222.472 114.255 222.781 114.255 223.138C114.255 223.359 114.302 223.558 114.413 223.732C114.515 223.906 114.681 224.081 114.91 224.247C115.139 224.414 115.431 224.58 115.778 224.739C116.126 224.905 116.544 225.079 117.041 225.278C117.562 225.499 118.06 225.721 118.533 225.943C119.007 226.173 119.425 226.435 119.788 226.736C120.152 227.045 120.444 227.402 120.657 227.806C120.87 228.21 120.972 228.709 120.972 229.296C120.972 229.93 120.854 230.485 120.617 230.953C120.38 231.42 120.057 231.808 119.654 232.118C119.244 232.419 118.762 232.649 118.21 232.807C117.649 232.958 117.049 233.037 116.402 233.037C115.636 233.037 114.831 232.966 113.994 232.815C113.158 232.672 112.376 232.403 111.658 232.007C111.484 231.935 111.453 231.785 111.547 231.571L112.092 230.326C112.179 230.144 112.313 230.089 112.495 230.16C113.079 230.406 113.679 230.612 114.31 230.77C114.934 230.937 115.542 231.016 116.126 231.016C117.049 231.016 117.704 230.857 118.083 230.54C118.462 230.223 118.66 229.827 118.66 229.351C118.66 229.098 118.612 228.868 118.517 228.678C118.423 228.48 118.265 228.305 118.06 228.139C117.854 227.972 117.594 227.814 117.278 227.663C116.962 227.513 116.584 227.346 116.149 227.18C115.494 226.926 114.902 226.665 114.381 226.411C113.86 226.157 113.418 225.88 113.071 225.579C112.716 225.278 112.447 224.945 112.258 224.572C112.068 224.2 111.974 223.772 111.974 223.296Z" fill="black"/>
<path d="M133.626 226.371C133.626 228.496 133.16 230.136 132.229 231.293C131.298 232.451 129.892 233.029 128.014 233.029C126.182 233.029 124.809 232.474 123.893 231.357C122.985 230.239 122.528 228.607 122.528 226.443C122.528 225.397 122.662 224.461 122.938 223.645C123.214 222.829 123.593 222.139 124.083 221.568C124.572 220.998 125.156 220.57 125.835 220.268C126.506 219.967 127.256 219.825 128.069 219.825C128.977 219.825 129.782 219.975 130.484 220.268C131.179 220.57 131.763 220.998 132.221 221.568C132.679 222.139 133.034 222.829 133.271 223.637C133.5 224.445 133.626 225.357 133.626 226.371ZM130.887 219.254C130.824 219.317 130.761 219.333 130.69 219.317C130.619 219.302 130.54 219.27 130.453 219.214L127.99 217.97L125.511 219.214C125.425 219.262 125.354 219.294 125.282 219.294C125.219 219.302 125.148 219.262 125.093 219.175L124.73 218.715C124.683 218.652 124.651 218.596 124.643 218.549C124.627 218.501 124.659 218.446 124.714 218.382L127.209 216.369C127.351 216.25 127.501 216.163 127.635 216.123C127.777 216.084 127.895 216.06 127.99 216.06C128.101 216.06 128.227 216.076 128.361 216.115C128.503 216.155 128.653 216.234 128.827 216.369L131.266 218.343C131.376 218.43 131.432 218.501 131.432 218.572C131.432 218.644 131.4 218.707 131.345 218.763L130.887 219.254ZM131.329 226.443C131.329 225.832 131.282 225.254 131.195 224.699C131.108 224.144 130.942 223.653 130.706 223.225C130.469 222.797 130.137 222.464 129.719 222.21C129.3 221.957 128.764 221.838 128.108 221.838C127.548 221.838 127.066 221.957 126.648 222.194C126.238 222.432 125.89 222.757 125.622 223.177C125.346 223.589 125.148 224.073 125.014 224.612C124.88 225.159 124.817 225.737 124.817 226.356C124.817 227.061 124.864 227.703 124.975 228.274C125.077 228.844 125.259 229.336 125.511 229.748C125.764 230.16 126.103 230.469 126.522 230.691C126.94 230.913 127.461 231.024 128.077 231.024C128.693 231.024 129.214 230.897 129.632 230.643C130.05 230.39 130.39 230.049 130.642 229.629C130.895 229.209 131.077 228.725 131.179 228.179C131.282 227.632 131.329 227.045 131.329 226.443ZM130.035 215.981C129.971 215.909 129.94 215.846 129.94 215.806C129.94 215.767 129.987 215.703 130.082 215.616L132.813 213.516C132.9 213.452 132.971 213.421 133.034 213.413C133.097 213.405 133.16 213.452 133.232 213.547L134.234 214.808C134.352 214.95 134.345 215.061 134.195 215.14L130.879 216.749C130.808 216.789 130.745 216.805 130.698 216.805C130.65 216.805 130.595 216.765 130.532 216.694L130.035 215.981Z" fill="black"/>
<path d="M145.593 230.453H145.704L146.54 227.584L148.924 220.268C148.964 220.149 149.011 220.07 149.082 220.046C149.145 220.023 149.24 220.007 149.366 220.007H151.095C151.19 220.007 151.253 220.031 151.269 220.086C151.285 220.142 151.285 220.205 151.261 220.276L147.235 231.983C147.125 232.316 146.998 232.53 146.84 232.641C146.69 232.752 146.469 232.815 146.177 232.823H145.191C144.875 232.823 144.638 232.775 144.472 232.664C144.307 232.561 144.157 232.332 144.022 231.975L140.012 220.268C139.989 220.197 139.989 220.134 140.012 220.078C140.036 220.023 140.099 219.999 140.194 219.999H141.946C142.08 219.999 142.175 220.023 142.23 220.062C142.286 220.102 142.325 220.173 142.349 220.276L144.685 227.536L145.593 230.453Z" fill="black"/>
<path d="M155.287 232.768C155.224 232.807 155.113 232.831 154.939 232.831H153.558C153.416 232.831 153.305 232.807 153.242 232.76C153.179 232.712 153.14 232.609 153.14 232.451V220.411C153.14 220.253 153.171 220.15 153.242 220.102C153.305 220.054 153.416 220.031 153.558 220.031H154.939C155.113 220.031 155.224 220.054 155.287 220.094C155.35 220.134 155.382 220.245 155.382 220.411V232.451C155.382 232.617 155.35 232.72 155.287 232.768Z" fill="black"/>
<path d="M167.135 232.403C167.135 232.538 167.112 232.641 167.064 232.72C167.017 232.791 166.914 232.831 166.756 232.831H161.562C160.915 232.831 160.386 232.736 159.976 232.554C159.565 232.371 159.234 232.126 158.981 231.824C158.728 231.523 158.563 231.174 158.46 230.778C158.365 230.39 158.318 229.978 158.318 229.55V223.296C158.318 222.868 158.373 222.456 158.492 222.06C158.61 221.663 158.8 221.315 159.06 221.006C159.321 220.696 159.66 220.459 160.07 220.276C160.481 220.094 160.978 219.999 161.562 219.999H166.646C166.804 219.999 166.906 220.031 166.946 220.102C166.985 220.165 167.009 220.276 167.009 220.419V221.568C167.009 221.727 166.985 221.83 166.946 221.885C166.906 221.941 166.804 221.965 166.646 221.965H161.799C161.333 221.965 161.01 222.068 160.82 222.274C160.631 222.48 160.536 222.781 160.536 223.169V225.087H166.038C166.196 225.087 166.299 225.119 166.338 225.175C166.378 225.238 166.401 225.349 166.401 225.523V226.53C166.401 226.673 166.378 226.784 166.338 226.847C166.299 226.91 166.196 226.95 166.038 226.95H160.536V229.605C160.536 229.994 160.639 230.287 160.836 230.485C161.033 230.683 161.357 230.786 161.791 230.786H166.749C166.922 230.786 167.025 230.818 167.064 230.881C167.104 230.945 167.127 231.056 167.127 231.23V232.403H167.135ZM165.912 219.254C165.849 219.317 165.786 219.333 165.714 219.317C165.643 219.301 165.565 219.27 165.478 219.214L163.015 217.97L160.536 219.214C160.449 219.262 160.378 219.294 160.307 219.294C160.244 219.301 160.173 219.262 160.118 219.175L159.755 218.715C159.707 218.652 159.676 218.596 159.668 218.549C159.652 218.501 159.684 218.446 159.739 218.382L162.233 216.369C162.375 216.25 162.525 216.163 162.66 216.123C162.802 216.084 162.92 216.06 163.015 216.06C163.125 216.06 163.252 216.076 163.386 216.115C163.528 216.155 163.678 216.234 163.852 216.369L166.291 218.342C166.401 218.43 166.456 218.501 166.456 218.572C166.456 218.644 166.425 218.707 166.37 218.763L165.912 219.254ZM163.67 235.169C163.67 235.526 163.544 235.819 163.291 236.065C163.038 236.31 162.731 236.429 162.383 236.429C162.036 236.429 161.728 236.31 161.483 236.065C161.231 235.819 161.112 235.526 161.112 235.169C161.112 234.812 161.239 234.511 161.483 234.266C161.736 234.012 162.036 233.893 162.383 233.893C162.731 233.893 163.038 234.02 163.291 234.266C163.544 234.519 163.67 234.82 163.67 235.169Z" fill="black"/>
<path d="M177.784 221.885C177.745 221.933 177.65 221.957 177.516 221.957H174.05V232.443C174.05 232.617 174.027 232.72 173.971 232.76C173.916 232.799 173.806 232.823 173.632 232.823H172.211C172.069 232.823 171.959 232.799 171.895 232.752C171.832 232.704 171.793 232.601 171.793 232.443V221.957H168.406C168.272 221.957 168.185 221.933 168.154 221.885C168.114 221.838 168.098 221.751 168.098 221.632V220.371C168.098 220.237 168.114 220.15 168.154 220.094C168.193 220.046 168.272 220.023 168.406 220.023H177.516C177.65 220.023 177.737 220.046 177.784 220.094C177.824 220.142 177.847 220.237 177.847 220.371V221.632C177.847 221.758 177.824 221.838 177.784 221.885Z" fill="black"/>
<path d="M186.744 223.352V232.443C186.744 232.617 186.72 232.72 186.665 232.76C186.609 232.799 186.499 232.823 186.325 232.823H184.975C184.841 232.823 184.739 232.799 184.668 232.752C184.596 232.704 184.557 232.601 184.557 232.443V221.116C184.557 220.728 184.636 220.443 184.786 220.268C184.936 220.094 185.212 220.007 185.615 220.007H186.254C186.57 220.007 186.799 220.062 186.949 220.181C187.091 220.3 187.265 220.506 187.462 220.815L191.085 226.871L192.632 229.502H192.703V220.387C192.703 220.229 192.735 220.126 192.798 220.078C192.861 220.031 192.972 220.007 193.13 220.007H194.48C194.637 220.007 194.748 220.031 194.811 220.078C194.874 220.126 194.906 220.229 194.906 220.387V231.729C194.906 232.086 194.835 232.355 194.685 232.546C194.543 232.736 194.258 232.831 193.848 232.831H193.209C193.051 232.831 192.917 232.815 192.806 232.791C192.696 232.768 192.601 232.728 192.514 232.664C192.427 232.601 192.348 232.522 192.269 232.419C192.19 232.316 192.103 232.189 192.009 232.046L188.362 225.975L186.83 223.359H186.744V223.352Z" fill="black"/>
<path d="M204.378 230.033H199.753L198.947 232.522C198.908 232.633 198.861 232.712 198.79 232.76C198.726 232.807 198.616 232.831 198.474 232.831H196.8C196.666 232.831 196.579 232.791 196.548 232.712C196.508 232.633 196.508 232.546 196.548 232.443L200.487 220.863C200.55 220.681 200.605 220.53 200.668 220.427C200.731 220.324 200.802 220.229 200.897 220.173C200.984 220.11 201.094 220.07 201.213 220.039C201.331 220.007 201.481 219.991 201.647 219.991H202.429C202.807 219.991 203.076 220.046 203.234 220.165C203.392 220.284 203.534 220.514 203.652 220.871L207.607 232.45C207.646 232.546 207.646 232.633 207.615 232.72C207.583 232.799 207.504 232.839 207.37 232.839H205.697C205.562 232.839 205.46 232.823 205.381 232.791C205.302 232.76 205.239 232.68 205.191 232.546L204.378 230.033ZM200.297 228.131H203.794L202.847 225.056L202.081 222.456H201.994L201.244 225L200.297 228.131Z" fill="black"/>
<path d="M219.684 223.994H219.574L218.611 226.482L216.993 230.525C216.858 230.842 216.732 231.056 216.598 231.167C216.472 231.277 216.258 231.333 215.951 231.333H215.13C214.822 231.333 214.609 231.277 214.482 231.167C214.356 231.056 214.23 230.842 214.111 230.525L212.509 226.665L211.522 224.216H211.412V232.45C211.412 232.625 211.38 232.728 211.317 232.768C211.254 232.807 211.143 232.831 210.985 232.831H209.675C209.541 232.831 209.438 232.807 209.367 232.768C209.296 232.728 209.257 232.617 209.257 232.45V221.124C209.257 220.744 209.328 220.467 209.478 220.284C209.62 220.102 209.904 220.007 210.314 220.007H211.064C211.38 220.007 211.617 220.062 211.775 220.173C211.933 220.284 212.083 220.506 212.209 220.831L214.38 226.189L215.509 229.027H215.58L216.708 226.173L218.856 220.831C218.99 220.498 219.14 220.284 219.313 220.173C219.487 220.062 219.724 220.007 220.04 220.007H220.734C221.121 220.007 221.397 220.094 221.555 220.26C221.713 220.435 221.792 220.704 221.792 221.085V232.45C221.792 232.625 221.76 232.728 221.697 232.768C221.634 232.807 221.524 232.831 221.366 232.831H220.071C219.937 232.831 219.834 232.807 219.771 232.768C219.708 232.728 219.669 232.617 219.669 232.45V223.994H219.684Z" fill="black"/>
<path d="M36.3667 58.1998V66.6567H14.0667C12.9932 66.6567 12.2354 66.8707 11.8091 67.3067C11.375 67.7426 11.1618 68.4956 11.1618 69.5735V75.6051H36.6272V83.6895H11.1539V90.3472C11.1539 91.4252 11.3671 92.186 11.8012 92.614C12.2354 93.05 12.9853 93.264 14.0589 93.264H36.6114V101.721H6.56764C2.18658 101.721 0 99.5016 0 95.0631V64.9131C0 60.4349 2.18658 58.1919 6.56764 58.1919H36.3667V58.1998Z" fill="#231F20"/>
<path d="M128.558 101.745H110.04C103.101 101.745 98.2541 99.9376 95.515 96.3313C92.7679 92.725 91.3944 87.272 91.3944 79.9723C91.3944 72.6725 92.7679 67.2195 95.515 63.6132C98.262 60.0069 103.101 58.1998 110.04 58.1998H127.943V66.9104H115.549C110.553 66.9104 107.174 67.7822 105.422 69.5259C103.669 71.2696 102.785 74.7491 102.785 79.9802C102.785 85.2113 103.661 88.6907 105.422 90.4344C107.174 92.1781 110.553 93.05 115.549 93.05H128.558V101.745Z" fill="#231F20"/>
<path d="M169.764 58.1998V66.6567H147.456C146.383 66.6567 145.625 66.8707 145.199 67.3067C144.764 67.7426 144.551 68.4956 144.551 69.5735V75.6051H169.211V83.6895H144.551V90.3472C144.551 91.4252 144.764 92.186 145.199 92.614C145.633 93.05 146.383 93.264 147.456 93.264H170.009V101.721H139.957C135.576 101.721 133.389 99.5016 133.389 95.0631V64.9131C133.389 60.4349 135.576 58.1919 139.957 58.1919H169.764V58.1998Z" fill="#231F20"/>
<path d="M211.956 101.745H182.157C177.776 101.745 175.59 99.5254 175.59 95.0869V58.1998H186.744V90.1095C186.744 91.1874 186.957 91.9483 187.391 92.3763C187.825 92.8122 188.575 93.0262 189.649 93.0262H211.956V101.745Z" fill="#231F20"/>
<path d="M251.725 101.745H221.926C217.545 101.745 215.359 99.5254 215.359 95.0869V58.1998H226.513V90.1095C226.513 91.1874 226.726 91.9483 227.16 92.3763C227.594 92.8122 228.344 93.0262 229.417 93.0262H251.725V101.745Z" fill="#231F20"/>
<path d="M291.502 58.1998V66.6567H269.194C268.121 66.6567 267.363 66.8707 266.937 67.3067C266.503 67.7426 266.289 68.4956 266.289 69.5735V75.6051H290.95V83.6895H266.289V90.3472C266.289 91.4252 266.503 92.186 266.937 92.614C267.371 93.05 268.121 93.264 269.194 93.264H291.747V101.721H261.695C257.314 101.721 255.128 99.5016 255.128 95.0631V64.9131C255.128 60.4349 257.314 58.1919 261.695 58.1919H291.502V58.1998Z" fill="#231F20"/>
<path d="M341.746 58.1999V95.2772C341.746 97.1398 341.138 98.7725 339.915 100.16C338.699 101.547 336.663 102.244 333.813 102.244C330.056 102.244 327.308 100.92 325.572 98.2653L308.655 72.6963C308.198 71.9909 307.811 71.6422 307.479 71.6422C306.982 71.6422 306.737 72.0543 306.737 72.8866V101.753H297.32V64.5406C297.32 62.2579 298.07 60.5459 299.585 59.4046C301.093 58.2633 303.067 57.6926 305.498 57.6926C309.176 57.6926 311.837 58.937 313.494 61.4257L330.529 87.2404C330.569 87.28 330.64 87.3989 330.742 87.5812C330.845 87.7714 330.924 87.8903 330.987 87.9537C331.05 88.0171 331.145 88.0884 331.263 88.1677C331.39 88.2549 331.508 88.2945 331.634 88.2945C332.092 88.2945 332.313 87.9458 332.313 87.2404V58.1999H341.746Z" fill="#231F20"/>
<path d="M384.499 101.745H365.972C359.034 101.745 354.187 99.9376 351.44 96.3313C348.693 92.725 347.319 87.272 347.319 79.9723C347.319 72.6725 348.693 67.2195 351.44 63.6132C354.187 60.0069 359.034 58.1998 365.972 58.1998H383.875V66.9104H371.482C366.485 66.9104 363.107 67.7822 361.354 69.5259C359.602 71.2696 358.718 74.7491 358.718 79.9802C358.718 85.2113 359.594 88.6907 361.354 90.4344C363.107 92.1781 366.485 93.05 371.482 93.05H384.491V101.745H384.499Z" fill="#231F20"/>
<path d="M425.697 58.1998V66.6567H403.389C402.315 66.6567 401.558 66.8707 401.131 67.3067C400.697 67.7426 400.484 68.4956 400.484 69.5735V75.6051H425.144V83.6895H400.484V90.3472C400.484 91.4252 400.697 92.186 401.131 92.614C401.565 93.05 402.315 93.264 403.389 93.264H425.941V101.721H395.89C391.509 101.721 389.322 99.5016 389.322 95.0631V64.9131C389.322 60.4349 391.509 58.1919 395.89 58.1919H425.697V58.1998Z" fill="#231F20"/>
<path d="M42.7528 7.65637H39.6742C38.4507 7.65637 37.4561 8.65503 37.4561 9.88355V32.7815C37.4561 34.01 38.4507 35.0086 39.6742 35.0086H42.7528C43.9763 35.0086 44.971 34.01 44.971 32.7815V9.88355C44.971 8.65503 43.9842 7.65637 42.7528 7.65637Z" fill="#EA0033"/>
<path d="M31.6857 7.65637C29.7438 7.65637 28.1177 8.82148 27.3283 10.4938L19.1504 27.9308C18.9609 28.3429 18.5741 29.0166 18.2505 29.0166C17.9268 29.0166 17.54 28.3429 17.3506 27.9308L9.11734 10.4938C8.32796 8.82148 6.70184 7.65637 4.75996 7.65637H0L12.9774 32.8924C14.2641 35.3732 16.9006 35.3177 18.2505 35.3177C20.1134 35.3177 22.3 35.2147 23.4525 32.8924L36.4299 7.65637H31.6857Z" fill="#EA0033"/>
<path d="M175.077 3.46363C175.077 2.23511 174.082 1.23645 172.858 1.23645H169.78C168.556 1.23645 167.562 2.23511 167.562 3.46363V26.0762C167.562 29.5319 168.785 31.5451 170.964 32.9876C173.087 34.3825 175.526 35.0007 180.089 35.0007H182.56C183.783 35.0007 184.778 34.0021 184.778 32.7736V30.3562H182.915C181.565 30.3562 178.739 30.3007 177.066 29.1673C174.879 27.7248 175.077 25.1409 175.077 23.2863V3.46363Z" fill="#EA0033"/>
<path d="M126.956 30.3641C125.606 30.3641 122.78 30.3086 121.107 29.1752C118.92 27.7327 119.117 25.1489 119.117 23.2942V12.301H126.403C127.627 12.301 128.622 11.3023 128.622 10.0738V7.65642H119.117V3.46363C119.117 2.23511 118.123 1.23645 116.899 1.23645H113.821C112.597 1.23645 111.603 2.23511 111.603 3.46363V7.65642H95.9254V3.46363C95.9254 2.23511 94.9308 1.23645 93.7073 1.23645H90.6287C89.4052 1.23645 88.4105 2.23511 88.4105 3.46363V7.65642H83.7216V10.0738C83.7216 11.3023 84.7162 12.301 85.9398 12.301H88.4105V26.0762C88.4105 29.5319 89.6262 31.5451 91.8128 32.9876C93.9362 34.3825 96.3754 35.0007 100.938 35.0007H103.409C104.632 35.0007 105.627 34.0021 105.627 32.7736V30.3562H103.764C102.414 30.3562 99.5882 30.3007 97.9147 29.1673C95.7281 27.7248 95.9254 25.1409 95.9254 23.2863V12.301H111.603V26.0762C111.603 29.5319 112.826 31.5451 115.005 32.9876C117.128 34.3825 119.567 35.0007 124.13 35.0007H126.601C127.824 35.0007 128.819 34.0021 128.819 32.7736V30.3562H126.956V30.3641Z" fill="#EA0033"/>
<path d="M80.9509 32.7815V30.3641H64.3108C61.5479 30.3641 58.3983 30.055 57.4353 27.1145C57.1748 26.2902 56.9853 24.5306 56.9853 23.3497H76.7751C78.1249 23.3497 79.4116 23.1436 80.4378 22.3193C81.8508 21.1859 82.0481 19.5849 82.0481 18.1899C82.0481 14.7342 81.2114 11.3261 77.225 9.3129C74.0754 7.71187 69.9627 7.56128 65.9843 7.56128C62.7715 7.56128 56.9932 7.56128 53.2674 10.1451C49.5415 12.729 49.2178 16.4938 49.2178 21.598C49.2178 25.2122 49.4073 28.977 51.657 31.5609C54.483 34.7629 58.5957 35.0166 62.061 35.0166H78.7327C79.9563 35.0086 80.9509 34.01 80.9509 32.7815ZM74.2727 17.0961C74.2727 17.8174 74.0833 18.6972 72.5993 18.6972H61.9111C59.1956 18.6972 56.9932 19.9415 56.9932 21.4871V18.6972C57.0564 16.8901 56.9932 15.3921 58.5325 14.005C60.5928 12.1504 63.6714 12.1979 65.6685 12.1979C67.7919 12.1979 70.2311 12.301 72.0941 13.4344C73.1755 14.1081 74.2727 15.3921 74.2727 17.0961Z" fill="#EA0033"/>
<path d="M162.225 32.7815V30.3641H145.585C142.822 30.3641 139.673 30.055 138.71 27.1145C138.449 26.2902 138.26 24.5306 138.26 23.3497H158.05C159.399 23.3497 160.686 23.1436 161.712 22.3193C163.125 21.1859 163.315 19.5849 163.315 18.1899C163.315 14.7342 162.478 11.3261 158.5 9.3129C155.35 7.71187 151.237 7.56128 147.259 7.56128C144.046 7.56128 138.268 7.56128 134.542 10.1451C130.816 12.729 130.492 16.4938 130.492 21.598C130.492 25.2122 130.682 28.977 132.932 31.5609C135.758 34.7629 139.87 35.0166 143.343 35.0166H160.015C161.231 35.0086 162.225 34.01 162.225 32.7815ZM155.547 17.0961C155.547 17.8174 155.358 18.6972 153.874 18.6972H143.186C140.47 18.6972 138.268 19.9415 138.268 21.4871V18.6972C138.331 16.8901 138.268 15.3921 139.807 14.005C141.867 12.1504 144.946 12.1979 146.943 12.1979C149.066 12.1979 151.506 12.301 153.369 13.4344C154.45 14.1081 155.547 15.3921 155.547 17.0961Z" fill="#EA0033"/>
<path d="M42.7528 0H39.6742C38.4507 0 37.4561 0.998662 37.4561 2.22718V2.8454V7.97345C37.4561 6.62605 38.9559 5.07257 41.2135 5.07257H42.7528C43.9763 5.07257 44.971 4.07391 44.971 2.8454V2.22718C44.971 0.998662 43.9842 0 42.7528 0Z" fill="#EA0033"/>
<path d="M2.42332 159.112V150.14H27.1862C28.1255 150.14 28.8439 149.934 29.357 149.53C29.8701 149.126 30.1621 148.737 30.249 148.373C30.3358 148.008 30.3753 147.572 30.3753 147.057C30.3753 145.345 29.2228 144.132 26.9257 143.403L9.43301 138.148C6.67018 137.34 4.72041 135.881 3.5916 133.789C2.46279 131.697 1.90233 128.962 1.90233 125.586C1.90233 118.024 5.35192 114.244 12.2432 114.244H39.8162V123.216H16.719C14.635 123.216 13.593 124.199 13.593 126.164C13.593 127.956 14.785 129.216 17.1689 129.945L32.8697 134.558C36.2325 135.541 38.6164 136.975 40.0215 138.854C41.4266 140.732 42.1291 143.514 42.1291 147.184C42.1291 155.133 38.7269 159.104 31.9146 159.104H2.42332V159.112Z" stroke="#231F20" stroke-miterlimit="10"/>
<path d="M83.9347 159.112H64.8475C57.6957 159.112 52.7068 157.258 49.8808 153.54C47.047 149.823 45.634 144.204 45.634 136.682C45.634 129.16 47.047 123.541 49.8808 119.832C52.7147 116.114 57.7036 114.26 64.8475 114.26H83.2953V123.232H70.531C65.3843 123.232 61.9031 124.127 60.0954 125.927C58.2877 127.718 57.3799 131.308 57.3799 136.69C57.3799 142.072 58.2877 145.662 60.0954 147.453C61.9031 149.245 65.3843 150.148 70.531 150.148H83.9347V159.112Z" stroke="#231F20" stroke-miterlimit="10"/>
<path d="M131.479 114.252V159.112H119.994V140.399H100.401V159.112H88.9157V114.252H100.401V131.427H119.994V114.252H131.479Z" stroke="#231F20" stroke-miterlimit="10"/>
<path d="M149.801 114.704C152.65 114.062 156.376 113.745 160.97 113.745C165.564 113.745 169.29 114.062 172.14 114.704C174.99 115.346 177.405 116.519 179.386 118.231C181.368 119.943 182.749 122.265 183.539 125.213C184.328 128.162 184.723 131.982 184.723 136.682C184.723 141.382 184.328 145.21 183.539 148.151C182.749 151.099 181.368 153.437 179.386 155.165C177.405 156.893 174.99 158.074 172.14 158.692C169.29 159.31 165.564 159.62 160.97 159.62C156.376 159.62 152.65 159.31 149.801 158.692C146.951 158.074 144.535 156.901 142.554 155.165C140.573 153.437 139.191 151.099 138.41 148.151C137.62 145.202 137.226 141.382 137.226 136.682C137.226 131.982 137.62 128.162 138.41 125.213C139.199 122.265 140.581 119.935 142.554 118.231C144.535 116.519 146.951 115.346 149.801 114.704ZM151.458 125.728C149.801 127.694 148.972 131.348 148.972 136.69C148.972 142.032 149.808 145.694 151.49 147.683C153.171 149.673 156.329 150.663 160.97 150.663C165.612 150.663 168.769 149.673 170.451 147.683C172.132 145.694 172.969 142.032 172.969 136.69C172.969 131.348 172.132 127.686 170.451 125.697C168.769 123.707 165.612 122.717 160.97 122.717C156.329 122.717 153.163 123.715 151.458 125.728Z" stroke="#231F20" stroke-miterlimit="10"/>
<path d="M227.925 159.112H197.226C192.719 159.112 190.461 156.83 190.461 152.256V114.252H201.947V147.128C201.947 148.238 202.168 149.015 202.618 149.466C203.068 149.918 203.841 150.14 204.947 150.14H227.925V159.112Z" stroke="#231F20" stroke-miterlimit="10"/>
<path d="M229.836 159.112L246.492 118.991C247.257 117.113 248.268 115.766 249.523 114.957C250.778 114.149 252.704 113.737 255.301 113.737C257.511 113.737 259.311 114.101 260.693 114.822C262.074 115.552 263.195 116.939 264.04 118.991L280.767 159.112H268.705L264.687 148.856H245.86L241.842 159.112H229.836ZM254.346 125.919L248.662 140.146H261.877L256.193 125.919C255.854 124.975 255.554 124.508 255.301 124.508C255.009 124.508 254.685 124.975 254.346 125.919Z" stroke="#231F20" stroke-miterlimit="10"/>
<path d="M283 159.112V121.171C283 116.558 285.258 114.252 289.765 114.252H313.636C318.065 114.252 321.159 115.472 322.927 117.906C324.696 120.339 325.572 124.04 325.572 128.994C325.572 139.29 322.193 144.441 315.428 144.441H312.239V144.758L326.472 159.112H312.365L302.285 147.445C302.111 147.231 301.772 146.859 301.259 146.328C300.746 145.797 300.367 145.377 300.106 145.075C299.854 144.774 299.554 144.394 299.214 143.918C298.875 143.451 298.63 142.975 298.48 142.508C298.33 142.04 298.259 141.572 298.259 141.097V140.074C298.259 138.537 298.788 137.482 299.854 136.904C300.919 136.325 302.577 136.04 304.835 136.04H308.6C310.645 136.04 312.026 135.525 312.744 134.502C313.471 133.48 313.826 131.768 313.826 129.374C313.826 127.068 313.423 125.467 312.61 124.571C311.805 123.676 310.313 123.224 308.142 123.224H297.486C296.38 123.224 295.607 123.446 295.157 123.898C294.707 124.349 294.486 125.126 294.486 126.236V159.112H283Z" stroke="#231F20" stroke-miterlimit="10"/>
<path d="M330.805 159.112V150.14H355.568C356.508 150.14 357.226 149.934 357.739 149.53C358.252 149.126 358.544 148.737 358.631 148.373C358.718 148.008 358.757 147.572 358.757 147.057C358.757 145.345 357.605 144.132 355.308 143.403L337.823 138.148C335.06 137.34 333.11 135.881 331.981 133.789C330.853 131.697 330.292 128.962 330.292 125.586C330.292 118.024 333.742 114.244 340.633 114.244H368.206V123.216H345.101C343.017 123.216 341.975 124.199 341.975 126.164C341.975 127.956 343.167 129.216 345.551 129.945L361.252 134.558C364.614 135.541 366.998 136.975 368.403 138.854C369.809 140.732 370.511 143.514 370.511 147.184C370.511 155.133 367.109 159.104 360.297 159.104H330.805V159.112Z" stroke="#231F20" stroke-miterlimit="10"/>
<path d="M418.505 114.252V159.112H407.02V140.399H387.428V159.112H375.942V114.252H387.428V131.427H407.02V114.252H418.505Z" stroke="#231F20" stroke-miterlimit="10"/>
<path d="M437.016 159.112H425.531V114.252H437.016V159.112Z" stroke="#231F20" stroke-miterlimit="10"/>
<path d="M455.519 159.112H444.034V121.171C444.034 116.558 446.292 114.252 450.799 114.252H474.543C476.967 114.252 478.988 114.6 480.606 115.306C482.224 116.011 483.456 117.081 484.308 118.508C485.161 119.943 485.753 121.52 486.092 123.248C486.432 124.983 486.605 127.044 486.605 129.43C486.605 134.431 485.745 138.235 484.024 140.835C482.303 143.443 479.138 144.743 474.543 144.743H455.519V159.112ZM455.519 135.786H468.607C470.944 135.786 472.578 135.303 473.494 134.344C474.409 133.385 474.867 131.752 474.867 129.438C474.867 127.171 474.409 125.57 473.494 124.635C472.578 123.691 470.952 123.224 468.607 123.224H458.527C457.422 123.224 456.648 123.446 456.198 123.898C455.748 124.349 455.527 125.126 455.527 126.236V135.786H455.519Z" stroke="#231F20" stroke-miterlimit="10"/>
<path d="M90.013 101.745L73.4755 79.6631L67.3736 87.9932L76.7593 101.745H90.013Z" fill="#231F20"/>
<path d="M89.5236 58.1998H76.262L67.3972 71.341L73.4755 79.6631L89.5236 58.1998Z" fill="#231F20"/>
<path d="M64.595 71.341L54.9961 58.1998H41.8056L57.8537 79.6631L41.2451 101.745H54.5067L64.5713 87.9933L70.6732 79.6631L64.595 71.341Z" fill="#EC1B35"/>
<path d="M5.13886 200.929L10.3488 204.258C10.5461 204.385 10.6645 204.504 10.704 204.607C10.7435 204.71 10.7671 204.892 10.7671 205.146V207.032C10.7671 207.191 10.7435 207.325 10.6961 207.428C10.6487 207.532 10.5382 207.524 10.3646 207.389L2.65232 202.364C2.45497 202.237 2.31288 202.102 2.21026 201.968C2.11554 201.833 2.06028 201.658 2.04449 201.452V200.66C2.04449 200.327 2.09975 200.089 2.20237 199.954C2.30499 199.82 2.45497 199.685 2.65232 199.558L10.3646 194.509C10.5382 194.382 10.6487 194.375 10.6961 194.486C10.7435 194.596 10.7671 194.739 10.7671 194.914V196.752C10.7671 196.974 10.7514 197.141 10.7119 197.244C10.6803 197.347 10.5698 197.466 10.3803 197.592L5.13886 200.929Z" fill="#EC1B35"/>
<path d="M244.574 226.665L239.364 223.336C239.166 223.209 239.048 223.09 239.008 222.987C238.969 222.884 238.945 222.702 238.945 222.448V220.562C238.945 220.403 238.969 220.269 239.016 220.165C239.064 220.062 239.174 220.07 239.348 220.205L247.06 225.23C247.257 225.357 247.4 225.492 247.502 225.626C247.597 225.761 247.652 225.936 247.668 226.142V226.934C247.668 227.267 247.613 227.505 247.51 227.64C247.407 227.774 247.257 227.909 247.06 228.036L239.348 233.085C239.174 233.211 239.064 233.219 239.016 233.108C238.969 232.997 238.945 232.855 238.945 232.68V230.842C238.945 230.62 238.961 230.453 239.001 230.35C239.032 230.247 239.143 230.128 239.332 230.001L244.574 226.665Z" fill="#EC1B35"/>
<path d="M235.251 216.496C235.298 216.337 235.362 216.226 235.433 216.171C235.511 216.115 235.63 216.084 235.804 216.084H237.185C237.438 216.084 237.532 216.226 237.461 216.512L232.062 236.612C232.03 236.754 231.975 236.857 231.912 236.913C231.849 236.968 231.738 237 231.572 237H230.12C230.017 237 229.938 236.976 229.875 236.913C229.82 236.857 229.812 236.738 229.86 236.564L235.251 216.496Z" fill="#EC1B35"/>
</g>
<defs>
<clipPath id="clip0_543_783">
<rect width="487" height="237" fill="white"/>
</clipPath>
</defs>
</svg>
